<svg width="24" height="19" viewBox="0 0 24 19" fill="none" xmlns="http://www.w3.org/2000/svg">
<path d="M6.63627 6.90826L3.27709 9.71213L6.63627 12.516C6.74986 12.6069 6.84416 12.7196 6.91363 12.8474C6.98309 12.9752 7.02632 13.1156 7.04078 13.2604C7.05524 13.4052 7.04063 13.5514 6.99783 13.6904C6.95502 13.8295 6.88487 13.9586 6.79149 14.0701C6.69812 14.1817 6.5834 14.2735 6.45407 14.3401C6.32473 14.4067 6.1834 14.4469 6.03835 14.4581C5.8933 14.4694 5.74746 14.4516 5.6094 14.4057C5.47133 14.3598 5.34381 14.2869 5.23433 14.191L0.864668 10.5497C0.742234 10.4471 0.643768 10.319 0.576207 10.1743C0.508646 10.0296 0.473633 9.87183 0.473633 9.71213C0.473633 9.55243 0.508646 9.39468 0.576207 9.24998C0.643768 9.10528 0.742234 8.97715 0.864668 8.87461L5.23433 5.23323C5.4573 5.05482 5.74126 4.97082 6.0254 4.9992C6.30954 5.02758 6.57128 5.16609 6.75455 5.38507C6.93783 5.60405 7.02808 5.88608 7.00597 6.17078C6.98386 6.45548 6.85115 6.7202 6.63627 6.90826ZM22.6584 8.87461L18.2887 5.23323C18.0657 5.05482 17.7818 4.97082 17.4976 4.9992C17.2135 5.02758 16.9518 5.16609 16.7685 5.38507C16.5852 5.60405 16.495 5.88608 16.5171 6.17078C16.5392 6.45548 16.6719 6.7202 16.8868 6.90826L20.2551 9.71213L16.8868 12.516C16.7758 12.6074 16.6841 12.7199 16.617 12.8471C16.55 12.9742 16.5089 13.1134 16.4962 13.2566C16.4835 13.3998 16.4994 13.5441 16.543 13.6811C16.5866 13.8181 16.6571 13.945 16.7502 14.0545C16.8535 14.1761 16.9818 14.2739 17.1263 14.3415C17.2708 14.409 17.4282 14.4447 17.5877 14.4459C17.8441 14.4458 18.0922 14.3556 18.2887 14.191L22.6584 10.5497C22.7808 10.4471 22.8793 10.319 22.9468 10.1743C23.0144 10.0296 23.0494 9.87183 23.0494 9.71213C23.0494 9.55243 23.0144 9.39468 22.9468 9.24998C22.8793 9.10528 22.7808 8.97715 22.6584 8.87461ZM15.0479 0.672388C14.775 0.575373 14.4748 0.589761 14.2124 0.712438C13.95 0.835114 13.7465 1.0562 13.6459 1.32784L7.81972 17.3499C7.7227 17.6229 7.73709 17.923 7.85977 18.1854C7.98244 18.4478 8.20353 18.6513 8.47517 18.7519C8.59483 18.7951 8.7212 18.8166 8.84841 18.8156C9.07301 18.816 9.29228 18.7472 9.47635 18.6185C9.66043 18.4898 9.80036 18.3075 9.8771 18.0964L15.7033 2.07432C15.8003 1.8014 15.7859 1.50125 15.6633 1.23886C15.5406 0.976467 15.3195 0.772955 15.0479 0.672388Z" fill="#EF911F"/>
</svg>
