<svg width="24" height="16" viewBox="0 0 24 16" fill="none" xmlns="http://www.w3.org/2000/svg">
<path d="M0.799805 0.533203H23.1998V15.4665H0.799805V0.533203ZM11.9998 4.26654C12.9899 4.26654 13.9395 4.65987 14.6397 5.36C15.3398 6.06014 15.7331 7.00973 15.7331 7.99987C15.7331 8.99001 15.3398 9.9396 14.6397 10.6397C13.9395 11.3399 12.9899 11.7332 11.9998 11.7332C11.0097 11.7332 10.0601 11.3399 9.35994 10.6397C8.6598 9.9396 8.26647 8.99001 8.26647 7.99987C8.26647 7.00973 8.6598 6.06014 9.35994 5.36C10.0601 4.65987 11.0097 4.26654 11.9998 4.26654ZM5.77758 3.02209C5.77758 3.68219 5.51536 4.31524 5.0486 4.782C4.58185 5.24876 3.94879 5.51098 3.28869 5.51098V10.4888C3.94879 10.4888 4.58185 10.751 5.0486 11.2177C5.51536 11.6845 5.77758 12.3176 5.77758 12.9776H18.222C18.222 12.3176 18.4842 11.6845 18.951 11.2177C19.4178 10.751 20.0508 10.4888 20.7109 10.4888V5.51098C20.0508 5.51098 19.4178 5.24876 18.951 4.782C18.4842 4.31524 18.222 3.68219 18.222 3.02209H5.77758Z" fill="url(#paint0_linear_42_1263)" fill-opacity="0.8"/>
<defs>
<linearGradient id="paint0_linear_42_1263" x1="-3.07712" y1="-0.328335" x2="16.525" y2="23.4536" gradientUnits="userSpaceOnUse">
<stop stop-color="#EF2DDC"/>
<stop offset="1" stop-color="#7443FF"/>
</linearGradient>
</defs>
</svg>
