<svg width="46" height="46" viewBox="0 0 46 46" fill="none" xmlns="http://www.w3.org/2000/svg">
<path fill-rule="evenodd" clip-rule="evenodd" d="M-0.000488281 44.2298C-0.000488281 43.7606 0.185913 43.3106 0.517708 42.9788C0.849503 42.647 1.29951 42.4606 1.76874 42.4606H44.2303C44.6995 42.4606 45.1495 42.647 45.4813 42.9788C45.8131 43.3106 45.9995 43.7606 45.9995 44.2298C45.9995 44.699 45.8131 45.149 45.4813 45.4808C45.1495 45.8126 44.6995 45.999 44.2303 45.999H1.76874C1.29951 45.999 0.849503 45.8126 0.517708 45.4808C0.185913 45.149 -0.000488281 44.699 -0.000488281 44.2298Z" fill="#2175D4"/>
<path d="M12.3851 21.2298H5.30819C4.33107 21.2298 3.53896 22.0219 3.53896 22.999V44.2298C3.53896 45.2069 4.33107 45.999 5.30819 45.999H12.3851C13.3622 45.999 14.1543 45.2069 14.1543 44.2298V22.999C14.1543 22.0219 13.3622 21.2298 12.3851 21.2298Z" fill="#2175D4"/>
<path d="M26.5385 -0.000976562H19.4615C18.4844 -0.000976562 17.6923 0.791135 17.6923 1.76825V44.2298C17.6923 45.2069 18.4844 45.999 19.4615 45.999H26.5385C27.5156 45.999 28.3077 45.2069 28.3077 44.2298V1.76825C28.3077 0.791135 27.5156 -0.000976562 26.5385 -0.000976562Z" fill="#2175D4"/>
<path d="M40.6918 10.6144H33.6149C32.6378 10.6144 31.8457 11.4065 31.8457 12.3836V44.2298C31.8457 45.2069 32.6378 45.999 33.6149 45.999H40.6918C41.6689 45.999 42.4611 45.2069 42.4611 44.2298V12.3836C42.4611 11.4065 41.6689 10.6144 40.6918 10.6144Z" fill="#2175D4"/>
</svg>
