<svg width="24" height="20" viewBox="0 0 24 20" fill="none" xmlns="http://www.w3.org/2000/svg">
<path d="M23.1998 3.70048C23.2 4.27438 23.059 4.83952 22.7893 5.34611C22.5196 5.8527 22.1295 6.2852 21.6533 6.60552C21.1771 6.92584 20.6295 7.12415 20.0586 7.18298C19.4877 7.24181 18.9111 7.15935 18.3796 6.94288L16.5848 9.63508C16.9261 9.97987 17.192 10.3918 17.3655 10.8449C17.5391 11.2979 17.6167 11.782 17.5932 12.2666C17.5697 12.7512 17.4458 13.2256 17.2292 13.6597C17.0126 14.0938 16.7082 14.4781 16.3352 14.7883C15.9622 15.0985 15.5287 15.3278 15.0624 15.4615C14.5961 15.5953 14.107 15.6307 13.6263 15.5654C13.1456 15.5001 12.6837 15.3356 12.2699 15.0823C11.8562 14.8291 11.4996 14.4925 11.2228 14.0941L7.7284 15.5921C7.77507 15.8217 7.79887 16.0578 7.79981 16.3005C7.79938 17.1371 7.49925 17.946 6.95382 18.5804C6.40838 19.2148 5.65373 19.6329 4.8266 19.7588C3.99947 19.8847 3.15459 19.7102 2.44507 19.2668C1.73554 18.8235 1.20831 18.1406 0.958917 17.342C0.709522 16.5434 0.754462 15.6818 1.08559 14.9135C1.41672 14.1451 2.01214 13.5208 2.76394 13.1537C3.51574 12.7865 4.37419 12.7008 5.18373 12.9121C5.99327 13.1234 6.70034 13.6177 7.17681 14.3055L10.6712 12.8075C10.5425 12.1862 10.5851 11.5415 10.7945 10.9426C11.0039 10.3436 11.3722 9.81281 11.86 9.407C12.3478 9.00118 12.9367 8.73561 13.5638 8.63867C14.1908 8.54174 14.8325 8.61709 15.42 8.85668L17.2148 6.16588C16.8099 5.75767 16.5119 5.25601 16.3469 4.70523C16.182 4.15445 16.1553 3.57153 16.2691 3.00797C16.383 2.44442 16.634 1.9176 16.9998 1.47407C17.3656 1.03054 17.8351 0.683972 18.3667 0.464988C18.8983 0.246003 19.4757 0.161352 20.0478 0.218515C20.6199 0.275678 21.1691 0.472895 21.6469 0.792734C22.1246 1.11257 22.5162 1.54519 22.7871 2.05233C23.0579 2.55948 23.1997 3.12554 23.1998 3.70048Z" fill="url(#paint0_linear_42_1276)" fill-opacity="0.8"/>
<defs>
<linearGradient id="paint0_linear_42_1276" x1="-3.07712" y1="-0.929454" x2="23.0489" y2="23.2237" gradientUnits="userSpaceOnUse">
<stop stop-color="#EF2DDC"/>
<stop offset="1" stop-color="#7443FF"/>
</linearGradient>
</defs>
</svg>
