<svg width="72" height="72" viewBox="0 0 72 72" fill="none" xmlns="http://www.w3.org/2000/svg">
<path d="M52.5383 40.4068H37.8633V32.1318H63.3174C63.4913 33.4856 63.5883 34.8696 63.5883 36.3068C63.5883 45.0686 60.4747 52.3498 55.1699 57.2556C50.5191 61.5538 44.1169 64.1318 36.3633 64.1318C25.2302 64.1318 15.6103 57.7242 10.9286 48.4083L10.9266 48.4044C8.97777 44.5543 7.86328 40.2354 7.86328 35.6318C7.86328 31.0283 8.97777 26.7094 10.9266 22.8593L10.9285 22.8554C15.6103 13.5395 25.2302 7.13184 36.3633 7.13184C43.4757 7.13184 49.4857 9.53496 54.2276 13.5212L47.7964 19.9524C44.5708 17.3383 40.6537 16.0068 36.3633 16.0068C27.8408 16.0068 20.6775 21.7457 18.1153 29.4325C17.4692 31.3708 17.0883 33.4559 17.0883 35.6318C17.0883 37.7921 17.439 39.8806 18.1182 41.84C20.683 49.5224 27.844 55.2568 36.3633 55.2568C40.6926 55.2568 44.4103 54.0783 47.3703 52.1049L47.3772 52.1003C50.8438 49.7617 53.2061 46.2994 54.0103 42.1953L54.3607 40.4068H52.5383Z" stroke="#686868" stroke-width="3"/>
</svg>
