<svg width="72" height="72" viewBox="0 0 72 72" fill="none" xmlns="http://www.w3.org/2000/svg">
<g clip-path="url(#clip0_3175_145)">
<path d="M56.1273 41.9319L70.4273 34.8319C70.9273 34.5319 71.2273 34.0319 71.2273 33.4319C71.2273 32.8319 70.8273 32.4319 70.2273 32.2319L47.0273 25.0319C46.3273 24.8319 45.5273 25.2319 45.3273 25.9319C45.1273 26.6319 45.5273 27.4319 46.2273 27.6319L66.1273 33.8319L53.2273 40.2319C52.8273 40.4319 52.5273 40.8319 52.4273 41.2319C52.3273 41.6319 52.5273 42.1319 52.8273 42.4319L67.8273 57.4319L57.6273 67.7319L42.6273 52.7319C42.3273 52.4319 41.8273 52.2319 41.4273 52.3319C41.0273 52.4319 40.6273 52.7319 40.4273 53.1319L34.0273 66.0319L19.5273 19.4319L35.6273 24.4319C36.3273 24.6319 37.1273 24.2319 37.3273 23.5319C37.5273 22.8319 37.1273 22.0319 36.4273 21.8319L17.8273 16.0319C17.3273 15.8319 16.8273 16.0319 16.4273 16.3319C16.0273 16.7319 15.9273 17.2319 16.1273 17.7319L32.3273 70.1319C32.5273 70.6319 33.0273 71.0319 33.5273 71.1319H33.6273C34.1273 71.1319 34.6273 70.8319 34.8273 70.3319L41.9273 56.0319L56.5273 70.6319C57.0273 71.1319 57.9273 71.1319 58.5273 70.6319L70.6273 58.5319C71.1273 58.0319 71.1273 57.1319 70.6273 56.5319L56.1273 41.9319Z" fill="#686868"/>
<path d="M7.22656 5.13184C6.72656 4.63184 5.82656 4.63184 5.22656 5.13184C4.72656 5.73184 4.72656 6.63184 5.22656 7.13184L8.72656 10.6318C9.02656 10.9318 9.32656 11.0318 9.72656 11.0318C10.1266 11.0318 10.4266 10.9318 10.7266 10.6318C11.2266 10.1318 11.2266 9.23184 10.7266 8.63184L7.22656 5.13184Z" fill="#686868"/>
<path d="M25.0273 11.0318C25.4273 11.0318 25.7273 10.9318 26.0273 10.6318L29.5273 7.13184C30.0273 6.63184 30.0273 5.73184 29.5273 5.13184C29.0273 4.63184 28.1273 4.63184 27.5273 5.13184L24.0273 8.63184C23.5273 9.13184 23.5273 10.0318 24.0273 10.6318C24.3273 10.9318 24.6273 11.0318 25.0273 11.0318Z" fill="#686868"/>
<path d="M8.82656 23.9319L5.22656 27.4319C4.72656 27.9319 4.72656 28.8319 5.22656 29.4319C5.52656 29.7319 5.82656 29.8319 6.22656 29.8319C6.62656 29.8319 6.92656 29.7319 7.22656 29.4319L10.7266 25.9319C11.2266 25.4319 11.2266 24.5319 10.7266 23.9319C10.2266 23.3319 9.32656 23.3319 8.82656 23.9319Z" fill="#686868"/>
<path d="M17.4273 7.93184C18.2273 7.93184 18.8273 7.33184 18.8273 6.53184V1.53184C18.8273 0.731836 18.2273 0.131836 17.4273 0.131836C16.6273 0.131836 16.0273 0.731836 16.0273 1.53184V6.53184C16.0273 7.33184 16.6273 7.93184 17.4273 7.93184Z" fill="#686868"/>
<path d="M8.02656 17.3319C8.02656 16.5319 7.42656 15.9319 6.62656 15.9319H1.62656C0.826562 15.9319 0.226562 16.5319 0.226562 17.3319C0.226562 18.1319 0.826562 18.7319 1.62656 18.7319H6.62656C7.42656 18.7319 8.02656 18.0319 8.02656 17.3319Z" fill="#686868"/>
<path d="M40.0259 25.2317C40.2259 25.7317 40.8259 26.1317 41.4259 26.1317C42.0259 26.1317 42.5259 25.6317 42.7259 25.1317C42.9259 24.5317 42.6259 23.9317 42.1259 23.6317C41.6259 23.3317 41.0259 23.3317 40.5259 23.6317C40.0259 23.9317 39.7259 24.6317 40.0259 25.2317Z" fill="#686868"/>
</g>
<defs>
<clipPath id="clip0_3175_145">
<rect width="71" height="71" fill="white" transform="translate(0.226562 0.131836)"/>
</clipPath>
</defs>
</svg>
