<svg width="80" height="81" viewBox="0 0 80 81" fill="none" xmlns="http://www.w3.org/2000/svg">
<path d="M39.9969 80.004C61.9226 80.004 79.6969 62.2297 79.6969 40.304C79.6969 18.3783 61.9226 0.604004 39.9969 0.604004C18.0712 0.604004 0.296875 18.3783 0.296875 40.304C0.296875 62.2297 18.0712 80.004 39.9969 80.004Z" fill="#076990"/>
<path fill-rule="evenodd" clip-rule="evenodd" d="M45.4643 32.0914L24.4336 53.2539L34.4705 63.3537L55.5013 42.1912L45.4643 32.0914ZM22.582 53.2539L34.4705 65.2169L57.3528 42.1912L45.4643 30.2282L22.582 53.2539Z" fill="white"/>
<path fill-rule="evenodd" clip-rule="evenodd" d="M42.2528 34.6424L43.1786 33.7108C38.4457 28.9482 30.7724 28.948 26.0398 33.7102C21.3072 38.4724 21.3075 46.1938 26.0404 50.9564L26.9662 50.0248C22.7445 45.7767 22.7444 38.8895 26.9656 34.6418C31.1868 30.3941 38.0311 30.3943 42.2528 34.6424Z" fill="white"/>
<path fill-rule="evenodd" clip-rule="evenodd" d="M38.923 62.0583L37.9972 62.9899C42.7301 67.7524 50.4034 67.7527 55.136 62.9905C59.8686 58.2282 59.8683 50.5068 55.1354 45.7443L54.2096 46.6759C58.4313 50.924 58.4314 57.8112 54.2102 62.0589C49.989 66.3066 43.1446 66.3064 38.923 62.0583Z" fill="white"/>
<path d="M29.8105 40.3424C30.6166 41.1536 30.6166 42.4688 29.8105 43.2799C29.0044 44.0911 27.6974 44.091 26.8913 43.2798C26.0852 42.4686 26.0851 41.1535 26.8912 40.3423C27.6973 39.5312 29.0043 39.5312 29.8105 40.3424Z" fill="white"/>
<path d="M35.5546 34.5626C36.3607 35.3738 36.3608 36.689 35.5547 37.5001C34.7486 38.3113 33.4416 38.3113 32.6354 37.5001C31.8293 36.6889 31.8293 35.3737 32.6354 34.5625C33.4415 33.7514 34.7484 33.7514 35.5546 34.5626Z" fill="white"/>
<path d="M16.8907 51.9347C17.402 52.4492 17.402 53.2834 16.8907 53.7979C16.3795 54.3124 15.5504 54.3124 15.0391 53.7979C14.5278 53.2833 14.5278 52.4491 15.0391 51.9346C15.5504 51.4201 16.3794 51.4201 16.8907 51.9347Z" fill="white"/>
<path fill-rule="evenodd" clip-rule="evenodd" d="M22.982 60.9004L26.584 57.2759L27.5098 58.2075L23.9078 61.832L22.982 60.9004Z" fill="white"/>
<path fill-rule="evenodd" clip-rule="evenodd" d="M18.7883 54.8199L24.8184 60.8877L23.8926 61.8193L17.8625 55.7515L18.7883 54.8199Z" fill="white"/>
<path d="M20.9512 26.7267C21.4626 27.2412 21.4626 28.0754 20.9513 28.5899C20.44 29.1044 19.611 29.1044 19.0997 28.5898C18.5883 28.0753 18.5883 27.2411 19.0996 26.7266C19.6109 26.2121 20.4399 26.2121 20.9512 26.7267Z" fill="white"/>
<path fill-rule="evenodd" clip-rule="evenodd" d="M23.0757 29.8062L27.043 33.7984L26.1172 34.73L22.1499 30.7378L23.0757 29.8062Z" fill="white"/>
<path d="M60.0566 40.5097C59.5452 39.9951 59.5452 39.1609 60.0565 38.6464C60.5678 38.1319 61.3968 38.132 61.9081 38.6465C62.4195 39.161 62.4195 39.9952 61.9082 40.5097C61.3969 41.0242 60.5679 41.0242 60.0566 40.5097Z" fill="white"/>
<path fill-rule="evenodd" clip-rule="evenodd" d="M53.9652 31.5439L50.3633 35.1684L49.4375 34.2368L53.0394 30.6123L53.9652 31.5439Z" fill="white"/>
<path fill-rule="evenodd" clip-rule="evenodd" d="M58.159 37.6244L52.1289 31.5566L53.0547 30.625L59.0848 36.6929L58.159 37.6244Z" fill="white"/>
<path d="M34.5318 7.56738L39.6541 16.836L44.8228 7.56738H46.4722L40.3742 18.1684V24.5851H38.9455V18.1684L32.8359 7.56738H34.5318Z" fill="white"/>
</svg>
