<svg width="90" height="80" viewBox="0 0 90 80" fill="none" xmlns="http://www.w3.org/2000/svg">
<path d="M44.7039 79.7755C66.6296 79.7755 84.4039 62.0012 84.4039 40.0755C84.4039 18.1498 66.6296 0.375488 44.7039 0.375488C22.7782 0.375488 5.00391 18.1498 5.00391 40.0755C5.00391 62.0012 22.7782 79.7755 44.7039 79.7755Z" fill="#076990"/>
<path d="M50.9609 15.7715V21.8418C50.7656 22.1309 50.4297 22.4512 49.9531 22.8027C49.4766 23.1543 48.8359 23.4629 48.0312 23.7285C47.2266 23.9863 46.2266 24.1152 45.0312 24.1152C44.0312 24.1152 43.1133 23.9355 42.2773 23.5762C41.4414 23.2168 40.7148 22.6973 40.0977 22.0176C39.4883 21.3301 39.0156 20.5059 38.6797 19.5449C38.3516 18.584 38.1875 17.5059 38.1875 16.3105V14.248C38.1875 13.0762 38.3398 12.0215 38.6445 11.084C38.9492 10.1387 39.3906 9.33008 39.9688 8.6582C40.5469 7.98633 41.2422 7.47461 42.0547 7.12305C42.875 6.76367 43.793 6.58398 44.8086 6.58398C46.0742 6.58398 47.1406 6.80273 48.0078 7.24023C48.875 7.67773 49.5508 8.2793 50.0352 9.04492C50.5273 9.80273 50.832 10.6621 50.9492 11.623H49.5078C49.3984 10.9434 49.1719 10.3184 48.8281 9.74805C48.4844 9.16992 47.9844 8.70508 47.3281 8.35352C46.6797 8.00195 45.8398 7.82617 44.8086 7.82617C43.9805 7.82617 43.2422 7.97852 42.5938 8.2832C41.9531 8.58789 41.4141 9.02148 40.9766 9.58398C40.5391 10.1465 40.207 10.8223 39.9805 11.6113C39.7539 12.3926 39.6406 13.2637 39.6406 14.2246V16.3105C39.6406 17.3105 39.7656 18.2129 40.0156 19.0176C40.2734 19.8223 40.6406 20.5137 41.1172 21.0918C41.5938 21.6699 42.1641 22.1152 42.8281 22.4277C43.4922 22.7324 44.2305 22.8848 45.043 22.8848C45.9102 22.8848 46.6484 22.8027 47.2578 22.6387C47.8672 22.4746 48.3555 22.2793 48.7227 22.0527C49.0977 21.8184 49.3672 21.5996 49.5312 21.3965V17.002H44.9492V15.7715H50.9609Z" fill="white"/>
<path fill-rule="evenodd" clip-rule="evenodd" d="M57.9342 52.9055L36.7188 31.6901L26.5937 41.8152L47.8091 63.0306L57.9342 52.9055ZM36.7188 29.8223L24.7258 41.8152L47.8091 64.8984L59.802 52.9055L36.7188 29.8223Z" fill="white"/>
<path fill-rule="evenodd" clip-rule="evenodd" d="M55.3778 49.6683L56.3117 50.6022C61.0862 45.8277 61.0865 38.087 56.3123 33.3128C51.5382 28.5387 43.7975 28.5389 39.023 33.3134L39.9569 34.2474C44.2157 29.9886 51.1201 29.9884 55.3784 34.2467C59.6367 38.505 59.6366 45.4095 55.3778 49.6683Z" fill="white"/>
<path fill-rule="evenodd" clip-rule="evenodd" d="M27.8917 46.3106L26.9578 45.3767C22.1833 50.1512 22.183 57.8918 26.9572 62.666C31.7313 67.4401 39.4721 67.4398 44.2465 62.6654L43.3126 61.7314C39.0539 65.9902 32.1494 65.9903 27.8911 61.7321C23.6328 57.4738 23.633 50.5694 27.8917 46.3106Z" fill="white"/>
<path d="M49.6598 37.1126C48.8466 37.9258 47.5281 37.9259 46.7149 37.1127C45.9017 36.2995 45.9018 34.981 46.715 34.1678C47.5282 33.3546 48.8467 33.3545 49.6599 34.1677C50.4731 34.9809 50.473 36.2994 49.6598 37.1126Z" fill="white"/>
<path d="M55.4528 42.907C54.6396 43.7203 53.3211 43.7203 52.5079 42.9071C51.6947 42.0939 51.6948 40.7755 52.508 39.9622C53.3212 39.149 54.6397 39.149 55.4529 39.9621C56.2661 40.7753 56.266 42.0938 55.4528 42.907Z" fill="white"/>
<path d="M38.0432 24.0786C37.5274 24.5944 36.6911 24.5945 36.1754 24.0787C35.6596 23.5629 35.6596 22.7266 36.1754 22.2108C36.6912 21.695 37.5275 21.695 38.0433 22.2108C38.5591 22.7265 38.559 23.5628 38.0432 24.0786Z" fill="white"/>
<path fill-rule="evenodd" clip-rule="evenodd" d="M29.0542 30.2211L32.6878 33.8547L31.7539 34.7886L28.1203 31.155L29.0542 30.2211Z" fill="white"/>
<path fill-rule="evenodd" clip-rule="evenodd" d="M35.1498 25.9915L29.0667 32.0745L28.1328 31.1406L34.2159 25.0576L35.1498 25.9915Z" fill="white"/>
<path d="M63.3128 28.1807C62.7969 28.6965 61.9607 28.6965 61.4449 28.1807C60.9291 27.6649 60.9291 26.8287 61.445 26.3129C61.9608 25.7971 62.797 25.797 63.3128 26.3128C63.8286 26.8286 63.8286 27.6649 63.3128 28.1807Z" fill="white"/>
<path fill-rule="evenodd" clip-rule="evenodd" d="M60.2251 30.3249L56.223 34.327L55.2891 33.3931L59.2912 29.3909L60.2251 30.3249Z" fill="white"/>
<path d="M49.4919 67.6338C50.0077 67.118 50.844 67.118 51.3598 67.6337C51.8756 68.1495 51.8756 68.9858 51.3597 69.5016C50.8439 70.0174 50.0077 70.0174 49.4919 69.5016C48.9761 68.9859 48.9761 68.1496 49.4919 67.6338Z" fill="white"/>
<path fill-rule="evenodd" clip-rule="evenodd" d="M58.4809 61.4913L54.8473 57.8577L55.7812 56.9238L59.4148 60.5574L58.4809 61.4913Z" fill="white"/>
<path fill-rule="evenodd" clip-rule="evenodd" d="M52.3854 65.7209L58.4684 59.6379L59.4023 60.5718L53.3193 66.6548L52.3854 65.7209Z" fill="white"/>
</svg>
