<svg width="113" height="40" viewBox="0 0 113 40" fill="none" xmlns="http://www.w3.org/2000/svg">
<g clip-path="url(#clip0_3253_24520)">
<path d="M46.8848 5.33594C48.4991 5.33594 49.5519 6.24822 49.973 7.4412C50.4643 8.70436 50.3239 10.178 49.0606 11.0903C50.5345 11.7219 51.0258 13.0552 51.0258 14.2482C51.0258 16.143 49.7625 18.1079 47.3059 18.1079H41.4805V5.33594H46.8848ZM43.3755 10.4587H46.8146C48.85 10.4587 48.85 7.09032 46.8848 7.09032H43.3755V10.4587ZM43.3755 16.3535H47.3059C48.5693 16.3535 49.201 15.3008 49.201 14.3184C49.201 13.3359 48.5693 12.2833 47.3059 12.2833H43.3755V16.3535Z" fill="#3D88C8"/>
<path d="M54.6764 7.23067C55.7994 6.03769 57.4137 5.33594 59.1683 5.33594C60.923 5.33594 62.5373 6.03769 63.6603 7.23067C64.7832 8.42366 65.4851 9.96752 65.4851 11.7219C65.4851 13.4763 64.7832 15.0903 63.6603 16.2131C62.4671 17.4061 60.923 18.1079 59.1683 18.1079C57.4137 18.1079 55.7994 17.4061 54.6764 16.2131C53.5534 15.0201 52.8516 13.4763 52.8516 11.7219C52.8516 9.96752 53.5534 8.42366 54.6764 7.23067ZM62.4671 8.49383C61.6249 7.65173 60.5019 7.1605 59.2385 7.1605C57.9752 7.1605 56.8522 7.65173 56.0099 8.49383C55.1677 9.33594 54.6764 10.4587 54.6764 11.7219C54.6764 12.9851 55.1677 14.1079 56.0099 14.95C56.8522 15.7921 57.9752 16.2833 59.2385 16.2833C60.5019 16.2833 61.6249 15.7921 62.4671 14.95C63.3093 14.1079 63.8006 12.9851 63.8006 11.7219C63.7304 10.4587 63.2391 9.33594 62.4671 8.49383Z" fill="#3D88C8"/>
<path d="M71.1688 18.178V7.09032H67.3086V5.33594H76.9241V7.09032H72.9937V18.178H71.1688Z" fill="#3D88C8"/>
<path d="M43.4459 35.2991H41.6211V22.457H49.2714V24.2816H43.4459V28.1412H48.5695V29.8956H43.4459V35.2991Z" fill="#111111"/>
<path d="M58.606 32.0711H53.4122L52.1488 35.2991H50.1836L55.3072 22.457H56.6407L61.7643 35.2991H59.7991L58.606 32.0711ZM54.114 30.3167H57.9743L56.0091 25.264L54.114 30.3167Z" fill="#111111"/>
<path d="M76.6434 35.2993H74.6782L73.3446 34.1063C70.5372 35.9309 66.8173 35.58 64.8521 33.4045C63.7291 32.2116 62.957 30.6677 62.957 28.9133C62.957 27.1589 63.6589 25.5449 64.8521 24.4221C65.975 23.2291 67.5893 22.5273 69.344 22.5273C71.0986 22.5273 72.7129 23.2291 73.8359 24.4221C74.9589 25.6151 75.7309 27.1589 75.7309 28.9133C75.7309 30.387 75.2396 31.7203 74.3974 32.8431L76.5732 34.9484V35.2993H76.6434ZM68.7825 29.7554H70.9583L73.0639 31.7203C73.6254 30.9484 73.9061 29.9659 73.9061 28.9133C73.9061 27.6502 73.3446 26.5273 72.5726 25.6852C71.7303 24.8431 70.6073 24.3519 69.344 24.3519C68.0806 24.3519 66.9577 24.8431 66.1154 25.6852C65.3434 26.5273 64.7819 27.6502 64.7819 28.9133C64.7819 30.1765 65.3434 31.3694 66.1154 32.1414C67.6595 33.6852 69.9757 33.9659 71.8707 32.8431L68.7123 30.0361V29.7554H68.7825ZM68.7825 30.0361V29.7554V30.0361Z" fill="#111111"/>
<path d="M81.4149 35.2991V24.2114H77.5547V22.457H87.1702V24.2114H83.31V35.2991H81.4149Z" fill="#111111"/>
<path d="M90.5397 24.3518C91.6627 23.1588 93.2769 22.457 95.0316 22.457C96.7863 22.457 98.4006 23.1588 99.5235 24.3518C100.647 25.5448 101.348 27.0886 101.348 28.843C101.348 30.5974 100.647 32.2114 99.5235 33.3342C98.3304 34.5272 96.7863 35.229 95.0316 35.229C93.2769 35.229 91.6627 34.5272 90.5397 33.3342C89.4167 32.1412 88.7148 30.5974 88.7148 28.843C88.7148 27.1588 89.4167 25.5448 90.5397 24.3518ZM98.2602 25.6851C97.4179 24.843 96.295 24.3518 95.0316 24.3518C93.7683 24.3518 92.6453 24.843 91.803 25.6851C90.9608 26.5272 90.4695 27.65 90.4695 28.9132C90.4695 30.1763 90.9608 31.2991 91.803 32.1412C92.6453 32.9833 93.7683 33.4746 95.0316 33.4746C96.295 33.4746 97.4179 32.9833 98.2602 32.1412C99.1024 31.2991 99.5937 30.1763 99.5937 28.9132C99.5937 27.65 99.1024 26.457 98.2602 25.6851Z" fill="#111111"/>
<path d="M106.05 28.7728H108.226C109.77 28.7728 110.542 27.65 110.542 26.5272C110.542 25.4044 109.77 24.2816 108.226 24.2816H105.348V35.229H103.523V22.457H108.226C111.033 22.457 112.437 24.4921 112.437 26.5272C112.437 28.3518 111.314 30.036 109.138 30.457L113.209 35.2991H110.823L106.12 29.6851V28.7728H106.05Z" fill="#111111"/>
<path d="M26.459 24.4219C23.0901 28.4921 19.4404 32.9131 17.054 35.3692C16.9839 35.3692 16.9839 35.2991 16.9137 35.2289C15.7205 34.1763 14.2466 32.7728 12.7025 31.1587L10.1758 33.685C13.3342 36.9833 16.282 39.4394 16.9137 39.9306C16.9839 40.0008 17.054 40.0008 17.054 40.0008C17.054 40.0008 25.2658 31.0184 29.0559 26.9482L26.459 24.4219Z" fill="#4EB594"/>
<path d="M16.9148 7.29688L6.45703 11.3671C6.45703 11.3671 7.36945 18.3144 9.6856 22.946C11.721 27.0162 16.4235 31.6478 16.9148 31.9285C17.4061 31.6478 22.3191 26.7355 24.3545 22.6653C26.6707 18.0337 27.3726 11.3671 27.3726 11.3671L16.9148 7.29688Z" fill="#3D88C8"/>
<path d="M33.6886 7.15803L16.9141 0.0703125L0.139531 7.15803C0.139531 7.15803 -1.05364 16.9124 4.21034 25.965C5.26313 27.7194 6.52649 29.4738 7.93021 31.0879L10.4569 28.5615C9.26375 27.158 8.14077 25.6142 7.29854 24.1405C4.28052 19.0879 3.64885 13.3335 3.57866 10.1054C5.05257 9.26329 15.6507 4.98259 16.9141 4.49137C18.1072 4.98259 28.7756 9.26329 30.2495 10.1054C30.1793 12.7019 29.7582 16.9124 28.0737 21.1229L30.811 23.8598C34.7414 15.4387 33.6886 7.15803 33.6886 7.15803Z" fill="#3D88C8"/>
<path d="M29.0565 27.0184L26.4596 24.4219C23.0907 28.4921 19.441 32.9131 17.0546 35.3692C16.9844 35.3692 17.0546 40.071 17.0546 40.071C17.0546 40.071 25.1962 31.0885 29.0565 27.0184Z" fill="#029E81"/>
<path d="M28.0737 21.1229L30.811 23.8598C34.7414 15.4387 33.6886 7.15803 33.6886 7.15803L16.9141 0.0703125V4.49137C18.1072 4.98259 28.7756 9.2633 30.2495 10.1054C30.1793 12.7019 29.7582 16.9124 28.0737 21.1229Z" fill="#057BAA"/>
<path d="M27.3718 11.3671C27.3718 11.3671 26.67 18.0337 24.3538 22.6653C22.3184 26.7355 17.4054 31.6478 16.9141 31.9285V7.29688L27.3718 11.3671Z" fill="#057BAA"/>
</g>
<defs>
<clipPath id="clip0_3253_24520">
<rect width="113" height="40" fill="white"/>
</clipPath>
</defs>
</svg>
