<svg width="103" height="108" viewBox="0 0 103 108" fill="none" xmlns="http://www.w3.org/2000/svg">
<circle cx="53" cy="50" r="50" fill="#FAF5FE"/>
<circle cx="53" cy="50" r="49" stroke="url(#paint0_linear_42_1336)" stroke-opacity="0.8" stroke-width="2"/>
<path d="M53 26.8828C50.8906 26.8828 49.1914 28.5771 49.1914 30.6914C49.1914 32.8008 50.8906 34.5 53 34.5C55.1094 34.5 56.8086 32.8008 56.8086 30.6914C56.8086 28.5771 55.1094 26.8828 53 26.8828ZM48.3125 35.5742C46.2031 35.5742 44.5039 37.2734 44.5039 39.3828C44.5039 41.4922 46.2031 43.1914 48.3125 43.1914C50.4219 43.1914 52.1211 41.4922 52.1211 39.3828C52.1211 37.2734 50.4219 35.5742 48.3125 35.5742ZM57.6875 35.5742C55.5781 35.5742 53.8789 37.2734 53.8789 39.3828C53.8789 41.4922 55.5781 43.1914 57.6875 43.1914C59.7969 43.1914 61.4961 41.4922 61.4961 39.3828C61.4961 37.2734 59.7969 35.5742 57.6875 35.5742ZM43.625 44.3633C41.5156 44.3633 39.8164 46.0625 39.8164 48.1719C39.8164 50.2812 41.5156 51.9805 43.625 51.9805C45.7344 51.9805 47.4336 50.2812 47.4336 48.1719C47.4336 46.0625 45.7344 44.3633 43.625 44.3633ZM53 44.3633C50.8906 44.3633 49.1914 46.0625 49.1914 48.1719C49.1914 50.2812 50.8906 51.9805 53 51.9805C55.1094 51.9805 56.8086 50.2812 56.8086 48.1719C56.8086 46.0625 55.1094 44.3633 53 44.3633ZM62.375 44.3633C60.2656 44.3633 58.5664 46.0625 58.5664 48.1719C58.5664 50.2812 60.2656 51.9805 62.375 51.9805C64.4844 51.9805 66.1836 50.2812 66.1836 48.1719C66.1836 46.0625 64.4844 44.3633 62.375 44.3633ZM38.9375 53.0938C36.8232 53.0938 35.1289 54.793 35.1289 56.9023C35.1289 59.0117 36.8232 60.7109 38.9375 60.7109C41.0469 60.7109 42.7461 59.0117 42.7461 56.9023C42.7461 54.793 41.0469 53.0938 38.9375 53.0938ZM48.3125 53.0938C46.2031 53.0938 44.5039 54.793 44.5039 56.9023C44.5039 59.0117 46.2031 60.7109 48.3125 60.7109C50.4219 60.7109 52.1211 59.0117 52.1211 56.9023C52.1211 54.793 50.4219 53.0938 48.3125 53.0938ZM57.6875 53.0938C55.5781 53.0938 53.8789 54.793 53.8789 56.9023C53.8789 59.0117 55.5781 60.7109 57.6875 60.7109C59.7969 60.7109 61.4961 59.0117 61.4961 56.9023C61.4961 54.793 59.7969 53.0938 57.6875 53.0938ZM67.0625 53.0938C64.9531 53.0938 63.2539 54.793 63.2539 56.9023C63.2539 59.0117 64.9531 60.7109 67.0625 60.7109C69.1719 60.7109 70.8711 59.0117 70.8711 56.9023C70.8711 54.793 69.1719 53.0938 67.0625 53.0938ZM34.25 61.9414C32.1357 61.9414 30.4414 63.6406 30.4414 65.75C30.4414 67.8594 32.1357 69.5586 34.25 69.5586C36.3643 69.5586 38.0586 67.8594 38.0586 65.75C38.0586 63.6406 36.3643 61.9414 34.25 61.9414ZM43.625 61.9414C41.5156 61.9414 39.8164 63.6406 39.8164 65.75C39.8164 67.8594 41.5156 69.5586 43.625 69.5586C45.7344 69.5586 47.4336 67.8594 47.4336 65.75C47.4336 63.6406 45.7344 61.9414 43.625 61.9414ZM53 61.9414C50.8906 61.9414 49.1914 63.6406 49.1914 65.75C49.1914 67.8594 50.8906 69.5586 53 69.5586C55.1094 69.5586 56.8086 67.8594 56.8086 65.75C56.8086 63.6406 55.1094 61.9414 53 61.9414ZM62.375 61.9414C60.2656 61.9414 58.5664 63.6406 58.5664 65.75C58.5664 67.8594 60.2656 69.5586 62.375 69.5586C64.4844 69.5586 66.1836 67.8594 66.1836 65.75C66.1836 63.6406 64.4844 61.9414 62.375 61.9414ZM71.75 61.9414C69.6406 61.9414 67.9414 63.6406 67.9414 65.75C67.9414 67.8594 69.6406 69.5586 71.75 69.5586C73.8594 69.5586 75.5586 67.8594 75.5586 65.75C75.5586 63.6406 73.8594 61.9414 71.75 61.9414Z" fill="url(#paint1_linear_42_1336)" fill-opacity="0.8"/>
<rect y="70" width="38" height="38" rx="19" fill="#FAF5FE"/>
<rect x="1" y="71" width="36" height="36" rx="18" stroke="url(#paint2_linear_42_1336)" stroke-opacity="0.8" stroke-width="2"/>
<mask id="path-6-inside-1_42_1336" fill="white">
<path d="M23.9219 94.125V96H14.3906V94.3887L19.0195 89.3398C19.5273 88.7669 19.9277 88.2721 20.2207 87.8555C20.5137 87.4388 20.7188 87.0645 20.8359 86.7324C20.9596 86.3939 21.0215 86.0651 21.0215 85.7461C21.0215 85.2969 20.9368 84.903 20.7676 84.5645C20.6048 84.2194 20.3639 83.9492 20.0449 83.7539C19.7259 83.5521 19.3385 83.4512 18.8828 83.4512C18.3555 83.4512 17.9128 83.5651 17.5547 83.793C17.1966 84.0208 16.9264 84.3366 16.7441 84.7402C16.5618 85.1374 16.4707 85.5931 16.4707 86.1074H14.1172C14.1172 85.2806 14.306 84.5254 14.6836 83.8418C15.0612 83.1517 15.6081 82.6048 16.3242 82.2012C17.0404 81.791 17.903 81.5859 18.9121 81.5859C19.8626 81.5859 20.6699 81.7454 21.334 82.0645C21.998 82.3835 22.5026 82.8359 22.8477 83.4219C23.1992 84.0078 23.375 84.7012 23.375 85.502C23.375 85.9447 23.3034 86.3841 23.1602 86.8203C23.0169 87.2565 22.8118 87.6927 22.5449 88.1289C22.2845 88.5586 21.9753 88.9915 21.6172 89.4277C21.2591 89.8574 20.8652 90.2936 20.4355 90.7363L17.3594 94.125H23.9219Z"/>
</mask>
<path d="M23.9219 94.125V96H14.3906V94.3887L19.0195 89.3398C19.5273 88.7669 19.9277 88.2721 20.2207 87.8555C20.5137 87.4388 20.7188 87.0645 20.8359 86.7324C20.9596 86.3939 21.0215 86.0651 21.0215 85.7461C21.0215 85.2969 20.9368 84.903 20.7676 84.5645C20.6048 84.2194 20.3639 83.9492 20.0449 83.7539C19.7259 83.5521 19.3385 83.4512 18.8828 83.4512C18.3555 83.4512 17.9128 83.5651 17.5547 83.793C17.1966 84.0208 16.9264 84.3366 16.7441 84.7402C16.5618 85.1374 16.4707 85.5931 16.4707 86.1074H14.1172C14.1172 85.2806 14.306 84.5254 14.6836 83.8418C15.0612 83.1517 15.6081 82.6048 16.3242 82.2012C17.0404 81.791 17.903 81.5859 18.9121 81.5859C19.8626 81.5859 20.6699 81.7454 21.334 82.0645C21.998 82.3835 22.5026 82.8359 22.8477 83.4219C23.1992 84.0078 23.375 84.7012 23.375 85.502C23.375 85.9447 23.3034 86.3841 23.1602 86.8203C23.0169 87.2565 22.8118 87.6927 22.5449 88.1289C22.2845 88.5586 21.9753 88.9915 21.6172 89.4277C21.2591 89.8574 20.8652 90.2936 20.4355 90.7363L17.3594 94.125H23.9219Z" fill="#FAF5FE"/>
<path d="M23.9219 94.125H25.9219V92.125H23.9219V94.125ZM23.9219 96V98H25.9219V96H23.9219ZM14.3906 96H12.3906V98H14.3906V96ZM14.3906 94.3887L12.9164 93.0371L12.3906 93.6106V94.3887H14.3906ZM19.0195 89.3398L20.4937 90.6914L20.5051 90.679L20.5162 90.6665L19.0195 89.3398ZM20.8359 86.7324L18.9574 86.046L18.9536 86.0564L18.95 86.0668L20.8359 86.7324ZM20.7676 84.5645L18.9587 85.4177L18.9685 85.4384L18.9787 85.4589L20.7676 84.5645ZM20.0449 83.7539L18.9756 85.4441L18.9881 85.4519L19.0006 85.4596L20.0449 83.7539ZM16.7441 84.7402L18.5618 85.5746L18.5669 85.5634L16.7441 84.7402ZM16.4707 86.1074V88.1074H18.4707V86.1074H16.4707ZM14.1172 86.1074H12.1172V88.1074H14.1172V86.1074ZM14.6836 83.8418L16.4343 84.8088L16.4381 84.8018L14.6836 83.8418ZM16.3242 82.2012L17.3063 83.9435L17.3182 83.9367L16.3242 82.2012ZM22.8477 83.4219L21.1243 84.4368L21.1284 84.4438L21.1327 84.4509L22.8477 83.4219ZM22.5449 88.1289L20.839 87.085L20.8345 87.0923L22.5449 88.1289ZM21.6172 89.4277L23.1536 90.7081L23.1584 90.7024L23.163 90.6967L21.6172 89.4277ZM20.4355 90.7363L19.0004 89.3434L18.9771 89.3673L18.9547 89.392L20.4355 90.7363ZM17.3594 94.125L15.8785 92.7807L12.8427 96.125H17.3594V94.125ZM21.9219 94.125V96H25.9219V94.125H21.9219ZM23.9219 94H14.3906V98H23.9219V94ZM16.3906 96V94.3887H12.3906V96H16.3906ZM15.8648 95.7402L20.4937 90.6914L17.5453 87.9883L12.9164 93.0371L15.8648 95.7402ZM20.5162 90.6665C21.0517 90.0623 21.5051 89.506 21.8568 89.0058L18.5846 86.7051C18.3504 87.0382 18.003 87.4715 17.5228 88.0132L20.5162 90.6665ZM21.8568 89.0058C22.2123 88.5001 22.5235 87.9602 22.7219 87.3981L18.95 86.0668C18.914 86.1687 18.815 86.3775 18.5846 86.7051L21.8568 89.0058ZM22.7145 87.4188C22.9082 86.8886 23.0215 86.3276 23.0215 85.7461H19.0215C19.0215 85.8026 19.0111 85.8991 18.9574 86.046L22.7145 87.4188ZM23.0215 85.7461C23.0215 85.044 22.8882 84.3336 22.5564 83.67L18.9787 85.4589C18.9855 85.4724 19.0215 85.5498 19.0215 85.7461H23.0215ZM22.5764 83.7112C22.2509 83.021 21.7477 82.4513 21.0892 82.0482L19.0006 85.4596C19.0007 85.4597 18.9998 85.4591 18.998 85.4578C18.9962 85.4566 18.9938 85.4547 18.9909 85.4523C18.9849 85.4473 18.9783 85.4411 18.972 85.434C18.9657 85.4269 18.9613 85.4208 18.9586 85.4168C18.9561 85.4129 18.9564 85.4127 18.9587 85.4177L22.5764 83.7112ZM21.1142 82.0637C20.4145 81.621 19.6381 81.4512 18.8828 81.4512V85.4512C18.9636 85.4512 19.0028 85.4601 19.011 85.4623C19.0168 85.4638 19.001 85.4601 18.9756 85.4441L21.1142 82.0637ZM18.8828 81.4512C18.0672 81.4512 17.2297 81.6292 16.4809 82.1056L18.6284 85.4803C18.5958 85.501 18.6437 85.4512 18.8828 85.4512V81.4512ZM16.4809 82.1056C15.7797 82.5519 15.2566 83.1749 14.9214 83.9171L18.5669 85.5634C18.5852 85.5228 18.599 85.5058 18.6031 85.501C18.6068 85.4967 18.6128 85.4903 18.6284 85.4803L16.4809 82.1056ZM14.9265 83.9059C14.6046 84.6071 14.4707 85.3556 14.4707 86.1074H18.4707C18.4707 85.8306 18.5191 85.6677 18.5618 85.5746L14.9265 83.9059ZM16.4707 84.1074H14.1172V88.1074H16.4707V84.1074ZM16.1172 86.1074C16.1172 85.5983 16.2299 85.1789 16.4343 84.8088L12.9329 82.8748C12.3821 83.8719 12.1172 84.9629 12.1172 86.1074H16.1172ZM16.4381 84.8018C16.6281 84.4547 16.9003 84.1723 17.3062 83.9435L15.3422 80.4589C14.3159 81.0373 13.4943 81.8487 12.9291 82.8818L16.4381 84.8018ZM17.3182 83.9367C17.6711 83.7346 18.1745 83.5859 18.9121 83.5859V79.5859C17.6315 79.5859 16.4096 79.8475 15.3302 80.4657L17.3182 83.9367ZM18.9121 83.5859C19.6467 83.5859 20.1407 83.71 20.4679 83.8672L22.2 80.2617C21.1991 79.7808 20.0785 79.5859 18.9121 79.5859V83.5859ZM20.4679 83.8672C20.8056 84.0294 20.9974 84.2213 21.1243 84.4368L24.571 82.407C24.0078 81.4505 23.1905 80.7375 22.2 80.2617L20.4679 83.8672ZM21.1327 84.4509C21.2678 84.676 21.375 85.0006 21.375 85.502H25.375C25.375 84.4017 25.1307 83.3396 24.5626 82.3929L21.1327 84.4509ZM21.375 85.502C21.375 85.7249 21.3396 85.954 21.26 86.1964L25.0603 87.4443C25.2672 86.8142 25.375 86.1644 25.375 85.502H21.375ZM21.26 86.1964C21.1701 86.47 21.0342 86.766 20.839 87.085L24.2509 89.1728C24.5895 88.6194 24.8637 88.0431 25.0603 87.4443L21.26 86.1964ZM20.8345 87.0923C20.6289 87.4315 20.3763 87.7872 20.0713 88.1587L23.163 90.6967C23.5742 90.1959 23.9401 89.6857 24.2553 89.1655L20.8345 87.0923ZM20.0807 88.1474C19.7581 88.5345 19.3984 88.9333 19.0004 89.3434L21.8707 92.1293C22.332 91.654 22.7601 91.1803 23.1536 90.7081L20.0807 88.1474ZM18.9547 89.392L15.8785 92.7807L18.8402 95.4693L21.9164 92.0806L18.9547 89.392ZM17.3594 96.125H23.9219V92.125H17.3594V96.125Z" fill="url(#paint3_linear_42_1336)" fill-opacity="0.8" mask="url(#path-6-inside-1_42_1336)"/>
<defs>
<linearGradient id="paint0_linear_42_1336" x1="-14.3077" y1="-5.76923" x2="116.462" y2="100" gradientUnits="userSpaceOnUse">
<stop stop-color="#EF2DDC"/>
<stop offset="1" stop-color="#7443FF"/>
</linearGradient>
<linearGradient id="paint1_linear_42_1336" x1="22.6327" y1="24.4207" x2="79.0082" y2="72.6271" gradientUnits="userSpaceOnUse">
<stop stop-color="#EF2DDC"/>
<stop offset="1" stop-color="#7443FF"/>
</linearGradient>
<linearGradient id="paint2_linear_42_1336" x1="-6.57692" y1="67.8077" x2="43.1154" y2="108" gradientUnits="userSpaceOnUse">
<stop stop-color="#EF2DDC"/>
<stop offset="1" stop-color="#7443FF"/>
</linearGradient>
<linearGradient id="paint3_linear_42_1336" x1="10.9231" y1="67.8077" x2="35.2915" y2="74.0318" gradientUnits="userSpaceOnUse">
<stop stop-color="#EF2DDC"/>
<stop offset="1" stop-color="#7443FF"/>
</linearGradient>
</defs>
</svg>
