<svg width="104" height="108" viewBox="0 0 104 108" fill="none" xmlns="http://www.w3.org/2000/svg">
<circle cx="53.6665" cy="50" r="50" fill="#FAF5FE"/>
<circle cx="53.6665" cy="50" r="49" stroke="url(#paint0_linear_2002_1503)" stroke-opacity="0.8" stroke-width="2"/>
<path d="M37.3044 43.4971C38.1369 41.518 39.3469 39.7199 40.8669 38.2034C42.3835 36.6825 44.1824 35.4724 46.1627 34.6409C50.245 32.9449 54.8289 32.9143 58.9335 34.5555C58.9747 35.9044 59.54 37.1841 60.5093 38.1231C61.4786 39.0621 62.7757 39.5863 64.1252 39.5846C67.0127 39.5846 69.3335 37.2638 69.3335 34.3763C69.3335 31.4888 67.0127 29.168 64.1252 29.168C62.6898 29.168 61.3919 29.743 60.4523 30.6784C55.3877 28.6513 49.571 28.6826 44.546 30.8013C42.0669 31.843 39.8377 33.343 37.921 35.2576C35.9858 37.1934 34.4518 39.4923 33.4072 42.0224C32.3625 44.5525 31.8277 47.264 31.8335 50.0013H36.0002C36.0002 47.7388 36.4398 45.5513 37.3044 43.4971ZM68.0273 56.5055C67.1919 58.4888 65.9919 60.2721 64.4648 61.7992C62.9377 63.3263 61.1544 64.5263 59.169 65.3617C55.0867 67.0577 50.5027 67.0883 46.3981 65.4471C46.358 64.0982 45.7934 62.8182 44.8243 61.879C43.8552 60.9399 42.558 60.4157 41.2085 60.418C38.321 60.418 36.0002 62.7388 36.0002 65.6263C36.0002 68.5138 38.321 70.8346 41.2085 70.8346C42.644 70.8346 43.9419 70.2596 44.8815 69.3242C47.3555 70.3229 49.9988 70.8357 52.6669 70.8346C56.7638 70.8425 60.7718 69.6402 64.188 67.3786C67.6041 65.117 70.2762 61.8968 71.869 58.1221C72.9512 55.5518 73.5059 52.7902 73.5002 50.0013H69.3335C69.3388 52.235 68.8945 54.447 68.0273 56.5055Z" fill="url(#paint1_linear_2002_1503)" fill-opacity="0.8"/>
<path d="M52.6656 40.5449C47.4531 40.5449 43.2114 44.7866 43.2114 49.9991C43.2114 55.2116 47.4531 59.4533 52.6656 59.4533C57.8781 59.4533 62.1198 55.2116 62.1198 49.9991C62.1198 44.7866 57.8781 40.5449 52.6656 40.5449Z" fill="url(#paint2_linear_2002_1503)" fill-opacity="0.8"/>
<rect x="0.666504" y="70" width="38" height="38" rx="19" fill="#FBF5FE"/>
<rect x="1.6665" y="71" width="36" height="36" rx="18" stroke="url(#paint3_linear_2002_1503)" stroke-opacity="0.8" stroke-width="2"/>
<mask id="path-7-inside-1_2002_1503" fill="white">
<path d="M21.4829 81.7324V96H19.1294V84.5254L15.6431 85.707V83.7637L21.1997 81.7324H21.4829Z"/>
</mask>
<path d="M21.4829 81.7324V96H19.1294V84.5254L15.6431 85.707V83.7637L21.1997 81.7324H21.4829Z" fill="url(#paint4_linear_2002_1503)" fill-opacity="0.05"/>
<path d="M21.4829 81.7324H23.4829V79.7324H21.4829V81.7324ZM21.4829 96V98H23.4829V96H21.4829ZM19.1294 96H17.1294V98H19.1294V96ZM19.1294 84.5254H21.1294V81.7358L18.4874 82.6312L19.1294 84.5254ZM15.6431 85.707H13.6431V88.4967L16.2851 87.6012L15.6431 85.707ZM15.6431 83.7637L14.9564 81.8852L13.6431 82.3653V83.7637H15.6431ZM21.1997 81.7324V79.7324H20.8456L20.513 79.854L21.1997 81.7324ZM19.4829 81.7324V96H23.4829V81.7324H19.4829ZM21.4829 94H19.1294V98H21.4829V94ZM21.1294 96V84.5254H17.1294V96H21.1294ZM18.4874 82.6312L15.0011 83.8129L16.2851 87.6012L19.7714 86.4195L18.4874 82.6312ZM17.6431 85.707V83.7637H13.6431V85.707H17.6431ZM16.3297 85.6421L21.8864 83.6108L20.513 79.854L14.9564 81.8852L16.3297 85.6421ZM21.1997 83.7324H21.4829V79.7324H21.1997V83.7324Z" fill="url(#paint5_linear_2002_1503)" fill-opacity="0.8" mask="url(#path-7-inside-1_2002_1503)"/>
<defs>
<linearGradient id="paint0_linear_2002_1503" x1="-13.6412" y1="-5.76923" x2="117.128" y2="100" gradientUnits="userSpaceOnUse">
<stop stop-color="#EF2DDC"/>
<stop offset="1" stop-color="#7443FF"/>
</linearGradient>
<linearGradient id="paint1_linear_2002_1503" x1="24.6219" y1="26.7641" x2="79.1092" y2="70.8347" gradientUnits="userSpaceOnUse">
<stop stop-color="#EF2DDC"/>
<stop offset="1" stop-color="#7443FF"/>
</linearGradient>
<linearGradient id="paint2_linear_2002_1503" x1="39.9388" y1="39.4541" x2="64.6651" y2="59.4533" gradientUnits="userSpaceOnUse">
<stop stop-color="#EF2DDC"/>
<stop offset="1" stop-color="#7443FF"/>
</linearGradient>
<linearGradient id="paint3_linear_2002_1503" x1="-5.91042" y1="67.8077" x2="43.7819" y2="108" gradientUnits="userSpaceOnUse">
<stop stop-color="#EF2DDC"/>
<stop offset="1" stop-color="#7443FF"/>
</linearGradient>
<linearGradient id="paint4_linear_2002_1503" x1="11.5896" y1="67.8077" x2="35.958" y2="74.0318" gradientUnits="userSpaceOnUse">
<stop stop-color="#EF2DDC"/>
<stop offset="1" stop-color="#7443FF"/>
</linearGradient>
<linearGradient id="paint5_linear_2002_1503" x1="11.5896" y1="67.8077" x2="35.958" y2="74.0318" gradientUnits="userSpaceOnUse">
<stop stop-color="#EF2DDC"/>
<stop offset="1" stop-color="#7443FF"/>
</linearGradient>
</defs>
</svg>
