<svg width="11" height="7" viewBox="0 0 11 7" fill="none" xmlns="http://www.w3.org/2000/svg">
<path d="M10.7287 6.70611C10.9096 6.51018 11 6.26081 11 5.95801C11 5.65522 10.9096 5.40585 10.7287 5.20992L6.19058 0.293893C6.09193 0.187023 5.98505 0.111501 5.86996 0.0673284C5.75486 0.0231554 5.63154 0.000712937 5.5 4.80825e-07C5.36846 4.92325e-07 5.24087 0.0267179 5.11722 0.080153C4.99357 0.133588 4.89097 0.204835 4.80942 0.293893L0.271302 5.20992C0.0904345 5.40585 4.94395e-07 5.65522 5.20866e-07 5.95802C5.47338e-07 6.26082 0.0904346 6.51018 0.271302 6.70611C0.452169 6.90204 0.682362 7 0.961884 7C1.24141 7 1.4716 6.90204 1.65247 6.70611L5.5 2.53817L9.34753 6.70611C9.5284 6.90204 9.7586 7 10.0381 7C10.3176 7 10.5478 6.90204 10.7287 6.70611Z" fill="#CCCCCC"/>
</svg>
