<svg width="53" height="53" viewBox="0 0 53 53" fill="none" xmlns="http://www.w3.org/2000/svg">
<path fill-rule="evenodd" clip-rule="evenodd" d="M0 26.25C0 33.2119 2.76562 39.8887 7.68845 44.8116C12.6113 49.7344 19.2881 52.5 26.25 52.5C33.2119 52.5 39.8887 49.7344 44.8116 44.8116C49.7344 39.8887 52.5 33.2119 52.5 26.25C52.5 19.2881 49.7344 12.6113 44.8116 7.68845C39.8887 2.76562 33.2119 0 26.25 0C19.2881 0 12.6113 2.76562 7.68845 7.68845C2.76562 12.6113 0 19.2881 0 26.25ZM48 26.25C48 32.0185 45.7085 37.5507 41.6296 41.6296C37.5507 45.7085 32.0185 48 26.25 48C20.4815 48 14.9493 45.7085 10.8704 41.6296C6.79151 37.5507 4.5 32.0185 4.5 26.25C4.5 20.4815 6.79151 14.9493 10.8704 10.8704C14.9493 6.79151 20.4815 4.5 26.25 4.5C32.0185 4.5 37.5507 6.79151 41.6296 10.8704C45.7085 14.9493 48 20.4815 48 26.25Z" fill="black"/>
<path fill-rule="evenodd" clip-rule="evenodd" d="M15 26.25C15 39.816 19.473 51 26.25 51C33.027 51 37.5 39.816 37.5 26.25C37.5 12.684 33.027 1.5 26.25 1.5C19.473 1.5 15 12.684 15 26.25ZM33 26.25C33 37.536 29.415 46.5 26.25 46.5C23.085 46.5 19.5 37.536 19.5 26.25C19.5 14.964 23.085 6 26.25 6C29.415 6 33 14.964 33 26.25Z" fill="black"/>
<path d="M7.056 12.6524L10.074 9.31641C10.374 9.58641 10.701 9.85641 11.049 10.1174C14.862 12.9734 20.949 14.7374 27.594 14.7374C33.267 14.7374 38.55 13.4564 42.387 11.2634C43.311 10.7354 44.133 10.1624 44.844 9.55341L47.766 12.9764C46.7898 13.8044 45.7371 14.5377 44.622 15.1664C40.074 17.7704 34.02 19.2344 27.594 19.2344C20.028 19.2344 12.999 17.2004 8.349 13.7174C7.90187 13.3825 7.47042 13.0271 7.056 12.6524ZM7.056 39.8984L10.074 43.2344C10.374 42.9614 10.701 42.6944 11.049 42.4334C14.862 39.5774 20.949 37.8134 27.594 37.8134C33.267 37.8134 38.55 39.0944 42.387 41.2874C43.311 41.8154 44.133 42.3884 44.844 42.9974L47.766 39.5744C46.7886 38.748 45.736 38.0148 44.622 37.3844C40.074 34.7804 34.02 33.3164 27.594 33.3164C20.028 33.3164 12.999 35.3504 8.349 38.8334C7.90187 39.1684 7.47041 39.5237 7.056 39.8984ZM1.5 28.5014V24.0014H51V28.5014H1.5Z" fill="black"/>
</svg>
