<svg width="14" height="22" viewBox="0 0 14 22" fill="none" xmlns="http://www.w3.org/2000/svg">
<path d="M11.0539 0.0625H3.25391C2.60744 0.0625 1.98745 0.319307 1.53033 0.776427C1.07321 1.23355 0.816406 1.85353 0.816406 2.5V19.075C0.816406 19.7215 1.07321 20.3415 1.53033 20.7986C1.98745 21.2557 2.60744 21.5125 3.25391 21.5125H11.0539C11.7004 21.5125 12.3204 21.2557 12.7775 20.7986C13.2346 20.3415 13.4914 19.7215 13.4914 19.075V2.5C13.4914 1.85353 13.2346 1.23355 12.7775 0.776427C12.3204 0.319307 11.7004 0.0625 11.0539 0.0625ZM7.15391 20.5375C6.34466 20.5375 5.69141 19.8842 5.69141 19.075C5.69141 18.2657 6.34466 17.6125 7.15391 17.6125C7.96316 17.6125 8.61641 18.2657 8.61641 19.075C8.61641 19.8842 7.96316 20.5375 7.15391 20.5375ZM11.5414 16.6375H2.76641V2.9875H11.5414V16.6375Z" fill="#333333"/>
<path d="M11.0539 0.0625H3.25391C2.60744 0.0625 1.98745 0.319307 1.53033 0.776427C1.07321 1.23355 0.816406 1.85353 0.816406 2.5V19.075C0.816406 19.7215 1.07321 20.3415 1.53033 20.7986C1.98745 21.2557 2.60744 21.5125 3.25391 21.5125H11.0539C11.7004 21.5125 12.3204 21.2557 12.7775 20.7986C13.2346 20.3415 13.4914 19.7215 13.4914 19.075V2.5C13.4914 1.85353 13.2346 1.23355 12.7775 0.776427C12.3204 0.319307 11.7004 0.0625 11.0539 0.0625ZM7.15391 20.5375C6.34466 20.5375 5.69141 19.8842 5.69141 19.075C5.69141 18.2657 6.34466 17.6125 7.15391 17.6125C7.96316 17.6125 8.61641 18.2657 8.61641 19.075C8.61641 19.8842 7.96316 20.5375 7.15391 20.5375ZM11.5414 16.6375H2.76641V2.9875H11.5414V16.6375Z" fill="white"/>
<path d="M11.0539 0.0625H3.25391C2.60744 0.0625 1.98745 0.319307 1.53033 0.776427C1.07321 1.23355 0.816406 1.85353 0.816406 2.5V19.075C0.816406 19.7215 1.07321 20.3415 1.53033 20.7986C1.98745 21.2557 2.60744 21.5125 3.25391 21.5125H11.0539C11.7004 21.5125 12.3204 21.2557 12.7775 20.7986C13.2346 20.3415 13.4914 19.7215 13.4914 19.075V2.5C13.4914 1.85353 13.2346 1.23355 12.7775 0.776427C12.3204 0.319307 11.7004 0.0625 11.0539 0.0625ZM7.15391 20.5375C6.34466 20.5375 5.69141 19.8842 5.69141 19.075C5.69141 18.2657 6.34466 17.6125 7.15391 17.6125C7.96316 17.6125 8.61641 18.2657 8.61641 19.075C8.61641 19.8842 7.96316 20.5375 7.15391 20.5375ZM11.5414 16.6375H2.76641V2.9875H11.5414V16.6375Z" fill="url(#paint0_linear_5002_266)"/>
<defs>
<linearGradient id="paint0_linear_5002_266" x1="0.816406" y1="0.0625" x2="19.6057" y2="11.1653" gradientUnits="userSpaceOnUse">
<stop stop-color="#2395FE"/>
<stop offset="1" stop-color="#139890"/>
</linearGradient>
</defs>
</svg>
