<svg width="14" height="22" viewBox="0 0 14 22" fill="none" xmlns="http://www.w3.org/2000/svg">
<path d="M11.0546 0.060791H3.25464C2.60817 0.060791 1.98819 0.317598 1.53107 0.774718C1.07395 1.23184 0.817139 1.85183 0.817139 2.49829V19.0733C0.817139 19.7198 1.07395 20.3397 1.53107 20.7969C1.98819 21.254 2.60817 21.5108 3.25464 21.5108H11.0546C11.7011 21.5108 12.3211 21.254 12.7782 20.7969C13.2353 20.3397 13.4921 19.7198 13.4921 19.0733V2.49829C13.4921 1.85183 13.2353 1.23184 12.7782 0.774718C12.3211 0.317598 11.7011 0.060791 11.0546 0.060791ZM7.15464 20.5358C6.34539 20.5358 5.69214 19.8825 5.69214 19.0733C5.69214 18.264 6.34539 17.6108 7.15464 17.6108C7.96389 17.6108 8.61714 18.264 8.61714 19.0733C8.61714 19.8825 7.96389 20.5358 7.15464 20.5358ZM11.5421 16.6358H2.76714V2.98579H11.5421V16.6358Z" fill="#333333"/>
<path d="M11.0546 0.060791H3.25464C2.60817 0.060791 1.98819 0.317598 1.53107 0.774718C1.07395 1.23184 0.817139 1.85183 0.817139 2.49829V19.0733C0.817139 19.7198 1.07395 20.3397 1.53107 20.7969C1.98819 21.254 2.60817 21.5108 3.25464 21.5108H11.0546C11.7011 21.5108 12.3211 21.254 12.7782 20.7969C13.2353 20.3397 13.4921 19.7198 13.4921 19.0733V2.49829C13.4921 1.85183 13.2353 1.23184 12.7782 0.774718C12.3211 0.317598 11.7011 0.060791 11.0546 0.060791ZM7.15464 20.5358C6.34539 20.5358 5.69214 19.8825 5.69214 19.0733C5.69214 18.264 6.34539 17.6108 7.15464 17.6108C7.96389 17.6108 8.61714 18.264 8.61714 19.0733C8.61714 19.8825 7.96389 20.5358 7.15464 20.5358ZM11.5421 16.6358H2.76714V2.98579H11.5421V16.6358Z" fill="white"/>
<path d="M11.0546 0.060791H3.25464C2.60817 0.060791 1.98819 0.317598 1.53107 0.774718C1.07395 1.23184 0.817139 1.85183 0.817139 2.49829V19.0733C0.817139 19.7198 1.07395 20.3397 1.53107 20.7969C1.98819 21.254 2.60817 21.5108 3.25464 21.5108H11.0546C11.7011 21.5108 12.3211 21.254 12.7782 20.7969C13.2353 20.3397 13.4921 19.7198 13.4921 19.0733V2.49829C13.4921 1.85183 13.2353 1.23184 12.7782 0.774718C12.3211 0.317598 11.7011 0.060791 11.0546 0.060791ZM7.15464 20.5358C6.34539 20.5358 5.69214 19.8825 5.69214 19.0733C5.69214 18.264 6.34539 17.6108 7.15464 17.6108C7.96389 17.6108 8.61714 18.264 8.61714 19.0733C8.61714 19.8825 7.96389 20.5358 7.15464 20.5358ZM11.5421 16.6358H2.76714V2.98579H11.5421V16.6358Z" fill="url(#paint0_linear_4008_114)"/>
<defs>
<linearGradient id="paint0_linear_4008_114" x1="0.817139" y1="0.060791" x2="19.6064" y2="11.1635" gradientUnits="userSpaceOnUse">
<stop stop-color="#2395FE"/>
<stop offset="1" stop-color="#139890"/>
</linearGradient>
</defs>
</svg>
