<svg width="50" height="50" viewBox="0 0 50 50" fill="none" xmlns="http://www.w3.org/2000/svg">
<path d="M50 25C50 38.8071 38.8071 50 25 50C11.1929 50 0 38.8071 0 25C0 11.1929 11.1929 0 25 0C38.8071 0 50 11.1929 50 25ZM4.99311 25C4.99311 36.0495 13.9505 45.0069 25 45.0069C36.0495 45.0069 45.0069 36.0495 45.0069 25C45.0069 13.9505 36.0495 4.99311 25 4.99311C13.9505 4.99311 4.99311 13.9505 4.99311 25Z" fill="url(#paint0_linear_2701_4506)"/>
<circle cx="25" cy="25" r="9" fill="url(#paint1_linear_2701_4506)"/>
<defs>
<linearGradient id="paint0_linear_2701_4506" x1="-8.65385" y1="-2.88462" x2="56.7308" y2="50" gradientUnits="userSpaceOnUse">
<stop stop-color="#FF6332"/>
<stop offset="1" stop-color="#F97616"/>
</linearGradient>
<linearGradient id="paint1_linear_2701_4506" x1="12.8846" y1="14.9615" x2="36.4231" y2="34" gradientUnits="userSpaceOnUse">
<stop stop-color="#FF6332"/>
<stop offset="1" stop-color="#F97616"/>
</linearGradient>
</defs>
</svg>
