<svg width="16" height="16" viewBox="0 0 16 16" fill="none" xmlns="http://www.w3.org/2000/svg">
<path d="M7.25 9.49995V15.5H4.25C3.65326 15.5 3.08097 15.2629 2.65901 14.8409C2.23705 14.419 2 13.8467 2 13.25V10.25C2 10.051 2.07902 9.86027 2.21967 9.71962C2.36032 9.57897 2.55109 9.49995 2.75 9.49995H7.25ZM13.25 9.49995C13.4489 9.49995 13.6397 9.57897 13.7803 9.71962C13.921 9.86027 14 10.051 14 10.25V13.25C14 13.8467 13.7629 14.419 13.341 14.8409C12.919 15.2629 12.3467 15.5 11.75 15.5H8.75V9.49995H13.25ZM11.375 0.499952C11.8179 0.49986 12.2536 0.611827 12.6416 0.825428C13.0295 1.03903 13.3572 1.34732 13.5939 1.7216C13.8307 2.09588 13.9689 2.52399 13.9957 2.96606C14.0225 3.40813 13.9371 3.8498 13.7472 4.24995H14C14.3978 4.24995 14.7794 4.40799 15.0607 4.68929C15.342 4.9706 15.5 5.35213 15.5 5.74995V6.49995C15.5 6.89778 15.342 7.27931 15.0607 7.56061C14.7794 7.84192 14.3978 7.99995 14 7.99995H8.75V4.24995H7.25V7.99995H2C1.60218 7.99995 1.22064 7.84192 0.93934 7.56061C0.658035 7.27931 0.5 6.89778 0.5 6.49995V5.74995C0.5 5.35213 0.658035 4.9706 0.93934 4.68929C1.22064 4.40799 1.60218 4.24995 2 4.24995H2.25275C2.08616 3.89832 1.99983 3.51405 2 3.12495C2 1.6752 3.17525 0.499952 4.61225 0.499952C5.9285 0.477452 7.09625 1.31895 7.898 2.70045L8 2.8827C8.77475 1.4472 9.92 0.547202 11.2183 0.501452L11.375 0.499952ZM4.625 1.99995C4.32663 1.99995 4.04048 2.11848 3.8295 2.32946C3.61853 2.54044 3.5 2.82658 3.5 3.12495C3.5 3.42332 3.61853 3.70947 3.8295 3.92045C4.04048 4.13143 4.32663 4.24995 4.625 4.24995H6.98225C6.4265 2.8212 5.5205 1.98495 4.625 1.99995ZM11.3622 1.99995C10.4773 1.98495 9.5735 2.82195 9.01775 4.24995H11.375C11.6734 4.24826 11.9588 4.12811 12.1686 3.91594C12.3784 3.70377 12.4953 3.41695 12.4936 3.11858C12.4919 2.82021 12.3718 2.53473 12.1596 2.32495C11.9474 2.11517 11.6606 1.99826 11.3622 1.99995Z" fill="#EFB503"/>
</svg>
