<svg width="44" height="51" viewBox="0 0 44 51" fill="none" xmlns="http://www.w3.org/2000/svg">
<path d="M33.8203 30.6641C29.6092 35.7518 25.0471 41.278 22.0641 44.3482C21.9764 44.3482 21.9764 44.2605 21.8887 44.1728C20.3972 42.857 18.5548 41.1026 16.6247 39.0851L13.4663 42.243C17.4143 46.3657 21.0991 49.4359 21.8887 50.0499C21.9764 50.1377 22.0641 50.1377 22.0641 50.1377C22.0641 50.1377 32.3289 38.9096 37.0665 33.8219L33.8203 30.6641Z" fill="#4EB594"/>
<path d="M21.8886 9.25977L8.81641 14.3475C8.81641 14.3475 9.95693 23.0316 12.8521 28.8211C15.3964 33.9088 21.2745 39.6982 21.8886 40.0491C22.5027 39.6982 28.644 33.5579 31.1883 28.4702C34.0835 22.6808 34.9608 14.3475 34.9608 14.3475L21.8886 9.25977Z" fill="#3D88C8"/>
<path d="M42.8573 9.08422L21.8892 0.224609L0.920995 9.08422C0.920995 9.08422 -0.570464 21.2771 6.0095 32.5929C7.3255 34.7859 8.90469 36.9788 10.6594 38.9964L13.8177 35.8385C12.3263 34.0841 10.9225 32.1543 9.86975 30.3122C6.09724 23.9964 5.30764 16.8035 5.21991 12.7684C7.0623 11.7158 20.31 6.36493 21.8892 5.7509C23.3806 6.36493 36.716 11.7158 38.5584 12.7684C38.4707 16.014 37.9443 21.2771 35.8387 26.5403L39.2603 29.9613C44.1733 19.435 42.8573 9.08422 42.8573 9.08422Z" fill="#3D88C8"/>
<path d="M37.0672 33.9097L33.8211 30.6641C29.6099 35.7518 25.0478 41.278 22.0649 44.3482C21.9771 44.3482 22.0649 50.2254 22.0649 50.2254C22.0649 50.2254 32.2419 38.9974 37.0672 33.9097Z" fill="#029E81"/>
<path d="M35.8387 26.5404L39.2603 29.9614C44.1733 19.4352 42.8573 9.08434 42.8573 9.08434L21.8892 0.224731V5.75102C23.3806 6.36505 36.716 11.7159 38.5584 12.7685C38.4707 16.0141 37.9443 21.2773 35.8387 26.5404Z" fill="#057BAA"/>
<path d="M34.9614 14.3475C34.9614 14.3475 34.084 22.6808 31.1889 28.4702C28.6446 33.5579 22.5033 39.6982 21.8892 40.0491V9.25977L34.9614 14.3475Z" fill="#057BAA"/>
</svg>
