<svg width="616" height="244" viewBox="0 0 616 244" fill="none" xmlns="http://www.w3.org/2000/svg">
<g filter="url(#filter0_b_3280_28322)">
<rect x="1" y="1" width="614" height="242" rx="10.6591" fill="white"/>
<rect x="0.733522" y="0.733522" width="614.533" height="242.533" rx="10.9256" stroke="black" stroke-opacity="0.12" stroke-width="0.532956"/>
</g>
<g filter="url(#filter1_di_3280_28322)">
<path d="M1 18.0546C1 12.0849 1 9.10009 2.16177 6.81998C3.1837 4.81434 4.81434 3.1837 6.81998 2.16177C9.10009 1 12.0849 1 18.0546 1H597.945C603.915 1 606.9 1 609.18 2.16177C611.186 3.1837 612.816 4.81434 613.838 6.81998C615 9.10009 615 12.0849 615 18.0546V30.8455H1V18.0546Z" fill="white"/>
<path fill-rule="evenodd" clip-rule="evenodd" d="M15.9228 22.3183C19.4549 22.3183 22.3183 19.4549 22.3183 15.9228C22.3183 12.3907 19.4549 9.52734 15.9228 9.52734C12.3907 9.52734 9.52734 12.3907 9.52734 15.9228C9.52734 19.4549 12.3907 22.3183 15.9228 22.3183Z" fill="#EC6A5E"/>
<path d="M22.0518 15.9228C22.0518 19.3078 19.3078 22.0518 15.9228 22.0518C12.5379 22.0518 9.79382 19.3078 9.79382 15.9228C9.79382 12.5379 12.5379 9.79382 15.9228 9.79382C19.3078 9.79382 22.0518 12.5379 22.0518 15.9228Z" stroke="black" stroke-opacity="0.12" stroke-width="0.532956"/>
<path fill-rule="evenodd" clip-rule="evenodd" d="M37.2392 22.3183C40.7713 22.3183 43.6347 19.4549 43.6347 15.9228C43.6347 12.3907 40.7713 9.52734 37.2392 9.52734C33.7071 9.52734 30.8438 12.3907 30.8438 15.9228C30.8438 19.4549 33.7071 22.3183 37.2392 22.3183Z" fill="#F5BF4F"/>
<path d="M43.3682 15.9228C43.3682 19.3078 40.6242 22.0518 37.2392 22.0518C33.8543 22.0518 31.1102 19.3078 31.1102 15.9228C31.1102 12.5379 33.8543 9.79382 37.2392 9.79382C40.6242 9.79382 43.3682 12.5379 43.3682 15.9228Z" stroke="black" stroke-opacity="0.12" stroke-width="0.532956"/>
<path fill-rule="evenodd" clip-rule="evenodd" d="M58.5595 22.3183C62.0917 22.3183 64.955 19.4549 64.955 15.9228C64.955 12.3907 62.0917 9.52734 58.5595 9.52734C55.0274 9.52734 52.1641 12.3907 52.1641 15.9228C52.1641 19.4549 55.0274 22.3183 58.5595 22.3183Z" fill="#61C554"/>
<path d="M64.6885 15.9228C64.6885 19.3078 61.9445 22.0518 58.5595 22.0518C55.1746 22.0518 52.4305 19.3078 52.4305 15.9228C52.4305 12.5379 55.1746 9.79382 58.5595 9.79382C61.9445 9.79382 64.6885 12.5379 64.6885 15.9228Z" stroke="black" stroke-opacity="0.12" stroke-width="0.532956"/>
<path d="M256.426 14.845H254.27C254.231 14.5662 254.15 14.3185 254.029 14.102C253.908 13.8822 253.752 13.6952 253.562 13.541C253.371 13.3868 253.152 13.2687 252.902 13.1867C252.656 13.1047 252.389 13.0637 252.1 13.0637C251.579 13.0637 251.124 13.1933 250.737 13.4524C250.35 13.7083 250.05 14.0823 249.837 14.5744C249.623 15.0632 249.517 15.6569 249.517 16.3557C249.517 17.0741 249.623 17.6777 249.837 18.1665C250.053 18.6553 250.355 19.0244 250.742 19.2737C251.129 19.523 251.577 19.6477 252.085 19.6477C252.371 19.6477 252.635 19.6099 252.878 19.5345C253.124 19.459 253.342 19.3491 253.532 19.2048C253.722 19.0572 253.88 18.8784 254.004 18.6684C254.132 18.4585 254.221 18.219 254.27 17.95L256.426 17.9598C256.37 18.4224 256.23 18.8685 256.007 19.2983C255.787 19.7248 255.491 20.1069 255.117 20.4448C254.746 20.7794 254.303 21.0452 253.788 21.242C253.276 21.4355 252.697 21.5323 252.051 21.5323C251.152 21.5323 250.348 21.3289 249.64 20.9221C248.934 20.5154 248.377 19.9265 247.967 19.1556C247.56 18.3847 247.357 17.4514 247.357 16.3557C247.357 15.2567 247.563 14.3218 247.977 13.5508C248.39 12.7799 248.951 12.1927 249.659 11.7892C250.368 11.3824 251.165 11.179 252.051 11.179C252.635 11.179 253.176 11.261 253.675 11.4251C254.177 11.5891 254.621 11.8286 255.008 12.1435C255.395 12.4552 255.71 12.8373 255.953 13.29C256.199 13.7427 256.357 14.2611 256.426 14.845ZM257.465 15.4847V13.8362H264.315V15.4847H261.879V21.3945H259.881V15.4847H257.465ZM268.674 21.5422C267.91 21.5422 267.249 21.3798 266.691 21.055C266.137 20.7269 265.709 20.271 265.407 19.687C265.105 19.0998 264.954 18.4191 264.954 17.6449C264.954 16.8642 265.105 16.1818 265.407 15.5979C265.709 15.0107 266.137 14.5547 266.691 14.2299C267.249 13.9019 267.91 13.7378 268.674 13.7378C269.439 13.7378 270.098 13.9019 270.653 14.2299C271.21 14.5547 271.64 15.0107 271.942 15.5979C272.244 16.1818 272.394 16.8642 272.394 17.6449C272.394 18.4191 272.244 19.0998 271.942 19.687C271.64 20.271 271.21 20.7269 270.653 21.055C270.098 21.3798 269.439 21.5422 268.674 21.5422ZM268.684 19.9183C269.032 19.9183 269.322 19.8199 269.555 19.6231C269.788 19.4229 269.964 19.1507 270.082 18.8062C270.203 18.4618 270.264 18.0697 270.264 17.6302C270.264 17.1906 270.203 16.7985 270.082 16.4541C269.964 16.1096 269.788 15.8374 269.555 15.6372C269.322 15.4371 269.032 15.3371 268.684 15.3371C268.333 15.3371 268.038 15.4371 267.798 15.6372C267.562 15.8374 267.383 16.1096 267.262 16.4541C267.144 16.7985 267.085 17.1906 267.085 17.6302C267.085 18.0697 267.144 18.4618 267.262 18.8062C267.383 19.1507 267.562 19.4229 267.798 19.6231C268.038 19.8199 268.333 19.9183 268.684 19.9183ZM275.705 18.6291L278.426 13.8362H280.493V21.3945H278.495V16.5869L275.784 21.3945H273.702V13.8362H275.705V18.6291ZM286.586 19.0769L288.633 13.8362H290.227L287.28 21.3945H285.887L283.008 13.8362H284.598L286.586 19.0769ZM284.12 13.8362V21.3945H282.118V13.8362H284.12ZM289.154 21.3945V13.8362H291.133V21.3945H289.154ZM296.114 21.5422C295.349 21.5422 294.688 21.3798 294.13 21.055C293.576 20.7269 293.148 20.271 292.846 19.687C292.544 19.0998 292.393 18.4191 292.393 17.6449C292.393 16.8642 292.544 16.1818 292.846 15.5979C293.148 15.0107 293.576 14.5547 294.13 14.2299C294.688 13.9019 295.349 13.7378 296.114 13.7378C296.878 13.7378 297.537 13.9019 298.092 14.2299C298.649 14.5547 299.079 15.0107 299.381 15.5979C299.683 16.1818 299.834 16.8642 299.834 17.6449C299.834 18.4191 299.683 19.0998 299.381 19.687C299.079 20.271 298.649 20.7269 298.092 21.055C297.537 21.3798 296.878 21.5422 296.114 21.5422ZM296.123 19.9183C296.471 19.9183 296.761 19.8199 296.994 19.6231C297.227 19.4229 297.403 19.1507 297.521 18.8062C297.642 18.4618 297.703 18.0697 297.703 17.6302C297.703 17.1906 297.642 16.7985 297.521 16.4541C297.403 16.1096 297.227 15.8374 296.994 15.6372C296.761 15.4371 296.471 15.3371 296.123 15.3371C295.772 15.3371 295.477 15.4371 295.238 15.6372C295.001 15.8374 294.823 16.1096 294.701 16.4541C294.583 16.7985 294.524 17.1906 294.524 17.6302C294.524 18.0697 294.583 18.4618 294.701 18.8062C294.823 19.1507 295.001 19.4229 295.238 19.6231C295.477 19.8199 295.772 19.9183 296.123 19.9183ZM304.556 21.5422C303.782 21.5422 303.116 21.3781 302.558 21.0501C302.004 20.7187 301.578 20.2595 301.279 19.6723C300.984 19.0851 300.836 18.4093 300.836 17.6449C300.836 16.8707 300.985 16.1916 301.284 15.6077C301.586 15.0205 302.014 14.5629 302.568 14.2348C303.123 13.9035 303.782 13.7378 304.546 13.7378C305.206 13.7378 305.783 13.8576 306.279 14.097C306.774 14.3365 307.166 14.6728 307.455 15.1058C307.743 15.5388 307.902 16.0473 307.932 16.6312H305.954C305.898 16.254 305.75 15.9505 305.511 15.7209C305.275 15.488 304.965 15.3715 304.581 15.3715C304.256 15.3715 303.972 15.4601 303.73 15.6372C303.49 15.8111 303.303 16.0653 303.169 16.4C303.034 16.7346 302.967 17.1397 302.967 17.6154C302.967 18.0976 303.032 18.5077 303.164 18.8456C303.298 19.1835 303.487 19.441 303.73 19.6181C303.972 19.7953 304.256 19.8839 304.581 19.8839C304.82 19.8839 305.035 19.8347 305.225 19.7362C305.419 19.6378 305.578 19.4951 305.703 19.3081C305.831 19.1179 305.914 18.8899 305.954 18.6241H307.932C307.899 19.2015 307.742 19.71 307.46 20.1496C307.181 20.5859 306.795 20.9271 306.303 21.1731C305.811 21.4191 305.229 21.5422 304.556 21.5422ZM308.703 15.4847V13.8362H315.553V15.4847H313.117V21.3945H311.119V15.4847H308.703ZM318.082 16.1588H320.341C321.341 16.1588 322.122 16.3983 322.683 16.8773C323.244 17.3529 323.524 17.9894 323.524 18.7865C323.524 19.3048 323.398 19.7608 323.146 20.1545C322.893 20.5449 322.529 20.85 322.053 21.0698C321.577 21.2863 321.007 21.3945 320.341 21.3945H316.768V13.8362H318.771V19.7461H320.341C320.692 19.7461 320.98 19.6575 321.207 19.4804C321.433 19.3032 321.548 19.0769 321.551 18.8013C321.548 18.5093 321.433 18.2715 321.207 18.0878C320.98 17.9008 320.692 17.8073 320.341 17.8073H318.082V16.1588ZM328.011 21.3945V13.8362H330.107V16.769H330.698L332.754 13.8362H335.215L332.543 17.5859L335.244 21.3945H332.754L330.889 18.7127H330.107V21.3945H328.011ZM335.632 21.3945L335.622 19.7313H335.873C336.05 19.7313 336.203 19.6887 336.331 19.6034C336.462 19.5148 336.57 19.3721 336.655 19.1753C336.741 18.9784 336.808 18.7176 336.857 18.3929C336.906 18.0648 336.939 17.6613 336.955 17.1824L337.078 13.8362H342.826V21.3945H340.828V15.4847H338.963L338.845 17.7925C338.815 18.4257 338.738 18.9702 338.614 19.4262C338.492 19.8822 338.323 20.2562 338.107 20.5482C337.89 20.8368 337.63 21.0501 337.325 21.1879C337.019 21.3256 336.665 21.3945 336.262 21.3945H335.632ZM346.398 18.6291L349.119 13.8362H351.186V21.3945H349.188V16.5869L346.477 21.3945H344.396V13.8362H346.398V18.6291ZM352.811 21.3945V13.8362H354.907V16.769H355.498L357.555 13.8362H360.015L357.343 17.5859L360.045 21.3945H357.555L355.69 18.7127H354.907V21.3945H352.811ZM363.03 21.5372C362.548 21.5372 362.118 21.4536 361.741 21.2863C361.364 21.1157 361.065 20.8647 360.846 20.5334C360.629 20.1988 360.521 19.7822 360.521 19.2835C360.521 18.8636 360.598 18.511 360.752 18.2256C360.906 17.9402 361.116 17.7105 361.382 17.5367C361.648 17.3628 361.949 17.2316 362.287 17.143C362.628 17.0544 362.986 16.9921 363.36 16.956C363.8 16.9101 364.154 16.8674 364.423 16.8281C364.692 16.7854 364.887 16.7231 365.008 16.6411C365.13 16.5591 365.191 16.4377 365.191 16.2769V16.2474C365.191 15.9358 365.092 15.6947 364.895 15.5241C364.702 15.3535 364.426 15.2682 364.069 15.2682C363.691 15.2682 363.391 15.3518 363.168 15.5191C362.945 15.6832 362.797 15.8898 362.725 16.1392L360.786 15.9817C360.885 15.5224 361.078 15.1255 361.367 14.7909C361.656 14.453 362.028 14.1938 362.484 14.0134C362.943 13.8297 363.475 13.7378 364.078 13.7378C364.498 13.7378 364.9 13.787 365.284 13.8855C365.671 13.9839 366.014 14.1364 366.312 14.3431C366.614 14.5498 366.852 14.8155 367.026 15.1402C367.2 15.4617 367.287 15.8472 367.287 16.2966V21.3945H365.299V20.3464H365.24C365.118 20.5826 364.956 20.7909 364.753 20.9713C364.549 21.1485 364.305 21.2879 364.019 21.3896C363.734 21.488 363.404 21.5372 363.03 21.5372ZM363.631 20.0905C363.939 20.0905 364.211 20.0298 364.448 19.9085C364.684 19.7838 364.869 19.6165 365.004 19.4065C365.138 19.1966 365.205 18.9588 365.205 18.693V17.891C365.14 17.9336 365.049 17.973 364.935 18.009C364.823 18.0419 364.697 18.073 364.556 18.1025C364.415 18.1288 364.274 18.1534 364.133 18.1764C363.992 18.196 363.864 18.2141 363.749 18.2305C363.503 18.2666 363.288 18.324 363.104 18.4027C362.92 18.4814 362.778 18.5881 362.676 18.7226C362.574 18.8538 362.523 19.0178 362.523 19.2146C362.523 19.5 362.627 19.7182 362.834 19.8691C363.043 20.0167 363.309 20.0905 363.631 20.0905Z" fill="#3D3D3D"/>
</g>
<rect x="1" y="42.5" width="497" height="197" rx="10.9841" fill="white"/>
<circle cx="30.65" cy="111.716" r="7.2844" fill="#E57575" stroke="#E57575" stroke-width="3.12189"/>
<path d="M52.2026 117.562V106.535H58.858V107.719H53.538V111.166H56.338C57.1277 111.166 57.7936 111.295 58.3357 111.553C58.8813 111.812 59.2941 112.176 59.5741 112.646C59.8577 113.117 59.9995 113.671 59.9995 114.31C59.9995 114.949 59.8577 115.513 59.5741 116.001C59.2941 116.489 58.8813 116.871 58.3357 117.148C57.7936 117.424 57.1277 117.562 56.338 117.562H52.2026ZM53.538 116.399H56.338C56.8405 116.399 57.2659 116.299 57.6141 116.098C57.9659 115.893 58.2316 115.631 58.411 115.312C58.5941 114.989 58.6857 114.648 58.6857 114.289C58.6857 113.761 58.4828 113.307 58.0772 112.926C57.6716 112.542 57.0918 112.35 56.338 112.35H53.538V116.399ZM65.3855 117.735C64.6388 117.735 63.9837 117.557 63.4201 117.202C62.8601 116.846 62.4221 116.349 62.1062 115.71C61.7939 115.071 61.6378 114.325 61.6378 113.47C61.6378 112.609 61.7939 111.857 62.1062 111.214C62.4221 110.571 62.8601 110.072 63.4201 109.717C63.9837 109.362 64.6388 109.184 65.3855 109.184C66.1321 109.184 66.7855 109.362 67.3455 109.717C67.9091 110.072 68.347 110.571 68.6593 111.214C68.9752 111.857 69.1332 112.609 69.1332 113.47C69.1332 114.325 68.9752 115.071 68.6593 115.71C68.347 116.349 67.9091 116.846 67.3455 117.202C66.7855 117.557 66.1321 117.735 65.3855 117.735ZM65.3855 116.593C65.9527 116.593 66.4193 116.448 66.7855 116.157C67.1516 115.866 67.4227 115.484 67.5986 115.01C67.7745 114.536 67.8624 114.023 67.8624 113.47C67.8624 112.917 67.7745 112.402 67.5986 111.925C67.4227 111.447 67.1516 111.061 66.7855 110.767C66.4193 110.473 65.9527 110.326 65.3855 110.326C64.8183 110.326 64.3516 110.473 63.9855 110.767C63.6193 111.061 63.3483 111.447 63.1724 111.925C62.9965 112.402 62.9086 112.917 62.9086 113.47C62.9086 114.023 62.9965 114.536 63.1724 115.01C63.3483 115.484 63.6193 115.866 63.9855 116.157C64.3516 116.448 64.8183 116.593 65.3855 116.593ZM69.992 110.476V109.292H76.712V110.476H73.9982V117.562H72.7274V110.476H69.992ZM79.6642 112.286H82.0334C83.0026 112.286 83.7439 112.531 84.2572 113.023C84.7706 113.515 85.0272 114.138 85.0272 114.892C85.0272 115.387 84.9124 115.838 84.6826 116.243C84.4529 116.645 84.1154 116.967 83.6703 117.207C83.2252 117.444 82.6795 117.562 82.0334 117.562H78.5657V109.292H79.8365V116.378H82.0334C82.536 116.378 82.9488 116.245 83.2719 115.979C83.5949 115.714 83.7565 115.373 83.7565 114.956C83.7565 114.518 83.5949 114.161 83.2719 113.885C82.9488 113.608 82.536 113.47 82.0334 113.47H79.6642V112.286ZM86.3411 117.562V109.292H87.6119V117.562H86.3411Z" fill="black"/>
<rect x="101.137" y="107.473" width="34.3488" height="8.17829" rx="4.08915" fill="#D9D9D9"/>
<path d="M146.895 117.713C146.184 117.713 145.551 117.591 144.994 117.347C144.441 117.103 144.002 116.764 143.675 116.329C143.352 115.891 143.176 115.384 143.147 114.806H144.504C144.533 115.161 144.655 115.468 144.87 115.726C145.086 115.981 145.368 116.179 145.716 116.319C146.064 116.459 146.45 116.529 146.874 116.529C147.347 116.529 147.767 116.446 148.134 116.281C148.5 116.116 148.787 115.886 148.995 115.592C149.203 115.297 149.307 114.956 149.307 114.569C149.307 114.163 149.207 113.806 149.006 113.497C148.805 113.185 148.51 112.941 148.123 112.765C147.735 112.589 147.261 112.501 146.701 112.501H145.818V111.316H146.701C147.139 111.316 147.523 111.237 147.854 111.079C148.187 110.921 148.448 110.699 148.634 110.412C148.825 110.125 148.92 109.787 148.92 109.399C148.92 109.026 148.837 108.701 148.672 108.425C148.507 108.148 148.274 107.933 147.972 107.779C147.674 107.624 147.322 107.547 146.917 107.547C146.536 107.547 146.177 107.617 145.84 107.757C145.506 107.894 145.233 108.093 145.021 108.355C144.809 108.613 144.695 108.926 144.677 109.292H143.384C143.406 108.714 143.58 108.208 143.907 107.773C144.233 107.335 144.66 106.994 145.188 106.75C145.719 106.506 146.303 106.384 146.938 106.384C147.62 106.384 148.205 106.522 148.694 106.799C149.182 107.071 149.557 107.432 149.819 107.881C150.081 108.33 150.212 108.814 150.212 109.335C150.212 109.956 150.049 110.485 149.722 110.923C149.399 111.361 148.959 111.665 148.403 111.833V111.919C149.099 112.034 149.643 112.33 150.034 112.808C150.426 113.282 150.621 113.869 150.621 114.569C150.621 115.168 150.458 115.707 150.131 116.184C149.808 116.658 149.367 117.031 148.807 117.304C148.247 117.577 147.609 117.713 146.895 117.713ZM155.279 117.756C154.755 117.756 154.279 117.658 153.852 117.46C153.425 117.259 153.086 116.97 152.834 116.593C152.583 116.213 152.457 115.753 152.457 115.215C152.457 114.741 152.551 114.357 152.737 114.062C152.924 113.765 153.174 113.531 153.486 113.362C153.798 113.194 154.143 113.068 154.52 112.986C154.9 112.899 155.282 112.831 155.667 112.781C156.169 112.716 156.577 112.668 156.889 112.636C157.205 112.6 157.435 112.54 157.578 112.458C157.725 112.375 157.799 112.232 157.799 112.027V111.984C157.799 111.453 157.654 111.04 157.363 110.746C157.076 110.451 156.639 110.304 156.054 110.304C155.448 110.304 154.972 110.437 154.627 110.702C154.283 110.968 154.04 111.252 153.9 111.553L152.694 111.122C152.91 110.62 153.197 110.229 153.556 109.949C153.918 109.665 154.313 109.468 154.74 109.356C155.171 109.241 155.595 109.184 156.011 109.184C156.277 109.184 156.582 109.216 156.927 109.281C157.275 109.342 157.61 109.469 157.934 109.663C158.26 109.857 158.531 110.15 158.747 110.541C158.962 110.932 159.07 111.456 159.07 112.113V117.562H157.799V116.442H157.734C157.648 116.622 157.505 116.814 157.304 117.019C157.102 117.223 156.835 117.397 156.501 117.541C156.167 117.685 155.76 117.756 155.279 117.756ZM155.473 116.615C155.975 116.615 156.399 116.516 156.744 116.319C157.092 116.121 157.354 115.866 157.53 115.554C157.709 115.242 157.799 114.913 157.799 114.569V113.406C157.745 113.47 157.627 113.529 157.444 113.583C157.264 113.634 157.056 113.678 156.819 113.718C156.586 113.754 156.358 113.786 156.135 113.815C155.916 113.84 155.738 113.861 155.602 113.879C155.272 113.922 154.963 113.992 154.676 114.089C154.392 114.183 154.162 114.325 153.987 114.515C153.814 114.701 153.728 114.956 153.728 115.279C153.728 115.721 153.891 116.055 154.218 116.281C154.548 116.504 154.967 116.615 155.473 116.615ZM167.528 106.19L168.174 106.966C167.922 107.21 167.632 107.38 167.301 107.477C166.971 107.574 166.598 107.633 166.181 107.655C165.765 107.676 165.302 107.698 164.792 107.719C164.218 107.741 163.742 107.881 163.365 108.139C162.988 108.398 162.698 108.771 162.493 109.259C162.288 109.748 162.157 110.347 162.1 111.058H162.208C162.488 110.541 162.875 110.16 163.371 109.916C163.866 109.672 164.397 109.55 164.964 109.55C165.611 109.55 166.192 109.701 166.709 110.002C167.226 110.304 167.635 110.751 167.937 111.343C168.238 111.936 168.389 112.666 168.389 113.535C168.389 114.4 168.235 115.147 167.926 115.775C167.621 116.403 167.192 116.888 166.639 117.229C166.09 117.566 165.446 117.735 164.706 117.735C163.967 117.735 163.319 117.561 162.762 117.212C162.206 116.861 161.773 116.34 161.464 115.651C161.156 114.958 161.001 114.102 161.001 113.082V112.199C161.001 110.358 161.314 108.961 161.938 108.01C162.567 107.059 163.511 106.567 164.771 106.535C165.216 106.52 165.612 106.517 165.961 106.524C166.309 106.531 166.612 106.515 166.871 106.476C167.129 106.436 167.348 106.341 167.528 106.19ZM164.706 116.593C165.205 116.593 165.634 116.468 165.993 116.216C166.356 115.965 166.634 115.611 166.828 115.156C167.021 114.696 167.118 114.156 167.118 113.535C167.118 112.932 167.02 112.418 166.822 111.995C166.628 111.571 166.35 111.248 165.988 111.026C165.625 110.803 165.191 110.692 164.684 110.692C164.315 110.692 163.983 110.755 163.688 110.88C163.394 111.006 163.143 111.191 162.934 111.435C162.726 111.679 162.565 111.977 162.45 112.329C162.339 112.68 162.279 113.082 162.272 113.535C162.272 114.461 162.489 115.202 162.924 115.759C163.358 116.315 163.952 116.593 164.706 116.593ZM169.601 117.562V116.378H169.902C170.15 116.378 170.356 116.329 170.521 116.232C170.687 116.132 170.819 115.958 170.92 115.71C171.024 115.459 171.103 115.111 171.157 114.666C171.214 114.217 171.256 113.646 171.281 112.953L171.431 109.292H176.945V117.562H175.675V110.476H172.638L172.508 113.427C172.48 114.106 172.419 114.703 172.325 115.22C172.236 115.734 172.097 116.164 171.911 116.512C171.728 116.861 171.483 117.123 171.178 117.299C170.873 117.475 170.491 117.562 170.031 117.562H169.601ZM182.637 117.735C181.89 117.735 181.235 117.557 180.671 117.202C180.111 116.846 179.673 116.349 179.358 115.71C179.045 115.071 178.889 114.325 178.889 113.47C178.889 112.609 179.045 111.857 179.358 111.214C179.673 110.571 180.111 110.072 180.671 109.717C181.235 109.362 181.89 109.184 182.637 109.184C183.383 109.184 184.037 109.362 184.597 109.717C185.16 110.072 185.598 110.571 185.911 111.214C186.227 111.857 186.385 112.609 186.385 113.47C186.385 114.325 186.227 115.071 185.911 115.71C185.598 116.349 185.16 116.846 184.597 117.202C184.037 117.557 183.383 117.735 182.637 117.735ZM182.637 116.593C183.204 116.593 183.671 116.448 184.037 116.157C184.403 115.866 184.674 115.484 184.85 115.01C185.026 114.536 185.114 114.023 185.114 113.47C185.114 112.917 185.026 112.402 184.85 111.925C184.674 111.447 184.403 111.061 184.037 110.767C183.671 110.473 183.204 110.326 182.637 110.326C182.07 110.326 181.603 110.473 181.237 110.767C180.871 111.061 180.6 111.447 180.424 111.925C180.248 112.402 180.16 112.917 180.16 113.47C180.16 114.023 180.248 114.536 180.424 115.01C180.6 115.484 180.871 115.866 181.237 116.157C181.603 116.448 182.07 116.593 182.637 116.593ZM188.324 117.562V109.292H189.595V112.889H190.435L193.407 109.292H195.044L191.706 113.276L195.087 117.562H193.451L190.737 114.073H189.595V117.562H188.324ZM197.739 115.689L201.724 109.292H203.189V117.562H201.918V111.166L197.955 117.562H196.469V109.292H197.739V115.689ZM205.516 120.664V109.292H206.744V110.606H206.895C206.988 110.462 207.117 110.279 207.282 110.056C207.451 109.83 207.691 109.629 208.004 109.453C208.32 109.274 208.747 109.184 209.285 109.184C209.982 109.184 210.596 109.358 211.127 109.706C211.658 110.055 212.073 110.548 212.371 111.187C212.669 111.826 212.818 112.58 212.818 113.449C212.818 114.325 212.669 115.084 212.371 115.726C212.073 116.365 211.66 116.861 211.132 117.212C210.605 117.561 209.996 117.735 209.307 117.735C208.776 117.735 208.35 117.647 208.031 117.471C207.711 117.291 207.465 117.089 207.293 116.862C207.121 116.633 206.988 116.442 206.895 116.292H206.787V120.664H205.516ZM206.765 113.427C206.765 114.052 206.857 114.603 207.04 115.08C207.223 115.554 207.49 115.926 207.842 116.195C208.194 116.46 208.625 116.593 209.135 116.593C209.666 116.593 210.109 116.453 210.465 116.173C210.824 115.89 211.093 115.509 211.272 115.032C211.455 114.551 211.547 114.016 211.547 113.427C211.547 112.846 211.457 112.321 211.278 111.855C211.102 111.385 210.834 111.013 210.475 110.74C210.12 110.464 209.673 110.326 209.135 110.326C208.618 110.326 208.183 110.457 207.831 110.719C207.48 110.977 207.214 111.34 207.035 111.806C206.855 112.269 206.765 112.81 206.765 113.427ZM218.116 117.735C217.369 117.735 216.714 117.557 216.151 117.202C215.591 116.846 215.153 116.349 214.837 115.71C214.525 115.071 214.368 114.325 214.368 113.47C214.368 112.609 214.525 111.857 214.837 111.214C215.153 110.571 215.591 110.072 216.151 109.717C216.714 109.362 217.369 109.184 218.116 109.184C218.863 109.184 219.516 109.362 220.076 109.717C220.64 110.072 221.078 110.571 221.39 111.214C221.706 111.857 221.864 112.609 221.864 113.47C221.864 114.325 221.706 115.071 221.39 115.71C221.078 116.349 220.64 116.846 220.076 117.202C219.516 117.557 218.863 117.735 218.116 117.735ZM218.116 116.593C218.683 116.593 219.15 116.448 219.516 116.157C219.882 115.866 220.153 115.484 220.329 115.01C220.505 114.536 220.593 114.023 220.593 113.47C220.593 112.917 220.505 112.402 220.329 111.925C220.153 111.447 219.882 111.061 219.516 110.767C219.15 110.473 218.683 110.326 218.116 110.326C217.549 110.326 217.082 110.473 216.716 110.767C216.35 111.061 216.079 111.447 215.903 111.925C215.727 112.402 215.639 112.917 215.639 113.47C215.639 114.023 215.727 114.536 215.903 115.01C216.079 115.484 216.35 115.866 216.716 116.157C217.082 116.448 217.549 116.593 218.116 116.593ZM223.804 117.562V109.292H227.185C228.075 109.292 228.783 109.493 229.307 109.895C229.831 110.297 230.093 110.828 230.093 111.489C230.093 111.991 229.944 112.381 229.646 112.657C229.348 112.93 228.966 113.115 228.499 113.212C228.804 113.255 229.1 113.362 229.387 113.535C229.678 113.707 229.919 113.944 230.109 114.246C230.299 114.544 230.394 114.91 230.394 115.344C230.394 115.768 230.287 116.146 230.071 116.48C229.856 116.814 229.547 117.078 229.145 117.272C228.743 117.466 228.262 117.562 227.702 117.562H223.804ZM225.01 116.399H227.702C228.14 116.399 228.483 116.295 228.731 116.087C228.978 115.879 229.102 115.595 229.102 115.236C229.102 114.809 228.978 114.474 228.731 114.229C228.483 113.982 228.14 113.858 227.702 113.858H225.01V116.399ZM225.01 112.759H227.185C227.526 112.759 227.819 112.713 228.063 112.619C228.307 112.522 228.494 112.386 228.623 112.21C228.756 112.031 228.822 111.819 228.822 111.575C228.822 111.227 228.677 110.954 228.386 110.756C228.095 110.555 227.695 110.455 227.185 110.455H225.01V112.759ZM234.752 117.756C234.228 117.756 233.752 117.658 233.325 117.46C232.898 117.259 232.559 116.97 232.307 116.593C232.056 116.213 231.93 115.753 231.93 115.215C231.93 114.741 232.024 114.357 232.21 114.062C232.397 113.765 232.647 113.531 232.959 113.362C233.271 113.194 233.616 113.068 233.993 112.986C234.373 112.899 234.756 112.831 235.14 112.781C235.642 112.716 236.05 112.668 236.362 112.636C236.678 112.6 236.908 112.54 237.051 112.458C237.198 112.375 237.272 112.232 237.272 112.027V111.984C237.272 111.453 237.127 111.04 236.836 110.746C236.549 110.451 236.112 110.304 235.527 110.304C234.921 110.304 234.445 110.437 234.1 110.702C233.756 110.968 233.513 111.252 233.373 111.553L232.167 111.122C232.383 110.62 232.67 110.229 233.029 109.949C233.391 109.665 233.786 109.468 234.213 109.356C234.644 109.241 235.068 109.184 235.484 109.184C235.75 109.184 236.055 109.216 236.4 109.281C236.748 109.342 237.083 109.469 237.407 109.663C237.733 109.857 238.004 110.15 238.22 110.541C238.435 110.932 238.543 111.456 238.543 112.113V117.562H237.272V116.442H237.207C237.121 116.622 236.978 116.814 236.777 117.019C236.576 117.223 236.308 117.397 235.974 117.541C235.64 117.685 235.233 117.756 234.752 117.756ZM234.946 116.615C235.448 116.615 235.872 116.516 236.217 116.319C236.565 116.121 236.827 115.866 237.003 115.554C237.182 115.242 237.272 114.913 237.272 114.569V113.406C237.218 113.47 237.1 113.529 236.917 113.583C236.737 113.634 236.529 113.678 236.292 113.718C236.059 113.754 235.831 113.786 235.608 113.815C235.389 113.84 235.211 113.861 235.075 113.879C234.745 113.922 234.436 113.992 234.149 114.089C233.865 114.183 233.636 114.325 233.46 114.515C233.287 114.701 233.201 114.956 233.201 115.279C233.201 115.721 233.364 116.055 233.691 116.281C234.021 116.504 234.44 116.615 234.946 116.615ZM246.398 112.846V114.03H241.831V112.846H246.398ZM242.133 109.292V117.562H240.862V109.292H242.133ZM247.367 109.292V117.562H246.096V109.292H247.367ZM253.048 117.735C252.301 117.735 251.646 117.557 251.082 117.202C250.522 116.846 250.084 116.349 249.768 115.71C249.456 115.071 249.3 114.325 249.3 113.47C249.3 112.609 249.456 111.857 249.768 111.214C250.084 110.571 250.522 110.072 251.082 109.717C251.646 109.362 252.301 109.184 253.048 109.184C253.794 109.184 254.448 109.362 255.008 109.717C255.571 110.072 256.009 110.571 256.321 111.214C256.637 111.857 256.795 112.609 256.795 113.47C256.795 114.325 256.637 115.071 256.321 115.71C256.009 116.349 255.571 116.846 255.008 117.202C254.448 117.557 253.794 117.735 253.048 117.735ZM253.048 116.593C253.615 116.593 254.081 116.448 254.448 116.157C254.814 115.866 255.085 115.484 255.261 115.01C255.436 114.536 255.524 114.023 255.524 113.47C255.524 112.917 255.436 112.402 255.261 111.925C255.085 111.447 254.814 111.061 254.448 110.767C254.081 110.473 253.615 110.326 253.048 110.326C252.48 110.326 252.014 110.473 251.648 110.767C251.281 111.061 251.01 111.447 250.834 111.925C250.659 112.402 250.571 112.917 250.571 113.47C250.571 114.023 250.659 114.536 250.834 115.01C251.01 115.484 251.281 115.866 251.648 116.157C252.014 116.448 252.48 116.593 253.048 116.593Z" fill="black"/>
<circle opacity="0.8" cx="30.65" cy="142.045" r="8.84535" fill="#616B89"/>
<path d="M60.4518 137.172V148.199H59.1164V138.356H53.5595V148.199H52.2241V137.172H60.4518ZM66.3332 148.372C65.5865 148.372 64.9314 148.194 64.3678 147.838C63.8078 147.483 63.3698 146.986 63.0539 146.347C62.7416 145.708 62.5855 144.961 62.5855 144.107C62.5855 143.245 62.7416 142.493 63.0539 141.851C63.3698 141.208 63.8078 140.709 64.3678 140.354C64.9314 139.998 65.5865 139.821 66.3332 139.821C67.0798 139.821 67.7332 139.998 68.2932 140.354C68.8568 140.709 69.2947 141.208 69.607 141.851C69.9229 142.493 70.0809 143.245 70.0809 144.107C70.0809 144.961 69.9229 145.708 69.607 146.347C69.2947 146.986 68.8568 147.483 68.2932 147.838C67.7332 148.194 67.0798 148.372 66.3332 148.372ZM66.3332 147.23C66.9004 147.23 67.367 147.085 67.7332 146.794C68.0993 146.503 68.3704 146.121 68.5463 145.647C68.7222 145.173 68.8101 144.66 68.8101 144.107C68.8101 143.554 68.7222 143.039 68.5463 142.562C68.3704 142.084 68.0993 141.698 67.7332 141.404C67.367 141.109 66.9004 140.962 66.3332 140.962C65.766 140.962 65.2993 141.109 64.9332 141.404C64.567 141.698 64.296 142.084 64.1201 142.562C63.9442 143.039 63.8562 143.554 63.8562 144.107C63.8562 144.66 63.9442 145.173 64.1201 145.647C64.296 146.121 64.567 146.503 64.9332 146.794C65.2993 147.085 65.766 147.23 66.3332 147.23ZM71.1376 150.568V147.015H71.8268C71.9956 146.839 72.1409 146.648 72.263 146.444C72.385 146.239 72.4909 145.997 72.5807 145.717C72.674 145.433 72.753 145.089 72.8176 144.683C72.8822 144.274 72.9397 143.78 72.9899 143.202L73.2699 139.928H78.5253V147.015H79.7961V150.568H78.5253V148.199H72.4084V150.568H71.1376ZM73.2699 147.015H77.2545V141.113H74.4545L74.2391 143.202C74.1494 144.067 74.0381 144.823 73.9053 145.469C73.7725 146.115 73.5607 146.63 73.2699 147.015ZM84.8428 148.372C84.0962 148.372 83.441 148.194 82.8774 147.838C82.3174 147.483 81.8795 146.986 81.5636 146.347C81.2513 145.708 81.0951 144.961 81.0951 144.107C81.0951 143.245 81.2513 142.493 81.5636 141.851C81.8795 141.208 82.3174 140.709 82.8774 140.354C83.441 139.998 84.0962 139.821 84.8428 139.821C85.5895 139.821 86.2428 139.998 86.8028 140.354C87.3664 140.709 87.8044 141.208 88.1167 141.851C88.4326 142.493 88.5905 143.245 88.5905 144.107C88.5905 144.961 88.4326 145.708 88.1167 146.347C87.8044 146.986 87.3664 147.483 86.8028 147.838C86.2428 148.194 85.5895 148.372 84.8428 148.372ZM84.8428 147.23C85.41 147.23 85.8767 147.085 86.2428 146.794C86.609 146.503 86.88 146.121 87.0559 145.647C87.2318 145.173 87.3197 144.66 87.3197 144.107C87.3197 143.554 87.2318 143.039 87.0559 142.562C86.88 142.084 86.609 141.698 86.2428 141.404C85.8767 141.109 85.41 140.962 84.8428 140.962C84.2756 140.962 83.809 141.109 83.4428 141.404C83.0767 141.698 82.8056 142.084 82.6297 142.562C82.4538 143.039 82.3659 143.554 82.3659 144.107C82.3659 144.66 82.4538 145.173 82.6297 145.647C82.8056 146.121 83.0767 146.503 83.4428 146.794C83.809 147.085 84.2756 147.23 84.8428 147.23ZM90.0134 146.088H91.3703C91.399 146.462 91.5678 146.745 91.8765 146.939C92.1888 147.133 92.5944 147.23 93.0934 147.23C93.6032 147.23 94.0393 147.126 94.4019 146.918C94.7644 146.706 94.9457 146.365 94.9457 145.895C94.9457 145.618 94.8775 145.378 94.7411 145.173C94.6047 144.965 94.4126 144.803 94.1649 144.688C93.9173 144.574 93.6247 144.516 93.2873 144.516H91.8657V143.375H93.2873C93.7934 143.375 94.1667 143.26 94.4073 143.03C94.6514 142.8 94.7734 142.513 94.7734 142.168C94.7734 141.799 94.6424 141.503 94.3803 141.28C94.1183 141.054 93.7467 140.941 93.2657 140.941C92.7811 140.941 92.3773 141.05 92.0542 141.269C91.7311 141.485 91.5606 141.763 91.5426 142.104H90.2072C90.2216 141.659 90.358 141.266 90.6165 140.925C90.8749 140.58 91.2267 140.311 91.6719 140.117C92.117 139.919 92.6267 139.821 93.2011 139.821C93.7826 139.821 94.287 139.923 94.7142 140.128C95.145 140.329 95.477 140.603 95.7103 140.952C95.9473 141.296 96.0657 141.687 96.0657 142.125C96.0657 142.592 95.9347 142.969 95.6726 143.256C95.4106 143.543 95.0821 143.748 94.6873 143.87V143.956C94.9996 143.978 95.2706 144.078 95.5003 144.258C95.7337 144.434 95.915 144.665 96.0442 144.952C96.1734 145.236 96.238 145.55 96.238 145.895C96.238 146.397 96.1034 146.835 95.8342 147.208C95.565 147.578 95.1952 147.865 94.7249 148.07C94.2547 148.271 93.718 148.372 93.1149 148.372C92.5298 148.372 92.0057 148.276 91.5426 148.086C91.0796 147.892 90.7116 147.625 90.4388 147.284C90.1696 146.939 90.0278 146.541 90.0134 146.088ZM98.023 151.301V139.928H99.2507V141.242H99.4015C99.4948 141.099 99.6241 140.916 99.7892 140.693C99.9579 140.467 100.198 140.266 100.511 140.09C100.827 139.91 101.254 139.821 101.792 139.821C102.489 139.821 103.103 139.995 103.634 140.343C104.165 140.691 104.58 141.185 104.878 141.824C105.176 142.463 105.325 143.217 105.325 144.085C105.325 144.961 105.176 145.72 104.878 146.363C104.58 147.002 104.167 147.497 103.639 147.849C103.112 148.197 102.503 148.372 101.814 148.372C101.283 148.372 100.857 148.284 100.538 148.108C100.218 147.928 99.9723 147.725 99.8 147.499C99.6277 147.269 99.4948 147.079 99.4015 146.928H99.2938V151.301H98.023ZM99.2723 144.064C99.2723 144.688 99.3638 145.239 99.5469 145.717C99.73 146.191 99.9974 146.562 100.349 146.832C100.701 147.097 101.132 147.23 101.642 147.23C102.173 147.23 102.616 147.09 102.972 146.81C103.33 146.526 103.6 146.146 103.779 145.668C103.962 145.187 104.054 144.653 104.054 144.064C104.054 143.482 103.964 142.958 103.785 142.492C103.609 142.021 103.341 141.65 102.982 141.377C102.627 141.1 102.18 140.962 101.642 140.962C101.125 140.962 100.69 141.093 100.338 141.355C99.9866 141.614 99.721 141.976 99.5415 142.443C99.362 142.906 99.2723 143.446 99.2723 144.064ZM108.534 146.325L112.518 139.928H113.983V148.199H112.712V141.802L108.749 148.199H107.263V139.928H108.534V146.325ZM115.185 141.113V139.928H121.905V141.113H119.191V148.199H117.921V141.113H115.185ZM126.797 148.372C126 148.372 125.313 148.196 124.735 147.844C124.16 147.488 123.717 146.993 123.405 146.358C123.096 145.719 122.942 144.976 122.942 144.128C122.942 143.281 123.096 142.535 123.405 141.888C123.717 141.239 124.151 140.733 124.708 140.37C125.268 140.004 125.921 139.821 126.668 139.821C127.099 139.821 127.524 139.893 127.944 140.036C128.364 140.18 128.746 140.413 129.091 140.736C129.436 141.056 129.71 141.479 129.915 142.007C130.119 142.535 130.222 143.184 130.222 143.956V144.495H123.846V143.396H128.929C128.929 142.929 128.836 142.513 128.649 142.147C128.466 141.781 128.204 141.492 127.863 141.28C127.526 141.068 127.127 140.962 126.668 140.962C126.162 140.962 125.724 141.088 125.354 141.339C124.988 141.587 124.706 141.91 124.509 142.308C124.311 142.707 124.213 143.134 124.213 143.59V144.322C124.213 144.947 124.32 145.476 124.536 145.911C124.755 146.342 125.058 146.67 125.446 146.896C125.833 147.119 126.284 147.23 126.797 147.23C127.131 147.23 127.433 147.183 127.702 147.09C127.975 146.993 128.21 146.849 128.407 146.659C128.605 146.465 128.757 146.225 128.865 145.938L130.093 146.282C129.963 146.699 129.746 147.065 129.441 147.381C129.136 147.693 128.759 147.937 128.31 148.113C127.861 148.285 127.357 148.372 126.797 148.372ZM131.423 148.199V147.015H131.724C131.972 147.015 132.178 146.966 132.343 146.869C132.508 146.769 132.641 146.595 132.742 146.347C132.846 146.096 132.925 145.747 132.979 145.302C133.036 144.854 133.077 144.283 133.103 143.59L133.253 139.928H138.767V148.199H137.496V141.113H134.459L134.33 144.064C134.301 144.742 134.24 145.34 134.147 145.857C134.057 146.37 133.919 146.801 133.733 147.149C133.549 147.497 133.305 147.759 133 147.935C132.695 148.111 132.313 148.199 131.853 148.199H131.423ZM142.197 142.922H144.566C145.536 142.922 146.277 143.168 146.79 143.66C147.304 144.152 147.56 144.775 147.56 145.528C147.56 146.024 147.445 146.474 147.216 146.88C146.986 147.282 146.648 147.603 146.203 147.844C145.758 148.081 145.213 148.199 144.566 148.199H141.099V139.928H142.369V147.015H144.566C145.069 147.015 145.482 146.882 145.805 146.616C146.128 146.35 146.289 146.009 146.289 145.593C146.289 145.155 146.128 144.798 145.805 144.522C145.482 144.245 145.069 144.107 144.566 144.107H142.197V142.922ZM155.03 143.482V144.667H150.464V143.482H155.03ZM150.765 139.928V148.199H149.495V139.928H150.765ZM155.999 139.928V148.199H154.729V139.928H155.999ZM159.419 142.922H161.788C162.757 142.922 163.498 143.168 164.012 143.66C164.525 144.152 164.782 144.775 164.782 145.528C164.782 146.024 164.667 146.474 164.437 146.88C164.207 147.282 163.87 147.603 163.425 147.844C162.98 148.081 162.434 148.199 161.788 148.199H158.32V139.928H159.591V147.015H161.788C162.29 147.015 162.703 146.882 163.026 146.616C163.349 146.35 163.511 146.009 163.511 145.593C163.511 145.155 163.349 144.798 163.026 144.522C162.703 144.245 162.29 144.107 161.788 144.107H159.419V142.922ZM166.095 148.199V139.928H167.366V148.199H166.095ZM173.16 148.372C172.363 148.372 171.676 148.196 171.098 147.844C170.523 147.488 170.08 146.993 169.768 146.358C169.459 145.719 169.305 144.976 169.305 144.128C169.305 143.281 169.459 142.535 169.768 141.888C170.08 141.239 170.514 140.733 171.071 140.37C171.631 140.004 172.284 139.821 173.031 139.821C173.462 139.821 173.887 139.893 174.307 140.036C174.727 140.18 175.109 140.413 175.454 140.736C175.799 141.056 176.073 141.479 176.278 142.007C176.482 142.535 176.585 143.184 176.585 143.956V144.495H170.209V143.396H175.292C175.292 142.929 175.199 142.513 175.012 142.147C174.829 141.781 174.567 141.492 174.226 141.28C173.889 141.068 173.49 140.962 173.031 140.962C172.525 140.962 172.087 141.088 171.717 141.339C171.351 141.587 171.069 141.91 170.872 142.308C170.674 142.707 170.575 143.134 170.575 143.59V144.322C170.575 144.947 170.683 145.476 170.899 145.911C171.118 146.342 171.421 146.67 171.809 146.896C172.196 147.119 172.647 147.23 173.16 147.23C173.494 147.23 173.795 147.183 174.065 147.09C174.338 146.993 174.573 146.849 174.77 146.659C174.968 146.465 175.12 146.225 175.228 145.938L176.455 146.282C176.326 146.699 176.109 147.065 175.804 147.381C175.499 147.693 175.122 147.937 174.673 148.113C174.224 148.285 173.72 148.372 173.16 148.372Z" fill="black"/>
<circle cx="30.65" cy="172.681" r="8.84535" fill="#75A0E5"/>
<path d="M52.2026 178.836V167.808H53.538V172.719H59.418V167.808H60.7534V178.836H59.418V173.904H53.538V178.836H52.2026ZM66.7222 179.008C65.9253 179.008 65.2379 178.832 64.6599 178.481C64.0855 178.125 63.6422 177.63 63.3299 176.994C63.0212 176.355 62.8668 175.612 62.8668 174.765C62.8668 173.918 63.0212 173.171 63.3299 172.525C63.6422 171.875 64.0766 171.369 64.633 171.007C65.193 170.641 65.8463 170.457 66.593 170.457C67.0238 170.457 67.4491 170.529 67.8691 170.673C68.2891 170.816 68.6714 171.05 69.0161 171.373C69.3607 171.692 69.6353 172.116 69.8399 172.644C70.0445 173.171 70.1468 173.821 70.1468 174.593V175.131H63.7714V174.033H68.8545C68.8545 173.566 68.7612 173.15 68.5745 172.784C68.3914 172.417 68.1294 172.128 67.7884 171.917C67.4509 171.705 67.0525 171.599 66.593 171.599C66.0868 171.599 65.6489 171.725 65.2791 171.976C64.913 172.224 64.6312 172.547 64.4337 172.945C64.2363 173.344 64.1376 173.771 64.1376 174.227V174.959C64.1376 175.584 64.2453 176.113 64.4607 176.547C64.6796 176.978 64.983 177.307 65.3707 177.533C65.7584 177.755 66.2089 177.867 66.7222 177.867C67.0561 177.867 67.3576 177.82 67.6268 177.727C67.8997 177.63 68.1348 177.486 68.3322 177.296C68.5297 177.102 68.6822 176.862 68.7899 176.574L70.0176 176.919C69.8884 177.335 69.6712 177.702 69.3661 178.017C69.0609 178.33 68.684 178.574 68.2353 178.75C67.7866 178.922 67.2822 179.008 66.7222 179.008ZM78.5845 170.565V177.651H79.7476V181.507H78.4768V178.836H72.0799V170.565H73.3507V177.651H77.3138V170.565H78.5845ZM85.0838 179.008C84.2869 179.008 83.5994 178.832 83.0215 178.481C82.4471 178.125 82.0038 177.63 81.6915 176.994C81.3827 176.355 81.2284 175.612 81.2284 174.765C81.2284 173.918 81.3827 173.171 81.6915 172.525C82.0038 171.875 82.4381 171.369 82.9945 171.007C83.5545 170.641 84.2079 170.457 84.9545 170.457C85.3853 170.457 85.8107 170.529 86.2307 170.673C86.6507 170.816 87.033 171.05 87.3776 171.373C87.7222 171.692 87.9969 172.116 88.2015 172.644C88.4061 173.171 88.5084 173.821 88.5084 174.593V175.131H82.133V174.033H87.2161C87.2161 173.566 87.1228 173.15 86.9361 172.784C86.753 172.417 86.491 172.128 86.1499 171.917C85.8125 171.705 85.414 171.599 84.9545 171.599C84.4484 171.599 84.0104 171.725 83.6407 171.976C83.2745 172.224 82.9928 172.547 82.7953 172.945C82.5979 173.344 82.4992 173.771 82.4992 174.227V174.959C82.4992 175.584 82.6069 176.113 82.8222 176.547C83.0412 176.978 83.3445 177.307 83.7322 177.533C84.1199 177.755 84.5704 177.867 85.0838 177.867C85.4176 177.867 85.7192 177.82 85.9884 177.727C86.2612 177.63 86.4963 177.486 86.6938 177.296C86.8912 177.102 87.0438 176.862 87.1515 176.574L88.3792 176.919C88.2499 177.335 88.0328 177.702 87.7276 178.017C87.4225 178.33 87.0456 178.574 86.5969 178.75C86.1481 178.922 85.6438 179.008 85.0838 179.008ZM89.7092 178.836V177.651H90.0107C90.2584 177.651 90.4648 177.603 90.6299 177.506C90.7951 177.405 90.9279 177.231 91.0284 176.984C91.1325 176.732 91.2115 176.384 91.2653 175.939C91.3228 175.49 91.364 174.92 91.3892 174.227L91.5399 170.565H97.0538V178.836H95.783V171.75H92.7461L92.6169 174.701C92.5882 175.379 92.5271 175.977 92.4338 176.494C92.3441 177.007 92.2058 177.438 92.0192 177.786C91.8361 178.134 91.592 178.396 91.2869 178.572C90.9817 178.748 90.5994 178.836 90.1399 178.836H89.7092ZM102.853 179.008C102.056 179.008 101.369 178.832 100.791 178.481C100.216 178.125 99.773 177.63 99.4607 176.994C99.152 176.355 98.9976 175.612 98.9976 174.765C98.9976 173.918 99.152 173.171 99.4607 172.525C99.773 171.875 100.207 171.369 100.764 171.007C101.324 170.641 101.977 170.457 102.724 170.457C103.155 170.457 103.58 170.529 104 170.673C104.42 170.816 104.802 171.05 105.147 171.373C105.492 171.692 105.766 172.116 105.971 172.644C106.175 173.171 106.278 173.821 106.278 174.593V175.131H99.9023V174.033H104.985C104.985 173.566 104.892 173.15 104.705 172.784C104.522 172.417 104.26 172.128 103.919 171.917C103.582 171.705 103.183 171.599 102.724 171.599C102.218 171.599 101.78 171.725 101.41 171.976C101.044 172.224 100.762 172.547 100.565 172.945C100.367 173.344 100.268 173.771 100.268 174.227V174.959C100.268 175.584 100.376 176.113 100.591 176.547C100.81 176.978 101.114 177.307 101.501 177.533C101.889 177.755 102.34 177.867 102.853 177.867C103.187 177.867 103.488 177.82 103.758 177.727C104.03 177.63 104.266 177.486 104.463 177.296C104.66 177.102 104.813 176.862 104.921 176.574L106.148 176.919C106.019 177.335 105.802 177.702 105.497 178.017C105.192 178.33 104.815 178.574 104.366 178.75C103.917 178.922 103.413 179.008 102.853 179.008ZM108.211 178.836V170.565H111.592C112.483 170.565 113.19 170.766 113.714 171.168C114.238 171.57 114.5 172.102 114.5 172.762C114.5 173.265 114.351 173.654 114.053 173.931C113.755 174.203 113.373 174.388 112.906 174.485C113.211 174.528 113.507 174.636 113.795 174.808C114.085 174.981 114.326 175.217 114.516 175.519C114.706 175.817 114.802 176.183 114.802 176.617C114.802 177.041 114.694 177.42 114.478 177.754C114.263 178.087 113.954 178.351 113.552 178.545C113.15 178.739 112.669 178.836 112.109 178.836H108.211ZM109.417 177.673H112.109C112.547 177.673 112.89 177.569 113.138 177.361C113.385 177.152 113.509 176.869 113.509 176.51C113.509 176.083 113.385 175.747 113.138 175.503C112.89 175.255 112.547 175.131 112.109 175.131H109.417V177.673ZM109.417 174.033H111.592C111.933 174.033 112.226 173.986 112.47 173.893C112.714 173.796 112.901 173.66 113.03 173.484C113.163 173.304 113.229 173.092 113.229 172.848C113.229 172.5 113.084 172.227 112.793 172.03C112.502 171.829 112.102 171.728 111.592 171.728H109.417V174.033ZM117.824 173.559H120.193C121.162 173.559 121.903 173.805 122.417 174.297C122.93 174.788 123.187 175.411 123.187 176.165C123.187 176.661 123.072 177.111 122.842 177.517C122.612 177.919 122.275 178.24 121.83 178.481C121.385 178.717 120.839 178.836 120.193 178.836H116.725V170.565H117.996V177.651H120.193C120.695 177.651 121.108 177.518 121.431 177.253C121.754 176.987 121.916 176.646 121.916 176.23C121.916 175.792 121.754 175.435 121.431 175.158C121.108 174.882 120.695 174.744 120.193 174.744H117.824V173.559ZM124.501 178.836V170.565H125.771V178.836H124.501ZM131.565 179.008C130.768 179.008 130.081 178.832 129.503 178.481C128.929 178.125 128.485 177.63 128.173 176.994C127.864 176.355 127.71 175.612 127.71 174.765C127.71 173.918 127.864 173.171 128.173 172.525C128.485 171.875 128.92 171.369 129.476 171.007C130.036 170.641 130.689 170.457 131.436 170.457C131.867 170.457 132.292 170.529 132.712 170.673C133.132 170.816 133.514 171.05 133.859 171.373C134.204 171.692 134.478 172.116 134.683 172.644C134.888 173.171 134.99 173.821 134.99 174.593V175.131H128.614V174.033H133.698C133.698 173.566 133.604 173.15 133.418 172.784C133.234 172.417 132.972 172.128 132.631 171.917C132.294 171.705 131.895 171.599 131.436 171.599C130.93 171.599 130.492 171.725 130.122 171.976C129.756 172.224 129.474 172.547 129.277 172.945C129.079 173.344 128.981 173.771 128.981 174.227V174.959C128.981 175.584 129.088 176.113 129.304 176.547C129.523 176.978 129.826 177.307 130.214 177.533C130.601 177.755 131.052 177.867 131.565 177.867C131.899 177.867 132.201 177.82 132.47 177.727C132.743 177.63 132.978 177.486 133.175 177.296C133.373 177.102 133.525 176.862 133.633 176.574L134.861 176.919C134.731 177.335 134.514 177.702 134.209 178.017C133.904 178.33 133.527 178.574 133.078 178.75C132.63 178.922 132.125 179.008 131.565 179.008ZM141.188 178.836V170.565H142.458V174.162H143.298L146.271 170.565H147.908L144.569 174.55L147.951 178.836H146.314L143.6 175.347H142.458V178.836H141.188ZM148.599 178.836V177.651H148.901C149.149 177.651 149.355 177.603 149.52 177.506C149.685 177.405 149.818 177.231 149.919 176.984C150.023 176.732 150.102 176.384 150.156 175.939C150.213 175.49 150.254 174.92 150.279 174.227L150.43 170.565H155.944V178.836H154.673V171.75H151.636L151.507 174.701C151.478 175.379 151.417 175.977 151.324 176.494C151.234 177.007 151.096 177.438 150.909 177.786C150.726 178.134 150.482 178.396 150.177 178.572C149.872 178.748 149.49 178.836 149.03 178.836H148.599ZM159.546 176.962L163.531 170.565H164.996V178.836H163.725V172.439L159.762 178.836H158.276V170.565H159.546V176.962ZM167.323 178.836V170.565H168.594V174.162H169.434L172.406 170.565H174.043L170.705 174.55L174.086 178.836H172.449L169.735 175.347H168.594V178.836H167.323ZM176.738 176.962L180.723 170.565H182.187V178.836H180.917V172.439L176.954 178.836H175.467V170.565H176.738V176.962Z" fill="black"/>
<circle cx="30.65" cy="203.314" r="7.2844" fill="#27C58B" stroke="#27C58B" stroke-width="3.12189"/>
<path d="M62.8374 208.198L62.6867 212.075H61.3082V209.469H60.5328V208.198H62.8374ZM53.4682 209.469V198.441H54.739V208.241H60.4251V198.441H61.6959V209.469H53.4682ZM68.1507 209.641C67.3538 209.641 66.6664 209.465 66.0884 209.113C65.5141 208.758 65.0707 208.263 64.7584 207.627C64.4497 206.988 64.2953 206.245 64.2953 205.398C64.2953 204.551 64.4497 203.804 64.7584 203.158C65.0707 202.508 65.5051 202.002 66.0615 201.64C66.6215 201.273 67.2748 201.09 68.0215 201.09C68.4523 201.09 68.8776 201.162 69.2976 201.306C69.7176 201.449 70.1 201.683 70.4446 202.006C70.7892 202.325 71.0638 202.749 71.2684 203.276C71.473 203.804 71.5753 204.454 71.5753 205.226V205.764H65.1999V204.666H70.283C70.283 204.199 70.1897 203.783 70.003 203.416C69.82 203.05 69.5579 202.761 69.2169 202.55C68.8794 202.338 68.481 202.232 68.0215 202.232C67.5153 202.232 67.0774 202.357 66.7076 202.609C66.3415 202.856 66.0597 203.18 65.8623 203.578C65.6648 203.976 65.5661 204.404 65.5661 204.86V205.592C65.5661 206.216 65.6738 206.746 65.8892 207.18C66.1082 207.611 66.4115 207.94 66.7992 208.166C67.1869 208.388 67.6374 208.5 68.1507 208.5C68.4846 208.5 68.7861 208.453 69.0553 208.36C69.3282 208.263 69.5633 208.119 69.7607 207.929C69.9582 207.735 70.1107 207.494 70.2184 207.207L71.4461 207.552C71.3169 207.968 71.0997 208.334 70.7946 208.65C70.4894 208.963 70.1125 209.207 69.6638 209.383C69.2151 209.555 68.7107 209.641 68.1507 209.641ZM72.7761 209.469V208.284H73.0777C73.3253 208.284 73.5318 208.236 73.6969 208.139C73.862 208.038 73.9948 207.864 74.0953 207.616C74.1995 207.365 74.2784 207.017 74.3323 206.572C74.3897 206.123 74.431 205.552 74.4561 204.86L74.6069 201.198H80.1207V209.469H78.85V202.383H75.813L75.6838 205.333C75.6551 206.012 75.5941 206.61 75.5007 207.126C75.411 207.64 75.2728 208.071 75.0861 208.419C74.903 208.767 74.6589 209.029 74.3538 209.205C74.0487 209.381 73.6664 209.469 73.2069 209.469H72.7761ZM85.92 209.641C85.1231 209.641 84.4356 209.465 83.8577 209.113C83.2833 208.758 82.84 208.263 82.5277 207.627C82.2189 206.988 82.0646 206.245 82.0646 205.398C82.0646 204.551 82.2189 203.804 82.5277 203.158C82.84 202.508 83.2743 202.002 83.8307 201.64C84.3907 201.273 85.0441 201.09 85.7907 201.09C86.2215 201.09 86.6469 201.162 87.0669 201.306C87.4869 201.449 87.8692 201.683 88.2138 202.006C88.5584 202.325 88.8331 202.749 89.0377 203.276C89.2423 203.804 89.3446 204.454 89.3446 205.226V205.764H82.9692V204.666H88.0523C88.0523 204.199 87.959 203.783 87.7723 203.416C87.5892 203.05 87.3272 202.761 86.9861 202.55C86.6487 202.338 86.2502 202.232 85.7907 202.232C85.2846 202.232 84.8466 202.357 84.4769 202.609C84.1107 202.856 83.829 203.18 83.6315 203.578C83.4341 203.976 83.3354 204.404 83.3354 204.86V205.592C83.3354 206.216 83.4431 206.746 83.6584 207.18C83.8774 207.611 84.1807 207.94 84.5684 208.166C84.9561 208.388 85.4066 208.5 85.92 208.5C86.2538 208.5 86.5554 208.453 86.8246 208.36C87.0974 208.263 87.3325 208.119 87.53 207.929C87.7274 207.735 87.88 207.494 87.9877 207.207L89.2154 207.552C89.0861 207.968 88.869 208.334 88.5638 208.65C88.2587 208.963 87.8818 209.207 87.4331 209.383C86.9843 209.555 86.48 209.641 85.92 209.641ZM91.2777 209.469V201.198H94.6592C95.5495 201.198 96.2567 201.399 96.7808 201.801C97.3049 202.203 97.5669 202.734 97.5669 203.395C97.5669 203.897 97.4179 204.287 97.12 204.563C96.822 204.836 96.4397 205.021 95.9731 205.118C96.2782 205.161 96.5744 205.269 96.8615 205.441C97.1523 205.613 97.3928 205.85 97.5831 206.152C97.7733 206.45 97.8685 206.816 97.8685 207.25C97.8685 207.674 97.7608 208.053 97.5454 208.386C97.33 208.72 97.0213 208.984 96.6192 209.178C96.2172 209.372 95.7361 209.469 95.1761 209.469H91.2777ZM92.4838 208.306H95.1761C95.6141 208.306 95.9569 208.202 96.2046 207.993C96.4523 207.785 96.5762 207.502 96.5762 207.143C96.5762 206.715 96.4523 206.38 96.2046 206.136C95.9569 205.888 95.6141 205.764 95.1761 205.764H92.4838V208.306ZM92.4838 204.666H94.6592C95.0003 204.666 95.2928 204.619 95.5369 204.526C95.781 204.429 95.9677 204.292 96.0969 204.116C96.2297 203.937 96.2961 203.725 96.2961 203.481C96.2961 203.133 96.1508 202.86 95.86 202.663C95.5692 202.462 95.169 202.361 94.6592 202.361H92.4838V204.666ZM100.891 204.192H103.26C104.229 204.192 104.97 204.438 105.484 204.93C105.997 205.421 106.254 206.044 106.254 206.798C106.254 207.293 106.139 207.744 105.909 208.15C105.679 208.552 105.342 208.873 104.897 209.113C104.452 209.35 103.906 209.469 103.26 209.469H99.7921V201.198H101.063V208.284H103.26C103.762 208.284 104.175 208.151 104.498 207.886C104.821 207.62 104.983 207.279 104.983 206.863C104.983 206.425 104.821 206.067 104.498 205.791C104.175 205.515 103.762 205.376 103.26 205.376H100.891V204.192ZM107.568 209.469V201.198H108.838V209.469H107.568ZM114.632 209.641C113.835 209.641 113.148 209.465 112.57 209.113C111.995 208.758 111.552 208.263 111.24 207.627C110.931 206.988 110.777 206.245 110.777 205.398C110.777 204.551 110.931 203.804 111.24 203.158C111.552 202.508 111.986 202.002 112.543 201.64C113.103 201.273 113.756 201.09 114.503 201.09C114.934 201.09 115.359 201.162 115.779 201.306C116.199 201.449 116.581 201.683 116.926 202.006C117.271 202.325 117.545 202.749 117.75 203.276C117.954 203.804 118.057 204.454 118.057 205.226V205.764H111.681V204.666H116.764C116.764 204.199 116.671 203.783 116.484 203.416C116.301 203.05 116.039 202.761 115.698 202.55C115.361 202.338 114.962 202.232 114.503 202.232C113.997 202.232 113.559 202.357 113.189 202.609C112.823 202.856 112.541 203.18 112.344 203.578C112.146 203.976 112.048 204.404 112.048 204.86V205.592C112.048 206.216 112.155 206.746 112.371 207.18C112.59 207.611 112.893 207.94 113.281 208.166C113.668 208.388 114.119 208.5 114.632 208.5C114.966 208.5 115.268 208.453 115.537 208.36C115.81 208.263 116.045 208.119 116.242 207.929C116.44 207.735 116.592 207.494 116.7 207.207L117.928 207.552C117.798 207.968 117.581 208.334 117.276 208.65C116.971 208.963 116.594 209.207 116.145 209.383C115.697 209.555 115.192 209.641 114.632 209.641ZM124.254 209.469V201.198H125.525V204.795H126.365L129.338 201.198H130.974L127.636 205.183L131.018 209.469H129.381L126.667 205.98H125.525V209.469H124.254ZM131.666 209.469V208.284H131.968C132.216 208.284 132.422 208.236 132.587 208.139C132.752 208.038 132.885 207.864 132.986 207.616C133.09 207.365 133.169 207.017 133.223 206.572C133.28 206.123 133.321 205.552 133.346 204.86L133.497 201.198H139.011V209.469H137.74V202.383H134.703L134.574 205.333C134.545 206.012 134.484 206.61 134.391 207.126C134.301 207.64 134.163 208.071 133.976 208.419C133.793 208.767 133.549 209.029 133.244 209.205C132.939 209.381 132.557 209.469 132.097 209.469H131.666ZM142.613 207.595L146.598 201.198H148.063V209.469H146.792V203.072L142.829 209.469H141.343V201.198H142.613V207.595ZM150.39 209.469V201.198H151.661V204.795H152.501L155.473 201.198H157.11L153.772 205.183L157.153 209.469H155.516L152.802 205.98H151.661V209.469H150.39ZM159.805 207.595L163.79 201.198H165.254V209.469H163.984V203.072L160.02 209.469H158.534V201.198H159.805V207.595Z" fill="black"/>
<g clip-path="url(#clip0_3280_28322)">
<g clip-path="url(#clip1_3280_28322)">
<g clip-path="url(#clip2_3280_28322)">
<path d="M161 141.686L165.367 143.298C169.733 144.91 178.753 151.472 187.2 148.586C204.4 142.711 205.633 82.8892 214.367 86.4652C223.1 90.0411 220.106 160.274 239.6 161.403C251.222 162.076 257.067 146.116 265.8 136.805C274.533 127.494 283.267 122.222 292 132.307C300.733 142.393 306.871 135.618 315.604 136.805C324.337 137.993 333.768 171.366 344.4 133.742C355.032 96.1192 357.474 92.3861 366.207 92.8307C374.94 93.2752 385.363 105.773 396.8 134.486C408.237 163.199 410.819 164.381 423 163.938C435.926 163.468 440.467 134.759 449.2 128.749C457.933 122.739 466.667 136.876 475.4 133.469C484.133 130.062 492.867 109.11 501.6 112.161C510.333 115.212 519.067 142.266 527.8 138.573C536.533 134.88 545.267 100.44 549.633 83.22L554 66" stroke="#8189A1" stroke-width="2" stroke-linecap="round"/>
</g>
<path d="M156 140.714L160.422 142.327C164.844 143.939 173.979 150.503 182.533 147.616C199.952 141.739 201.201 81.8954 210.046 85.4726C218.89 89.0499 215.858 159.308 235.6 160.438C247.37 161.111 253.289 145.145 262.133 135.831C270.978 126.517 279.822 121.242 288.667 131.331C297.511 141.421 302.183 138.539 311.028 139.727C319.872 140.915 330.966 170.404 341.733 132.767C352.501 95.1302 356.584 94.2839 365.428 94.7286C374.273 95.1734 383.218 104.788 394.8 133.511C406.382 162.234 408.997 163.417 421.333 162.974C434.424 162.504 439.022 133.784 447.867 127.772C456.711 121.76 465.556 135.902 474.4 132.494C483.244 129.085 492.089 108.126 500.933 111.178C509.778 114.23 518.622 141.294 527.467 137.6C536.311 133.905 545.156 99.4525 549.578 82.2263L554 65V194V288H527.467H156V140.714Z" fill="#8189A1" fill-opacity="0.2"/>
</g>
<rect x="299.098" y="167.855" width="22.7447" height="27.267" fill="#27C58B"/>
<rect x="299.098" y="167.855" width="22.7447" height="18.5415" fill="#6695E2"/>
<rect x="299.098" y="159.129" width="22.7447" height="35.9924" fill="#27C58B"/>
<rect x="299.098" y="140.59" width="22.7447" height="27.267" fill="#4F5A7C"/>
<rect x="299.098" y="144.578" width="22.7447" height="24.0082" fill="#6695E2"/>
<path d="M299.098 99.0894C299.098 94.9022 302.492 91.5078 306.679 91.5078H314.261C318.448 91.5078 321.842 94.9022 321.842 99.0894V140.588H299.098V99.0894Z" fill="#E26666"/>
<rect x="337.844" y="166.062" width="22.7447" height="21.6596" fill="#27C58B"/>
<rect x="337.844" y="176.969" width="22.7447" height="18.1558" fill="#27C58B"/>
<rect x="337.844" y="158.48" width="22.7447" height="35.9924" fill="#27C58B"/>
<rect x="337.844" y="140.789" width="22.7447" height="17.6903" fill="#6695E2"/>
<rect x="337.844" y="123.457" width="22.7447" height="17.3277" fill="#4F5A7C"/>
<path d="M337.844 87.7183C337.844 83.5311 341.238 80.1367 345.425 80.1367H353.007C357.194 80.1367 360.588 83.5311 360.588 87.7183V131.944H337.844V87.7183Z" fill="#E26666"/>
<rect x="376.586" y="158.477" width="22.7447" height="36.6442" fill="#27C58B"/>
<rect x="376.586" y="139.523" width="22.7447" height="18.9539" fill="#6695E2"/>
<rect x="376.586" y="139.922" width="22.7447" height="5.32039" fill="#4F5A7C"/>
<path d="M376.586 139.523C376.586 135.336 379.98 131.941 384.167 131.941H391.749C395.936 131.941 399.331 135.336 399.331 139.523V141.252H376.586V139.523Z" fill="#E26666"/>
<g clip-path="url(#clip3_3280_28322)">
<rect x="415.332" y="152.16" width="22.7447" height="42.9621" fill="#27C58B"/>
<path d="M415.332 139.523C415.332 135.336 418.726 131.941 422.914 131.941H430.495C434.682 131.941 438.077 135.336 438.077 139.523V141.252H415.332V139.523Z" fill="#E26666"/>
<rect x="415.332" y="135.734" width="22.7447" height="7.58155" fill="#4F5A7C"/>
<rect x="415.332" y="139.523" width="22.7447" height="12.6359" fill="#6695E2"/>
</g>
<g clip-path="url(#clip4_3280_28322)">
<rect x="454.07" y="135.734" width="22.7447" height="59.3888" fill="#27C58B"/>
<path d="M454.074 123.097C454.074 118.91 457.469 115.516 461.656 115.516H469.237C473.424 115.516 476.819 118.91 476.819 123.097V124.826H454.074V123.097Z" fill="#E26666"/>
<rect opacity="0.9" x="454.074" y="115.516" width="22.7447" height="11.3723" fill="#E26666"/>
<rect x="454.07" y="123.098" width="22.7447" height="12.6359" fill="#6695E2"/>
</g>
<g clip-path="url(#clip5_3280_28322)">
<path d="M492.824 133.523C492.824 132.419 493.72 131.523 494.824 131.523H513.564C514.669 131.523 515.564 132.419 515.564 133.523V133.523H492.824V133.523Z" fill="#E26666"/>
<rect x="492.824" y="133.523" width="22.74" height="6" fill="#4F5A7C"/>
<rect x="492.82" y="139.523" width="22.7447" height="18.9539" fill="#6695E2"/>
<rect x="492.82" y="158.477" width="22.7447" height="36.6442" fill="#27C58B"/>
</g>
<g clip-path="url(#clip6_3280_28322)">
<path d="M532 124H555V195H532V124Z" fill="#27C58B"/>
<path d="M532 104C532 99.5817 535.582 96 540 96H547C551.418 96 555 99.5817 555 104V104H532V104Z" fill="#4F5A7C"/>
<rect x="532" y="104" width="23" height="28" fill="#6695E2"/>
</g>
</g>
<path d="M37.0876 65.6723H33.1568C33.085 65.1637 32.9384 64.712 32.7171 64.3172C32.4957 63.9163 32.2115 63.5753 31.8645 63.2941C31.5175 63.0129 31.1166 62.7975 30.6619 62.6479C30.2132 62.4984 29.7256 62.4236 29.1991 62.4236C28.2478 62.4236 27.4192 62.6599 26.7132 63.1325C26.0072 63.5992 25.4598 64.2813 25.0709 65.1787C24.682 66.0702 24.4875 67.1531 24.4875 68.4274C24.4875 69.7377 24.682 70.8385 25.0709 71.73C25.4658 72.6215 26.0162 73.2945 26.7222 73.7492C27.4282 74.2039 28.2448 74.4313 29.1722 74.4313C29.6927 74.4313 30.1743 74.3625 30.617 74.2249C31.0658 74.0873 31.4636 73.8868 31.8106 73.6236C32.1576 73.3544 32.4448 73.0283 32.6722 72.6454C32.9055 72.2625 33.0671 71.8257 33.1568 71.3351L37.0876 71.3531C36.9859 72.1967 36.7316 73.0103 36.3248 73.7941C35.9239 74.5719 35.3824 75.2689 34.7004 75.8851C34.0243 76.4954 33.2166 76.98 32.2773 77.339C31.344 77.692 30.288 77.8685 29.1094 77.8685C27.47 77.8685 26.0042 77.4975 24.7119 76.7556C23.4256 76.0138 22.4085 74.9398 21.6606 73.5338C20.9187 72.1279 20.5478 70.4257 20.5478 68.4274C20.5478 66.4232 20.9247 64.718 21.6786 63.312C22.4324 61.906 23.4555 60.8351 24.7478 60.0992C26.0401 59.3573 27.494 58.9864 29.1094 58.9864C30.1743 58.9864 31.1615 59.136 32.0709 59.4351C32.9863 59.7342 33.797 60.171 34.503 60.7454C35.2089 61.3137 35.7833 62.0107 36.226 62.8364C36.6748 63.662 36.9619 64.6073 37.0876 65.6723ZM39.0844 66.839V63.8325H51.5767V66.839H47.1344V77.6172H43.4908V66.839H39.0844ZM57.3315 77.8774C56.452 77.8774 55.6683 77.7249 54.9802 77.4198C54.2922 77.1086 53.7478 76.6509 53.3469 76.0467C52.952 75.4364 52.7546 74.6766 52.7546 73.7672C52.7546 73.0014 52.8952 72.3582 53.1764 71.8377C53.4576 71.3172 53.8405 70.8984 54.3251 70.5813C54.8097 70.2642 55.3601 70.0249 55.9764 69.8633C56.5986 69.7018 57.2507 69.5881 57.9328 69.5223C58.7345 69.4385 59.3807 69.3608 59.8713 69.289C60.3619 69.2112 60.7179 69.0975 60.9392 68.9479C61.1606 68.7984 61.2713 68.577 61.2713 68.2838V68.23C61.2713 67.6616 61.0918 67.2219 60.7328 66.9108C60.3798 66.5996 59.8773 66.4441 59.2251 66.4441C58.5371 66.4441 57.9896 66.5967 57.5828 66.9018C57.176 67.2009 56.9067 67.5779 56.7751 68.0326L53.2392 67.7454C53.4187 66.9078 53.7717 66.1838 54.2982 65.5736C54.8247 64.9573 55.5037 64.4847 56.3354 64.1556C57.173 63.8206 58.1422 63.6531 59.2431 63.6531C60.0089 63.6531 60.7418 63.7428 61.4418 63.9223C62.1478 64.1018 62.773 64.38 63.3174 64.7569C63.8679 65.1338 64.3016 65.6184 64.6187 66.2108C64.9358 66.7971 65.0944 67.5001 65.0944 68.3197V77.6172H61.4687V75.7056H61.361C61.1396 76.1364 60.8435 76.5163 60.4726 76.8454C60.1016 77.1685 59.6559 77.4227 59.1354 77.6082C58.6149 77.7877 58.0136 77.8774 57.3315 77.8774ZM58.4264 75.239C58.9888 75.239 59.4854 75.1283 59.9161 74.9069C60.3469 74.6796 60.6849 74.3744 60.9302 73.9915C61.1755 73.6086 61.2982 73.1749 61.2982 72.6903V71.2274C61.1785 71.3052 61.014 71.377 60.8046 71.4428C60.6012 71.5026 60.3708 71.5595 60.1136 71.6133C59.8563 71.6612 59.599 71.7061 59.3418 71.7479C59.0845 71.7838 58.8512 71.8167 58.6418 71.8467C58.1931 71.9125 57.8012 72.0172 57.4661 72.1608C57.1311 72.3044 56.8708 72.4988 56.6854 72.7441C56.4999 72.9834 56.4072 73.2826 56.4072 73.6415C56.4072 74.1621 56.5956 74.5599 56.9725 74.8351C57.3555 75.1044 57.8401 75.239 58.4264 75.239ZM66.6761 66.839V63.8325H79.1684V66.839H74.7261V77.6172H71.0825V66.839H66.6761ZM85.1386 72.5736L90.1014 63.8325H93.8707V77.6172H90.2271V68.8492L85.2822 77.6172H81.486V63.8325H85.1386V72.5736ZM103.164 77.8864C101.752 77.8864 100.537 77.5873 99.5201 76.989C98.5089 76.3847 97.7312 75.5471 97.1867 74.4762C96.6483 73.4052 96.379 72.1727 96.379 70.7787C96.379 69.3667 96.6512 68.1283 97.1957 67.0633C97.7461 65.9924 98.5269 65.1578 99.538 64.5595C100.549 63.9552 101.752 63.6531 103.146 63.6531C104.348 63.6531 105.401 63.8714 106.305 64.3082C107.208 64.7449 107.923 65.3582 108.45 66.1479C108.976 66.9377 109.266 67.865 109.32 68.93H105.712C105.611 68.242 105.341 67.6885 104.905 67.2697C104.474 66.8449 103.909 66.6326 103.209 66.6326C102.616 66.6326 102.099 66.7941 101.656 67.1172C101.219 67.4343 100.878 67.8979 100.633 68.5082C100.388 69.1185 100.265 69.8573 100.265 70.7249C100.265 71.6044 100.385 72.3522 100.624 72.9685C100.869 73.5847 101.213 74.0544 101.656 74.3774C102.099 74.7005 102.616 74.8621 103.209 74.8621C103.645 74.8621 104.037 74.7723 104.384 74.5928C104.737 74.4133 105.027 74.1531 105.255 73.8121C105.488 73.465 105.641 73.0492 105.712 72.5646H109.32C109.26 73.6176 108.973 74.545 108.459 75.3467C107.95 76.1424 107.247 76.7646 106.35 77.2133C105.452 77.6621 104.39 77.8864 103.164 77.8864ZM110.828 66.839V63.8325H123.32V66.839H118.878V77.6172H115.234V66.839H110.828ZM129.29 72.5736L134.253 63.8325H138.022V77.6172H134.379V68.8492L129.434 77.6172H125.638V63.8325H129.29V72.5736ZM141.087 77.6172V63.8325H144.91V69.1813H145.987L149.738 63.8325H154.226L149.353 70.671L154.279 77.6172H149.738L146.337 72.7262H144.91V77.6172H141.087ZM159.826 77.8774C158.946 77.8774 158.162 77.7249 157.474 77.4198C156.786 77.1086 156.242 76.6509 155.841 76.0467C155.446 75.4364 155.249 74.6766 155.249 73.7672C155.249 73.0014 155.389 72.3582 155.67 71.8377C155.952 71.3172 156.335 70.8984 156.819 70.5813C157.304 70.2642 157.854 70.0249 158.47 69.8633C159.093 69.7018 159.745 69.5881 160.427 69.5223C161.229 69.4385 161.875 69.3608 162.365 69.289C162.856 69.2112 163.212 69.0975 163.433 68.9479C163.655 68.7984 163.765 68.577 163.765 68.2838V68.23C163.765 67.6616 163.586 67.2219 163.227 66.9108C162.874 66.5996 162.371 66.4441 161.719 66.4441C161.031 66.4441 160.484 66.5967 160.077 66.9018C159.67 67.2009 159.401 67.5779 159.269 68.0326L155.733 67.7454C155.913 66.9078 156.266 66.1838 156.792 65.5736C157.319 64.9573 157.998 64.4847 158.829 64.1556C159.667 63.8206 160.636 63.6531 161.737 63.6531C162.503 63.6531 163.236 63.7428 163.936 63.9223C164.642 64.1018 165.267 64.38 165.812 64.7569C166.362 65.1338 166.796 65.6184 167.113 66.2108C167.43 66.7971 167.588 67.5001 167.588 68.3197V77.6172H163.963V75.7056H163.855C163.634 76.1364 163.338 76.5163 162.967 76.8454C162.596 77.1685 162.15 77.4227 161.629 77.6082C161.109 77.7877 160.508 77.8774 159.826 77.8774ZM160.92 75.239C161.483 75.239 161.979 75.1283 162.41 74.9069C162.841 74.6796 163.179 74.3744 163.424 73.9915C163.67 73.6086 163.792 73.1749 163.792 72.6903V71.2274C163.673 71.3052 163.508 71.377 163.299 71.4428C163.095 71.5026 162.865 71.5595 162.608 71.6133C162.35 71.6612 162.093 71.7061 161.836 71.7479C161.579 71.7838 161.345 71.8167 161.136 71.8467C160.687 71.9125 160.295 72.0172 159.96 72.1608C159.625 72.3044 159.365 72.4988 159.179 72.7441C158.994 72.9834 158.901 73.2826 158.901 73.6415C158.901 74.1621 159.09 74.5599 159.467 74.8351C159.85 75.1044 160.334 75.239 160.92 75.239ZM176.404 77.6172V63.8325H182.282C183.981 63.8325 185.324 64.1556 186.311 64.8018C187.298 65.4479 187.792 66.3663 187.792 67.5569C187.792 68.3048 187.514 68.927 186.957 69.4236C186.401 69.9202 185.629 70.2552 184.642 70.4287C185.468 70.4885 186.171 70.677 186.751 70.9941C187.337 71.3052 187.783 71.7091 188.088 72.2056C188.399 72.7022 188.555 73.2526 188.555 73.8569C188.555 74.6407 188.345 75.3138 187.927 75.8762C187.514 76.4386 186.907 76.8693 186.105 77.1685C185.309 77.4676 184.337 77.6172 183.188 77.6172H176.404ZM179.966 74.7544H183.188C183.721 74.7544 184.136 74.6287 184.436 74.3774C184.741 74.1202 184.893 73.7702 184.893 73.3274C184.893 72.8368 184.741 72.4509 184.436 72.1697C184.136 71.8885 183.721 71.7479 183.188 71.7479H179.966V74.7544ZM179.966 69.5044H182.362C182.745 69.5044 183.071 69.4505 183.341 69.3428C183.616 69.2291 183.825 69.0676 183.969 68.8582C184.118 68.6488 184.193 68.4005 184.193 68.1133C184.193 67.6885 184.023 67.3565 183.682 67.1172C183.341 66.8779 182.874 66.7582 182.282 66.7582H179.966V69.5044ZM194.617 72.5736L199.58 63.8325H203.349V77.6172H199.705V68.8492L194.761 77.6172H190.964V63.8325H194.617V72.5736ZM205.705 73.7133H209.411C209.429 74.168 209.633 74.527 210.022 74.7903C210.41 75.0535 210.913 75.1851 211.529 75.1851C212.151 75.1851 212.675 75.0415 213.1 74.7544C213.525 74.4612 213.737 74.0424 213.737 73.4979C213.737 73.1629 213.653 72.8727 213.486 72.6274C213.318 72.3762 213.085 72.1787 212.786 72.0351C212.486 71.8915 212.139 71.8197 211.745 71.8197H209.761V69.3159H211.745C212.337 69.3159 212.792 69.1783 213.109 68.9031C213.432 68.6279 213.593 68.2838 213.593 67.871C213.593 67.4043 213.426 67.0304 213.091 66.7492C212.762 66.462 212.316 66.3184 211.754 66.3184C211.185 66.3184 210.713 66.4471 210.336 66.7043C209.965 66.9556 209.773 67.2847 209.761 67.6915H206.073C206.085 66.8659 206.333 66.1509 206.818 65.5467C207.308 64.9424 207.966 64.4757 208.792 64.1467C209.624 63.8176 210.554 63.6531 211.583 63.6531C212.708 63.6531 213.677 63.8116 214.491 64.1287C215.31 64.4398 215.939 64.8855 216.375 65.4659C216.818 66.0462 217.039 66.7373 217.039 67.539C217.039 68.2689 216.8 68.8791 216.322 69.3697C215.843 69.8603 215.173 70.2103 214.311 70.4197V70.5633C214.88 70.5992 215.394 70.7518 215.855 71.021C216.316 71.2903 216.684 71.6612 216.959 72.1338C217.234 72.6005 217.372 73.1539 217.372 73.7941C217.372 74.6497 217.12 75.3826 216.618 75.9928C216.121 76.6031 215.433 77.0727 214.554 77.4018C213.68 77.7249 212.678 77.8864 211.547 77.8864C210.446 77.8864 209.459 77.7279 208.586 77.4108C207.718 77.0877 207.027 76.615 206.513 75.9928C206.004 75.3706 205.735 74.6108 205.705 73.7133ZM223.369 72.5736L228.331 63.8325H232.101V77.6172H228.457V68.8492L223.512 77.6172H219.716V63.8325H223.369V72.5736ZM233.781 66.839V63.8325H246.274V66.839H241.831V77.6172H238.188V66.839H233.781ZM254.326 77.8864C252.932 77.8864 251.726 77.5903 250.709 76.998C249.698 76.3997 248.917 75.568 248.367 74.5031C247.816 73.4321 247.541 72.1907 247.541 70.7787C247.541 69.3548 247.816 68.1103 248.367 67.0454C248.917 65.9744 249.698 65.1428 250.709 64.5505C251.726 63.9522 252.932 63.6531 254.326 63.6531C255.72 63.6531 256.922 63.9522 257.933 64.5505C258.951 65.1428 259.734 65.9744 260.285 67.0454C260.835 68.1103 261.11 69.3548 261.11 70.7787C261.11 72.1907 260.835 73.4321 260.285 74.5031C259.734 75.568 258.951 76.3997 257.933 76.998C256.922 77.5903 255.72 77.8864 254.326 77.8864ZM254.344 74.9249C254.978 74.9249 255.507 74.7454 255.932 74.3864C256.357 74.0215 256.677 73.5249 256.892 72.8967C257.114 72.2685 257.224 71.5535 257.224 70.7518C257.224 69.9501 257.114 69.2351 256.892 68.6069C256.677 67.9787 256.357 67.4821 255.932 67.1172C255.507 66.7522 254.978 66.5697 254.344 66.5697C253.704 66.5697 253.165 66.7522 252.728 67.1172C252.298 67.4821 251.971 67.9787 251.75 68.6069C251.535 69.2351 251.427 69.9501 251.427 70.7518C251.427 71.5535 251.535 72.2685 251.75 72.8967C251.971 73.5249 252.298 74.0215 252.728 74.3864C253.165 74.7454 253.704 74.9249 254.344 74.9249ZM263.596 77.6172V63.8325H269.475C271.174 63.8325 272.517 64.1556 273.504 64.8018C274.491 65.4479 274.985 66.3663 274.985 67.5569C274.985 68.3048 274.707 68.927 274.15 69.4236C273.594 69.9202 272.822 70.2552 271.835 70.4287C272.66 70.4885 273.363 70.677 273.944 70.9941C274.53 71.3052 274.976 71.7091 275.281 72.2056C275.592 72.7022 275.748 73.2526 275.748 73.8569C275.748 74.6407 275.538 75.3138 275.119 75.8762C274.707 76.4386 274.099 76.8693 273.298 77.1685C272.502 77.4676 271.53 77.6172 270.381 77.6172H263.596ZM267.159 74.7544H270.381C270.913 74.7544 271.329 74.6287 271.628 74.3774C271.933 74.1202 272.086 73.7702 272.086 73.3274C272.086 72.8368 271.933 72.4509 271.628 72.1697C271.329 71.8885 270.913 71.7479 270.381 71.7479H267.159V74.7544ZM267.159 69.5044H269.555C269.938 69.5044 270.264 69.4505 270.533 69.3428C270.809 69.2291 271.018 69.0676 271.162 68.8582C271.311 68.6488 271.386 68.4005 271.386 68.1133C271.386 67.6885 271.216 67.3565 270.875 67.1172C270.533 66.8779 270.067 66.7582 269.475 66.7582H267.159V69.5044Z" fill="#070707"/>
<path d="M295.245 204.972V216H293.575V206.642H293.511L290.872 208.365V206.771L293.624 204.972H295.245ZM297.996 213.846V212.5L302.762 204.972H303.822V206.954H303.149L299.741 212.349V212.435H306.272V213.846H297.996ZM303.225 216V213.437L303.235 212.823V204.972H304.813V216H303.225ZM308.817 216.102C308.522 216.102 308.269 215.998 308.057 215.79C307.846 215.578 307.74 215.323 307.74 215.025C307.74 214.731 307.846 214.48 308.057 214.272C308.269 214.06 308.522 213.954 308.817 213.954C309.111 213.954 309.364 214.06 309.576 214.272C309.788 214.48 309.893 214.731 309.893 215.025C309.893 215.223 309.843 215.404 309.743 215.569C309.646 215.731 309.517 215.86 309.355 215.957C309.193 216.054 309.014 216.102 308.817 216.102ZM315.468 216.183C314.617 216.179 313.89 215.955 313.287 215.51C312.684 215.065 312.223 214.417 311.903 213.566C311.584 212.715 311.424 211.691 311.424 210.492C311.424 209.296 311.584 208.275 311.903 207.428C312.226 206.58 312.689 205.934 313.293 205.489C313.899 205.044 314.624 204.822 315.468 204.822C316.312 204.822 317.035 205.046 317.638 205.495C318.241 205.94 318.702 206.586 319.022 207.433C319.345 208.277 319.506 209.296 319.506 210.492C319.506 211.694 319.347 212.721 319.027 213.572C318.708 214.419 318.246 215.067 317.643 215.515C317.04 215.961 316.315 216.183 315.468 216.183ZM315.468 214.745C316.215 214.745 316.798 214.381 317.218 213.652C317.642 212.924 317.853 211.87 317.853 210.492C317.853 209.576 317.756 208.803 317.563 208.171C317.372 207.535 317.098 207.054 316.739 206.728C316.383 206.397 315.96 206.232 315.468 206.232C314.725 206.232 314.142 206.598 313.718 207.331C313.294 208.063 313.081 209.117 313.077 210.492C313.077 211.411 313.172 212.188 313.363 212.823C313.556 213.455 313.831 213.934 314.186 214.261C314.542 214.584 314.969 214.745 315.468 214.745ZM325.267 216.151C324.775 216.144 324.29 216.054 323.813 215.882C323.339 215.709 322.908 215.422 322.52 215.02C322.133 214.618 321.822 214.078 321.589 213.399C321.359 212.721 321.244 211.874 321.244 210.858C321.244 209.896 321.339 209.041 321.53 208.295C321.724 207.548 322.002 206.918 322.364 206.405C322.727 205.888 323.165 205.495 323.678 205.225C324.191 204.956 324.768 204.822 325.407 204.822C326.064 204.822 326.647 204.951 327.157 205.209C327.666 205.468 328.079 205.825 328.395 206.281C328.715 206.737 328.917 207.255 329.004 207.837H327.361C327.25 207.377 327.029 207.002 326.699 206.712C326.369 206.421 325.938 206.275 325.407 206.275C324.599 206.275 323.969 206.627 323.517 207.331C323.068 208.034 322.842 209.013 322.838 210.265H322.919C323.109 209.953 323.342 209.687 323.619 209.468C323.899 209.246 324.211 209.075 324.556 208.957C324.904 208.835 325.27 208.774 325.654 208.774C326.293 208.774 326.871 208.93 327.388 209.242C327.909 209.551 328.323 209.978 328.632 210.524C328.941 211.069 329.095 211.694 329.095 212.398C329.095 213.101 328.935 213.738 328.616 214.309C328.3 214.88 327.855 215.332 327.28 215.666C326.706 215.996 326.035 216.158 325.267 216.151ZM325.261 214.751C325.685 214.751 326.064 214.647 326.397 214.438C326.731 214.23 326.995 213.95 327.189 213.598C327.383 213.247 327.48 212.854 327.48 212.419C327.48 211.996 327.385 211.61 327.194 211.262C327.008 210.913 326.749 210.637 326.419 210.432C326.092 210.228 325.719 210.125 325.299 210.125C324.979 210.125 324.683 210.186 324.41 210.308C324.141 210.431 323.904 210.599 323.7 210.815C323.495 211.03 323.334 211.278 323.215 211.558C323.1 211.834 323.043 212.127 323.043 212.435C323.043 212.848 323.138 213.231 323.328 213.582C323.522 213.934 323.786 214.218 324.12 214.433C324.457 214.645 324.838 214.751 325.261 214.751Z" fill="#9F9F9F"/>
<path d="M372.577 204.972V216H370.907V206.642H370.843L368.204 208.365V206.771L370.956 204.972H372.577ZM379.41 216.151C378.918 216.144 378.433 216.054 377.956 215.882C377.482 215.709 377.051 215.422 376.664 215.02C376.276 214.618 375.965 214.078 375.732 213.399C375.502 212.721 375.387 211.874 375.387 210.858C375.387 209.896 375.483 209.041 375.673 208.295C375.867 207.548 376.145 206.918 376.507 206.405C376.87 205.888 377.308 205.495 377.821 205.225C378.335 204.956 378.911 204.822 379.55 204.822C380.207 204.822 380.79 204.951 381.3 205.209C381.809 205.468 382.222 205.825 382.538 206.281C382.858 206.737 383.061 207.255 383.147 207.837H381.504C381.393 207.377 381.172 207.002 380.842 206.712C380.512 206.421 380.081 206.275 379.55 206.275C378.742 206.275 378.112 206.627 377.66 207.331C377.211 208.034 376.985 209.013 376.981 210.265H377.062C377.252 209.953 377.486 209.687 377.762 209.468C378.042 209.246 378.354 209.075 378.699 208.957C379.047 208.835 379.413 208.774 379.797 208.774C380.436 208.774 381.014 208.93 381.531 209.242C382.052 209.551 382.466 209.978 382.775 210.524C383.084 211.069 383.238 211.694 383.238 212.398C383.238 213.101 383.078 213.738 382.759 214.309C382.443 214.88 381.998 215.332 381.424 215.666C380.849 215.996 380.178 216.158 379.41 216.151ZM379.404 214.751C379.828 214.751 380.207 214.647 380.541 214.438C380.874 214.23 381.138 213.95 381.332 213.598C381.526 213.247 381.623 212.854 381.623 212.419C381.623 211.996 381.528 211.61 381.337 211.262C381.151 210.913 380.892 210.637 380.562 210.432C380.235 210.228 379.862 210.125 379.442 210.125C379.123 210.125 378.826 210.186 378.554 210.308C378.284 210.431 378.047 210.599 377.843 210.815C377.638 211.03 377.477 211.278 377.358 211.558C377.243 211.834 377.186 212.127 377.186 212.435C377.186 212.848 377.281 213.231 377.471 213.582C377.665 213.934 377.929 214.218 378.263 214.433C378.6 214.645 378.981 214.751 379.404 214.751ZM385.778 216.102C385.484 216.102 385.231 215.998 385.019 215.79C384.807 215.578 384.701 215.323 384.701 215.025C384.701 214.731 384.807 214.48 385.019 214.272C385.231 214.06 385.484 213.954 385.778 213.954C386.073 213.954 386.326 214.06 386.538 214.272C386.749 214.48 386.855 214.731 386.855 215.025C386.855 215.223 386.805 215.404 386.705 215.569C386.608 215.731 386.478 215.86 386.317 215.957C386.155 216.054 385.976 216.102 385.778 216.102ZM392.43 216.183C391.579 216.179 390.852 215.955 390.249 215.51C389.646 215.065 389.185 214.417 388.865 213.566C388.546 212.715 388.386 211.691 388.386 210.492C388.386 209.296 388.546 208.275 388.865 207.428C389.188 206.58 389.651 205.934 390.254 205.489C390.861 205.044 391.586 204.822 392.43 204.822C393.273 204.822 393.997 205.046 394.6 205.495C395.203 205.94 395.664 206.586 395.984 207.433C396.307 208.277 396.468 209.296 396.468 210.492C396.468 211.694 396.308 212.721 395.989 213.572C395.67 214.419 395.208 215.067 394.605 215.515C394.002 215.961 393.277 216.183 392.43 216.183ZM392.43 214.745C393.176 214.745 393.76 214.381 394.18 213.652C394.603 212.924 394.815 211.87 394.815 210.492C394.815 209.576 394.718 208.803 394.524 208.171C394.334 207.535 394.06 207.054 393.701 206.728C393.345 206.397 392.922 206.232 392.43 206.232C391.687 206.232 391.103 206.598 390.68 207.331C390.256 208.063 390.043 209.117 390.039 210.492C390.039 211.411 390.134 212.188 390.324 212.823C390.518 213.455 390.793 213.934 391.148 214.261C391.504 214.584 391.931 214.745 392.43 214.745ZM402.228 216.151C401.737 216.144 401.252 216.054 400.775 215.882C400.301 215.709 399.87 215.422 399.482 215.02C399.095 214.618 398.784 214.078 398.551 213.399C398.321 212.721 398.206 211.874 398.206 210.858C398.206 209.896 398.301 209.041 398.492 208.295C398.685 207.548 398.964 206.918 399.326 206.405C399.689 205.888 400.127 205.495 400.64 205.225C401.153 204.956 401.729 204.822 402.368 204.822C403.025 204.822 403.609 204.951 404.118 205.209C404.628 205.468 405.041 205.825 405.357 206.281C405.676 206.737 405.879 207.255 405.965 207.837H404.323C404.212 207.377 403.991 207.002 403.661 206.712C403.33 206.421 402.9 206.275 402.368 206.275C401.561 206.275 400.931 206.627 400.478 207.331C400.03 208.034 399.804 209.013 399.8 210.265H399.881C400.071 209.953 400.304 209.687 400.581 209.468C400.861 209.246 401.173 209.075 401.518 208.957C401.866 208.835 402.232 208.774 402.616 208.774C403.255 208.774 403.833 208.93 404.35 209.242C404.87 209.551 405.285 209.978 405.594 210.524C405.903 211.069 406.057 211.694 406.057 212.398C406.057 213.101 405.897 213.738 405.578 214.309C405.262 214.88 404.817 215.332 404.242 215.666C403.668 215.996 402.997 216.158 402.228 216.151ZM402.223 214.751C402.647 214.751 403.025 214.647 403.359 214.438C403.693 214.23 403.957 213.95 404.151 213.598C404.345 213.247 404.442 212.854 404.442 212.419C404.442 211.996 404.346 211.61 404.156 211.262C403.969 210.913 403.711 210.637 403.381 210.432C403.054 210.228 402.681 210.125 402.261 210.125C401.941 210.125 401.645 210.186 401.372 210.308C401.103 210.431 400.866 210.599 400.662 210.815C400.457 211.03 400.295 211.278 400.177 211.558C400.062 211.834 400.005 212.127 400.005 212.435C400.005 212.848 400.1 213.231 400.29 213.582C400.484 213.934 400.748 214.218 401.082 214.433C401.419 214.645 401.799 214.751 402.223 214.751Z" fill="#9F9F9F"/>
<path d="M449.913 204.972V216H448.243V206.642H448.179L445.54 208.365V206.771L448.292 204.972H449.913ZM456.622 216.151C455.85 216.151 455.168 216.018 454.576 215.752C453.987 215.487 453.526 215.121 453.192 214.654C452.858 214.187 452.693 213.656 452.696 213.06C452.693 212.593 452.788 212.164 452.982 211.773C453.179 211.378 453.447 211.05 453.784 210.788C454.122 210.522 454.498 210.353 454.915 210.282V210.217C454.366 210.084 453.926 209.79 453.596 209.334C453.265 208.878 453.102 208.354 453.106 207.762C453.102 207.198 453.251 206.695 453.553 206.254C453.858 205.809 454.276 205.459 454.807 205.204C455.338 204.949 455.943 204.822 456.622 204.822C457.293 204.822 457.893 204.951 458.42 205.209C458.952 205.464 459.37 205.814 459.675 206.259C459.98 206.701 460.134 207.202 460.138 207.762C460.134 208.354 459.966 208.878 459.632 209.334C459.298 209.79 458.864 210.084 458.329 210.217V210.282C458.742 210.353 459.113 210.522 459.443 210.788C459.777 211.05 460.043 211.378 460.24 211.773C460.441 212.164 460.544 212.593 460.547 213.06C460.544 213.656 460.375 214.187 460.041 214.654C459.707 215.121 459.244 215.487 458.652 215.752C458.063 216.018 457.386 216.151 456.622 216.151ZM456.622 214.788C457.078 214.788 457.473 214.713 457.806 214.562C458.14 214.408 458.399 214.194 458.582 213.922C458.765 213.645 458.858 213.322 458.862 212.952C458.858 212.568 458.758 212.229 458.56 211.935C458.366 211.64 458.103 211.409 457.769 211.24C457.435 211.071 457.053 210.987 456.622 210.987C456.187 210.987 455.802 211.071 455.464 211.24C455.127 211.409 454.861 211.64 454.667 211.935C454.473 212.229 454.378 212.568 454.382 212.952C454.378 213.322 454.466 213.645 454.646 213.922C454.829 214.194 455.089 214.408 455.426 214.562C455.764 214.713 456.162 214.788 456.622 214.788ZM456.622 209.657C456.988 209.657 457.313 209.583 457.596 209.436C457.88 209.289 458.103 209.084 458.264 208.822C458.429 208.56 458.514 208.253 458.517 207.902C458.514 207.557 458.431 207.255 458.27 206.997C458.112 206.738 457.891 206.539 457.607 206.399C457.324 206.256 456.995 206.184 456.622 206.184C456.241 206.184 455.907 206.256 455.62 206.399C455.337 206.539 455.116 206.738 454.958 206.997C454.8 207.255 454.723 207.557 454.726 207.902C454.723 208.253 454.802 208.56 454.963 208.822C455.125 209.084 455.347 209.289 455.631 209.436C455.918 209.583 456.249 209.657 456.622 209.657ZM463.233 216.102C462.938 216.102 462.685 215.998 462.474 215.79C462.262 215.578 462.156 215.323 462.156 215.025C462.156 214.731 462.262 214.48 462.474 214.272C462.685 214.06 462.938 213.954 463.233 213.954C463.527 213.954 463.78 214.06 463.992 214.272C464.204 214.48 464.31 214.731 464.31 215.025C464.31 215.223 464.259 215.404 464.159 215.569C464.062 215.731 463.933 215.86 463.771 215.957C463.61 216.054 463.43 216.102 463.233 216.102ZM469.884 216.183C469.033 216.179 468.306 215.955 467.703 215.51C467.1 215.065 466.639 214.417 466.32 213.566C466 212.715 465.84 211.691 465.84 210.492C465.84 209.296 466 208.275 466.32 207.428C466.643 206.58 467.106 205.934 467.709 205.489C468.315 205.044 469.041 204.822 469.884 204.822C470.728 204.822 471.451 205.046 472.054 205.495C472.657 205.94 473.119 206.586 473.438 207.433C473.761 208.277 473.923 209.296 473.923 210.492C473.923 211.694 473.763 212.721 473.443 213.572C473.124 214.419 472.663 215.067 472.06 215.515C471.456 215.961 470.731 216.183 469.884 216.183ZM469.884 214.745C470.631 214.745 471.214 214.381 471.634 213.652C472.058 212.924 472.27 211.87 472.27 210.492C472.27 209.576 472.173 208.803 471.979 208.171C471.789 207.535 471.514 207.054 471.155 206.728C470.8 206.397 470.376 206.232 469.884 206.232C469.141 206.232 468.558 206.598 468.134 207.331C467.711 208.063 467.497 209.117 467.493 210.492C467.493 211.411 467.589 212.188 467.779 212.823C467.973 213.455 468.247 213.934 468.603 214.261C468.958 214.584 469.385 214.745 469.884 214.745ZM479.683 216.151C479.191 216.144 478.706 216.054 478.229 215.882C477.755 215.709 477.324 215.422 476.937 215.02C476.549 214.618 476.238 214.078 476.005 213.399C475.775 212.721 475.661 211.874 475.661 210.858C475.661 209.896 475.756 209.041 475.946 208.295C476.14 207.548 476.418 206.918 476.781 206.405C477.143 205.888 477.581 205.495 478.094 205.225C478.608 204.956 479.184 204.822 479.823 204.822C480.48 204.822 481.063 204.951 481.573 205.209C482.083 205.468 482.495 205.825 482.811 206.281C483.131 206.737 483.334 207.255 483.42 207.837H481.777C481.666 207.377 481.445 207.002 481.115 206.712C480.785 206.421 480.354 206.275 479.823 206.275C479.015 206.275 478.385 206.627 477.933 207.331C477.484 208.034 477.258 209.013 477.254 210.265H477.335C477.525 209.953 477.759 209.687 478.035 209.468C478.315 209.246 478.627 209.075 478.972 208.957C479.32 208.835 479.686 208.774 480.071 208.774C480.71 208.774 481.287 208.93 481.804 209.242C482.325 209.551 482.74 209.978 483.048 210.524C483.357 211.069 483.511 211.694 483.511 212.398C483.511 213.101 483.352 213.738 483.032 214.309C482.716 214.88 482.271 215.332 481.697 215.666C481.122 215.996 480.451 216.158 479.683 216.151ZM479.677 214.751C480.101 214.751 480.48 214.647 480.814 214.438C481.147 214.23 481.411 213.95 481.605 213.598C481.799 213.247 481.896 212.854 481.896 212.419C481.896 211.996 481.801 211.61 481.611 211.262C481.424 210.913 481.165 210.637 480.835 210.432C480.508 210.228 480.135 210.125 479.715 210.125C479.396 210.125 479.099 210.186 478.827 210.308C478.557 210.431 478.321 210.599 478.116 210.815C477.911 211.03 477.75 211.278 477.631 211.558C477.516 211.834 477.459 212.127 477.459 212.435C477.459 212.848 477.554 213.231 477.744 213.582C477.938 213.934 478.202 214.218 478.536 214.433C478.873 214.645 479.254 214.751 479.677 214.751Z" fill="#9F9F9F"/>
<path d="M523.061 216V214.794L526.792 210.928C527.191 210.508 527.519 210.14 527.778 209.824C528.04 209.504 528.235 209.201 528.365 208.914C528.494 208.627 528.558 208.322 528.558 207.998C528.558 207.632 528.472 207.316 528.3 207.051C528.128 206.782 527.893 206.575 527.595 206.432C527.297 206.284 526.961 206.211 526.588 206.211C526.193 206.211 525.848 206.292 525.554 206.453C525.259 206.615 525.033 206.843 524.875 207.137C524.717 207.431 524.638 207.776 524.638 208.171H523.05C523.05 207.499 523.204 206.913 523.513 206.41C523.822 205.907 524.245 205.518 524.784 205.242C525.322 204.962 525.934 204.822 526.62 204.822C527.313 204.822 527.923 204.96 528.451 205.236C528.982 205.509 529.397 205.882 529.695 206.356C529.993 206.826 530.142 207.358 530.142 207.95C530.142 208.359 530.064 208.759 529.91 209.151C529.759 209.542 529.495 209.978 529.118 210.459C528.742 210.937 528.217 211.516 527.546 212.198L525.355 214.492V214.573H530.319V216H523.061ZM536.199 216.183C535.348 216.179 534.622 215.955 534.018 215.51C533.415 215.065 532.954 214.417 532.635 213.566C532.315 212.715 532.155 211.691 532.155 210.492C532.155 209.296 532.315 208.275 532.635 207.428C532.958 206.58 533.421 205.934 534.024 205.489C534.631 205.044 535.356 204.822 536.199 204.822C537.043 204.822 537.766 205.046 538.369 205.495C538.972 205.94 539.434 206.586 539.753 207.433C540.076 208.277 540.238 209.296 540.238 210.492C540.238 211.694 540.078 212.721 539.758 213.572C539.439 214.419 538.978 215.067 538.375 215.515C537.772 215.961 537.046 216.183 536.199 216.183ZM536.199 214.745C536.946 214.745 537.529 214.381 537.949 213.652C538.373 212.924 538.585 211.87 538.585 210.492C538.585 209.576 538.488 208.803 538.294 208.171C538.104 207.535 537.829 207.054 537.47 206.728C537.115 206.397 536.691 206.232 536.199 206.232C535.456 206.232 534.873 206.598 534.449 207.331C534.026 208.063 533.812 209.117 533.808 210.492C533.808 211.411 533.904 212.188 534.094 212.823C534.288 213.455 534.562 213.934 534.918 214.261C535.273 214.584 535.7 214.745 536.199 214.745ZM542.83 216.102C542.536 216.102 542.283 215.998 542.071 215.79C541.859 215.578 541.753 215.323 541.753 215.025C541.753 214.731 541.859 214.48 542.071 214.272C542.283 214.06 542.536 213.954 542.83 213.954C543.125 213.954 543.378 214.06 543.59 214.272C543.801 214.48 543.907 214.731 543.907 215.025C543.907 215.223 543.857 215.404 543.757 215.569C543.66 215.731 543.53 215.86 543.369 215.957C543.207 216.054 543.028 216.102 542.83 216.102ZM549.482 216.183C548.631 216.179 547.904 215.955 547.301 215.51C546.698 215.065 546.237 214.417 545.917 213.566C545.598 212.715 545.438 211.691 545.438 210.492C545.438 209.296 545.598 208.275 545.917 207.428C546.24 206.58 546.703 205.934 547.306 205.489C547.913 205.044 548.638 204.822 549.482 204.822C550.325 204.822 551.049 205.046 551.652 205.495C552.255 205.94 552.716 206.586 553.036 207.433C553.359 208.277 553.52 209.296 553.52 210.492C553.52 211.694 553.361 212.721 553.041 213.572C552.722 214.419 552.26 215.067 551.657 215.515C551.054 215.961 550.329 216.183 549.482 216.183ZM549.482 214.745C550.228 214.745 550.812 214.381 551.232 213.652C551.655 212.924 551.867 211.87 551.867 210.492C551.867 209.576 551.77 208.803 551.576 208.171C551.386 207.535 551.112 207.054 550.753 206.728C550.397 206.397 549.974 206.232 549.482 206.232C548.739 206.232 548.155 206.598 547.732 207.331C547.308 208.063 547.095 209.117 547.091 210.492C547.091 211.411 547.186 212.188 547.376 212.823C547.57 213.455 547.845 213.934 548.2 214.261C548.556 214.584 548.983 214.745 549.482 214.745ZM559.28 216.151C558.789 216.144 558.304 216.054 557.827 215.882C557.353 215.709 556.922 215.422 556.534 215.02C556.147 214.618 555.836 214.078 555.603 213.399C555.373 212.721 555.258 211.874 555.258 210.858C555.258 209.896 555.353 209.041 555.544 208.295C555.737 207.548 556.016 206.918 556.378 206.405C556.741 205.888 557.179 205.495 557.692 205.225C558.205 204.956 558.781 204.822 559.42 204.822C560.077 204.822 560.661 204.951 561.17 205.209C561.68 205.468 562.093 205.825 562.409 206.281C562.728 206.737 562.931 207.255 563.017 207.837H561.375C561.264 207.377 561.043 207.002 560.713 206.712C560.382 206.421 559.952 206.275 559.42 206.275C558.613 206.275 557.983 206.627 557.53 207.331C557.082 208.034 556.856 209.013 556.852 210.265H556.933C557.123 209.953 557.356 209.687 557.633 209.468C557.913 209.246 558.225 209.075 558.57 208.957C558.918 208.835 559.284 208.774 559.668 208.774C560.307 208.774 560.885 208.93 561.402 209.242C561.922 209.551 562.337 209.978 562.646 210.524C562.955 211.069 563.109 211.694 563.109 212.398C563.109 213.101 562.949 213.738 562.63 214.309C562.314 214.88 561.869 215.332 561.294 215.666C560.72 215.996 560.049 216.158 559.28 216.151ZM559.275 214.751C559.699 214.751 560.077 214.647 560.411 214.438C560.745 214.23 561.009 213.95 561.203 213.598C561.397 213.247 561.494 212.854 561.494 212.419C561.494 211.996 561.398 211.61 561.208 211.262C561.021 210.913 560.763 210.637 560.433 210.432C560.106 210.228 559.733 210.125 559.313 210.125C558.993 210.125 558.697 210.186 558.424 210.308C558.155 210.431 557.918 210.599 557.714 210.815C557.509 211.03 557.347 211.278 557.229 211.558C557.114 211.834 557.057 212.127 557.057 212.435C557.057 212.848 557.152 213.231 557.342 213.582C557.536 213.934 557.8 214.218 558.134 214.433C558.471 214.645 558.851 214.751 559.275 214.751Z" fill="#9F9F9F"/>
<defs>
<filter id="filter0_b_3280_28322" x="-84.8042" y="-84.8042" width="785.608" height="413.608" filterUnits="userSpaceOnUse" color-interpolation-filters="sRGB">
<feFlood flood-opacity="0" result="BackgroundImageFix"/>
<feGaussianBlur in="BackgroundImageFix" stdDeviation="42.6365"/>
<feComposite in2="SourceAlpha" operator="in" result="effect1_backgroundBlur_3280_28322"/>
<feBlend mode="normal" in="SourceGraphic" in2="effect1_backgroundBlur_3280_28322" result="shape"/>
</filter>
<filter id="filter1_di_3280_28322" x="1" y="1" width="614" height="30.3767" filterUnits="userSpaceOnUse" color-interpolation-filters="sRGB">
<feFlood flood-opacity="0" result="BackgroundImageFix"/>
<feColorMatrix in="SourceAlpha" type="matrix" values="0 0 0 0 0 0 0 0 0 0 0 0 0 0 0 0 0 0 127 0" result="hardAlpha"/>
<feOffset dy="0.532956"/>
<feColorMatrix type="matrix" values="0 0 0 0 0 0 0 0 0 0 0 0 0 0 0 0 0 0 0.15 0"/>
<feBlend mode="normal" in2="BackgroundImageFix" result="effect1_dropShadow_3280_28322"/>
<feBlend mode="normal" in="SourceGraphic" in2="effect1_dropShadow_3280_28322" result="shape"/>
<feColorMatrix in="SourceAlpha" type="matrix" values="0 0 0 0 0 0 0 0 0 0 0 0 0 0 0 0 0 0 127 0" result="hardAlpha"/>
<feOffset dy="-0.532956"/>
<feComposite in2="hardAlpha" operator="arithmetic" k2="-1" k3="1"/>
<feColorMatrix type="matrix" values="0 0 0 0 0 0 0 0 0 0 0 0 0 0 0 0 0 0 0.05 0"/>
<feBlend mode="normal" in2="shape" result="effect2_innerShadow_3280_28322"/>
</filter>
<clipPath id="clip0_3280_28322">
<rect width="317" height="123" fill="white" transform="translate(260 72)"/>
</clipPath>
<clipPath id="clip1_3280_28322">
<rect width="440.81" height="145.574" fill="white" transform="translate(298.875 56.9375)"/>
</clipPath>
<clipPath id="clip2_3280_28322">
<rect width="527" height="97" fill="white" transform="translate(27 69)"/>
</clipPath>
<clipPath id="clip3_3280_28322">
<path d="M415.332 140.787C415.332 135.902 419.292 131.941 424.177 131.941H429.232C434.117 131.941 438.077 135.902 438.077 140.787V195.121H415.332V140.787Z" fill="white"/>
</clipPath>
<clipPath id="clip4_3280_28322">
<path d="M454.074 124.361C454.074 119.476 458.034 115.516 462.919 115.516H467.974C472.859 115.516 476.819 119.476 476.819 124.361V195.122H454.074V124.361Z" fill="white"/>
</clipPath>
<clipPath id="clip5_3280_28322">
<path d="M492.82 139.523C492.82 135.105 496.402 131.523 500.82 131.523H507.565C511.983 131.523 515.565 135.105 515.565 139.523V195.121H492.82V139.523Z" fill="white"/>
</clipPath>
<clipPath id="clip6_3280_28322">
<path d="M532 102.845C532 97.9601 535.96 94 540.845 94H545.155C550.04 94 554 97.9601 554 102.845V195H532V102.845Z" fill="white"/>
</clipPath>
</defs>
</svg>
