<svg width="20" height="18" viewBox="0 0 20 18" fill="none" xmlns="http://www.w3.org/2000/svg">
<path d="M12.6201 7.04916C13.539 7.04916 14.2848 7.79492 14.2848 8.7138V13.2311C14.2848 14.3666 13.8337 15.4556 13.0308 16.2586C12.2278 17.0615 11.1388 17.5126 10.0033 17.5126C8.86782 17.5126 7.77882 17.0615 6.97589 16.2586C6.17297 15.4556 5.72189 14.3666 5.72189 13.2311V8.7138C5.72189 7.79492 6.46669 7.04916 7.38652 7.04916H12.6201ZM5.36899 7.04916C5.02638 7.46147 4.8203 7.97002 4.77923 8.50453L4.76972 8.7138V13.2311C4.76972 14.0368 4.95235 14.7997 5.27767 15.4808C4.71386 15.6316 4.12292 15.6507 3.55054 15.5367C2.97815 15.4227 2.43966 15.1785 1.9767 14.8232C1.51374 14.4678 1.13871 14.0107 0.880624 13.4872C0.622534 12.9638 0.488293 12.3879 0.488281 11.8043V8.7138C0.488297 8.29603 0.645395 7.89354 0.928391 7.58623C1.21139 7.27891 1.59959 7.08924 2.01594 7.05487L2.15292 7.04916H5.36899ZM14.6377 7.04916H17.848C18.7669 7.04916 19.5127 7.79492 19.5127 8.7138V11.8053C19.5128 12.3885 19.3788 12.964 19.1211 13.4872C18.8634 14.0105 18.4889 14.4674 18.0264 14.8229C17.564 15.1783 17.026 15.4227 16.4541 15.5371C15.8822 15.6515 15.2916 15.6329 14.728 15.4827C15.0134 14.8853 15.1884 14.2271 15.2274 13.5308L15.236 13.2311V8.7138C15.236 8.08123 15.0124 7.50099 14.6377 7.04916ZM10.0005 0.390625C10.7573 0.390625 11.4832 0.691278 12.0183 1.22644C12.5535 1.76161 12.8541 2.48745 12.8541 3.24428C12.8541 4.00112 12.5535 4.72696 12.0183 5.26212C11.4832 5.79729 10.7573 6.09794 10.0005 6.09794C9.24364 6.09794 8.5178 5.79729 7.98263 5.26212C7.44747 4.72696 7.14682 4.00112 7.14682 3.24428C7.14682 2.48745 7.44747 1.76161 7.98263 1.22644C8.5178 0.691278 9.24364 0.390625 10.0005 0.390625ZM16.1834 1.34184C16.8141 1.34184 17.419 1.59239 17.8649 2.03836C18.3109 2.48433 18.5614 3.0892 18.5614 3.71989C18.5614 4.35059 18.3109 4.95546 17.8649 5.40143C17.419 5.8474 16.8141 6.09794 16.1834 6.09794C15.5527 6.09794 14.9478 5.8474 14.5019 5.40143C14.0559 4.95546 13.8054 4.35059 13.8054 3.71989C13.8054 3.0892 14.0559 2.48433 14.5019 2.03836C14.9478 1.59239 15.5527 1.34184 16.1834 1.34184ZM3.81755 1.34184C4.44825 1.34184 5.05311 1.59239 5.49908 2.03836C5.94505 2.48433 6.1956 3.0892 6.1956 3.71989C6.1956 4.35059 5.94505 4.95546 5.49908 5.40143C5.05311 5.8474 4.44825 6.09794 3.81755 6.09794C3.18685 6.09794 2.58199 5.8474 2.13601 5.40143C1.69004 4.95546 1.4395 4.35059 1.4395 3.71989C1.4395 3.0892 1.69004 2.48433 2.13601 2.03836C2.58199 1.59239 3.18685 1.34184 3.81755 1.34184Z" fill="black"/>
<path d="M12.6201 7.04916C13.539 7.04916 14.2848 7.79492 14.2848 8.7138V13.2311C14.2848 14.3666 13.8337 15.4556 13.0308 16.2586C12.2278 17.0615 11.1388 17.5126 10.0033 17.5126C8.86782 17.5126 7.77882 17.0615 6.97589 16.2586C6.17297 15.4556 5.72189 14.3666 5.72189 13.2311V8.7138C5.72189 7.79492 6.46669 7.04916 7.38652 7.04916H12.6201ZM5.36899 7.04916C5.02638 7.46147 4.8203 7.97002 4.77923 8.50453L4.76972 8.7138V13.2311C4.76972 14.0368 4.95235 14.7997 5.27767 15.4808C4.71386 15.6316 4.12292 15.6507 3.55054 15.5367C2.97815 15.4227 2.43966 15.1785 1.9767 14.8232C1.51374 14.4678 1.13871 14.0107 0.880624 13.4872C0.622534 12.9638 0.488293 12.3879 0.488281 11.8043V8.7138C0.488297 8.29603 0.645395 7.89354 0.928391 7.58623C1.21139 7.27891 1.59959 7.08924 2.01594 7.05487L2.15292 7.04916H5.36899ZM14.6377 7.04916H17.848C18.7669 7.04916 19.5127 7.79492 19.5127 8.7138V11.8053C19.5128 12.3885 19.3788 12.964 19.1211 13.4872C18.8634 14.0105 18.4889 14.4674 18.0264 14.8229C17.564 15.1783 17.026 15.4227 16.4541 15.5371C15.8822 15.6515 15.2916 15.6329 14.728 15.4827C15.0134 14.8853 15.1884 14.2271 15.2274 13.5308L15.236 13.2311V8.7138C15.236 8.08123 15.0124 7.50099 14.6377 7.04916ZM10.0005 0.390625C10.7573 0.390625 11.4832 0.691278 12.0183 1.22644C12.5535 1.76161 12.8541 2.48745 12.8541 3.24428C12.8541 4.00112 12.5535 4.72696 12.0183 5.26212C11.4832 5.79729 10.7573 6.09794 10.0005 6.09794C9.24364 6.09794 8.5178 5.79729 7.98263 5.26212C7.44747 4.72696 7.14682 4.00112 7.14682 3.24428C7.14682 2.48745 7.44747 1.76161 7.98263 1.22644C8.5178 0.691278 9.24364 0.390625 10.0005 0.390625ZM16.1834 1.34184C16.8141 1.34184 17.419 1.59239 17.8649 2.03836C18.3109 2.48433 18.5614 3.0892 18.5614 3.71989C18.5614 4.35059 18.3109 4.95546 17.8649 5.40143C17.419 5.8474 16.8141 6.09794 16.1834 6.09794C15.5527 6.09794 14.9478 5.8474 14.5019 5.40143C14.0559 4.95546 13.8054 4.35059 13.8054 3.71989C13.8054 3.0892 14.0559 2.48433 14.5019 2.03836C14.9478 1.59239 15.5527 1.34184 16.1834 1.34184ZM3.81755 1.34184C4.44825 1.34184 5.05311 1.59239 5.49908 2.03836C5.94505 2.48433 6.1956 3.0892 6.1956 3.71989C6.1956 4.35059 5.94505 4.95546 5.49908 5.40143C5.05311 5.8474 4.44825 6.09794 3.81755 6.09794C3.18685 6.09794 2.58199 5.8474 2.13601 5.40143C1.69004 4.95546 1.4395 4.35059 1.4395 3.71989C1.4395 3.0892 1.69004 2.48433 2.13601 2.03836C2.58199 1.59239 3.18685 1.34184 3.81755 1.34184Z" fill="url(#paint0_linear_5002_23531)" fill-opacity="0.8"/>
<defs>
<linearGradient id="paint0_linear_5002_23531" x1="-2.8044" y1="-0.59718" x2="19.9617" y2="19.8626" gradientUnits="userSpaceOnUse">
<stop stop-color="#EF2DDC"/>
<stop offset="1" stop-color="#7443FF"/>
</linearGradient>
</defs>
</svg>
