<svg width="75" height="68" viewBox="0 0 75 68" fill="none" xmlns="http://www.w3.org/2000/svg">
<path d="M47.8275 26.25C51.45 26.25 54.39 29.19 54.39 32.8125V50.6213C54.39 55.0978 52.6117 59.391 49.4463 62.5563C46.281 65.7217 41.9878 67.5 37.5113 67.5C33.0347 67.5 28.7416 65.7217 25.5762 62.5563C22.4108 59.391 20.6325 55.0978 20.6325 50.6213V32.8125C20.6325 29.19 23.5687 26.25 27.195 26.25H47.8275ZM19.2413 26.25C17.8906 27.8755 17.0781 29.8803 16.9163 31.9875L16.8787 32.8125V50.6213C16.8787 53.7975 17.5987 56.805 18.8812 59.49C16.6586 60.0846 14.3289 60.1601 12.0724 59.7106C9.81584 59.261 7.69293 58.2985 5.8678 56.8975C4.04267 55.4965 2.56421 53.6945 1.54674 51.6308C0.529266 49.5671 4.61242e-05 47.2971 0 44.9963V32.8125C6.15172e-05 31.1655 0.619391 29.5788 1.73505 28.3673C2.85071 27.1558 4.38112 26.408 6.0225 26.2725L6.5625 26.25H19.2413ZM55.7812 26.25H68.4375C72.06 26.25 75 29.19 75 32.8125V45C75.0005 47.2994 74.4724 49.5681 73.4565 51.6308C72.4405 53.6936 70.964 55.4952 69.1409 56.8964C67.3178 58.2976 65.1969 59.2609 62.9422 59.7119C60.6875 60.163 58.3593 60.0896 56.1375 59.4975C57.2625 57.1425 57.9525 54.5475 58.1063 51.8025L58.14 50.6213V32.8125C58.14 30.3188 57.2587 28.0313 55.7812 26.25ZM37.5 0C40.4837 0 43.3452 1.18526 45.455 3.29505C47.5647 5.40483 48.75 8.26632 48.75 11.25C48.75 14.2337 47.5647 17.0952 45.455 19.205C43.3452 21.3147 40.4837 22.5 37.5 22.5C34.5163 22.5 31.6548 21.3147 29.545 19.205C27.4353 17.0952 26.25 14.2337 26.25 11.25C26.25 8.26632 27.4353 5.40483 29.545 3.29505C31.6548 1.18526 34.5163 0 37.5 0ZM61.875 3.75C64.3614 3.75 66.746 4.73772 68.5041 6.49587C70.2623 8.25403 71.25 10.6386 71.25 13.125C71.25 15.6114 70.2623 17.996 68.5041 19.7541C66.746 21.5123 64.3614 22.5 61.875 22.5C59.3886 22.5 57.004 21.5123 55.2459 19.7541C53.4877 17.996 52.5 15.6114 52.5 13.125C52.5 10.6386 53.4877 8.25403 55.2459 6.49587C57.004 4.73772 59.3886 3.75 61.875 3.75ZM13.125 3.75C15.6114 3.75 17.996 4.73772 19.7541 6.49587C21.5123 8.25403 22.5 10.6386 22.5 13.125C22.5 15.6114 21.5123 17.996 19.7541 19.7541C17.996 21.5123 15.6114 22.5 13.125 22.5C10.6386 22.5 8.25403 21.5123 6.49587 19.7541C4.73772 17.996 3.75 15.6114 3.75 13.125C3.75 10.6386 4.73772 8.25403 6.49587 6.49587C8.25403 4.73772 10.6386 3.75 13.125 3.75Z" fill="black"/>
<path d="M47.8275 26.25C51.45 26.25 54.39 29.19 54.39 32.8125V50.6213C54.39 55.0978 52.6117 59.391 49.4463 62.5563C46.281 65.7217 41.9878 67.5 37.5113 67.5C33.0347 67.5 28.7416 65.7217 25.5762 62.5563C22.4108 59.391 20.6325 55.0978 20.6325 50.6213V32.8125C20.6325 29.19 23.5687 26.25 27.195 26.25H47.8275ZM19.2413 26.25C17.8906 27.8755 17.0781 29.8803 16.9163 31.9875L16.8787 32.8125V50.6213C16.8787 53.7975 17.5987 56.805 18.8812 59.49C16.6586 60.0846 14.3289 60.1601 12.0724 59.7106C9.81584 59.261 7.69293 58.2985 5.8678 56.8975C4.04267 55.4965 2.56421 53.6945 1.54674 51.6308C0.529266 49.5671 4.61242e-05 47.2971 0 44.9963V32.8125C6.15172e-05 31.1655 0.619391 29.5788 1.73505 28.3673C2.85071 27.1558 4.38112 26.408 6.0225 26.2725L6.5625 26.25H19.2413ZM55.7812 26.25H68.4375C72.06 26.25 75 29.19 75 32.8125V45C75.0005 47.2994 74.4724 49.5681 73.4565 51.6308C72.4405 53.6936 70.964 55.4952 69.1409 56.8964C67.3178 58.2976 65.1969 59.2609 62.9422 59.7119C60.6875 60.163 58.3593 60.0896 56.1375 59.4975C57.2625 57.1425 57.9525 54.5475 58.1063 51.8025L58.14 50.6213V32.8125C58.14 30.3188 57.2587 28.0313 55.7812 26.25ZM37.5 0C40.4837 0 43.3452 1.18526 45.455 3.29505C47.5647 5.40483 48.75 8.26632 48.75 11.25C48.75 14.2337 47.5647 17.0952 45.455 19.205C43.3452 21.3147 40.4837 22.5 37.5 22.5C34.5163 22.5 31.6548 21.3147 29.545 19.205C27.4353 17.0952 26.25 14.2337 26.25 11.25C26.25 8.26632 27.4353 5.40483 29.545 3.29505C31.6548 1.18526 34.5163 0 37.5 0ZM61.875 3.75C64.3614 3.75 66.746 4.73772 68.5041 6.49587C70.2623 8.25403 71.25 10.6386 71.25 13.125C71.25 15.6114 70.2623 17.996 68.5041 19.7541C66.746 21.5123 64.3614 22.5 61.875 22.5C59.3886 22.5 57.004 21.5123 55.2459 19.7541C53.4877 17.996 52.5 15.6114 52.5 13.125C52.5 10.6386 53.4877 8.25403 55.2459 6.49587C57.004 4.73772 59.3886 3.75 61.875 3.75ZM13.125 3.75C15.6114 3.75 17.996 4.73772 19.7541 6.49587C21.5123 8.25403 22.5 10.6386 22.5 13.125C22.5 15.6114 21.5123 17.996 19.7541 19.7541C17.996 21.5123 15.6114 22.5 13.125 22.5C10.6386 22.5 8.25403 21.5123 6.49587 19.7541C4.73772 17.996 3.75 15.6114 3.75 13.125C3.75 10.6386 4.73772 8.25403 6.49587 6.49587C8.25403 4.73772 10.6386 3.75 13.125 3.75Z" fill="url(#paint0_linear_2006_1503)" fill-opacity="0.8"/>
<defs>
<linearGradient id="paint0_linear_2006_1503" x1="-12.9808" y1="-3.89423" x2="76.7703" y2="76.7644" gradientUnits="userSpaceOnUse">
<stop stop-color="#EF2DDC"/>
<stop offset="1" stop-color="#7443FF"/>
</linearGradient>
</defs>
</svg>
