<svg width="115" height="115" viewBox="0 0 115 115" fill="none" xmlns="http://www.w3.org/2000/svg">
<path d="M0 7.2C0 3.22355 3.22355 0 7.2 0H107.8C111.776 0 115 3.22355 115 7.2V107.805C115 111.779 111.779 115 107.805 115H7.2C3.22355 115 0 111.776 0 107.8V7.2Z" fill="url(#paint0_linear_10401_15566)" fill-opacity="0.2"/>
<path d="M72.1538 19H43.8462C41.5 19 39.25 19.9338 37.591 21.5961C35.932 23.2584 35 25.5129 35 27.8636V88.1364C35 90.4871 35.932 92.7416 37.591 94.4039C39.25 96.0662 41.5 97 43.8462 97H72.1538C74.5 97 76.75 96.0662 78.409 94.4039C80.068 92.7416 81 90.4871 81 88.1364V27.8636C81 25.5129 80.068 23.2584 78.409 21.5961C76.75 19.9338 74.5 19 72.1538 19ZM58 93.4545C55.0631 93.4545 52.6923 91.0791 52.6923 88.1364C52.6923 85.1936 55.0631 82.8182 58 82.8182C60.9369 82.8182 63.3077 85.1936 63.3077 88.1364C63.3077 91.0791 60.9369 93.4545 58 93.4545ZM73.9231 79.2727H42.0769V29.6364H73.9231V79.2727Z" fill="#333333"/>
<path d="M72.1538 19H43.8462C41.5 19 39.25 19.9338 37.591 21.5961C35.932 23.2584 35 25.5129 35 27.8636V88.1364C35 90.4871 35.932 92.7416 37.591 94.4039C39.25 96.0662 41.5 97 43.8462 97H72.1538C74.5 97 76.75 96.0662 78.409 94.4039C80.068 92.7416 81 90.4871 81 88.1364V27.8636C81 25.5129 80.068 23.2584 78.409 21.5961C76.75 19.9338 74.5 19 72.1538 19ZM58 93.4545C55.0631 93.4545 52.6923 91.0791 52.6923 88.1364C52.6923 85.1936 55.0631 82.8182 58 82.8182C60.9369 82.8182 63.3077 85.1936 63.3077 88.1364C63.3077 91.0791 60.9369 93.4545 58 93.4545ZM73.9231 79.2727H42.0769V29.6364H73.9231V79.2727Z" fill="white"/>
<path d="M72.1538 19H43.8462C41.5 19 39.25 19.9338 37.591 21.5961C35.932 23.2584 35 25.5129 35 27.8636V88.1364C35 90.4871 35.932 92.7416 37.591 94.4039C39.25 96.0662 41.5 97 43.8462 97H72.1538C74.5 97 76.75 96.0662 78.409 94.4039C80.068 92.7416 81 90.4871 81 88.1364V27.8636C81 25.5129 80.068 23.2584 78.409 21.5961C76.75 19.9338 74.5 19 72.1538 19ZM58 93.4545C55.0631 93.4545 52.6923 91.0791 52.6923 88.1364C52.6923 85.1936 55.0631 82.8182 58 82.8182C60.9369 82.8182 63.3077 85.1936 63.3077 88.1364C63.3077 91.0791 60.9369 93.4545 58 93.4545ZM73.9231 79.2727H42.0769V29.6364H73.9231V79.2727Z" fill="url(#paint1_linear_10401_15566)"/>
<defs>
<linearGradient id="paint0_linear_10401_15566" x1="0" y1="0" x2="115" y2="115" gradientUnits="userSpaceOnUse">
<stop stop-color="#2395FE"/>
<stop offset="0.958333" stop-color="#139890"/>
</linearGradient>
<linearGradient id="paint1_linear_10401_15566" x1="35" y1="19" x2="103.26" y2="59.2556" gradientUnits="userSpaceOnUse">
<stop stop-color="#2395FE"/>
<stop offset="1" stop-color="#139890"/>
</linearGradient>
</defs>
</svg>
