<svg width="24" height="19" viewBox="0 0 24 19" fill="none" xmlns="http://www.w3.org/2000/svg">
<path d="M6.63529 6.90106L3.27611 9.70493L6.63529 12.5088C6.74889 12.5997 6.84319 12.7124 6.91265 12.8402C6.98211 12.968 7.02534 13.1084 7.0398 13.2532C7.05426 13.398 7.03966 13.5442 6.99685 13.6832C6.95404 13.8223 6.88389 13.9513 6.79052 14.0629C6.69714 14.1745 6.58242 14.2663 6.45309 14.3329C6.32376 14.3995 6.18242 14.4396 6.03737 14.4509C5.89232 14.4622 5.74649 14.4444 5.60842 14.3985C5.47035 14.3526 5.34284 14.2796 5.23336 14.1838L0.863692 10.5424C0.741257 10.4399 0.642792 10.3118 0.575231 10.1671C0.50767 10.0224 0.472656 9.86463 0.472656 9.70493C0.472656 9.54523 0.50767 9.38748 0.575231 9.24278C0.642792 9.09807 0.741257 8.96994 0.863692 8.86741L5.23336 5.22602C5.45632 5.04762 5.74028 4.96361 6.02442 4.99199C6.30857 5.02037 6.5703 5.15888 6.75358 5.37786C6.93685 5.59684 7.0271 5.87888 7.00499 6.16358C6.98288 6.44828 6.85018 6.713 6.63529 6.90106ZM22.6574 8.86741L18.2877 5.22602C18.0648 5.04762 17.7808 4.96361 17.4967 4.99199C17.2125 5.02037 16.9508 5.15888 16.7675 5.37786C16.5842 5.59684 16.494 5.87888 16.5161 6.16358C16.5382 6.44828 16.6709 6.713 16.8858 6.90106L20.2541 9.70493L16.8858 12.5088C16.7748 12.6002 16.6831 12.7127 16.616 12.8399C16.549 12.967 16.5079 13.1062 16.4952 13.2494C16.4825 13.3926 16.4984 13.5369 16.542 13.6739C16.5856 13.8109 16.6561 13.9378 16.7492 14.0473C16.8525 14.1689 16.9808 14.2667 17.1253 14.3343C17.2699 14.4018 17.4272 14.4375 17.5868 14.4387C17.8431 14.4386 18.0912 14.3484 18.2877 14.1838L22.6574 10.5424C22.7798 10.4399 22.8783 10.3118 22.9459 10.1671C23.0134 10.0224 23.0484 9.86463 23.0484 9.70493C23.0484 9.54523 23.0134 9.38748 22.9459 9.24278C22.8783 9.09807 22.7798 8.96994 22.6574 8.86741ZM15.0469 0.665186C14.774 0.568171 14.4738 0.582559 14.2114 0.705235C13.949 0.827912 13.7455 1.049 13.645 1.32064L7.81874 17.3427C7.72173 17.6157 7.73612 17.9158 7.85879 18.1782C7.98147 18.4406 8.20256 18.6441 8.47419 18.7447C8.59385 18.7878 8.72023 18.8094 8.84743 18.8084C9.07203 18.8088 9.2913 18.74 9.47538 18.6113C9.65945 18.4826 9.79939 18.3003 9.87613 18.0892L15.7023 2.06712C15.7994 1.7942 15.785 1.49405 15.6623 1.23166C15.5396 0.969265 15.3185 0.765753 15.0469 0.665186Z" fill="#EF911F"/>
</svg>
