<svg width="20" height="20" viewBox="0 0 20 20" fill="none" xmlns="http://www.w3.org/2000/svg">
<path d="M10 0C10.2652 0 10.5196 0.105357 10.7071 0.292893C10.8946 0.48043 11 0.734784 11 1V1.055C13.0289 1.28241 14.9202 2.19257 16.3638 3.63618C17.8074 5.07978 18.7176 6.97114 18.945 9H19C19.2652 9 19.5196 9.10536 19.7071 9.29289C19.8946 9.48043 20 9.73478 20 10C20 10.2652 19.8946 10.5196 19.7071 10.7071C19.5196 10.8946 19.2652 11 19 11H18.945C18.7176 13.0289 17.8074 14.9202 16.3638 16.3638C14.9202 17.8074 13.0289 18.7176 11 18.945V19C11 19.2652 10.8946 19.5196 10.7071 19.7071C10.5196 19.8946 10.2652 20 10 20C9.73478 20 9.48043 19.8946 9.29289 19.7071C9.10536 19.5196 9 19.2652 9 19V18.945C6.97114 18.7176 5.07978 17.8074 3.63618 16.3638C2.19257 14.9202 1.28241 13.0289 1.055 11H1C0.734784 11 0.48043 10.8946 0.292893 10.7071C0.105357 10.5196 0 10.2652 0 10C0 9.73478 0.105357 9.48043 0.292893 9.29289C0.48043 9.10536 0.734784 9 1 9H1.055C1.28241 6.97114 2.19257 5.07978 3.63618 3.63618C5.07978 2.19257 6.97114 1.28241 9 1.055V1C9 0.734784 9.10536 0.48043 9.29289 0.292893C9.48043 0.105357 9.73478 0 10 0ZM11 3.07V4C10.9997 4.25488 10.9021 4.50003 10.7272 4.68537C10.5522 4.87071 10.313 4.98224 10.0586 4.99717C9.80416 5.01211 9.55362 4.92933 9.35817 4.76574C9.16272 4.60215 9.0371 4.3701 9.007 4.117L9 4V3.07C7.54779 3.28032 6.19827 3.94131 5.14184 4.9597C4.08541 5.97809 3.37541 7.30247 3.112 8.746L3.071 9H4C4.25488 9.00028 4.50003 9.09788 4.68537 9.27285C4.87071 9.44782 4.98224 9.68695 4.99717 9.9414C5.01211 10.1958 4.92933 10.4464 4.76574 10.6418C4.60215 10.8373 4.3701 10.9629 4.117 10.993L4 11H3.07C3.28032 12.4522 3.94131 13.8017 4.9597 14.8582C5.97809 15.9146 7.30247 16.6246 8.746 16.888L9 16.929V16C9.00028 15.7451 9.09788 15.5 9.27285 15.3146C9.44782 15.1293 9.68695 15.0178 9.9414 15.0028C10.1958 14.9879 10.4464 15.0707 10.6418 15.2343C10.8373 15.3979 10.9629 15.6299 10.993 15.883L11 16V16.93C12.4522 16.7197 13.8017 16.0587 14.8582 15.0403C15.9146 14.0219 16.6246 12.6975 16.888 11.254L16.929 11H16C15.7451 10.9997 15.5 10.9021 15.3146 10.7272C15.1293 10.5522 15.0178 10.313 15.0028 10.0586C14.9879 9.80416 15.0707 9.55362 15.2343 9.35817C15.3979 9.16272 15.6299 9.0371 15.883 9.007L16 9H16.93C16.7197 7.54779 16.0587 6.19827 15.0403 5.14184C14.0219 4.08541 12.6975 3.37541 11.254 3.112L11 3.07ZM10 8.5C10.3978 8.5 10.7794 8.65804 11.0607 8.93934C11.342 9.22065 11.5 9.60218 11.5 10C11.5 10.3978 11.342 10.7794 11.0607 11.0607C10.7794 11.342 10.3978 11.5 10 11.5C9.60218 11.5 9.22065 11.342 8.93934 11.0607C8.65804 10.7794 8.5 10.3978 8.5 10C8.5 9.60218 8.65804 9.22065 8.93934 8.93934C9.22065 8.65804 9.60218 8.5 10 8.5Z" fill="black"/>
<path d="M10 0C10.2652 0 10.5196 0.105357 10.7071 0.292893C10.8946 0.48043 11 0.734784 11 1V1.055C13.0289 1.28241 14.9202 2.19257 16.3638 3.63618C17.8074 5.07978 18.7176 6.97114 18.945 9H19C19.2652 9 19.5196 9.10536 19.7071 9.29289C19.8946 9.48043 20 9.73478 20 10C20 10.2652 19.8946 10.5196 19.7071 10.7071C19.5196 10.8946 19.2652 11 19 11H18.945C18.7176 13.0289 17.8074 14.9202 16.3638 16.3638C14.9202 17.8074 13.0289 18.7176 11 18.945V19C11 19.2652 10.8946 19.5196 10.7071 19.7071C10.5196 19.8946 10.2652 20 10 20C9.73478 20 9.48043 19.8946 9.29289 19.7071C9.10536 19.5196 9 19.2652 9 19V18.945C6.97114 18.7176 5.07978 17.8074 3.63618 16.3638C2.19257 14.9202 1.28241 13.0289 1.055 11H1C0.734784 11 0.48043 10.8946 0.292893 10.7071C0.105357 10.5196 0 10.2652 0 10C0 9.73478 0.105357 9.48043 0.292893 9.29289C0.48043 9.10536 0.734784 9 1 9H1.055C1.28241 6.97114 2.19257 5.07978 3.63618 3.63618C5.07978 2.19257 6.97114 1.28241 9 1.055V1C9 0.734784 9.10536 0.48043 9.29289 0.292893C9.48043 0.105357 9.73478 0 10 0ZM11 3.07V4C10.9997 4.25488 10.9021 4.50003 10.7272 4.68537C10.5522 4.87071 10.313 4.98224 10.0586 4.99717C9.80416 5.01211 9.55362 4.92933 9.35817 4.76574C9.16272 4.60215 9.0371 4.3701 9.007 4.117L9 4V3.07C7.54779 3.28032 6.19827 3.94131 5.14184 4.9597C4.08541 5.97809 3.37541 7.30247 3.112 8.746L3.071 9H4C4.25488 9.00028 4.50003 9.09788 4.68537 9.27285C4.87071 9.44782 4.98224 9.68695 4.99717 9.9414C5.01211 10.1958 4.92933 10.4464 4.76574 10.6418C4.60215 10.8373 4.3701 10.9629 4.117 10.993L4 11H3.07C3.28032 12.4522 3.94131 13.8017 4.9597 14.8582C5.97809 15.9146 7.30247 16.6246 8.746 16.888L9 16.929V16C9.00028 15.7451 9.09788 15.5 9.27285 15.3146C9.44782 15.1293 9.68695 15.0178 9.9414 15.0028C10.1958 14.9879 10.4464 15.0707 10.6418 15.2343C10.8373 15.3979 10.9629 15.6299 10.993 15.883L11 16V16.93C12.4522 16.7197 13.8017 16.0587 14.8582 15.0403C15.9146 14.0219 16.6246 12.6975 16.888 11.254L16.929 11H16C15.7451 10.9997 15.5 10.9021 15.3146 10.7272C15.1293 10.5522 15.0178 10.313 15.0028 10.0586C14.9879 9.80416 15.0707 9.55362 15.2343 9.35817C15.3979 9.16272 15.6299 9.0371 15.883 9.007L16 9H16.93C16.7197 7.54779 16.0587 6.19827 15.0403 5.14184C14.0219 4.08541 12.6975 3.37541 11.254 3.112L11 3.07ZM10 8.5C10.3978 8.5 10.7794 8.65804 11.0607 8.93934C11.342 9.22065 11.5 9.60218 11.5 10C11.5 10.3978 11.342 10.7794 11.0607 11.0607C10.7794 11.342 10.3978 11.5 10 11.5C9.60218 11.5 9.22065 11.342 8.93934 11.0607C8.65804 10.7794 8.5 10.3978 8.5 10C8.5 9.60218 8.65804 9.22065 8.93934 8.93934C9.22065 8.65804 9.60218 8.5 10 8.5Z" fill="url(#paint0_linear_2002_343)" fill-opacity="0.8"/>
<defs>
<linearGradient id="paint0_linear_2002_343" x1="-3.46154" y1="-1.15385" x2="22.6923" y2="20" gradientUnits="userSpaceOnUse">
<stop stop-color="#EF2DDC"/>
<stop offset="1" stop-color="#7443FF"/>
</linearGradient>
</defs>
</svg>
