<svg width="21" height="21" viewBox="0 0 21 21" fill="none" xmlns="http://www.w3.org/2000/svg">
<path d="M21 10.5C21 16.299 16.299 21 10.5 21C4.70101 21 0 16.299 0 10.5C0 4.70101 4.70101 0 10.5 0C16.299 0 21 4.70101 21 10.5ZM2.09711 10.5C2.09711 15.1408 5.85921 18.9029 10.5 18.9029C15.1408 18.9029 18.9029 15.1408 18.9029 10.5C18.9029 5.85921 15.1408 2.09711 10.5 2.09711C5.85921 2.09711 2.09711 5.85921 2.09711 10.5Z" fill="url(#paint0_linear_2701_4507)"/>
<circle cx="10.5" cy="10.5" r="3.78" fill="url(#paint1_linear_2701_4507)"/>
<defs>
<linearGradient id="paint0_linear_2701_4507" x1="-3.63462" y1="-1.21154" x2="23.8269" y2="21" gradientUnits="userSpaceOnUse">
<stop stop-color="#FF6332"/>
<stop offset="1" stop-color="#F97616"/>
</linearGradient>
<linearGradient id="paint1_linear_2701_4507" x1="5.41151" y1="6.28382" x2="15.2977" y2="14.28" gradientUnits="userSpaceOnUse">
<stop stop-color="#FF6332"/>
<stop offset="1" stop-color="#F97616"/>
</linearGradient>
</defs>
</svg>
