<svg width="27" height="28" viewBox="0 0 27 28" fill="none" xmlns="http://www.w3.org/2000/svg">
<g clip-path="url(#clip0_5002_23561)">
<g clip-path="url(#clip1_5002_23561)">
<path d="M1.96094 13.6624C1.96094 8.55383 1.96094 5.99453 3.5486 4.41188C5.13126 2.82422 7.69056 2.82422 12.7991 2.82422H13.921C19.0296 2.82422 21.5839 2.82422 23.1715 4.41188C24.7592 5.99955 24.7592 8.55383 24.7592 13.6624V14.7843C24.7592 19.8929 24.7592 22.4471 23.1715 24.0348C21.5839 25.6225 19.0296 25.6225 13.921 25.6225H12.7991C7.69056 25.6225 5.13627 25.6225 3.5486 24.0348C1.96094 22.4471 1.96094 19.8929 1.96094 14.7843V13.6624Z" fill="#0077FF"/>
<path d="M14.332 21.6171C18.4396 21.6171 21.7695 18.2873 21.7695 14.1797C21.7695 10.0721 18.4396 6.74219 14.332 6.74219C10.2244 6.74219 6.89453 10.0721 6.89453 14.1797C6.89453 18.2873 10.2244 21.6171 14.332 21.6171Z" fill="#00D9ED"/>
<path fill-rule="evenodd" clip-rule="evenodd" d="M21.2572 5.83697V7.26436H22.6645C23.4659 7.26436 23.8765 8.22598 23.3206 8.80194L21.3924 10.8153C21.2221 10.9956 20.9817 11.0958 20.7363 11.0958H18.9132L17.0251 13.1292C17.1602 13.4547 17.2404 13.8154 17.2404 14.191C17.2404 15.6985 16.0183 16.9205 14.5108 16.9205C13.0033 16.9205 11.7812 15.6985 11.7812 14.191C11.7812 12.6835 13.0033 11.4614 14.5108 11.4614C14.7663 11.4614 15.0167 11.4965 15.2521 11.5616L17.4208 9.22766V7.73015C17.4208 7.47973 17.5259 7.23932 17.7062 7.06904L19.7196 5.17085C20.3005 4.62494 21.2521 5.03562 21.2521 5.83197L21.2572 5.83697Z" fill="white"/>
</g>
</g>
<defs>
<clipPath id="clip0_5002_23561">
<rect width="26.1585" height="26.1585" fill="white" transform="translate(0 0.921875)"/>
</clipPath>
<clipPath id="clip1_5002_23561">
<rect width="25.3314" height="23.3049" fill="white" transform="translate(1.45312 2.82812)"/>
</clipPath>
</defs>
</svg>
