<svg width="24" height="25" viewBox="0 0 24 25" fill="none" xmlns="http://www.w3.org/2000/svg">
<rect width="24" height="25" fill="white"/>
<g clip-path="url(#clip0_3228_26575)">
<path d="M0.113281 12.7157C0.113281 6.30429 5.35898 1.05859 11.7704 1.05859C18.1818 1.05859 23.4275 6.30429 23.4275 12.7157C23.4275 19.1271 18.1818 24.3728 11.7704 24.3728C5.35898 24.3728 0.113281 19.1271 0.113281 12.7157Z" fill="#1A4A7F"/>
<path fill-rule="evenodd" clip-rule="evenodd" d="M10.0978 24.3759C7.74336 24.0108 5.53603 22.9156 3.84375 21.2364L14.4389 11.5987L8.40556 13.059C6.71328 13.497 5.02099 12.4749 4.6531 10.7956C4.6531 10.7956 4.6531 10.7956 4.6531 10.7226C4.28522 9.04326 5.3153 7.36398 7.00759 6.9259L19.6629 3.85938C24.6662 8.02109 25.3284 15.3954 21.1345 20.2872C19.9572 21.6744 18.4857 22.7696 16.7934 23.4997C16.7934 23.0617 16.7934 22.6236 16.9406 22.2585L18.9272 16.3445C18.8536 16.3445 10.0978 24.3759 10.0978 24.3759Z" fill="url(#paint0_linear_3228_26575)"/>
</g>
<defs>
<linearGradient id="paint0_linear_3228_26575" x1="27.6258" y1="1.02401" x2="-12.3927" y2="38.0304" gradientUnits="userSpaceOnUse">
<stop stop-color="#FFB800"/>
<stop offset="1" stop-color="#FFF11D"/>
</linearGradient>
<clipPath id="clip0_3228_26575">
<rect width="23.7805" height="23.3142" fill="white" transform="translate(0.109375 1.0625)"/>
</clipPath>
</defs>
</svg>
