<svg width="40" height="40" viewBox="0 0 40 40" fill="none" xmlns="http://www.w3.org/2000/svg">
<path d="M17.9998 24V40H9.99976C8.40846 40 6.88233 39.3679 5.75712 38.2427C4.6319 37.1174 3.99976 35.5913 3.99976 34V26C3.99976 25.4696 4.21047 24.9609 4.58554 24.5858C4.96062 24.2107 5.46932 24 5.99976 24H17.9998ZM33.9998 24C34.5302 24 35.0389 24.2107 35.414 24.5858C35.789 24.9609 35.9998 25.4696 35.9998 26V34C35.9998 35.5913 35.3676 37.1174 34.2424 38.2427C33.1172 39.3679 31.5911 40 29.9998 40H21.9998V24H33.9998ZM28.9998 1.41213e-05C30.1808 -0.000229634 31.3427 0.298347 32.3773 0.86795C33.4119 1.43755 34.2855 2.25966 34.9169 3.25775C35.5483 4.25583 35.9169 5.39744 35.9884 6.5763C36.0599 7.75516 35.8319 8.93295 35.3258 10H35.9998C37.0606 10 38.078 10.4214 38.8282 11.1716C39.5783 11.9217 39.9998 12.9391 39.9998 14V16C39.9998 17.0609 39.5783 18.0783 38.8282 18.8284C38.078 19.5786 37.0606 20 35.9998 20H21.9998V10H17.9998V20H3.99976C2.93889 20 1.92147 19.5786 1.17133 18.8284C0.421183 18.0783 -0.000244141 17.0609 -0.000244141 16V14C-0.000244141 12.9391 0.421183 11.9217 1.17133 11.1716C1.92147 10.4214 2.93889 10 3.99976 10H4.67376C4.22952 9.06233 3.9993 8.03761 3.99976 7.00001C3.99976 3.13401 7.13376 1.41213e-05 10.9658 1.41213e-05C14.4758 -0.0599859 17.5898 2.18401 19.7278 5.86801L19.9998 6.35401C22.0658 2.52601 25.1198 0.126014 28.5818 0.00401431L28.9998 1.41213e-05ZM10.9998 4.00001C10.2041 4.00001 9.44104 4.31608 8.87844 4.87869C8.31583 5.4413 7.99976 6.20436 7.99976 7.00001C7.99976 7.79566 8.31583 8.55873 8.87844 9.12134C9.44104 9.68394 10.2041 10 10.9998 10H17.2858C15.8038 6.19001 13.3878 3.96001 10.9998 4.00001ZM28.9658 4.00001C26.6058 3.96001 24.1958 6.19201 22.7138 10H28.9998C29.7954 9.99551 30.5567 9.67511 31.1161 9.10931C31.6755 8.54352 31.9873 7.77866 31.9828 6.98301C31.9782 6.18736 31.6579 5.42609 31.0921 4.86667C30.5263 4.30725 29.7614 3.99551 28.9658 4.00001Z" fill="#EFB503"/>
</svg>
