<svg width="46" height="56" viewBox="0 0 46 56" fill="none" xmlns="http://www.w3.org/2000/svg">
<path fill-rule="evenodd" clip-rule="evenodd" d="M25.1665 2.99902C25.1665 2.33598 24.9031 1.7001 24.4343 1.23126C23.9654 0.762415 23.3295 0.499023 22.6665 0.499023C22.0035 0.499023 21.3676 0.762415 20.8987 1.23126C20.4299 1.7001 20.1665 2.33598 20.1665 2.99902V5.49902H7.6665C5.67738 5.49902 3.76973 6.2892 2.3632 7.69572C0.95668 9.10225 0.166504 11.0099 0.166504 12.999V42.999C0.166504 44.9881 0.95668 46.8958 2.3632 48.3023C3.76973 49.7088 5.67738 50.499 7.6665 50.499H20.1665V52.999C20.1665 53.6621 20.4299 54.298 20.8987 54.7668C21.3676 55.2356 22.0035 55.499 22.6665 55.499C23.3295 55.499 23.9654 55.2356 24.4343 54.7668C24.9031 54.298 25.1665 53.6621 25.1665 52.999V50.499C25.8295 50.499 26.4654 50.2356 26.9343 49.7668C27.4031 49.298 27.6665 48.6621 27.6665 47.999C27.6665 47.336 27.4031 46.7001 26.9343 46.2313C26.4654 45.7624 25.8295 45.499 25.1665 45.499V10.499C25.8295 10.499 26.4654 10.2356 26.9343 9.76679C27.4031 9.29795 27.6665 8.66206 27.6665 7.99902C27.6665 7.33598 27.4031 6.7001 26.9343 6.23126C26.4654 5.76242 25.8295 5.49902 25.1665 5.49902V2.99902ZM35.1665 5.49902C34.5035 5.49902 33.8676 5.76242 33.3987 6.23126C32.9299 6.7001 32.6665 7.33598 32.6665 7.99902C32.6665 8.66206 32.9299 9.29795 33.3987 9.76679C33.8676 10.2356 34.5035 10.499 35.1665 10.499H37.6665C38.3295 10.499 38.9654 10.7624 39.4343 11.2313C39.9031 11.7001 40.1665 12.336 40.1665 12.999V15.499C40.1665 16.1621 40.4299 16.7979 40.8987 17.2668C41.3676 17.7356 42.0035 17.999 42.6665 17.999C43.3295 17.999 43.9654 17.7356 44.4343 17.2668C44.9031 16.7979 45.1665 16.1621 45.1665 15.499V12.999C45.1665 11.0099 44.3763 9.10225 42.9698 7.69572C41.5633 6.2892 39.6556 5.49902 37.6665 5.49902H35.1665ZM45.1665 25.499C45.1665 24.836 44.9031 24.2001 44.4343 23.7313C43.9654 23.2624 43.3295 22.999 42.6665 22.999C42.0035 22.999 41.3676 23.2624 40.8987 23.7313C40.4299 24.2001 40.1665 24.836 40.1665 25.499V30.499C40.1665 31.1621 40.4299 31.7979 40.8987 32.2668C41.3676 32.7356 42.0035 32.999 42.6665 32.999C43.3295 32.999 43.9654 32.7356 44.4343 32.2668C44.9031 31.7979 45.1665 31.1621 45.1665 30.499V25.499ZM45.1665 40.499C45.1665 39.836 44.9031 39.2001 44.4343 38.7313C43.9654 38.2624 43.3295 37.999 42.6665 37.999C42.0035 37.999 41.3676 38.2624 40.8987 38.7313C40.4299 39.2001 40.1665 39.836 40.1665 40.499V42.999C40.1665 43.6621 39.9031 44.298 39.4343 44.7668C38.9654 45.2356 38.3295 45.499 37.6665 45.499H35.1665C34.5035 45.499 33.8676 45.7624 33.3987 46.2313C32.9299 46.7001 32.6665 47.336 32.6665 47.999C32.6665 48.6621 32.9299 49.298 33.3987 49.7668C33.8676 50.2356 34.5035 50.499 35.1665 50.499H37.6665C39.6556 50.499 41.5633 49.7088 42.9698 48.3023C44.3763 46.8958 45.1665 44.9881 45.1665 42.999V40.499Z" fill="#25C28B"/>
</svg>
