<svg width="51" height="50" viewBox="0 0 51 50" fill="none" xmlns="http://www.w3.org/2000/svg">
<path d="M44.0835 37.5C43.7585 37.5 43.4335 37.5 43.1085 37.6L39.0835 29.475C39.9741 28.6066 40.5854 27.4923 40.839 26.2745C41.0927 25.0568 40.9772 23.7911 40.5074 22.6393C40.0376 21.4876 39.2348 20.5022 38.2017 19.8093C37.1687 19.1165 35.9524 18.7476 34.7085 18.75C34.3835 18.75 34.0835 18.75 33.7335 18.85L29.6585 10.725C30.8585 9.6 31.5835 8.025 31.5835 6.25C31.5835 4.5924 30.925 3.00268 29.7529 1.83058C28.5808 0.65848 26.9911 0 25.3335 0C23.6759 0 22.0862 0.65848 20.9141 1.83058C19.742 3.00268 19.0835 4.5924 19.0835 6.25C19.0835 8.025 19.8085 9.6 20.9835 10.725L16.9335 18.85C16.5835 18.75 16.2835 18.75 15.9585 18.75C14.7146 18.7476 13.4983 19.1165 12.4653 19.8093C11.4322 20.5022 10.6294 21.4876 10.1596 22.6393C9.68976 23.7911 9.57429 25.0568 9.82795 26.2745C10.0816 27.4923 10.6929 28.6066 11.5835 29.475L7.5585 37.6C7.2335 37.5 6.9085 37.5 6.5835 37.5C4.92589 37.5 3.33618 38.1585 2.16408 39.3306C0.991976 40.5027 0.333496 42.0924 0.333496 43.75C0.333496 45.4076 0.991976 46.9973 2.16408 48.1694C3.33618 49.3415 4.92589 50 6.5835 50C7.40426 50 8.21698 49.8383 8.97527 49.5242C9.73355 49.2101 10.4225 48.7498 11.0029 48.1694C11.5833 47.589 12.0437 46.9001 12.3577 46.1418C12.6718 45.3835 12.8335 44.5708 12.8335 43.75C12.8335 42 12.1085 40.4 10.9335 39.275L14.9835 31.15C15.3335 31.25 15.6335 31.25 15.9585 31.25C16.2835 31.25 16.5835 31.25 16.9335 31.15L21.0085 39.275C19.8335 40.4 19.0835 42 19.0835 43.75C19.0835 45.4076 19.742 46.9973 20.9141 48.1694C22.0862 49.3415 23.6759 50 25.3335 50C26.9911 50 28.5808 49.3415 29.7529 48.1694C30.925 46.9973 31.5835 45.4076 31.5835 43.75C31.5835 42.0924 30.925 40.5027 29.7529 39.3306C28.5808 38.1585 26.9911 37.5 25.3335 37.5C25.0085 37.5 24.6835 37.5 24.3585 37.6L20.3335 29.475C21.4835 28.35 22.2085 26.775 22.2085 25C22.2085 23.225 21.4835 21.65 20.3335 20.525L24.3585 12.4C24.6835 12.5 25.0085 12.5 25.3335 12.5C25.6585 12.5 25.9835 12.5 26.3085 12.4L30.3335 20.525C29.2085 21.65 28.4585 23.25 28.4585 25C28.4585 26.6576 29.117 28.2473 30.2891 29.4194C31.4612 30.5915 33.0509 31.25 34.7085 31.25C35.0335 31.25 35.3335 31.25 35.6835 31.15L39.7585 39.275C38.5835 40.4 37.8335 42 37.8335 43.75C37.8335 45.4076 38.492 46.9973 39.6641 48.1694C40.8362 49.3415 42.4259 50 44.0835 50C45.7411 50 47.3308 49.3415 48.5029 48.1694C49.675 46.9973 50.3335 45.4076 50.3335 43.75C50.3335 42.0924 49.675 40.5027 48.5029 39.3306C47.3308 38.1585 45.7411 37.5 44.0835 37.5Z" fill="#D53636" fill-opacity="0.8"/>
</svg>
