<svg width="14" height="18" viewBox="0 0 14 18" fill="none" xmlns="http://www.w3.org/2000/svg">
<path d="M10.8671 10.8506C9.48936 12.5151 7.99681 14.3231 7.0209 15.3275C6.9922 15.3275 6.9922 15.2988 6.9635 15.2701C6.47555 14.8396 5.87278 14.2657 5.24132 13.6056L4.20801 14.6387C5.49964 15.9876 6.70517 16.992 6.9635 17.1929C6.9922 17.2216 7.0209 17.2216 7.0209 17.2216C7.0209 17.2216 10.3792 13.5482 11.9291 11.8837L10.8671 10.8506Z" fill="#4EB594"/>
<path d="M6.96327 3.84766L2.68652 5.51215C2.68652 5.51215 3.05966 8.35328 4.00686 10.2474C4.83925 11.9119 6.76235 13.8059 6.96327 13.9207C7.16419 13.8059 9.17341 11.7971 10.0058 10.1326C10.953 8.23848 11.24 5.51215 11.24 5.51215L6.96327 3.84766Z" fill="#3D88C8"/>
<path d="M13.8242 3.79061L6.96414 0.89209L0.104117 3.79061C0.104117 3.79061 -0.383834 7.77966 1.76889 11.4817C2.19944 12.1992 2.71609 12.9166 3.29015 13.5767L4.32346 12.5436C3.83551 11.9696 3.37626 11.3382 3.03183 10.7356C1.7976 8.6693 1.53927 6.31605 1.51057 4.99593C2.11333 4.65155 6.44748 2.90096 6.96414 2.70008C7.45209 2.90096 11.8149 4.65155 12.4177 4.99593C12.389 6.05777 12.2168 7.77966 11.5279 9.50155L12.6473 10.6208C14.2547 7.177 13.8242 3.79061 13.8242 3.79061Z" fill="#3D88C8"/>
<path d="M11.9288 11.9124L10.8668 10.8506C9.48903 12.5151 7.99647 14.3231 7.02057 15.3275C6.99187 15.3275 7.02057 17.2503 7.02057 17.2503C7.02057 17.2503 10.3501 13.5769 11.9288 11.9124Z" fill="#029E81"/>
<path d="M11.5276 9.50155L12.6471 10.6208C14.2544 7.177 13.8239 3.79061 13.8239 3.79061L6.96387 0.89209V2.70008C7.45182 2.90096 11.8147 4.65155 12.4174 4.99593C12.3887 6.05777 12.2165 7.77966 11.5276 9.50155Z" fill="#057BAA"/>
<path d="M11.2406 5.51215C11.2406 5.51215 10.9536 8.23848 10.0064 10.1326C9.174 11.7971 7.16479 13.8059 6.96387 13.9207V3.84766L11.2406 5.51215Z" fill="#057BAA"/>
</svg>
