<svg width="32" height="33" viewBox="0 0 32 33" fill="none" xmlns="http://www.w3.org/2000/svg">
<rect x="0.512695" y="0.98877" width="31.2561" height="31.2561" rx="15.628" fill="#728A97"/>
<g clip-path="url(#clip0_125_7030)">
<path d="M10.2373 14.6797V13.2905C10.2373 12.9221 10.3837 12.5688 10.6442 12.3082C10.9047 12.0477 11.258 11.9014 11.6265 11.9014H21.3506C21.719 11.9014 22.0723 12.0477 22.3329 12.3082C22.5934 12.5688 22.7397 12.9221 22.7397 13.2905V14.6797M10.2373 14.6797V21.6255C10.2373 21.9939 10.3837 22.3472 10.6442 22.6078C10.9047 22.8683 11.258 23.0146 11.6265 23.0146H21.3506C21.719 23.0146 22.0723 22.8683 22.3329 22.6078C22.5934 22.3472 22.7397 21.9939 22.7397 21.6255V14.6797M10.2373 14.6797H22.7397" stroke="white" stroke-width="1.38916" stroke-linecap="round" stroke-linejoin="round"/>
<path d="M10.2373 13.2905C10.2373 12.9221 10.3837 12.5688 10.6442 12.3082C10.9047 12.0477 11.258 11.9014 11.6265 11.9014H21.3506C21.719 11.9014 22.0723 12.0477 22.3329 12.3082C22.5934 12.5688 22.7397 12.9221 22.7397 13.2905V14.6797H10.2373V13.2905Z" fill="white"/>
</g>
<defs>
<clipPath id="clip0_125_7030">
<rect width="17.3645" height="17.3645" fill="white" transform="translate(7.45898 7.93506)"/>
</clipPath>
</defs>
</svg>
