<svg width="18" height="18" viewBox="0 0 18 18" fill="none" xmlns="http://www.w3.org/2000/svg">
<path d="M0 8.99977C0 4.0499 3.97052 0 8.82337 0C13.6762 0 17.6467 4.0499 17.6467 8.99977C17.6467 13.9496 13.6762 17.9995 8.82337 17.9995C3.97052 17.9995 0 13.9496 0 8.99977Z" fill="#1A4A7F"/>
<path fill-rule="evenodd" clip-rule="evenodd" d="M7.55702 17.9998C5.77489 17.7179 4.10415 16.8724 2.82324 15.5759L10.8428 8.13524L6.27612 9.26261C4.99521 9.60082 3.71431 8.81166 3.43585 7.51518C3.43585 7.51518 3.43585 7.51518 3.43585 7.45881C3.15739 6.16233 3.93707 4.86585 5.21798 4.52764L14.7969 2.16016C18.584 5.37317 19.0852 11.0664 15.9108 14.8431C15.0197 15.9141 13.9059 16.7596 12.625 17.3233C12.625 16.9851 12.625 16.6469 12.7363 16.3651L14.24 11.7992C14.1843 11.7992 7.55702 17.9998 7.55702 17.9998Z" fill="url(#paint0_linear_125_6508)"/>
<defs>
<linearGradient id="paint0_linear_125_6508" x1="20.8241" y1="-0.0288656" x2="-10.0181" y2="27.9329" gradientUnits="userSpaceOnUse">
<stop stop-color="#FFB800"/>
<stop offset="1" stop-color="#FFF11D"/>
</linearGradient>
</defs>
</svg>
