<svg width="506" height="264" viewBox="0 0 506 264" fill="none" xmlns="http://www.w3.org/2000/svg">
<rect width="795" height="327" rx="13.6497" fill="white" fill-opacity="0.7"/>
<path d="M33.6875 48.2578L38.7148 36.9375H40.4023L33.875 51.0703C33.7188 51.3984 33.5352 51.75 33.3242 52.125C33.1133 52.4922 32.8516 52.8359 32.5391 53.1562C32.2266 53.4766 31.8438 53.7383 31.3906 53.9414C30.9375 54.1445 30.3828 54.2461 29.7266 54.2461C29.5625 54.2461 29.3633 54.2344 29.1289 54.2109C28.8945 54.1875 28.7305 54.1562 28.6367 54.1172L28.7539 52.9219C28.8555 52.9453 29.0078 52.9688 29.2109 52.9922C29.4219 53.0078 29.5977 53.0156 29.7383 53.0156C30.2461 53.0156 30.668 52.9062 31.0039 52.6875C31.3398 52.4688 31.625 52.1875 31.8594 51.8438C32.0938 51.4922 32.3047 51.125 32.4922 50.7422L33.6875 48.2578ZM28.2969 36.9375L34.0273 48.1992L34.4727 49.4766L33.2422 49.7227L26.6445 36.9375H28.2969ZM46.7891 53.0273C47.3828 53.0273 47.9375 52.918 48.4531 52.6992C48.9766 52.4727 49.4062 52.1406 49.7422 51.7031C50.0859 51.2578 50.2812 50.7148 50.3281 50.0742H51.6641C51.625 50.8789 51.3789 51.5977 50.9258 52.2305C50.4805 52.8555 49.8945 53.3477 49.168 53.707C48.4492 54.0586 47.6562 54.2344 46.7891 54.2344C45.9062 54.2344 45.125 54.0742 44.4453 53.7539C43.7734 53.4336 43.2109 52.9883 42.7578 52.418C42.3047 51.8398 41.9609 51.168 41.7266 50.4023C41.5 49.6289 41.3867 48.7969 41.3867 47.9062V47.4141C41.3867 46.5234 41.5 45.6953 41.7266 44.9297C41.9609 44.1562 42.3047 43.4844 42.7578 42.9141C43.2109 42.3359 43.7734 41.8867 44.4453 41.5664C45.1172 41.2461 45.8945 41.0859 46.7773 41.0859C47.6836 41.0859 48.4961 41.2695 49.2148 41.6367C49.9414 42.0039 50.5195 42.5234 50.9492 43.1953C51.3867 43.8672 51.625 44.6641 51.6641 45.5859H50.3281C50.2891 44.9062 50.1094 44.3203 49.7891 43.8281C49.4688 43.3359 49.0469 42.957 48.5234 42.6914C48 42.4258 47.418 42.293 46.7773 42.293C46.0586 42.293 45.4453 42.4336 44.9375 42.7148C44.4297 42.9883 44.0156 43.3672 43.6953 43.8516C43.3828 44.3281 43.1523 44.875 43.0039 45.4922C42.8555 46.1016 42.7812 46.7422 42.7812 47.4141V47.9062C42.7812 48.5859 42.8516 49.2344 42.9922 49.8516C43.1406 50.4609 43.3711 51.0039 43.6836 51.4805C44.0039 51.957 44.418 52.3359 44.9258 52.6172C45.4414 52.8906 46.0625 53.0273 46.7891 53.0273ZM58.9648 41.3203V54H57.5703V41.3203H58.9648ZM63.582 41.3203V42.5156H53.1172V41.3203H63.582ZM67.2852 43.7578V58.875H65.8789V41.3203H67.1914L67.2852 43.7578ZM76.0977 47.543V47.7891C76.0977 48.7344 75.9883 49.6016 75.7695 50.3906C75.5508 51.1797 75.2344 51.8633 74.8203 52.4414C74.4141 53.0117 73.9102 53.4531 73.3086 53.7656C72.707 54.0781 72.0234 54.2344 71.2578 54.2344C70.5 54.2344 69.8242 54.1172 69.2305 53.8828C68.6367 53.6484 68.125 53.3164 67.6953 52.8867C67.2734 52.4492 66.9336 51.9414 66.6758 51.3633C66.4258 50.7773 66.25 50.1367 66.1484 49.4414V46.1953C66.2656 45.4297 66.457 44.7344 66.7227 44.1094C66.9883 43.4844 67.3281 42.9453 67.7422 42.4922C68.1641 42.0391 68.6641 41.6914 69.2422 41.4492C69.8203 41.207 70.4805 41.0859 71.2227 41.0859C71.9961 41.0859 72.6836 41.2383 73.2852 41.543C73.8945 41.8398 74.4062 42.2734 74.8203 42.8438C75.2422 43.4062 75.5586 44.0859 75.7695 44.8828C75.9883 45.6719 76.0977 46.5586 76.0977 47.543ZM74.6914 47.7891V47.543C74.6914 46.8008 74.6133 46.1133 74.457 45.4805C74.3086 44.8477 74.0781 44.2969 73.7656 43.8281C73.4609 43.3516 73.0703 42.9805 72.5938 42.7148C72.125 42.4492 71.5664 42.3164 70.918 42.3164C70.2461 42.3164 69.6719 42.4297 69.1953 42.6562C68.7266 42.875 68.3359 43.168 68.0234 43.5352C67.7109 43.8945 67.4648 44.2891 67.2852 44.7188C67.1055 45.1484 66.9727 45.5703 66.8867 45.9844V49.7227C67.0352 50.3164 67.2734 50.8672 67.6016 51.375C67.9297 51.875 68.3672 52.2773 68.9141 52.582C69.4688 52.8789 70.1445 53.0273 70.9414 53.0273C71.582 53.0273 72.1367 52.8945 72.6055 52.6289C73.0742 52.3633 73.4609 51.9922 73.7656 51.5156C74.0781 51.0391 74.3086 50.4844 74.457 49.8516C74.6133 49.2188 74.6914 48.5312 74.6914 47.7891ZM78.4414 47.8594V47.4727C78.4414 46.5508 78.5742 45.6992 78.8398 44.918C79.1055 44.1367 79.4844 43.4609 79.9766 42.8906C80.4766 42.3203 81.0742 41.8789 81.7695 41.5664C82.4648 41.2461 83.2383 41.0859 84.0898 41.0859C84.9492 41.0859 85.7266 41.2461 86.4219 41.5664C87.1172 41.8789 87.7148 42.3203 88.2148 42.8906C88.7148 43.4609 89.0977 44.1367 89.3633 44.918C89.6289 45.6992 89.7617 46.5508 89.7617 47.4727V47.8594C89.7617 48.7812 89.6289 49.6328 89.3633 50.4141C89.0977 51.1875 88.7148 51.8594 88.2148 52.4297C87.7227 53 87.1289 53.4453 86.4336 53.7656C85.7383 54.0781 84.9648 54.2344 84.1133 54.2344C83.2539 54.2344 82.4766 54.0781 81.7812 53.7656C81.0859 53.4453 80.4883 53 79.9883 52.4297C79.4883 51.8594 79.1055 51.1875 78.8398 50.4141C78.5742 49.6328 78.4414 48.7812 78.4414 47.8594ZM79.8359 47.4727V47.8594C79.8359 48.5547 79.9297 49.2148 80.1172 49.8398C80.3047 50.457 80.5781 51.0078 80.9375 51.4922C81.2969 51.9688 81.7422 52.3438 82.2734 52.6172C82.8047 52.8906 83.418 53.0273 84.1133 53.0273C84.8008 53.0273 85.4062 52.8906 85.9297 52.6172C86.4609 52.3438 86.9062 51.9688 87.2656 51.4922C87.625 51.0078 87.8945 50.457 88.0742 49.8398C88.2617 49.2148 88.3555 48.5547 88.3555 47.8594V47.4727C88.3555 46.7852 88.2617 46.1328 88.0742 45.5156C87.8945 44.8984 87.6211 44.3477 87.2539 43.8633C86.8945 43.3789 86.4492 42.9961 85.918 42.7148C85.3867 42.4336 84.7773 42.293 84.0898 42.293C83.4023 42.293 82.793 42.4336 82.2617 42.7148C81.7383 42.9961 81.293 43.3789 80.9258 43.8633C80.5664 44.3477 80.293 44.8984 80.1055 45.5156C79.9258 46.1328 79.8359 46.7852 79.8359 47.4727ZM94.1445 51.7266L101 41.3203H102.406V54H101V43.5938L94.1445 54H92.7617V41.3203H94.1445V51.7266ZM99.7109 36.7734H100.906C100.906 37.3594 100.77 37.8789 100.496 38.332C100.23 38.7852 99.8438 39.1406 99.3359 39.3984C98.8281 39.6562 98.2266 39.7852 97.5312 39.7852C96.4844 39.7852 95.6562 39.5039 95.0469 38.9414C94.4453 38.3789 94.1445 37.6562 94.1445 36.7734H95.3281C95.3281 37.3125 95.4922 37.7812 95.8203 38.1797C96.1562 38.5703 96.7266 38.7656 97.5312 38.7656C98.3125 38.7656 98.8711 38.5664 99.207 38.168C99.543 37.7695 99.7109 37.3047 99.7109 36.7734ZM110.844 53.0273C111.438 53.0273 111.992 52.918 112.508 52.6992C113.031 52.4727 113.461 52.1406 113.797 51.7031C114.141 51.2578 114.336 50.7148 114.383 50.0742H115.719C115.68 50.8789 115.434 51.5977 114.98 52.2305C114.535 52.8555 113.949 53.3477 113.223 53.707C112.504 54.0586 111.711 54.2344 110.844 54.2344C109.961 54.2344 109.18 54.0742 108.5 53.7539C107.828 53.4336 107.266 52.9883 106.812 52.418C106.359 51.8398 106.016 51.168 105.781 50.4023C105.555 49.6289 105.441 48.7969 105.441 47.9062V47.4141C105.441 46.5234 105.555 45.6953 105.781 44.9297C106.016 44.1562 106.359 43.4844 106.812 42.9141C107.266 42.3359 107.828 41.8867 108.5 41.5664C109.172 41.2461 109.949 41.0859 110.832 41.0859C111.738 41.0859 112.551 41.2695 113.27 41.6367C113.996 42.0039 114.574 42.5234 115.004 43.1953C115.441 43.8672 115.68 44.6641 115.719 45.5859H114.383C114.344 44.9062 114.164 44.3203 113.844 43.8281C113.523 43.3359 113.102 42.957 112.578 42.6914C112.055 42.4258 111.473 42.293 110.832 42.293C110.113 42.293 109.5 42.4336 108.992 42.7148C108.484 42.9883 108.07 43.3672 107.75 43.8516C107.438 44.3281 107.207 44.875 107.059 45.4922C106.91 46.1016 106.836 46.7422 106.836 47.4141V47.9062C106.836 48.5859 106.906 49.2344 107.047 49.8516C107.195 50.4609 107.426 51.0039 107.738 51.4805C108.059 51.957 108.473 52.3359 108.98 52.6172C109.496 52.8906 110.117 53.0273 110.844 53.0273ZM123.02 41.3203V54H121.625V41.3203H123.02ZM127.637 41.3203V42.5156H117.172V41.3203H127.637ZM135.559 48.1523H131.105L131.082 46.9805H134.879C135.645 46.9805 136.281 46.8984 136.789 46.7344C137.305 46.5625 137.691 46.3086 137.949 45.9727C138.215 45.6367 138.348 45.2227 138.348 44.7305C138.348 44.3555 138.27 44.0273 138.113 43.7461C137.965 43.4648 137.738 43.2344 137.434 43.0547C137.137 42.875 136.762 42.7422 136.309 42.6562C135.863 42.5625 135.344 42.5156 134.75 42.5156H131.504V54H130.109V41.3203H134.75C135.523 41.3203 136.215 41.3906 136.824 41.5312C137.441 41.6641 137.969 41.8672 138.406 42.1406C138.844 42.4141 139.176 42.7656 139.402 43.1953C139.637 43.6172 139.754 44.1172 139.754 44.6953C139.754 45.0859 139.68 45.4531 139.531 45.7969C139.383 46.1328 139.164 46.4375 138.875 46.7109C138.594 46.9766 138.246 47.1953 137.832 47.3672C137.418 47.5312 136.941 47.6328 136.402 47.6719L135.559 48.1523ZM135.559 54H130.672L131.211 52.8047H135.559C136.262 52.8047 136.859 52.7148 137.352 52.5352C137.844 52.3555 138.215 52.0898 138.465 51.7383C138.723 51.3867 138.852 50.9609 138.852 50.4609C138.852 49.9922 138.723 49.5859 138.465 49.2422C138.215 48.8984 137.844 48.6328 137.352 48.4453C136.859 48.25 136.262 48.1523 135.559 48.1523H132.324L132.348 46.9805H136.508L137.105 47.4258C137.746 47.4805 138.301 47.6523 138.77 47.9414C139.238 48.2305 139.602 48.5977 139.859 49.043C140.117 49.4805 140.246 49.9609 140.246 50.4844C140.246 51.0625 140.137 51.5742 139.918 52.0195C139.699 52.457 139.383 52.8242 138.969 53.1211C138.562 53.4102 138.07 53.6289 137.492 53.7773C136.914 53.9258 136.27 54 135.559 54ZM151.098 51.7266V45.1875C151.098 44.5859 150.973 44.0664 150.723 43.6289C150.473 43.1914 150.105 42.8555 149.621 42.6211C149.137 42.3867 148.539 42.2695 147.828 42.2695C147.172 42.2695 146.586 42.3867 146.07 42.6211C145.562 42.8477 145.16 43.1562 144.863 43.5469C144.574 43.9297 144.43 44.3555 144.43 44.8242L143.023 44.8125C143.023 44.3359 143.141 43.875 143.375 43.4297C143.609 42.9844 143.941 42.5859 144.371 42.2344C144.801 41.8828 145.312 41.6055 145.906 41.4023C146.508 41.1914 147.168 41.0859 147.887 41.0859C148.793 41.0859 149.59 41.2383 150.277 41.543C150.973 41.8477 151.516 42.3047 151.906 42.9141C152.297 43.5234 152.492 44.2891 152.492 45.2109V51.3398C152.492 51.7773 152.523 52.2305 152.586 52.6992C152.656 53.168 152.754 53.5547 152.879 53.8594V54H151.391C151.297 53.7188 151.223 53.3672 151.168 52.9453C151.121 52.5156 151.098 52.1094 151.098 51.7266ZM151.426 46.6172L151.449 47.6953H148.695C147.977 47.6953 147.332 47.7617 146.762 47.8945C146.199 48.0195 145.723 48.207 145.332 48.457C144.941 48.6992 144.641 48.9922 144.43 49.3359C144.227 49.6797 144.125 50.0703 144.125 50.5078C144.125 50.9609 144.238 51.375 144.465 51.75C144.699 52.125 145.027 52.4258 145.449 52.6523C145.879 52.8711 146.387 52.9805 146.973 52.9805C147.754 52.9805 148.441 52.8359 149.035 52.5469C149.637 52.2578 150.133 51.8789 150.523 51.4102C150.914 50.9414 151.176 50.4297 151.309 49.875L151.918 50.6836C151.816 51.0742 151.629 51.4766 151.355 51.8906C151.09 52.2969 150.742 52.6797 150.312 53.0391C149.883 53.3906 149.375 53.6797 148.789 53.9062C148.211 54.125 147.555 54.2344 146.82 54.2344C145.992 54.2344 145.27 54.0781 144.652 53.7656C144.043 53.4531 143.566 53.0273 143.223 52.4883C142.887 51.9414 142.719 51.3242 142.719 50.6367C142.719 50.0117 142.852 49.4531 143.117 48.9609C143.383 48.4609 143.766 48.0391 144.266 47.6953C144.773 47.3438 145.383 47.0781 146.094 46.8984C146.812 46.7109 147.617 46.6172 148.508 46.6172H151.426Z" fill="#060606"/>
<mask id="path-3-inside-1_42_1888" fill="white">
<path d="M26 75.1895H323.2V104.279H26V75.1895Z"/>
</mask>
<path d="M323.2 103.279H26V105.279H323.2V103.279Z" fill="#F5F5F5" mask="url(#path-3-inside-1_42_1888)"/>
<path d="M41.1064 84.2813V94.2344H39.4043V84.2813H41.1064ZM44.2305 84.2813V85.6485H36.3076V84.2813H44.2305ZM44.1074 90.6182V90.461C44.1074 89.9278 44.1849 89.4333 44.3398 88.9776C44.4948 88.5173 44.7181 88.1186 45.0098 87.7813C45.306 87.4395 45.666 87.1752 46.0898 86.9883C46.5182 86.7969 47.0013 86.7012 47.5391 86.7012C48.0814 86.7012 48.5645 86.7969 48.9883 86.9883C49.4167 87.1752 49.779 87.4395 50.0752 87.7813C50.3714 88.1186 50.597 88.5173 50.752 88.9776C50.9069 89.4333 50.9844 89.9278 50.9844 90.461V90.6182C50.9844 91.1514 50.9069 91.6459 50.752 92.1016C50.597 92.5574 50.3714 92.9561 50.0752 93.2979C49.779 93.6352 49.4189 93.8995 48.9951 94.0909C48.5713 94.2777 48.0905 94.3712 47.5527 94.3712C47.0104 94.3712 46.5251 94.2777 46.0967 94.0909C45.6729 93.8995 45.3128 93.6352 45.0166 93.2979C44.7204 92.9561 44.4948 92.5574 44.3398 92.1016C44.1849 91.6459 44.1074 91.1514 44.1074 90.6182ZM45.7549 90.461V90.6182C45.7549 90.9509 45.7891 91.2654 45.8574 91.5616C45.9258 91.8578 46.0329 92.1176 46.1787 92.3409C46.3245 92.5642 46.5114 92.7396 46.7393 92.8672C46.9671 92.9949 47.2383 93.0587 47.5527 93.0587C47.8581 93.0587 48.1224 92.9949 48.3457 92.8672C48.5736 92.7396 48.7604 92.5642 48.9062 92.3409C49.0521 92.1176 49.1592 91.8578 49.2275 91.5616C49.3005 91.2654 49.3369 90.9509 49.3369 90.6182V90.461C49.3369 90.1329 49.3005 89.823 49.2275 89.5313C49.1592 89.2351 49.0498 88.973 48.8994 88.7452C48.7536 88.5173 48.5667 88.3396 48.3389 88.212C48.1156 88.0798 47.849 88.0137 47.5391 88.0137C47.2292 88.0137 46.9603 88.0798 46.7324 88.212C46.5091 88.3396 46.3245 88.5173 46.1787 88.7452C46.0329 88.973 45.9258 89.2351 45.8574 89.5313C45.7891 89.823 45.7549 90.1329 45.7549 90.461ZM57.3281 86.838V88.1505H53.6777V86.838H57.3281ZM54.0674 86.838V94.2344H52.4199V86.838H54.0674ZM58.6201 86.838V94.2344H56.9658V86.838H58.6201ZM65.4834 89.6065L64.1709 89.2852L64.7109 84.2813H70.0771V85.6758H66.0781L65.8047 88.1163C65.9596 88.0251 66.1738 87.9363 66.4473 87.8497C66.7207 87.7585 67.0329 87.713 67.3838 87.713C67.8532 87.713 68.2725 87.7904 68.6416 87.9454C69.0153 88.0958 69.332 88.3168 69.5918 88.6085C69.8516 88.8956 70.0498 89.2465 70.1865 89.6612C70.3232 90.0714 70.3916 90.5339 70.3916 91.0489C70.3916 91.5092 70.3232 91.9398 70.1865 92.3409C70.0544 92.7419 69.8538 93.0951 69.585 93.4005C69.3161 93.7058 68.9766 93.945 68.5664 94.1182C68.1608 94.2868 67.68 94.3712 67.124 94.3712C66.7093 94.3712 66.3105 94.3119 65.9277 94.1934C65.5495 94.0704 65.21 93.8904 64.9092 93.6534C64.6084 93.4118 64.3669 93.1156 64.1846 92.7647C64.0023 92.4092 63.8975 92.0014 63.8701 91.5411H65.4834C65.5244 91.8646 65.6133 92.1404 65.75 92.3682C65.8913 92.5915 66.0781 92.7624 66.3105 92.8809C66.543 92.9994 66.8118 93.0587 67.1172 93.0587C67.3952 93.0587 67.6344 93.0108 67.835 92.9151C68.0355 92.8148 68.2018 92.6736 68.334 92.4913C68.4707 92.3044 68.571 92.0857 68.6348 91.835C68.7031 91.5844 68.7373 91.3064 68.7373 91.001C68.7373 90.7094 68.6986 90.4428 68.6211 90.2012C68.5482 89.9597 68.4365 89.7501 68.2861 89.5723C68.1403 89.3946 67.9557 89.2579 67.7324 89.1622C67.5091 89.0619 67.2516 89.0118 66.96 89.0118C66.568 89.0118 66.2673 89.0687 66.0576 89.1827C65.8525 89.2966 65.6611 89.4379 65.4834 89.6065ZM78.1982 88.4239V90.0508C78.1982 90.8301 78.1208 91.4955 77.9658 92.0469C77.8154 92.5938 77.5967 93.0381 77.3096 93.3799C77.0225 93.7217 76.6784 93.9724 76.2773 94.1319C75.8809 94.2914 75.4365 94.3712 74.9443 94.3712C74.5524 94.3712 74.1878 94.321 73.8506 94.2208C73.5179 94.1205 73.2171 93.9633 72.9482 93.7491C72.6794 93.5349 72.4492 93.2592 72.2578 92.9219C72.071 92.5801 71.9251 92.1723 71.8203 91.6983C71.7201 91.2243 71.6699 90.6752 71.6699 90.0508V88.4239C71.6699 87.64 71.7474 86.9792 71.9023 86.4415C72.0573 85.8991 72.2783 85.4594 72.5654 85.1221C72.8525 84.7803 73.1943 84.532 73.5908 84.377C73.9919 84.2221 74.4385 84.1446 74.9307 84.1446C75.3271 84.1446 75.6917 84.1947 76.0244 84.295C76.3617 84.3907 76.6624 84.5434 76.9268 84.753C77.1956 84.9626 77.4235 85.2361 77.6104 85.5733C77.8018 85.906 77.9476 86.3093 78.0479 86.7833C78.1481 87.2527 78.1982 87.7995 78.1982 88.4239ZM76.5508 90.2833V88.1778C76.5508 87.7813 76.528 87.4327 76.4824 87.1319C76.4368 86.8266 76.3685 86.5691 76.2773 86.3594C76.1908 86.1452 76.0814 85.9721 75.9492 85.8399C75.8171 85.7032 75.6667 85.6052 75.498 85.546C75.3294 85.4822 75.1403 85.4503 74.9307 85.4503C74.6755 85.4503 74.4476 85.5004 74.2471 85.6006C74.0465 85.6964 73.8779 85.8513 73.7412 86.0655C73.6045 86.2797 73.4997 86.5622 73.4268 86.9131C73.3584 87.2595 73.3242 87.6811 73.3242 88.1778V90.2833C73.3242 90.6843 73.347 91.0375 73.3926 91.3428C73.4382 91.6482 73.5065 91.9102 73.5977 92.129C73.6888 92.3432 73.7982 92.5209 73.9258 92.6622C74.0579 92.7989 74.2083 92.8991 74.377 92.963C74.5501 93.0268 74.7393 93.0587 74.9443 93.0587C75.2041 93.0587 75.4342 93.0085 75.6348 92.9083C75.8353 92.808 76.0039 92.6485 76.1406 92.4297C76.2773 92.2064 76.3799 91.9171 76.4482 91.5616C76.5166 91.2061 76.5508 90.78 76.5508 90.2833ZM85.3965 93.4278L87.4062 86.838H89.1699L86.2031 95.3624C86.1348 95.5447 86.0459 95.7429 85.9365 95.9571C85.8271 96.1713 85.6836 96.3741 85.5059 96.5655C85.3327 96.7615 85.1162 96.9187 84.8564 97.0372C84.5967 97.1602 84.2822 97.2217 83.9131 97.2217C83.7673 97.2217 83.626 97.2081 83.4893 97.1807C83.3571 97.1579 83.2318 97.1329 83.1133 97.1055L83.1064 95.8477C83.152 95.8523 83.2067 95.8568 83.2705 95.8614C83.3389 95.8659 83.3936 95.8682 83.4346 95.8682C83.708 95.8682 83.9359 95.834 84.1182 95.7657C84.3005 95.7019 84.4486 95.5971 84.5625 95.4512C84.681 95.3054 84.7812 95.1094 84.8633 94.8633L85.3965 93.4278ZM84.2617 86.838L86.0186 92.3751L86.3125 94.1114L85.1709 94.4053L82.4844 86.838H84.2617ZM93.0391 93.0587C93.3079 93.0587 93.5495 93.0062 93.7637 92.9014C93.9824 92.7921 94.1579 92.6417 94.29 92.4503C94.4268 92.2589 94.502 92.0378 94.5156 91.7872H96.0674C96.0583 92.2657 95.917 92.7009 95.6436 93.0928C95.3701 93.4848 95.0078 93.7969 94.5566 94.0294C94.1055 94.2572 93.6064 94.3712 93.0596 94.3712C92.4945 94.3712 92.0023 94.2755 91.583 94.084C91.1637 93.8881 90.8151 93.6192 90.5371 93.2774C90.2591 92.9356 90.0495 92.5414 89.9082 92.0948C89.7715 91.6482 89.7031 91.1697 89.7031 90.6592V90.42C89.7031 89.9096 89.7715 89.4311 89.9082 88.9844C90.0495 88.5333 90.2591 88.1368 90.5371 87.795C90.8151 87.4532 91.1637 87.1866 91.583 86.9952C92.0023 86.7992 92.4922 86.7012 93.0527 86.7012C93.6452 86.7012 94.1647 86.8197 94.6113 87.0567C95.0579 87.2891 95.4089 87.615 95.6641 88.0342C95.9238 88.449 96.0583 88.932 96.0674 89.4835H94.5156C94.502 89.21 94.4336 88.9639 94.3105 88.7452C94.1921 88.5219 94.0234 88.3441 93.8047 88.212C93.5905 88.0798 93.333 88.0137 93.0322 88.0137C92.6995 88.0137 92.4238 88.0821 92.2051 88.2188C91.9863 88.351 91.8154 88.5333 91.6924 88.7657C91.5693 88.9936 91.4805 89.251 91.4258 89.5381C91.3757 89.8207 91.3506 90.1146 91.3506 90.42V90.6592C91.3506 90.9646 91.3757 91.2608 91.4258 91.5479C91.4759 91.835 91.5625 92.0925 91.6855 92.3204C91.8132 92.5437 91.9863 92.7237 92.2051 92.8604C92.4238 92.9926 92.7018 93.0587 93.0391 93.0587ZM100.764 86.838V94.2344H99.1094V86.838H100.764ZM103.19 86.838V88.1368H96.7236V86.838H103.19ZM105.945 88.2598V97.0782H104.298V86.838H105.815L105.945 88.2598ZM110.765 90.4678V90.6114C110.765 91.1491 110.701 91.6482 110.573 92.1085C110.45 92.5642 110.266 92.963 110.02 93.3047C109.778 93.642 109.479 93.904 109.124 94.0909C108.769 94.2777 108.358 94.3712 107.894 94.3712C107.433 94.3712 107.03 94.2868 106.684 94.1182C106.342 93.945 106.052 93.7012 105.815 93.3868C105.578 93.0723 105.387 92.7032 105.241 92.2794C105.1 91.851 105 91.3816 104.94 90.8712V90.3174C105 89.7751 105.1 89.2829 105.241 88.8409C105.387 88.3988 105.578 88.0183 105.815 87.6993C106.052 87.3803 106.342 87.1342 106.684 86.961C107.025 86.7878 107.424 86.7012 107.88 86.7012C108.345 86.7012 108.757 86.7924 109.117 86.9747C109.477 87.1524 109.78 87.4076 110.026 87.7403C110.272 88.0684 110.457 88.4649 110.58 88.9297C110.703 89.39 110.765 89.9027 110.765 90.4678ZM109.117 90.6114V90.4678C109.117 90.126 109.085 89.8093 109.021 89.5176C108.958 89.2214 108.857 88.9616 108.721 88.7383C108.584 88.515 108.409 88.3419 108.194 88.2188C107.985 88.0912 107.732 88.0274 107.436 88.0274C107.144 88.0274 106.893 88.0775 106.684 88.1778C106.474 88.2735 106.299 88.4079 106.157 88.5811C106.016 88.7543 105.907 88.9571 105.829 89.1895C105.752 89.4174 105.697 89.6658 105.665 89.9346V91.2608C105.72 91.5889 105.813 91.8897 105.945 92.1631C106.077 92.4366 106.264 92.6553 106.506 92.8194C106.752 92.9789 107.066 93.0587 107.449 93.0587C107.745 93.0587 107.998 92.9949 108.208 92.8672C108.418 92.7396 108.589 92.5642 108.721 92.3409C108.857 92.113 108.958 91.851 109.021 91.5547C109.085 91.2585 109.117 90.9441 109.117 90.6114ZM111.852 90.6182V90.461C111.852 89.9278 111.929 89.4333 112.084 88.9776C112.239 88.5173 112.462 88.1186 112.754 87.7813C113.05 87.4395 113.41 87.1752 113.834 86.9883C114.262 86.7969 114.745 86.7012 115.283 86.7012C115.826 86.7012 116.309 86.7969 116.732 86.9883C117.161 87.1752 117.523 87.4395 117.819 87.7813C118.116 88.1186 118.341 88.5173 118.496 88.9776C118.651 89.4333 118.729 89.9278 118.729 90.461V90.6182C118.729 91.1514 118.651 91.6459 118.496 92.1016C118.341 92.5574 118.116 92.9561 117.819 93.2979C117.523 93.6352 117.163 93.8995 116.739 94.0909C116.315 94.2777 115.835 94.3712 115.297 94.3712C114.755 94.3712 114.269 94.2777 113.841 94.0909C113.417 93.8995 113.057 93.6352 112.761 93.2979C112.465 92.9561 112.239 92.5574 112.084 92.1016C111.929 91.6459 111.852 91.1514 111.852 90.6182ZM113.499 90.461V90.6182C113.499 90.9509 113.533 91.2654 113.602 91.5616C113.67 91.8578 113.777 92.1176 113.923 92.3409C114.069 92.5642 114.256 92.7396 114.483 92.8672C114.711 92.9949 114.982 93.0587 115.297 93.0587C115.602 93.0587 115.867 92.9949 116.09 92.8672C116.318 92.7396 116.505 92.5642 116.65 92.3409C116.796 92.1176 116.903 91.8578 116.972 91.5616C117.045 91.2654 117.081 90.9509 117.081 90.6182V90.461C117.081 90.1329 117.045 89.823 116.972 89.5313C116.903 89.2351 116.794 88.973 116.644 88.7452C116.498 88.5173 116.311 88.3396 116.083 88.212C115.86 88.0798 115.593 88.0137 115.283 88.0137C114.973 88.0137 114.704 88.0798 114.477 88.212C114.253 88.3396 114.069 88.5173 113.923 88.7452C113.777 88.973 113.67 89.2351 113.602 89.5313C113.533 89.823 113.499 90.1329 113.499 90.461ZM121.812 91.8282L124.717 86.838H126.364V94.2344H124.717V89.2374L121.812 94.2344H120.164V86.838H121.812V91.8282ZM124.279 83.9942H125.503C125.503 84.3725 125.412 84.7074 125.229 84.9991C125.052 85.2862 124.797 85.5118 124.464 85.6758C124.136 85.8399 123.744 85.9219 123.288 85.9219C122.6 85.9219 122.055 85.7442 121.654 85.3887C121.258 85.0287 121.06 84.5639 121.06 83.9942H122.283C122.283 84.2494 122.358 84.475 122.509 84.671C122.664 84.8624 122.924 84.9581 123.288 84.9581C123.648 84.9581 123.903 84.8624 124.054 84.671C124.204 84.475 124.279 84.2494 124.279 83.9942ZM131.129 93.0587C131.398 93.0587 131.639 93.0062 131.854 92.9014C132.072 92.7921 132.248 92.6417 132.38 92.4503C132.517 92.2589 132.592 92.0378 132.605 91.7872H134.157C134.148 92.2657 134.007 92.7009 133.733 93.0928C133.46 93.4848 133.098 93.7969 132.646 94.0294C132.195 94.2572 131.696 94.3712 131.149 94.3712C130.584 94.3712 130.092 94.2755 129.673 94.084C129.254 93.8881 128.905 93.6192 128.627 93.2774C128.349 92.9356 128.139 92.5414 127.998 92.0948C127.861 91.6482 127.793 91.1697 127.793 90.6592V90.42C127.793 89.9096 127.861 89.4311 127.998 88.9844C128.139 88.5333 128.349 88.1368 128.627 87.795C128.905 87.4532 129.254 87.1866 129.673 86.9952C130.092 86.7992 130.582 86.7012 131.143 86.7012C131.735 86.7012 132.255 86.8197 132.701 87.0567C133.148 87.2891 133.499 87.615 133.754 88.0342C134.014 88.449 134.148 88.932 134.157 89.4835H132.605C132.592 89.21 132.523 88.9639 132.4 88.7452C132.282 88.5219 132.113 88.3441 131.895 88.212C131.68 88.0798 131.423 88.0137 131.122 88.0137C130.789 88.0137 130.514 88.0821 130.295 88.2188C130.076 88.351 129.905 88.5333 129.782 88.7657C129.659 88.9936 129.57 89.251 129.516 89.5381C129.465 89.8207 129.44 90.1146 129.44 90.42V90.6592C129.44 90.9646 129.465 91.2608 129.516 91.5479C129.566 91.835 129.652 92.0925 129.775 92.3204C129.903 92.5437 130.076 92.7237 130.295 92.8604C130.514 92.9926 130.792 93.0587 131.129 93.0587ZM138.854 86.838V94.2344H137.199V86.838H138.854ZM141.28 86.838V88.1368H134.813V86.838H141.28ZM145.977 91.0694H143.611L143.598 89.9073H145.539C145.858 89.9073 146.12 89.8754 146.325 89.8116C146.535 89.7478 146.69 89.6521 146.79 89.5245C146.89 89.3923 146.94 89.2328 146.94 89.046C146.94 88.891 146.911 88.7566 146.852 88.6426C146.792 88.5241 146.701 88.4284 146.578 88.3555C146.46 88.2781 146.309 88.2234 146.127 88.1915C145.949 88.155 145.742 88.1368 145.505 88.1368H144.158V94.2344H142.511V86.838H145.505C145.979 86.838 146.405 86.879 146.783 86.961C147.166 87.043 147.492 87.1684 147.761 87.337C148.03 87.5056 148.235 87.7198 148.376 87.9796C148.522 88.2348 148.595 88.5355 148.595 88.8819C148.595 89.1098 148.545 89.324 148.444 89.5245C148.349 89.725 148.205 89.9027 148.014 90.0577C147.822 90.2126 147.588 90.3402 147.31 90.4405C147.032 90.5362 146.713 90.5954 146.353 90.6182L145.977 91.0694ZM145.977 94.2344H143.133L143.789 92.9356H145.977C146.268 92.9356 146.51 92.8991 146.701 92.8262C146.893 92.7533 147.034 92.6485 147.125 92.5118C147.221 92.3705 147.269 92.2042 147.269 92.0128C147.269 91.8168 147.223 91.6482 147.132 91.5069C147.041 91.3656 146.899 91.2585 146.708 91.1856C146.521 91.1081 146.277 91.0694 145.977 91.0694H144.097L144.11 89.9073H146.346L146.817 90.3585C147.287 90.3904 147.676 90.4906 147.986 90.6592C148.296 90.8279 148.529 91.0398 148.684 91.295C148.839 91.5502 148.916 91.8282 148.916 92.129C148.916 92.4753 148.85 92.7807 148.718 93.045C148.59 93.3093 148.399 93.5303 148.144 93.7081C147.893 93.8812 147.585 94.0134 147.221 94.1046C146.856 94.1911 146.441 94.2344 145.977 94.2344Z" fill="#4F5A7C"/>
<mask id="path-6-inside-2_42_1888" fill="white">
<path d="M324 74.9551H546.09V103.955H324V74.9551Z"/>
</mask>
<path d="M546.09 102.955H324V104.955H546.09V102.955Z" fill="#F5F5F5" mask="url(#path-6-inside-2_42_1888)"/>
<path d="M384.787 84.002V93.9551H383.078V85.3691H378.655V93.9551H376.946V84.002H384.787ZM386.373 90.3389V90.1816C386.373 89.6484 386.451 89.154 386.605 88.6982C386.76 88.238 386.984 87.8392 387.275 87.502C387.572 87.1602 387.932 86.8958 388.355 86.709C388.784 86.5176 389.267 86.4219 389.805 86.4219C390.347 86.4219 390.83 86.5176 391.254 86.709C391.682 86.8958 392.045 87.1602 392.341 87.502C392.637 87.8392 392.863 88.238 393.018 88.6982C393.173 89.154 393.25 89.6484 393.25 90.1816V90.3389C393.25 90.8721 393.173 91.3665 393.018 91.8223C392.863 92.278 392.637 92.6768 392.341 93.0186C392.045 93.3558 391.685 93.6201 391.261 93.8115C390.837 93.9984 390.356 94.0918 389.818 94.0918C389.276 94.0918 388.791 93.9984 388.362 93.8115C387.938 93.6201 387.578 93.3558 387.282 93.0186C386.986 92.6768 386.76 92.278 386.605 91.8223C386.451 91.3665 386.373 90.8721 386.373 90.3389ZM388.021 90.1816V90.3389C388.021 90.6715 388.055 90.986 388.123 91.2822C388.191 91.5785 388.299 91.8382 388.444 92.0615C388.59 92.2848 388.777 92.4603 389.005 92.5879C389.233 92.7155 389.504 92.7793 389.818 92.7793C390.124 92.7793 390.388 92.7155 390.611 92.5879C390.839 92.4603 391.026 92.2848 391.172 92.0615C391.318 91.8382 391.425 91.5785 391.493 91.2822C391.566 90.986 391.603 90.6715 391.603 90.3389V90.1816C391.603 89.8535 391.566 89.5436 391.493 89.252C391.425 88.9557 391.315 88.6937 391.165 88.4658C391.019 88.238 390.832 88.0602 390.604 87.9326C390.381 87.8005 390.115 87.7344 389.805 87.7344C389.495 87.7344 389.226 87.8005 388.998 87.9326C388.775 88.0602 388.59 88.238 388.444 88.4658C388.299 88.6937 388.191 88.9557 388.123 89.252C388.055 89.5436 388.021 89.8535 388.021 90.1816ZM397.652 92.7793C397.921 92.7793 398.163 92.7269 398.377 92.6221C398.596 92.5127 398.771 92.3623 398.903 92.1709C399.04 91.9795 399.115 91.7585 399.129 91.5078H400.681C400.672 91.9863 400.53 92.4215 400.257 92.8135C399.983 93.2054 399.621 93.5176 399.17 93.75C398.719 93.9779 398.22 94.0918 397.673 94.0918C397.108 94.0918 396.616 93.9961 396.196 93.8047C395.777 93.6087 395.428 93.3398 395.15 92.998C394.872 92.6562 394.663 92.262 394.521 91.8154C394.385 91.3688 394.316 90.8903 394.316 90.3799V90.1406C394.316 89.6302 394.385 89.1517 394.521 88.7051C394.663 88.2539 394.872 87.8574 395.15 87.5156C395.428 87.1738 395.777 86.9072 396.196 86.7158C396.616 86.5199 397.105 86.4219 397.666 86.4219C398.258 86.4219 398.778 86.5404 399.225 86.7773C399.671 87.0098 400.022 87.3356 400.277 87.7549C400.537 88.1696 400.672 88.6527 400.681 89.2041H399.129C399.115 88.9307 399.047 88.6846 398.924 88.4658C398.805 88.2425 398.637 88.0648 398.418 87.9326C398.204 87.8005 397.946 87.7344 397.646 87.7344C397.313 87.7344 397.037 87.8027 396.818 87.9395C396.6 88.0716 396.429 88.2539 396.306 88.4863C396.183 88.7142 396.094 88.9717 396.039 89.2588C395.989 89.5413 395.964 89.8353 395.964 90.1406V90.3799C395.964 90.6852 395.989 90.9814 396.039 91.2686C396.089 91.5557 396.176 91.8132 396.299 92.041C396.426 92.2643 396.6 92.4443 396.818 92.5811C397.037 92.7132 397.315 92.7793 397.652 92.7793ZM405.206 94.0918C404.659 94.0918 404.165 94.0029 403.723 93.8252C403.285 93.6429 402.911 93.39 402.602 93.0664C402.296 92.7428 402.062 92.3623 401.897 91.9248C401.733 91.4873 401.651 91.0156 401.651 90.5098V90.2363C401.651 89.6576 401.736 89.1335 401.904 88.6641C402.073 88.1947 402.308 87.7936 402.608 87.4609C402.909 87.1237 403.265 86.8662 403.675 86.6885C404.085 86.5107 404.529 86.4219 405.008 86.4219C405.536 86.4219 405.999 86.5107 406.396 86.6885C406.792 86.8662 407.12 87.1169 407.38 87.4404C407.644 87.7594 407.84 88.14 407.968 88.582C408.1 89.0241 408.166 89.5117 408.166 90.0449V90.749H402.451V89.5664H406.539V89.4365C406.53 89.1403 406.471 88.8623 406.361 88.6025C406.257 88.3428 406.095 88.1331 405.876 87.9736C405.657 87.8141 405.366 87.7344 405.001 87.7344C404.728 87.7344 404.484 87.7936 404.27 87.9121C404.06 88.026 403.884 88.1924 403.743 88.4111C403.602 88.6299 403.493 88.8942 403.415 89.2041C403.342 89.5094 403.306 89.8535 403.306 90.2363V90.5098C403.306 90.8333 403.349 91.1341 403.436 91.4121C403.527 91.6855 403.659 91.9248 403.832 92.1299C404.005 92.335 404.215 92.4967 404.461 92.6152C404.707 92.7292 404.987 92.7861 405.302 92.7861C405.698 92.7861 406.051 92.7064 406.361 92.5469C406.671 92.3874 406.94 92.1618 407.168 91.8701L408.036 92.7109C407.877 92.9434 407.669 93.1667 407.414 93.3809C407.159 93.5905 406.847 93.7614 406.478 93.8936C406.113 94.0257 405.689 94.0918 405.206 94.0918ZM412.801 86.5586V93.9551H411.146V86.5586H412.801ZM415.228 86.5586V87.8574H408.761V86.5586H415.228ZM418.03 91.5488L420.936 86.5586H422.583V93.9551H420.936V88.958L418.03 93.9551H416.383V86.5586H418.03V91.5488ZM427.758 86.5586V93.9551H426.104V86.5586H427.758ZM430.185 86.5586V87.8574H423.718V86.5586H430.185ZM434.04 94.0918C433.493 94.0918 432.999 94.0029 432.557 93.8252C432.119 93.6429 431.745 93.39 431.436 93.0664C431.13 92.7428 430.896 92.3623 430.731 91.9248C430.567 91.4873 430.485 91.0156 430.485 90.5098V90.2363C430.485 89.6576 430.57 89.1335 430.738 88.6641C430.907 88.1947 431.142 87.7936 431.442 87.4609C431.743 87.1237 432.099 86.8662 432.509 86.6885C432.919 86.5107 433.363 86.4219 433.842 86.4219C434.37 86.4219 434.833 86.5107 435.229 86.6885C435.626 86.8662 435.954 87.1169 436.214 87.4404C436.478 87.7594 436.674 88.14 436.802 88.582C436.934 89.0241 437 89.5117 437 90.0449V90.749H431.285V89.5664H435.373V89.4365C435.364 89.1403 435.305 88.8623 435.195 88.6025C435.09 88.3428 434.929 88.1331 434.71 87.9736C434.491 87.8141 434.2 87.7344 433.835 87.7344C433.562 87.7344 433.318 87.7936 433.104 87.9121C432.894 88.026 432.718 88.1924 432.577 88.4111C432.436 88.6299 432.326 88.8942 432.249 89.2041C432.176 89.5094 432.14 89.8535 432.14 90.2363V90.5098C432.14 90.8333 432.183 91.1341 432.27 91.4121C432.361 91.6855 432.493 91.9248 432.666 92.1299C432.839 92.335 433.049 92.4967 433.295 92.6152C433.541 92.7292 433.821 92.7861 434.136 92.7861C434.532 92.7861 434.885 92.7064 435.195 92.5469C435.505 92.3874 435.774 92.1618 436.002 91.8701L436.87 92.7109C436.711 92.9434 436.503 93.1667 436.248 93.3809C435.993 93.5905 435.681 93.7614 435.312 93.8936C434.947 94.0257 434.523 94.0918 434.04 94.0918ZM443.255 86.5586V87.8711H439.646V86.5586H443.255ZM444.547 86.5586V93.9551H442.899V86.5586H444.547ZM439.242 86.5586H440.869L440.671 90.2158C440.644 90.7581 440.589 91.2367 440.507 91.6514C440.429 92.0615 440.325 92.4147 440.192 92.7109C440.06 93.0026 439.898 93.2396 439.707 93.4219C439.516 93.6042 439.292 93.7386 439.037 93.8252C438.782 93.9118 438.495 93.9551 438.176 93.9551H437.663L437.656 92.6016L437.916 92.5811C438.085 92.5674 438.23 92.5241 438.354 92.4512C438.477 92.3737 438.581 92.2643 438.668 92.123C438.759 91.9818 438.832 91.7995 438.887 91.5762C438.946 91.3529 438.992 91.0885 439.023 90.7832C439.06 90.4779 439.087 90.1224 439.105 89.7168L439.242 86.5586ZM447.999 91.5488L450.904 86.5586H452.552V93.9551H450.904V88.958L447.999 93.9551H446.352V86.5586H447.999V91.5488ZM460.803 92.7793C461.072 92.7793 461.313 92.7269 461.527 92.6221C461.746 92.5127 461.922 92.3623 462.054 92.1709C462.19 91.9795 462.266 91.7585 462.279 91.5078H463.831C463.822 91.9863 463.681 92.4215 463.407 92.8135C463.134 93.2054 462.771 93.5176 462.32 93.75C461.869 93.9779 461.37 94.0918 460.823 94.0918C460.258 94.0918 459.766 93.9961 459.347 93.8047C458.927 93.6087 458.579 93.3398 458.301 92.998C458.023 92.6562 457.813 92.262 457.672 91.8154C457.535 91.3688 457.467 90.8903 457.467 90.3799V90.1406C457.467 89.6302 457.535 89.1517 457.672 88.7051C457.813 88.2539 458.023 87.8574 458.301 87.5156C458.579 87.1738 458.927 86.9072 459.347 86.7158C459.766 86.5199 460.256 86.4219 460.816 86.4219C461.409 86.4219 461.928 86.5404 462.375 86.7773C462.822 87.0098 463.173 87.3356 463.428 87.7549C463.688 88.1696 463.822 88.6527 463.831 89.2041H462.279C462.266 88.9307 462.197 88.6846 462.074 88.4658C461.956 88.2425 461.787 88.0648 461.568 87.9326C461.354 87.8005 461.097 87.7344 460.796 87.7344C460.463 87.7344 460.188 87.8027 459.969 87.9395C459.75 88.0716 459.579 88.2539 459.456 88.4863C459.333 88.7142 459.244 88.9717 459.189 89.2588C459.139 89.5413 459.114 89.8353 459.114 90.1406V90.3799C459.114 90.6852 459.139 90.9814 459.189 91.2686C459.24 91.5557 459.326 91.8132 459.449 92.041C459.577 92.2643 459.75 92.4443 459.969 92.5811C460.188 92.7132 460.465 92.7793 460.803 92.7793ZM469.266 92.4717V88.9443C469.266 88.68 469.218 88.4521 469.122 88.2607C469.026 88.0693 468.881 87.9212 468.685 87.8164C468.493 87.7116 468.252 87.6592 467.96 87.6592C467.691 87.6592 467.459 87.7048 467.263 87.7959C467.067 87.887 466.914 88.0101 466.805 88.165C466.695 88.32 466.641 88.4954 466.641 88.6914H465C465 88.3997 465.071 88.1172 465.212 87.8438C465.353 87.5703 465.558 87.3265 465.827 87.1123C466.096 86.8981 466.417 86.7295 466.791 86.6064C467.165 86.4834 467.584 86.4219 468.049 86.4219C468.605 86.4219 469.097 86.5153 469.525 86.7021C469.958 86.889 470.298 87.1715 470.544 87.5498C470.795 87.9235 470.92 88.3929 470.92 88.958V92.2461C470.92 92.5833 470.943 92.8864 470.988 93.1553C471.038 93.4196 471.109 93.6497 471.2 93.8457V93.9551H469.512C469.434 93.7773 469.373 93.5518 469.327 93.2783C469.286 93.0003 469.266 92.7314 469.266 92.4717ZM469.505 89.457L469.519 90.4756H468.336C468.031 90.4756 467.762 90.5052 467.529 90.5645C467.297 90.6191 467.103 90.7012 466.948 90.8105C466.793 90.9199 466.677 91.0521 466.6 91.207C466.522 91.362 466.483 91.5374 466.483 91.7334C466.483 91.9294 466.529 92.1094 466.62 92.2734C466.711 92.4329 466.843 92.5583 467.017 92.6494C467.194 92.7406 467.409 92.7861 467.659 92.7861C467.996 92.7861 468.29 92.7178 468.541 92.5811C468.796 92.4398 468.997 92.2689 469.143 92.0684C469.288 91.8633 469.366 91.6696 469.375 91.4873L469.908 92.2188C469.854 92.4056 469.76 92.6061 469.628 92.8203C469.496 93.0345 469.323 93.2396 469.108 93.4355C468.899 93.627 468.646 93.7842 468.35 93.9072C468.058 94.0303 467.721 94.0918 467.338 94.0918C466.855 94.0918 466.424 93.9961 466.046 93.8047C465.668 93.6087 465.371 93.3467 465.157 93.0186C464.943 92.6859 464.836 92.3099 464.836 91.8906C464.836 91.4987 464.909 91.1523 465.055 90.8516C465.205 90.5462 465.424 90.291 465.711 90.0859C466.003 89.8809 466.358 89.7259 466.777 89.6211C467.197 89.5117 467.675 89.457 468.213 89.457H469.505ZM474.345 91.5488L477.25 86.5586H478.897V93.9551H477.25V88.958L474.345 93.9551H472.697V86.5586H474.345V91.5488ZM476.812 83.7148H478.036C478.036 84.0931 477.945 84.4281 477.763 84.7197C477.585 85.0068 477.33 85.2324 476.997 85.3965C476.669 85.5605 476.277 85.6426 475.821 85.6426C475.133 85.6426 474.589 85.4648 474.188 85.1094C473.791 84.7493 473.593 84.2845 473.593 83.7148H474.816C474.816 83.9701 474.892 84.1956 475.042 84.3916C475.197 84.583 475.457 84.6787 475.821 84.6787C476.181 84.6787 476.437 84.583 476.587 84.3916C476.737 84.1956 476.812 83.9701 476.812 83.7148ZM484.072 86.5586V93.9551H482.418V86.5586H484.072ZM486.499 86.5586V87.8574H480.032V86.5586H486.499ZM491.66 92.4717V88.9443C491.66 88.68 491.612 88.4521 491.517 88.2607C491.421 88.0693 491.275 87.9212 491.079 87.8164C490.888 87.7116 490.646 87.6592 490.354 87.6592C490.086 87.6592 489.853 87.7048 489.657 87.7959C489.461 87.887 489.309 88.0101 489.199 88.165C489.09 88.32 489.035 88.4954 489.035 88.6914H487.395C487.395 88.3997 487.465 88.1172 487.606 87.8438C487.748 87.5703 487.953 87.3265 488.222 87.1123C488.491 86.8981 488.812 86.7295 489.186 86.6064C489.559 86.4834 489.979 86.4219 490.443 86.4219C490.999 86.4219 491.492 86.5153 491.92 86.7021C492.353 86.889 492.692 87.1715 492.938 87.5498C493.189 87.9235 493.314 88.3929 493.314 88.958V92.2461C493.314 92.5833 493.337 92.8864 493.383 93.1553C493.433 93.4196 493.504 93.6497 493.595 93.8457V93.9551H491.906C491.829 93.7773 491.767 93.5518 491.722 93.2783C491.681 93.0003 491.66 92.7314 491.66 92.4717ZM491.899 89.457L491.913 90.4756H490.73C490.425 90.4756 490.156 90.5052 489.924 90.5645C489.691 90.6191 489.498 90.7012 489.343 90.8105C489.188 90.9199 489.072 91.0521 488.994 91.207C488.917 91.362 488.878 91.5374 488.878 91.7334C488.878 91.9294 488.924 92.1094 489.015 92.2734C489.106 92.4329 489.238 92.5583 489.411 92.6494C489.589 92.7406 489.803 92.7861 490.054 92.7861C490.391 92.7861 490.685 92.7178 490.936 92.5811C491.191 92.4398 491.391 92.2689 491.537 92.0684C491.683 91.8633 491.76 91.6696 491.77 91.4873L492.303 92.2188C492.248 92.4056 492.155 92.6061 492.022 92.8203C491.89 93.0345 491.717 93.2396 491.503 93.4355C491.293 93.627 491.04 93.7842 490.744 93.9072C490.452 94.0303 490.115 94.0918 489.732 94.0918C489.249 94.0918 488.819 93.9961 488.44 93.8047C488.062 93.6087 487.766 93.3467 487.552 93.0186C487.338 92.6859 487.23 92.3099 487.23 91.8906C487.23 91.4987 487.303 91.1523 487.449 90.8516C487.6 90.5462 487.818 90.291 488.105 90.0859C488.397 89.8809 488.753 89.7259 489.172 89.6211C489.591 89.5117 490.07 89.457 490.607 89.457H491.899Z" fill="#27C58B"/>
<mask id="path-9-inside-3_42_1888" fill="white">
<path d="M26 107.955H323.2V156.955H26V107.955Z"/>
</mask>
<path d="M323.2 155.955H26V157.955H323.2V155.955Z" fill="#F5F5F5" mask="url(#path-9-inside-3_42_1888)"/>
<path d="M50.8846 121.91H44.1154C43.5543 121.91 43.0163 122.126 42.6196 122.509C42.2229 122.893 42 123.413 42 123.956V137.865C42 138.407 42.2229 138.927 42.6196 139.311C43.0163 139.695 43.5543 139.91 44.1154 139.91H50.8846C51.4457 139.91 51.9837 139.695 52.3804 139.311C52.7771 138.927 53 138.407 53 137.865V123.956C53 123.413 52.7771 122.893 52.3804 122.509C51.9837 122.126 51.4457 121.91 50.8846 121.91ZM47.5 139.092C46.7977 139.092 46.2308 138.544 46.2308 137.865C46.2308 137.186 46.7977 136.637 47.5 136.637C48.2023 136.637 48.7692 137.186 48.7692 137.865C48.7692 138.544 48.2023 139.092 47.5 139.092ZM51.3077 135.819H43.6923V124.365H51.3077V135.819Z" fill="#333333"/>
<path d="M50.8846 121.91H44.1154C43.5543 121.91 43.0163 122.126 42.6196 122.509C42.2229 122.893 42 123.413 42 123.956V137.865C42 138.407 42.2229 138.927 42.6196 139.311C43.0163 139.695 43.5543 139.91 44.1154 139.91H50.8846C51.4457 139.91 51.9837 139.695 52.3804 139.311C52.7771 138.927 53 138.407 53 137.865V123.956C53 123.413 52.7771 122.893 52.3804 122.509C51.9837 122.126 51.4457 121.91 50.8846 121.91ZM47.5 139.092C46.7977 139.092 46.2308 138.544 46.2308 137.865C46.2308 137.186 46.7977 136.637 47.5 136.637C48.2023 136.637 48.7692 137.186 48.7692 137.865C48.7692 138.544 48.2023 139.092 47.5 139.092ZM51.3077 135.819H43.6923V124.365H51.3077V135.819Z" fill="#4F5A7C"/>
<path d="M75.1641 132.745H76.4766C76.4082 133.374 76.2282 133.937 75.9365 134.434C75.6449 134.93 75.2324 135.324 74.6992 135.616C74.166 135.903 73.5007 136.047 72.7031 136.047C72.1198 136.047 71.5889 135.937 71.1104 135.719C70.6364 135.5 70.2285 135.19 69.8867 134.789C69.5449 134.383 69.2806 133.898 69.0938 133.333C68.9115 132.763 68.8203 132.13 68.8203 131.433V130.441C68.8203 129.744 68.9115 129.113 69.0938 128.548C69.2806 127.978 69.5472 127.49 69.8936 127.085C70.2445 126.679 70.666 126.367 71.1582 126.148C71.6504 125.93 72.2041 125.82 72.8193 125.82C73.5713 125.82 74.207 125.962 74.7266 126.244C75.2461 126.527 75.6494 126.919 75.9365 127.42C76.2282 127.917 76.4082 128.493 76.4766 129.149H75.1641C75.1003 128.685 74.9818 128.286 74.8086 127.953C74.6354 127.616 74.3893 127.356 74.0703 127.174C73.7513 126.991 73.3343 126.9 72.8193 126.9C72.3773 126.9 71.9876 126.985 71.6504 127.153C71.3177 127.322 71.0374 127.561 70.8096 127.871C70.5863 128.181 70.4176 128.552 70.3037 128.985C70.1898 129.418 70.1328 129.899 70.1328 130.428V131.433C70.1328 131.92 70.1829 132.378 70.2832 132.807C70.388 133.235 70.5452 133.611 70.7549 133.935C70.9645 134.258 71.2311 134.513 71.5547 134.7C71.8783 134.882 72.2611 134.974 72.7031 134.974C73.2637 134.974 73.7103 134.885 74.043 134.707C74.3757 134.529 74.6263 134.274 74.7949 133.941C74.9681 133.609 75.0911 133.21 75.1641 132.745ZM82.335 134.228L84.8506 128.514H86.0674L82.7725 135.91H81.8975L78.6162 128.514H79.833L82.335 134.228ZM79.4639 128.514V135.91H78.1992V128.514H79.4639ZM85.165 135.91V128.514H86.4365V135.91H85.165ZM92.835 134.645V130.838C92.835 130.546 92.7757 130.293 92.6572 130.079C92.5433 129.86 92.3701 129.692 92.1377 129.573C91.9053 129.455 91.6182 129.395 91.2764 129.395C90.9574 129.395 90.6771 129.45 90.4355 129.56C90.1986 129.669 90.0117 129.812 89.875 129.99C89.7428 130.168 89.6768 130.359 89.6768 130.564H88.4121C88.4121 130.3 88.4805 130.038 88.6172 129.778C88.7539 129.518 88.9499 129.284 89.2051 129.074C89.4648 128.86 89.7747 128.691 90.1348 128.568C90.4993 128.441 90.9049 128.377 91.3516 128.377C91.8893 128.377 92.3633 128.468 92.7734 128.65C93.1882 128.833 93.5117 129.108 93.7441 129.477C93.9811 129.842 94.0996 130.3 94.0996 130.852V134.297C94.0996 134.543 94.1201 134.805 94.1611 135.083C94.2067 135.361 94.2728 135.6 94.3594 135.801V135.91H93.04C92.9762 135.764 92.9261 135.571 92.8896 135.329C92.8532 135.083 92.835 134.855 92.835 134.645ZM93.0537 131.426L93.0674 132.314H91.7891C91.429 132.314 91.1077 132.344 90.8252 132.403C90.5426 132.458 90.3057 132.542 90.1143 132.656C89.9229 132.77 89.777 132.914 89.6768 133.087C89.5765 133.255 89.5264 133.454 89.5264 133.682C89.5264 133.914 89.5788 134.126 89.6836 134.317C89.7884 134.509 89.9456 134.661 90.1553 134.775C90.3695 134.885 90.6315 134.939 90.9414 134.939C91.3288 134.939 91.6706 134.857 91.9668 134.693C92.263 134.529 92.4977 134.329 92.6709 134.092C92.8486 133.855 92.9443 133.625 92.958 133.401L93.498 134.01C93.4661 134.201 93.3796 134.413 93.2383 134.645C93.097 134.878 92.9079 135.101 92.6709 135.315C92.4385 135.525 92.1605 135.7 91.8369 135.842C91.5179 135.978 91.1579 136.047 90.7568 136.047C90.2555 136.047 89.8158 135.949 89.4375 135.753C89.0638 135.557 88.7721 135.295 88.5625 134.967C88.3574 134.634 88.2549 134.263 88.2549 133.852C88.2549 133.456 88.3324 133.107 88.4873 132.807C88.6423 132.501 88.8656 132.248 89.1572 132.048C89.4489 131.843 89.7998 131.688 90.21 131.583C90.6201 131.478 91.0781 131.426 91.584 131.426H93.0537ZM97.3535 129.935V138.754H96.082V128.514H97.2441L97.3535 129.935ZM102.337 132.15V132.294C102.337 132.832 102.273 133.331 102.146 133.791C102.018 134.247 101.831 134.643 101.585 134.98C101.343 135.318 101.045 135.58 100.689 135.767C100.334 135.953 99.9261 136.047 99.4658 136.047C98.9964 136.047 98.5817 135.969 98.2217 135.814C97.8617 135.659 97.5563 135.434 97.3057 135.138C97.055 134.841 96.8545 134.486 96.7041 134.071C96.5583 133.657 96.458 133.189 96.4033 132.67V131.904C96.458 131.357 96.5605 130.867 96.7109 130.435C96.8613 130.002 97.0596 129.632 97.3057 129.327C97.5563 129.017 97.8594 128.782 98.2148 128.623C98.5703 128.459 98.9805 128.377 99.4453 128.377C99.9102 128.377 100.323 128.468 100.683 128.65C101.043 128.828 101.346 129.083 101.592 129.416C101.838 129.749 102.022 130.147 102.146 130.612C102.273 131.073 102.337 131.585 102.337 132.15ZM101.065 132.294V132.15C101.065 131.781 101.027 131.435 100.949 131.111C100.872 130.783 100.751 130.496 100.587 130.25C100.427 129.999 100.222 129.803 99.9717 129.662C99.721 129.516 99.4225 129.443 99.0762 129.443C98.7572 129.443 98.4792 129.498 98.2422 129.607C98.0098 129.717 97.8115 129.865 97.6475 130.052C97.4834 130.234 97.349 130.444 97.2441 130.681C97.1439 130.913 97.0687 131.155 97.0186 131.405V133.176C97.1097 133.495 97.2373 133.796 97.4014 134.078C97.5654 134.356 97.7842 134.582 98.0576 134.755C98.3311 134.923 98.6751 135.008 99.0898 135.008C99.4316 135.008 99.7256 134.937 99.9717 134.796C100.222 134.65 100.427 134.452 100.587 134.201C100.751 133.95 100.872 133.663 100.949 133.34C101.027 133.012 101.065 132.663 101.065 132.294ZM106.418 128.514V135.91H105.146V128.514H106.418ZM108.899 128.514V129.539H102.713V128.514H108.899ZM118.101 132.342V132.485C118.101 133.005 118.044 133.483 117.93 133.921C117.816 134.354 117.645 134.73 117.417 135.049C117.194 135.368 116.916 135.616 116.583 135.794C116.25 135.967 115.865 136.054 115.428 136.054C115.068 136.054 114.751 136.006 114.478 135.91C114.204 135.81 113.972 135.666 113.78 135.479C113.593 135.293 113.443 135.069 113.329 134.81C113.22 134.545 113.145 134.249 113.104 133.921V130.64C113.145 130.289 113.22 129.974 113.329 129.696C113.443 129.418 113.593 129.181 113.78 128.985C113.972 128.789 114.202 128.639 114.471 128.534C114.74 128.429 115.054 128.377 115.414 128.377C115.77 128.377 116.089 128.441 116.371 128.568C116.658 128.691 116.909 128.869 117.123 129.102C117.342 129.334 117.522 129.614 117.663 129.942C117.809 130.266 117.918 130.63 117.991 131.036C118.064 131.442 118.101 131.877 118.101 132.342ZM116.836 132.485V132.342C116.836 132.023 116.813 131.72 116.768 131.433C116.727 131.141 116.66 130.874 116.569 130.633C116.483 130.387 116.369 130.172 116.228 129.99C116.086 129.808 115.915 129.667 115.715 129.566C115.519 129.466 115.293 129.416 115.038 129.416C114.765 129.416 114.537 129.45 114.354 129.518C114.177 129.587 114.038 129.678 113.938 129.792C113.837 129.901 113.764 130.018 113.719 130.141V134.427C113.773 134.527 113.853 134.623 113.958 134.714C114.063 134.8 114.204 134.873 114.382 134.933C114.56 134.987 114.783 135.015 115.052 135.015C115.371 135.015 115.642 134.951 115.865 134.823C116.093 134.691 116.278 134.509 116.419 134.276C116.565 134.044 116.67 133.775 116.733 133.47C116.802 133.164 116.836 132.836 116.836 132.485ZM109.316 132.485V132.342C109.316 131.877 109.353 131.442 109.426 131.036C109.499 130.63 109.608 130.266 109.754 129.942C109.9 129.614 110.08 129.334 110.294 129.102C110.513 128.869 110.763 128.691 111.046 128.568C111.333 128.441 111.654 128.377 112.01 128.377C112.361 128.377 112.666 128.429 112.926 128.534C113.19 128.639 113.413 128.789 113.596 128.985C113.778 129.181 113.924 129.418 114.033 129.696C114.143 129.974 114.22 130.289 114.266 130.64V133.791C114.225 134.137 114.149 134.449 114.04 134.727C113.931 135.005 113.785 135.245 113.603 135.445C113.42 135.641 113.195 135.792 112.926 135.896C112.661 136.001 112.352 136.054 111.996 136.054C111.559 136.054 111.174 135.967 110.841 135.794C110.508 135.616 110.228 135.368 110 135.049C109.777 134.73 109.606 134.354 109.487 133.921C109.373 133.483 109.316 133.005 109.316 132.485ZM110.588 132.342V132.485C110.588 132.836 110.618 133.164 110.677 133.47C110.741 133.775 110.839 134.044 110.971 134.276C111.107 134.509 111.285 134.691 111.504 134.823C111.723 134.951 111.992 135.015 112.311 135.015C112.584 135.015 112.81 134.98 112.987 134.912C113.165 134.844 113.306 134.755 113.411 134.645C113.516 134.536 113.596 134.422 113.65 134.304V130.141C113.605 130.018 113.53 129.901 113.425 129.792C113.325 129.678 113.186 129.587 113.008 129.518C112.83 129.45 112.602 129.416 112.324 129.416C112.005 129.416 111.734 129.493 111.511 129.648C111.287 129.803 111.107 130.015 110.971 130.284C110.839 130.553 110.741 130.865 110.677 131.221C110.618 131.572 110.588 131.945 110.588 132.342ZM113.021 138.754V125.41H114.293V138.754H113.021ZM119.42 132.294V132.137C119.42 131.603 119.497 131.109 119.652 130.653C119.807 130.193 120.031 129.794 120.322 129.457C120.614 129.115 120.967 128.851 121.382 128.664C121.797 128.473 122.261 128.377 122.776 128.377C123.296 128.377 123.763 128.473 124.178 128.664C124.597 128.851 124.952 129.115 125.244 129.457C125.54 129.794 125.766 130.193 125.921 130.653C126.076 131.109 126.153 131.603 126.153 132.137V132.294C126.153 132.827 126.076 133.322 125.921 133.777C125.766 134.233 125.54 134.632 125.244 134.974C124.952 135.311 124.599 135.575 124.185 135.767C123.774 135.953 123.31 136.047 122.79 136.047C122.271 136.047 121.803 135.953 121.389 135.767C120.974 135.575 120.618 135.311 120.322 134.974C120.031 134.632 119.807 134.233 119.652 133.777C119.497 133.322 119.42 132.827 119.42 132.294ZM120.685 132.137V132.294C120.685 132.663 120.728 133.012 120.814 133.34C120.901 133.663 121.031 133.95 121.204 134.201C121.382 134.452 121.603 134.65 121.867 134.796C122.132 134.937 122.439 135.008 122.79 135.008C123.136 135.008 123.439 134.937 123.699 134.796C123.964 134.65 124.182 134.452 124.355 134.201C124.529 133.95 124.659 133.663 124.745 133.34C124.836 133.012 124.882 132.663 124.882 132.294V132.137C124.882 131.772 124.836 131.428 124.745 131.104C124.659 130.776 124.526 130.487 124.349 130.236C124.175 129.981 123.957 129.781 123.692 129.635C123.433 129.489 123.127 129.416 122.776 129.416C122.43 129.416 122.125 129.489 121.86 129.635C121.601 129.781 121.382 129.981 121.204 130.236C121.031 130.487 120.901 130.776 120.814 131.104C120.728 131.428 120.685 131.772 120.685 132.137ZM132.757 131.72V132.745H128.847V131.72H132.757ZM129.113 128.514V135.91H127.849V128.514H129.113ZM133.782 128.514V135.91H132.511V128.514H133.782ZM136.858 131.057H139.08C139.677 131.057 140.181 131.161 140.591 131.371C141.001 131.576 141.311 131.861 141.521 132.226C141.735 132.586 141.842 132.996 141.842 133.456C141.842 133.798 141.783 134.119 141.664 134.42C141.546 134.716 141.368 134.976 141.131 135.199C140.898 135.422 140.609 135.598 140.263 135.726C139.921 135.849 139.527 135.91 139.08 135.91H135.936V128.514H137.2V134.871H139.08C139.445 134.871 139.736 134.805 139.955 134.673C140.174 134.541 140.331 134.37 140.427 134.16C140.522 133.95 140.57 133.732 140.57 133.504C140.57 133.281 140.522 133.062 140.427 132.848C140.331 132.633 140.174 132.456 139.955 132.314C139.736 132.169 139.445 132.096 139.08 132.096H136.858V131.057ZM144.474 128.514V135.91H143.209V128.514H144.474Z" fill="#4F5A7C"/>
<mask id="path-13-inside-4_42_1888" fill="white">
<path d="M324.2 107.955H546.2V156.955H324.2V107.955Z"/>
</mask>
<path d="M546.2 155.955H324.2V157.955H546.2V155.955Z" fill="#F5F5F5" mask="url(#path-13-inside-4_42_1888)"/>
<path d="M383.549 129.916V130.955H377.034V130.046L380.295 126.416C380.696 125.969 381.006 125.591 381.225 125.281C381.448 124.967 381.603 124.687 381.689 124.44C381.781 124.19 381.826 123.935 381.826 123.675C381.826 123.347 381.758 123.05 381.621 122.786C381.489 122.517 381.293 122.303 381.033 122.144C380.773 121.984 380.459 121.904 380.09 121.904C379.648 121.904 379.279 121.991 378.982 122.164C378.691 122.333 378.472 122.57 378.326 122.875C378.18 123.18 378.107 123.531 378.107 123.928H376.843C376.843 123.367 376.966 122.854 377.212 122.39C377.458 121.925 377.823 121.556 378.306 121.282C378.789 121.004 379.383 120.865 380.09 120.865C380.719 120.865 381.257 120.977 381.703 121.2C382.15 121.419 382.492 121.729 382.729 122.13C382.97 122.526 383.091 122.991 383.091 123.524C383.091 123.816 383.041 124.112 382.94 124.413C382.845 124.709 382.71 125.006 382.537 125.302C382.368 125.598 382.17 125.89 381.942 126.177C381.719 126.464 381.48 126.746 381.225 127.024L378.559 129.916H383.549ZM394.65 128.262C394.65 128.868 394.509 129.383 394.227 129.807C393.949 130.226 393.57 130.545 393.092 130.764C392.618 130.982 392.082 131.092 391.485 131.092C390.888 131.092 390.351 130.982 389.872 130.764C389.394 130.545 389.015 130.226 388.737 129.807C388.459 129.383 388.32 128.868 388.32 128.262C388.32 127.865 388.396 127.503 388.546 127.175C388.701 126.842 388.917 126.553 389.195 126.307C389.478 126.061 389.811 125.871 390.193 125.739C390.581 125.603 391.007 125.534 391.472 125.534C392.082 125.534 392.627 125.653 393.105 125.89C393.584 126.122 393.96 126.443 394.233 126.854C394.511 127.264 394.65 127.733 394.65 128.262ZM393.379 128.234C393.379 127.865 393.299 127.539 393.14 127.257C392.98 126.97 392.757 126.746 392.47 126.587C392.183 126.427 391.85 126.348 391.472 126.348C391.084 126.348 390.749 126.427 390.467 126.587C390.189 126.746 389.972 126.97 389.817 127.257C389.662 127.539 389.585 127.865 389.585 128.234C389.585 128.617 389.66 128.945 389.811 129.219C389.965 129.488 390.184 129.695 390.467 129.841C390.754 129.982 391.093 130.053 391.485 130.053C391.877 130.053 392.215 129.982 392.497 129.841C392.78 129.695 392.996 129.488 393.146 129.219C393.301 128.945 393.379 128.617 393.379 128.234ZM394.418 123.593C394.418 124.076 394.29 124.511 394.035 124.898C393.78 125.286 393.431 125.591 392.989 125.814C392.547 126.038 392.046 126.149 391.485 126.149C390.916 126.149 390.408 126.038 389.961 125.814C389.519 125.591 389.173 125.286 388.922 124.898C388.671 124.511 388.546 124.076 388.546 123.593C388.546 123.014 388.671 122.522 388.922 122.116C389.177 121.711 389.526 121.401 389.968 121.187C390.41 120.972 390.913 120.865 391.479 120.865C392.048 120.865 392.554 120.972 392.996 121.187C393.438 121.401 393.785 121.711 394.035 122.116C394.29 122.522 394.418 123.014 394.418 123.593ZM393.153 123.613C393.153 123.281 393.083 122.987 392.941 122.731C392.8 122.476 392.604 122.276 392.354 122.13C392.103 121.979 391.811 121.904 391.479 121.904C391.146 121.904 390.854 121.975 390.604 122.116C390.357 122.253 390.164 122.449 390.022 122.704C389.886 122.959 389.817 123.262 389.817 123.613C389.817 123.955 389.886 124.254 390.022 124.509C390.164 124.764 390.36 124.962 390.61 125.104C390.861 125.245 391.153 125.315 391.485 125.315C391.818 125.315 392.107 125.245 392.354 125.104C392.604 124.962 392.8 124.764 392.941 124.509C393.083 124.254 393.153 123.955 393.153 123.613ZM402.977 127.605V128.645H395.785V127.899L400.242 121.002H401.274L400.167 122.998L397.221 127.605H402.977ZM401.589 121.002V130.955H400.324V121.002H401.589ZM408.281 120.947V130.955H407.017V122.526L404.467 123.456V122.314L408.083 120.947H408.281Z" fill="#4F5A7C"/>
<rect x="377.2" y="137.955" width="115" height="8" fill="#D9D9D9"/>
<rect x="376" y="138" width="116" height="8" fill="#27C58B"/>
<mask id="path-18-inside-5_42_1888" fill="white">
<path d="M26 156.955H323.2V205.955H26V156.955Z"/>
</mask>
<path d="M323.2 204.955H26V206.955H323.2V204.955Z" fill="#F5F5F5" mask="url(#path-18-inside-5_42_1888)"/>
<path d="M53.3998 170.91H42.5998C42.1224 170.91 41.6646 171.1 41.327 171.437C40.9894 171.775 40.7998 172.233 40.7998 172.71V187.11C40.7998 187.587 40.9894 188.045 41.327 188.383C41.6646 188.72 42.1224 188.91 42.5998 188.91H53.3998C53.8772 188.91 54.335 188.72 54.6726 188.383C55.0102 188.045 55.1998 187.587 55.1998 187.11V172.71C55.1998 172.233 55.0102 171.775 54.6726 171.437C54.335 171.1 53.8772 170.91 53.3998 170.91ZM48.8998 188.01H47.0998V187.11H48.8998V188.01ZM53.3998 186.21H42.5998V173.61H53.3998V186.21Z" fill="#4F5A7C"/>
<path d="M79.7568 174.957V184.91H78.4443V176.037H73.5361V184.91H72.2168V174.957H79.7568ZM86.9004 177.514V178.56H83.3252V177.514H86.9004ZM88.0146 177.514V184.91H86.75V177.514H88.0146ZM83.0176 177.514H84.2891L84.0977 181.082C84.0658 181.633 84.0133 182.121 83.9404 182.545C83.8721 182.964 83.7764 183.324 83.6533 183.625C83.5348 183.926 83.3844 184.172 83.2021 184.363C83.0244 184.55 82.8102 184.689 82.5596 184.78C82.3089 184.867 82.0195 184.91 81.6914 184.91H81.2949V183.796L81.5684 183.775C81.7643 183.762 81.9307 183.716 82.0674 183.639C82.2087 183.561 82.3271 183.447 82.4229 183.297C82.5186 183.142 82.596 182.944 82.6553 182.702C82.7191 182.461 82.7669 182.173 82.7988 181.841C82.8353 181.508 82.8626 181.121 82.8809 180.679L83.0176 177.514ZM94.4131 183.645V179.838C94.4131 179.546 94.3538 179.293 94.2354 179.079C94.1214 178.86 93.9482 178.692 93.7158 178.573C93.4834 178.455 93.1963 178.395 92.8545 178.395C92.5355 178.395 92.2552 178.45 92.0137 178.56C91.7767 178.669 91.5898 178.812 91.4531 178.99C91.321 179.168 91.2549 179.359 91.2549 179.564H89.9902C89.9902 179.3 90.0586 179.038 90.1953 178.778C90.332 178.518 90.528 178.284 90.7832 178.074C91.043 177.86 91.3529 177.691 91.7129 177.568C92.0775 177.441 92.4831 177.377 92.9297 177.377C93.4674 177.377 93.9414 177.468 94.3516 177.65C94.7663 177.833 95.0898 178.108 95.3223 178.477C95.5592 178.842 95.6777 179.3 95.6777 179.852V183.297C95.6777 183.543 95.6982 183.805 95.7393 184.083C95.7848 184.361 95.8509 184.6 95.9375 184.801V184.91H94.6182C94.5544 184.764 94.5042 184.571 94.4678 184.329C94.4313 184.083 94.4131 183.855 94.4131 183.645ZM94.6318 180.426L94.6455 181.314H93.3672C93.0072 181.314 92.6859 181.344 92.4033 181.403C92.1208 181.458 91.8838 181.542 91.6924 181.656C91.501 181.77 91.3551 181.914 91.2549 182.087C91.1546 182.255 91.1045 182.454 91.1045 182.682C91.1045 182.914 91.1569 183.126 91.2617 183.317C91.3665 183.509 91.5238 183.661 91.7334 183.775C91.9476 183.885 92.2096 183.939 92.5195 183.939C92.9069 183.939 93.2487 183.857 93.5449 183.693C93.8411 183.529 94.0758 183.329 94.249 183.092C94.4268 182.855 94.5225 182.625 94.5361 182.401L95.0762 183.01C95.0443 183.201 94.9577 183.413 94.8164 183.645C94.6751 183.878 94.486 184.101 94.249 184.315C94.0166 184.525 93.7386 184.7 93.415 184.842C93.096 184.978 92.736 185.047 92.335 185.047C91.8337 185.047 91.3939 184.949 91.0156 184.753C90.6419 184.557 90.3503 184.295 90.1406 183.967C89.9355 183.634 89.833 183.263 89.833 182.852C89.833 182.456 89.9105 182.107 90.0654 181.807C90.2204 181.501 90.4437 181.248 90.7354 181.048C91.027 180.843 91.3779 180.688 91.7881 180.583C92.1982 180.478 92.6562 180.426 93.1621 180.426H94.6318ZM102.685 180.72V181.745H98.7744V180.72H102.685ZM99.041 177.514V184.91H97.7764V177.514H99.041ZM103.71 177.514V184.91H102.438V177.514H103.71ZM105.856 177.514H107.121V183.871H109.828V177.514H111.1V183.871H113.8V177.514H115.064V184.91H105.856V177.514ZM120.15 185.047C119.635 185.047 119.168 184.96 118.749 184.787C118.334 184.609 117.977 184.361 117.676 184.042C117.38 183.723 117.152 183.345 116.992 182.907C116.833 182.47 116.753 181.991 116.753 181.472V181.185C116.753 180.583 116.842 180.047 117.02 179.578C117.197 179.104 117.439 178.703 117.744 178.375C118.049 178.047 118.396 177.798 118.783 177.63C119.171 177.461 119.572 177.377 119.986 177.377C120.515 177.377 120.971 177.468 121.354 177.65C121.741 177.833 122.058 178.088 122.304 178.416C122.55 178.74 122.732 179.122 122.851 179.564C122.969 180.002 123.028 180.48 123.028 181V181.567H117.505V180.535H121.764V180.439C121.745 180.111 121.677 179.792 121.559 179.482C121.445 179.172 121.262 178.917 121.012 178.717C120.761 178.516 120.419 178.416 119.986 178.416C119.699 178.416 119.435 178.477 119.193 178.601C118.952 178.719 118.744 178.897 118.571 179.134C118.398 179.371 118.264 179.66 118.168 180.002C118.072 180.344 118.024 180.738 118.024 181.185V181.472C118.024 181.823 118.072 182.153 118.168 182.463C118.268 182.768 118.412 183.037 118.599 183.269C118.79 183.502 119.02 183.684 119.289 183.816C119.562 183.949 119.872 184.015 120.219 184.015C120.665 184.015 121.044 183.923 121.354 183.741C121.663 183.559 121.935 183.315 122.167 183.01L122.933 183.618C122.773 183.86 122.57 184.09 122.324 184.309C122.078 184.527 121.775 184.705 121.415 184.842C121.06 184.978 120.638 185.047 120.15 185.047ZM127.438 177.514V184.91H126.166V177.514H127.438ZM129.919 177.514V178.539H123.732V177.514H129.919ZM132.202 180.057H134.424C135.021 180.057 135.524 180.161 135.935 180.371C136.345 180.576 136.655 180.861 136.864 181.226C137.078 181.586 137.186 181.996 137.186 182.456C137.186 182.798 137.126 183.119 137.008 183.42C136.889 183.716 136.712 183.976 136.475 184.199C136.242 184.422 135.953 184.598 135.606 184.726C135.265 184.849 134.87 184.91 134.424 184.91H131.279V177.514H132.544V183.871H134.424C134.788 183.871 135.08 183.805 135.299 183.673C135.518 183.541 135.675 183.37 135.771 183.16C135.866 182.95 135.914 182.732 135.914 182.504C135.914 182.281 135.866 182.062 135.771 181.848C135.675 181.633 135.518 181.456 135.299 181.314C135.08 181.169 134.788 181.096 134.424 181.096H132.202V180.057ZM139.817 177.514V184.91H138.553V177.514H139.817Z" fill="#4F5A7C"/>
<mask id="path-22-inside-6_42_1888" fill="white">
<path d="M324.2 156.955H546.2V205.955H324.2V156.955Z"/>
</mask>
<path d="M546.2 204.955H324.2V206.955H546.2V204.955Z" fill="#F5F5F5" mask="url(#path-22-inside-6_42_1888)"/>
<path d="M381.184 169.947V179.955H379.919V171.526L377.369 172.456V171.314L380.985 169.947H381.184ZM394.65 177.262C394.65 177.868 394.509 178.383 394.227 178.807C393.949 179.226 393.57 179.545 393.092 179.764C392.618 179.982 392.082 180.092 391.485 180.092C390.888 180.092 390.351 179.982 389.872 179.764C389.394 179.545 389.015 179.226 388.737 178.807C388.459 178.383 388.32 177.868 388.32 177.262C388.32 176.865 388.396 176.503 388.546 176.175C388.701 175.842 388.917 175.553 389.195 175.307C389.478 175.061 389.811 174.871 390.193 174.739C390.581 174.603 391.007 174.534 391.472 174.534C392.082 174.534 392.627 174.653 393.105 174.89C393.584 175.122 393.96 175.443 394.233 175.854C394.511 176.264 394.65 176.733 394.65 177.262ZM393.379 177.234C393.379 176.865 393.299 176.539 393.14 176.257C392.98 175.97 392.757 175.746 392.47 175.587C392.183 175.427 391.85 175.348 391.472 175.348C391.084 175.348 390.749 175.427 390.467 175.587C390.189 175.746 389.972 175.97 389.817 176.257C389.662 176.539 389.585 176.865 389.585 177.234C389.585 177.617 389.66 177.945 389.811 178.219C389.965 178.488 390.184 178.695 390.467 178.841C390.754 178.982 391.093 179.053 391.485 179.053C391.877 179.053 392.215 178.982 392.497 178.841C392.78 178.695 392.996 178.488 393.146 178.219C393.301 177.945 393.379 177.617 393.379 177.234ZM394.418 172.593C394.418 173.076 394.29 173.511 394.035 173.898C393.78 174.286 393.431 174.591 392.989 174.814C392.547 175.038 392.046 175.149 391.485 175.149C390.916 175.149 390.408 175.038 389.961 174.814C389.519 174.591 389.173 174.286 388.922 173.898C388.671 173.511 388.546 173.076 388.546 172.593C388.546 172.014 388.671 171.522 388.922 171.116C389.177 170.711 389.526 170.401 389.968 170.187C390.41 169.972 390.913 169.865 391.479 169.865C392.048 169.865 392.554 169.972 392.996 170.187C393.438 170.401 393.785 170.711 394.035 171.116C394.29 171.522 394.418 172.014 394.418 172.593ZM393.153 172.613C393.153 172.281 393.083 171.987 392.941 171.731C392.8 171.476 392.604 171.276 392.354 171.13C392.103 170.979 391.811 170.904 391.479 170.904C391.146 170.904 390.854 170.975 390.604 171.116C390.357 171.253 390.164 171.449 390.022 171.704C389.886 171.959 389.817 172.262 389.817 172.613C389.817 172.955 389.886 173.254 390.022 173.509C390.164 173.764 390.36 173.962 390.61 174.104C390.861 174.245 391.153 174.315 391.485 174.315C391.818 174.315 392.107 174.245 392.354 174.104C392.604 173.962 392.8 173.764 392.941 173.509C393.083 173.254 393.153 172.955 393.153 172.613ZM402.977 176.605V177.645H395.785V176.899L400.242 170.002H401.274L400.167 171.998L397.221 176.605H402.977ZM401.589 170.002V179.955H400.324V170.002H401.589ZM408.281 169.947V179.955H407.017V171.526L404.467 172.456V171.314L408.083 169.947H408.281Z" fill="#4F5A7C"/>
<rect x="377.2" y="186.955" width="115" height="8" fill="#D9D9D9"/>
<rect x="376" y="187" width="74" height="8" fill="#27C58B"/>
<mask id="path-27-inside-7_42_1888" fill="white">
<path d="M26 205.955H323.2V254.955H26V205.955Z"/>
</mask>
<path d="M323.2 253.955H26V255.955H323.2V253.955Z" fill="#F5F5F5" mask="url(#path-27-inside-7_42_1888)"/>
<path d="M48 237.91C45.6131 237.91 43.3239 236.962 41.636 235.274C39.9482 233.586 39 231.297 39 228.91C39 226.523 39.9482 224.234 41.636 222.546C43.3239 220.858 45.6131 219.91 48 219.91C50.3869 219.91 52.6761 220.858 54.364 222.546C56.0518 224.234 57 226.523 57 228.91C57 231.297 56.0518 233.586 54.364 235.274C52.6761 236.962 50.3869 237.91 48 237.91ZM54.975 230.71C55.2794 229.529 55.2794 228.291 54.975 227.11H51.537C51.6204 228.309 51.6204 229.512 51.537 230.71H54.975ZM54.237 232.51H51.339C51.1883 233.595 50.901 234.656 50.484 235.669C52.065 235.086 53.3926 233.968 54.237 232.51ZM46.272 230.71H49.728C49.8257 229.512 49.8257 228.308 49.728 227.11H46.272C46.1743 228.308 46.1743 229.512 46.272 230.71ZM46.497 232.51C46.866 234.67 47.514 236.11 48 236.11C48.486 236.11 49.134 234.67 49.503 232.51H46.497ZM41.025 230.71H44.463C44.3796 229.512 44.3796 228.309 44.463 227.11H41.025C40.7206 228.291 40.7206 229.529 41.025 230.71ZM41.763 232.51C42.6074 233.968 43.935 235.086 45.516 235.669C45.138 234.805 44.85 233.725 44.661 232.51H41.763ZM54.237 225.31C53.3926 223.852 52.065 222.734 50.484 222.151C50.862 223.015 51.15 224.095 51.339 225.31H54.237ZM46.497 225.31H49.503C49.134 223.15 48.486 221.71 48 221.71C47.514 221.71 46.866 223.15 46.497 225.31ZM41.763 225.31H44.661C44.841 224.095 45.138 223.015 45.516 222.151C43.935 222.734 42.6074 223.852 41.763 225.31Z" fill="#4F5A7C"/>
<path d="M80.8184 228.619V229.248C80.8184 229.995 80.7249 230.665 80.5381 231.258C80.3512 231.85 80.0824 232.354 79.7314 232.768C79.3805 233.183 78.959 233.5 78.4668 233.719C77.9792 233.937 77.4323 234.047 76.8262 234.047C76.2383 234.047 75.6982 233.937 75.2061 233.719C74.7184 233.5 74.2946 233.183 73.9346 232.768C73.5791 232.354 73.3034 231.85 73.1074 231.258C72.9115 230.665 72.8135 229.995 72.8135 229.248V228.619C72.8135 227.872 72.9092 227.204 73.1006 226.616C73.2965 226.024 73.5723 225.52 73.9277 225.105C74.2832 224.686 74.7048 224.367 75.1924 224.148C75.6846 223.93 76.2246 223.82 76.8125 223.82C77.4186 223.82 77.9655 223.93 78.4531 224.148C78.9453 224.367 79.3669 224.686 79.7178 225.105C80.0732 225.52 80.3444 226.024 80.5312 226.616C80.7227 227.204 80.8184 227.872 80.8184 228.619ZM79.5127 229.248V228.605C79.5127 228.013 79.4512 227.489 79.3281 227.033C79.2096 226.577 79.0342 226.195 78.8018 225.885C78.5693 225.575 78.2845 225.34 77.9473 225.181C77.6146 225.021 77.2363 224.941 76.8125 224.941C76.4023 224.941 76.0309 225.021 75.6982 225.181C75.3701 225.34 75.0876 225.575 74.8506 225.885C74.6182 226.195 74.4382 226.577 74.3105 227.033C74.1829 227.489 74.1191 228.013 74.1191 228.605V229.248C74.1191 229.845 74.1829 230.374 74.3105 230.834C74.4382 231.29 74.6204 231.675 74.8574 231.989C75.099 232.299 75.3838 232.534 75.7119 232.693C76.0446 232.853 76.416 232.933 76.8262 232.933C77.2546 232.933 77.6351 232.853 77.9678 232.693C78.3005 232.534 78.5807 232.299 78.8086 231.989C79.041 231.675 79.2165 231.29 79.335 230.834C79.4535 230.374 79.5127 229.845 79.5127 229.248ZM87.5312 226.514V227.56H83.792V226.514H87.5312ZM83.9766 226.514V233.91H82.7119V226.514H83.9766ZM88.6523 226.514V233.91H87.3809V226.514H88.6523ZM93.752 234.047C93.237 234.047 92.7699 233.96 92.3506 233.787C91.9359 233.609 91.5781 233.361 91.2773 233.042C90.9811 232.723 90.7533 232.345 90.5938 231.907C90.4342 231.47 90.3545 230.991 90.3545 230.472V230.185C90.3545 229.583 90.4434 229.047 90.6211 228.578C90.7988 228.104 91.0404 227.703 91.3457 227.375C91.651 227.047 91.9974 226.798 92.3848 226.63C92.7721 226.461 93.1732 226.377 93.5879 226.377C94.1165 226.377 94.5723 226.468 94.9551 226.65C95.3424 226.833 95.6592 227.088 95.9053 227.416C96.1514 227.74 96.3337 228.122 96.4521 228.564C96.5706 229.002 96.6299 229.48 96.6299 230V230.567H91.1064V229.535H95.3652V229.439C95.347 229.111 95.2786 228.792 95.1602 228.482C95.0462 228.172 94.8639 227.917 94.6133 227.717C94.3626 227.516 94.0208 227.416 93.5879 227.416C93.3008 227.416 93.0365 227.477 92.7949 227.601C92.5534 227.719 92.346 227.897 92.1729 228.134C91.9997 228.371 91.8652 228.66 91.7695 229.002C91.6738 229.344 91.626 229.738 91.626 230.185V230.472C91.626 230.823 91.6738 231.153 91.7695 231.463C91.8698 231.768 92.0133 232.037 92.2002 232.269C92.3916 232.502 92.6217 232.684 92.8906 232.816C93.1641 232.949 93.474 233.015 93.8203 233.015C94.2669 233.015 94.6452 232.923 94.9551 232.741C95.265 232.559 95.5361 232.315 95.7686 232.01L96.5342 232.618C96.3747 232.86 96.1719 233.09 95.9258 233.309C95.6797 233.527 95.3766 233.705 95.0166 233.842C94.6611 233.978 94.2396 234.047 93.752 234.047ZM99.3711 227.935V236.754H98.0996V226.514H99.2617L99.3711 227.935ZM104.354 230.15V230.294C104.354 230.832 104.291 231.331 104.163 231.791C104.035 232.247 103.849 232.643 103.603 232.98C103.361 233.318 103.062 233.58 102.707 233.767C102.352 233.953 101.944 234.047 101.483 234.047C101.014 234.047 100.599 233.969 100.239 233.814C99.8792 233.659 99.5739 233.434 99.3232 233.138C99.0726 232.841 98.8721 232.486 98.7217 232.071C98.5758 231.657 98.4756 231.189 98.4209 230.67V229.904C98.4756 229.357 98.5781 228.867 98.7285 228.435C98.8789 228.002 99.0771 227.632 99.3232 227.327C99.5739 227.017 99.877 226.782 100.232 226.623C100.588 226.459 100.998 226.377 101.463 226.377C101.928 226.377 102.34 226.468 102.7 226.65C103.06 226.828 103.363 227.083 103.609 227.416C103.855 227.749 104.04 228.147 104.163 228.612C104.291 229.073 104.354 229.585 104.354 230.15ZM103.083 230.294V230.15C103.083 229.781 103.044 229.435 102.967 229.111C102.889 228.783 102.769 228.496 102.604 228.25C102.445 227.999 102.24 227.803 101.989 227.662C101.739 227.516 101.44 227.443 101.094 227.443C100.775 227.443 100.497 227.498 100.26 227.607C100.027 227.717 99.8291 227.865 99.665 228.052C99.501 228.234 99.3665 228.444 99.2617 228.681C99.1615 228.913 99.0863 229.155 99.0361 229.405V231.176C99.1273 231.495 99.2549 231.796 99.4189 232.078C99.583 232.356 99.8018 232.582 100.075 232.755C100.349 232.923 100.693 233.008 101.107 233.008C101.449 233.008 101.743 232.937 101.989 232.796C102.24 232.65 102.445 232.452 102.604 232.201C102.769 231.95 102.889 231.663 102.967 231.34C103.044 231.012 103.083 230.663 103.083 230.294ZM110.329 232.645V228.838C110.329 228.546 110.27 228.293 110.151 228.079C110.037 227.86 109.864 227.692 109.632 227.573C109.399 227.455 109.112 227.395 108.771 227.395C108.451 227.395 108.171 227.45 107.93 227.56C107.693 227.669 107.506 227.812 107.369 227.99C107.237 228.168 107.171 228.359 107.171 228.564H105.906C105.906 228.3 105.975 228.038 106.111 227.778C106.248 227.518 106.444 227.284 106.699 227.074C106.959 226.86 107.269 226.691 107.629 226.568C107.993 226.441 108.399 226.377 108.846 226.377C109.383 226.377 109.857 226.468 110.268 226.65C110.682 226.833 111.006 227.108 111.238 227.477C111.475 227.842 111.594 228.3 111.594 228.852V232.297C111.594 232.543 111.614 232.805 111.655 233.083C111.701 233.361 111.767 233.6 111.854 233.801V233.91H110.534C110.47 233.764 110.42 233.571 110.384 233.329C110.347 233.083 110.329 232.855 110.329 232.645ZM110.548 229.426L110.562 230.314H109.283C108.923 230.314 108.602 230.344 108.319 230.403C108.037 230.458 107.8 230.542 107.608 230.656C107.417 230.77 107.271 230.914 107.171 231.087C107.071 231.255 107.021 231.454 107.021 231.682C107.021 231.914 107.073 232.126 107.178 232.317C107.283 232.509 107.44 232.661 107.649 232.775C107.864 232.885 108.126 232.939 108.436 232.939C108.823 232.939 109.165 232.857 109.461 232.693C109.757 232.529 109.992 232.329 110.165 232.092C110.343 231.855 110.438 231.625 110.452 231.401L110.992 232.01C110.96 232.201 110.874 232.413 110.732 232.645C110.591 232.878 110.402 233.101 110.165 233.315C109.933 233.525 109.655 233.7 109.331 233.842C109.012 233.978 108.652 234.047 108.251 234.047C107.75 234.047 107.31 233.949 106.932 233.753C106.558 233.557 106.266 233.295 106.057 232.967C105.852 232.634 105.749 232.263 105.749 231.852C105.749 231.456 105.826 231.107 105.981 230.807C106.136 230.501 106.36 230.248 106.651 230.048C106.943 229.843 107.294 229.688 107.704 229.583C108.114 229.478 108.572 229.426 109.078 229.426H110.548ZM113.692 233.91V226.514H114.957V232.871H118.361V226.514H119.633V233.91H113.692ZM120.508 232.871L120.385 236.104H119.257V233.91H118.293V232.871H120.508ZM123.249 231.907L126.66 226.514H127.932V233.91H126.66V228.517L123.249 233.91H121.991V226.514H123.249V231.907ZM129.627 230.294V230.137C129.627 229.603 129.704 229.109 129.859 228.653C130.014 228.193 130.238 227.794 130.529 227.457C130.821 227.115 131.174 226.851 131.589 226.664C132.004 226.473 132.468 226.377 132.983 226.377C133.503 226.377 133.97 226.473 134.385 226.664C134.804 226.851 135.16 227.115 135.451 227.457C135.747 227.794 135.973 228.193 136.128 228.653C136.283 229.109 136.36 229.603 136.36 230.137V230.294C136.36 230.827 136.283 231.322 136.128 231.777C135.973 232.233 135.747 232.632 135.451 232.974C135.16 233.311 134.806 233.575 134.392 233.767C133.981 233.953 133.517 234.047 132.997 234.047C132.478 234.047 132.01 233.953 131.596 233.767C131.181 233.575 130.826 233.311 130.529 232.974C130.238 232.632 130.014 232.233 129.859 231.777C129.704 231.322 129.627 230.827 129.627 230.294ZM130.892 230.137V230.294C130.892 230.663 130.935 231.012 131.021 231.34C131.108 231.663 131.238 231.95 131.411 232.201C131.589 232.452 131.81 232.65 132.074 232.796C132.339 232.937 132.646 233.008 132.997 233.008C133.343 233.008 133.646 232.937 133.906 232.796C134.171 232.65 134.389 232.452 134.562 232.201C134.736 231.95 134.866 231.663 134.952 231.34C135.043 231.012 135.089 230.663 135.089 230.294V230.137C135.089 229.772 135.043 229.428 134.952 229.104C134.866 228.776 134.733 228.487 134.556 228.236C134.382 227.981 134.164 227.781 133.899 227.635C133.64 227.489 133.334 227.416 132.983 227.416C132.637 227.416 132.332 227.489 132.067 227.635C131.808 227.781 131.589 227.981 131.411 228.236C131.238 228.487 131.108 228.776 131.021 229.104C130.935 229.428 130.892 229.772 130.892 230.137ZM142.964 229.72V230.745H139.054V229.72H142.964ZM139.32 226.514V233.91H138.056V226.514H139.32ZM143.989 226.514V233.91H142.718V226.514H143.989ZM151.044 229.72V230.745H147.134V229.72H151.044ZM147.4 226.514V233.91H146.136V226.514H147.4ZM152.069 226.514V233.91H150.798V226.514H152.069ZM155.146 229.057H157.367C157.964 229.057 158.468 229.161 158.878 229.371C159.288 229.576 159.598 229.861 159.808 230.226C160.022 230.586 160.129 230.996 160.129 231.456C160.129 231.798 160.07 232.119 159.951 232.42C159.833 232.716 159.655 232.976 159.418 233.199C159.186 233.422 158.896 233.598 158.55 233.726C158.208 233.849 157.814 233.91 157.367 233.91H154.223V226.514H155.487V232.871H157.367C157.732 232.871 158.023 232.805 158.242 232.673C158.461 232.541 158.618 232.37 158.714 232.16C158.81 231.95 158.857 231.732 158.857 231.504C158.857 231.281 158.81 231.062 158.714 230.848C158.618 230.633 158.461 230.456 158.242 230.314C158.023 230.169 157.732 230.096 157.367 230.096H155.146V229.057ZM162.761 226.514V233.91H161.496V226.514H162.761ZM168.045 234.047C167.53 234.047 167.063 233.96 166.644 233.787C166.229 233.609 165.871 233.361 165.57 233.042C165.274 232.723 165.046 232.345 164.887 231.907C164.727 231.47 164.647 230.991 164.647 230.472V230.185C164.647 229.583 164.736 229.047 164.914 228.578C165.092 228.104 165.333 227.703 165.639 227.375C165.944 227.047 166.29 226.798 166.678 226.63C167.065 226.461 167.466 226.377 167.881 226.377C168.41 226.377 168.865 226.468 169.248 226.65C169.635 226.833 169.952 227.088 170.198 227.416C170.444 227.74 170.627 228.122 170.745 228.564C170.864 229.002 170.923 229.48 170.923 230V230.567H165.399V229.535H169.658V229.439C169.64 229.111 169.572 228.792 169.453 228.482C169.339 228.172 169.157 227.917 168.906 227.717C168.656 227.516 168.314 227.416 167.881 227.416C167.594 227.416 167.329 227.477 167.088 227.601C166.846 227.719 166.639 227.897 166.466 228.134C166.293 228.371 166.158 228.66 166.062 229.002C165.967 229.344 165.919 229.738 165.919 230.185V230.472C165.919 230.823 165.967 231.153 166.062 231.463C166.163 231.768 166.306 232.037 166.493 232.269C166.685 232.502 166.915 232.684 167.184 232.816C167.457 232.949 167.767 233.015 168.113 233.015C168.56 233.015 168.938 232.923 169.248 232.741C169.558 232.559 169.829 232.315 170.062 232.01L170.827 232.618C170.668 232.86 170.465 233.09 170.219 233.309C169.973 233.527 169.67 233.705 169.31 233.842C168.954 233.978 168.533 234.047 168.045 234.047ZM178.832 233.008C179.133 233.008 179.411 232.946 179.666 232.823C179.921 232.7 180.131 232.532 180.295 232.317C180.459 232.099 180.552 231.85 180.575 231.572H181.778C181.756 232.01 181.607 232.418 181.334 232.796C181.065 233.17 180.712 233.473 180.274 233.705C179.837 233.933 179.356 234.047 178.832 234.047C178.276 234.047 177.791 233.949 177.376 233.753C176.966 233.557 176.624 233.288 176.351 232.946C176.082 232.604 175.879 232.213 175.742 231.77C175.61 231.324 175.544 230.852 175.544 230.355V230.068C175.544 229.572 175.61 229.102 175.742 228.66C175.879 228.213 176.082 227.819 176.351 227.477C176.624 227.136 176.966 226.867 177.376 226.671C177.791 226.475 178.276 226.377 178.832 226.377C179.411 226.377 179.917 226.495 180.35 226.732C180.783 226.965 181.122 227.284 181.368 227.689C181.619 228.09 181.756 228.546 181.778 229.057H180.575C180.552 228.751 180.466 228.476 180.315 228.229C180.17 227.983 179.969 227.787 179.714 227.642C179.463 227.491 179.169 227.416 178.832 227.416C178.445 227.416 178.119 227.493 177.854 227.648C177.595 227.799 177.387 228.004 177.232 228.264C177.082 228.519 176.973 228.804 176.904 229.118C176.84 229.428 176.809 229.745 176.809 230.068V230.355C176.809 230.679 176.84 230.998 176.904 231.312C176.968 231.627 177.075 231.912 177.226 232.167C177.381 232.422 177.588 232.627 177.848 232.782C178.112 232.933 178.44 233.008 178.832 233.008ZM184.567 231.907L187.979 226.514H189.25V233.91H187.979V228.517L184.567 233.91H183.31V226.514H184.567V231.907ZM194.24 233.008C194.541 233.008 194.819 232.946 195.074 232.823C195.329 232.7 195.539 232.532 195.703 232.317C195.867 232.099 195.961 231.85 195.983 231.572H197.187C197.164 232.01 197.016 232.418 196.742 232.796C196.473 233.17 196.12 233.473 195.683 233.705C195.245 233.933 194.764 234.047 194.24 234.047C193.684 234.047 193.199 233.949 192.784 233.753C192.374 233.557 192.032 233.288 191.759 232.946C191.49 232.604 191.287 232.213 191.15 231.77C191.018 231.324 190.952 230.852 190.952 230.355V230.068C190.952 229.572 191.018 229.102 191.15 228.66C191.287 228.213 191.49 227.819 191.759 227.477C192.032 227.136 192.374 226.867 192.784 226.671C193.199 226.475 193.684 226.377 194.24 226.377C194.819 226.377 195.325 226.495 195.758 226.732C196.191 226.965 196.53 227.284 196.776 227.689C197.027 228.09 197.164 228.546 197.187 229.057H195.983C195.961 228.751 195.874 228.476 195.724 228.229C195.578 227.983 195.377 227.787 195.122 227.642C194.871 227.491 194.577 227.416 194.24 227.416C193.853 227.416 193.527 227.493 193.263 227.648C193.003 227.799 192.796 228.004 192.641 228.264C192.49 228.519 192.381 228.804 192.312 229.118C192.249 229.428 192.217 229.745 192.217 230.068V230.355C192.217 230.679 192.249 230.998 192.312 231.312C192.376 231.627 192.483 231.912 192.634 232.167C192.789 232.422 192.996 232.627 193.256 232.782C193.52 232.933 193.848 233.008 194.24 233.008ZM201.623 226.514V233.91H200.352V226.514H201.623ZM204.104 226.514V227.539H197.918V226.514H204.104ZM207.871 234.047C207.356 234.047 206.889 233.96 206.47 233.787C206.055 233.609 205.697 233.361 205.396 233.042C205.1 232.723 204.872 232.345 204.713 231.907C204.553 231.47 204.474 230.991 204.474 230.472V230.185C204.474 229.583 204.562 229.047 204.74 228.578C204.918 228.104 205.16 227.703 205.465 227.375C205.77 227.047 206.117 226.798 206.504 226.63C206.891 226.461 207.292 226.377 207.707 226.377C208.236 226.377 208.691 226.468 209.074 226.65C209.462 226.833 209.778 227.088 210.024 227.416C210.271 227.74 210.453 228.122 210.571 228.564C210.69 229.002 210.749 229.48 210.749 230V230.567H205.226V229.535H209.484V229.439C209.466 229.111 209.398 228.792 209.279 228.482C209.165 228.172 208.983 227.917 208.732 227.717C208.482 227.516 208.14 227.416 207.707 227.416C207.42 227.416 207.156 227.477 206.914 227.601C206.673 227.719 206.465 227.897 206.292 228.134C206.119 228.371 205.984 228.66 205.889 229.002C205.793 229.344 205.745 229.738 205.745 230.185V230.472C205.745 230.823 205.793 231.153 205.889 231.463C205.989 231.768 206.132 232.037 206.319 232.269C206.511 232.502 206.741 232.684 207.01 232.816C207.283 232.949 207.593 233.015 207.939 233.015C208.386 233.015 208.764 232.923 209.074 232.741C209.384 232.559 209.655 232.315 209.888 232.01L210.653 232.618C210.494 232.86 210.291 233.09 210.045 233.309C209.799 233.527 209.496 233.705 209.136 233.842C208.78 233.978 208.359 234.047 207.871 234.047ZM216.478 232.228L218.993 226.514H220.21L216.915 233.91H216.04L212.759 226.514H213.976L216.478 232.228ZM213.606 226.514V233.91H212.342V226.514H213.606ZM219.308 233.91V226.514H220.579V233.91H219.308ZM223.655 229.057H225.877C226.474 229.057 226.978 229.161 227.388 229.371C227.798 229.576 228.108 229.861 228.317 230.226C228.532 230.586 228.639 230.996 228.639 231.456C228.639 231.798 228.579 232.119 228.461 232.42C228.342 232.716 228.165 232.976 227.928 233.199C227.695 233.422 227.406 233.598 227.06 233.726C226.718 233.849 226.324 233.91 225.877 233.91H222.732V226.514H223.997V232.871H225.877C226.242 232.871 226.533 232.805 226.752 232.673C226.971 232.541 227.128 232.37 227.224 232.16C227.319 231.95 227.367 231.732 227.367 231.504C227.367 231.281 227.319 231.062 227.224 230.848C227.128 230.633 226.971 230.456 226.752 230.314C226.533 230.169 226.242 230.096 225.877 230.096H223.655V229.057ZM231.271 226.514V233.91H230.006V226.514H231.271Z" fill="#4F5A7C"/>
<mask id="path-31-inside-8_42_1888" fill="white">
<path d="M324.2 205.955H546.2V254.955H324.2V205.955Z"/>
</mask>
<path d="M546.2 253.955H324.2V255.955H546.2V253.955Z" fill="#F5F5F5" mask="url(#path-31-inside-8_42_1888)"/>
<path d="M383.303 226.262C383.303 226.868 383.161 227.383 382.879 227.807C382.601 228.226 382.223 228.545 381.744 228.764C381.27 228.982 380.735 229.092 380.138 229.092C379.541 229.092 379.003 228.982 378.524 228.764C378.046 228.545 377.668 228.226 377.39 227.807C377.112 227.383 376.973 226.868 376.973 226.262C376.973 225.865 377.048 225.503 377.198 225.175C377.353 224.842 377.57 224.553 377.848 224.307C378.13 224.061 378.463 223.871 378.846 223.739C379.233 223.603 379.659 223.534 380.124 223.534C380.735 223.534 381.279 223.653 381.758 223.89C382.236 224.122 382.612 224.443 382.886 224.854C383.164 225.264 383.303 225.733 383.303 226.262ZM382.031 226.234C382.031 225.865 381.951 225.539 381.792 225.257C381.632 224.97 381.409 224.746 381.122 224.587C380.835 224.427 380.502 224.348 380.124 224.348C379.737 224.348 379.402 224.427 379.119 224.587C378.841 224.746 378.625 224.97 378.47 225.257C378.315 225.539 378.237 225.865 378.237 226.234C378.237 226.617 378.312 226.945 378.463 227.219C378.618 227.488 378.837 227.695 379.119 227.841C379.406 227.982 379.746 228.053 380.138 228.053C380.53 228.053 380.867 227.982 381.149 227.841C381.432 227.695 381.648 227.488 381.799 227.219C381.954 226.945 382.031 226.617 382.031 226.234ZM383.07 221.593C383.07 222.076 382.943 222.511 382.688 222.898C382.432 223.286 382.084 223.591 381.642 223.814C381.2 224.038 380.698 224.149 380.138 224.149C379.568 224.149 379.06 224.038 378.613 223.814C378.171 223.591 377.825 223.286 377.574 222.898C377.324 222.511 377.198 222.076 377.198 221.593C377.198 221.014 377.324 220.522 377.574 220.116C377.829 219.711 378.178 219.401 378.62 219.187C379.062 218.972 379.566 218.865 380.131 218.865C380.701 218.865 381.206 218.972 381.648 219.187C382.09 219.401 382.437 219.711 382.688 220.116C382.943 220.522 383.07 221.014 383.07 221.593ZM381.806 221.613C381.806 221.281 381.735 220.987 381.594 220.731C381.452 220.476 381.257 220.276 381.006 220.13C380.755 219.979 380.464 219.904 380.131 219.904C379.798 219.904 379.507 219.975 379.256 220.116C379.01 220.253 378.816 220.449 378.675 220.704C378.538 220.959 378.47 221.262 378.47 221.613C378.47 221.955 378.538 222.254 378.675 222.509C378.816 222.764 379.012 222.962 379.263 223.104C379.513 223.245 379.805 223.315 380.138 223.315C380.47 223.315 380.76 223.245 381.006 223.104C381.257 222.962 381.452 222.764 381.594 222.509C381.735 222.254 381.806 221.955 381.806 221.613ZM391.629 225.605V226.645H384.438V225.899L388.895 219.002H389.927L388.819 220.998L385.873 225.605H391.629ZM390.241 219.002V228.955H388.977V219.002H390.241ZM396.934 218.947V228.955H395.669V220.526L393.119 221.456V220.314L396.735 218.947H396.934Z" fill="#4F5A7C"/>
<rect x="377.2" y="235.955" width="115" height="8" fill="#D9D9D9"/>
<rect x="376" y="236" width="116" height="8" fill="#27C58B"/>
<mask id="path-36-inside-9_42_1888" fill="white">
<path d="M26 254.955H323.2V303.955H26V254.955Z"/>
</mask>
<path d="M323.2 302.955H26V304.955H323.2V302.955Z" fill="#F5F5F5" mask="url(#path-36-inside-9_42_1888)"/>
<mask id="path-38-inside-10_42_1888" fill="white">
<path d="M324.2 254.955H546.2V303.955H324.2V254.955Z"/>
</mask>
<path d="M546.2 302.955H324.2V304.955H546.2V302.955Z" fill="#F5F5F5" mask="url(#path-38-inside-10_42_1888)"/>
</svg>
