<svg width="48" height="47" viewBox="0 0 48 47" fill="none" xmlns="http://www.w3.org/2000/svg">
<g clip-path="url(#clip0_2002_1198)">
<path d="M0.219727 23.4355C0.219727 10.6127 10.7111 0.121277 23.5339 0.121277C36.3567 0.121277 46.8481 10.6127 46.8481 23.4355C46.8481 36.2583 36.3567 46.7497 23.5339 46.7497C10.7111 46.7497 0.219727 36.2583 0.219727 23.4355Z" fill="#1A4A7F"/>
<path fill-rule="evenodd" clip-rule="evenodd" d="M20.1898 46.7504C15.4809 46.0202 11.0662 43.8299 7.68164 40.4713L28.872 21.196L16.8053 24.1165C13.4207 24.9926 10.0361 22.9483 9.30035 19.5897C9.30035 19.5897 9.30035 19.5897 9.30035 19.4437C8.56457 16.0851 10.6247 12.7265 14.0093 11.8504L39.32 5.71735C49.3266 14.0408 50.651 28.7893 42.2631 38.573C39.9086 41.3474 36.9655 43.5378 33.581 44.9981C33.581 44.1219 33.581 43.2458 33.8753 42.5156L37.8485 30.6876C37.7013 30.6876 20.1898 46.7504 20.1898 46.7504Z" fill="url(#paint0_linear_2002_1198)"/>
</g>
<defs>
<linearGradient id="paint0_linear_2002_1198" x1="55.2457" y1="0.0466098" x2="-24.7913" y2="74.0594" gradientUnits="userSpaceOnUse">
<stop stop-color="#FFB800"/>
<stop offset="1" stop-color="#FFF11D"/>
</linearGradient>
<clipPath id="clip0_2002_1198">
<rect width="47.561" height="46.6284" fill="white" transform="translate(0.219727 0.121277)"/>
</clipPath>
</defs>
</svg>
