<svg width="25" height="25" viewBox="0 0 25 25" fill="none" xmlns="http://www.w3.org/2000/svg">
<path d="M11.6613 18.988C9.86541 18.9031 8.17122 18.1296 6.93067 16.8282C5.69011 15.5269 4.99857 13.7976 4.99967 11.9997C4.99967 8.13801 8.13801 4.99967 11.9997 4.99967C15.7563 4.99967 18.813 7.95134 18.988 11.6613L16.538 10.9263C16.3473 10.1176 15.9441 9.37443 15.37 8.7737C14.7959 8.17296 14.0718 7.73645 13.2726 7.50927C12.4733 7.2821 11.6278 7.27251 10.8236 7.4815C10.0194 7.69048 9.28558 8.11046 8.69802 8.69802C8.11046 9.28558 7.69048 10.0194 7.4815 10.8236C7.27251 11.6278 7.2821 12.4733 7.50927 13.2726C7.73645 14.0718 8.17296 14.7959 8.7737 15.37C9.37443 15.9441 10.1176 16.3473 10.9263 16.538L11.6613 18.988ZM23.6663 11.9997C23.6663 12.3497 23.6547 12.6997 23.6197 13.0497L21.3213 12.3613C21.333 12.2447 21.333 12.1163 21.333 11.9997C21.333 6.84301 17.1563 2.66634 11.9997 2.66634C6.84301 2.66634 2.66634 6.84301 2.66634 11.9997C2.66634 17.1563 6.84301 21.333 11.9997 21.333C12.1163 21.333 12.2447 21.333 12.3613 21.3213L13.0497 23.6197C12.6997 23.6547 12.3497 23.6663 11.9997 23.6663C5.55967 23.6663 0.333008 18.4397 0.333008 11.9997C0.333008 5.55967 5.55967 0.333008 11.9997 0.333008C18.4397 0.333008 23.6663 5.55967 23.6663 11.9997ZM19.268 16.9697L23.6663 15.4997L11.9997 11.9997L15.4997 23.6663L16.9697 19.268L21.9513 24.2497L24.2613 21.9397L19.268 16.9697Z" fill="url(#paint0_linear_42_1267)" fill-opacity="0.8"/>
<defs>
<linearGradient id="paint0_linear_42_1267" x1="-3.80843" y1="-1.0468" x2="27.4704" y2="24.2646" gradientUnits="userSpaceOnUse">
<stop stop-color="#EF2DDC"/>
<stop offset="1" stop-color="#7443FF"/>
</linearGradient>
</defs>
</svg>
