<svg width="24" height="22" viewBox="0 0 24 22" fill="none" xmlns="http://www.w3.org/2000/svg">
<path d="M13.1684 0.833668L14.0095 1.33066C15.6151 2.24817 16.1886 4.31258 15.271 5.91823L7.1281 20.025C6.21058 21.6307 4.14617 22.2041 2.54052 21.2866L1.69947 20.7896C0.0938145 19.8721 -0.479633 17.8077 0.437883 16.2021L8.58083 2.05702C9.49835 0.41314 11.5628 -0.160307 13.1684 0.833668Z" fill="#FBBD04"/>
<path d="M9.34655 1.21221L10.1876 0.715226C11.7933 -0.202289 13.8577 0.371158 14.7752 1.97681L22.9181 16.0836C23.8356 17.6893 23.2622 19.7537 21.6565 20.6712L20.8155 21.1682C19.2098 22.0857 17.1454 21.5122 16.2279 19.9066L8.08496 5.83802C7.20568 4.23237 7.7409 2.16796 9.34655 1.21221Z" fill="#438EDC"/>
<path d="M4.10257 21.4786C6.25617 21.4786 8.00201 19.7327 8.00201 17.5791C8.00201 15.4255 6.25617 13.6797 4.10257 13.6797C1.94896 13.6797 0.203125 15.4255 0.203125 17.5791C0.203125 19.7327 1.94896 21.4786 4.10257 21.4786Z" fill="#34A952"/>
</svg>
