<svg width="104" height="108" viewBox="0 0 104 108" fill="none" xmlns="http://www.w3.org/2000/svg">
<g clip-path="url(#clip0_42_1347)">
<circle cx="53.333" cy="50" r="50" fill="#FAF5FE"/>
<circle cx="53.333" cy="50" r="49" stroke="url(#paint0_linear_42_1347)" stroke-opacity="0.8" stroke-width="2"/>
<path d="M30.708 58.1245C30.708 57.362 31.0109 56.6307 31.5501 56.0916C32.0892 55.5524 32.8205 55.2495 33.583 55.2495H39.333C40.0955 55.2495 40.8268 55.5524 41.3659 56.0916C41.9051 56.6307 42.208 57.362 42.208 58.1245V66.7495C42.208 67.512 41.9051 68.2433 41.3659 68.7824C40.8268 69.3216 40.0955 69.6245 39.333 69.6245H33.583C32.8205 69.6245 32.0892 69.3216 31.5501 68.7824C31.0109 68.2433 30.708 67.512 30.708 66.7495V58.1245ZM45.083 46.6245C45.083 45.862 45.3859 45.1307 45.9251 44.5916C46.4642 44.0524 47.1955 43.7495 47.958 43.7495H53.708C54.4705 43.7495 55.2018 44.0524 55.7409 44.5916C56.2801 45.1307 56.583 45.862 56.583 46.6245V66.7495C56.583 67.512 56.2801 68.2433 55.7409 68.7824C55.2018 69.3216 54.4705 69.6245 53.708 69.6245H47.958C47.1955 69.6245 46.4642 69.3216 45.9251 68.7824C45.3859 68.2433 45.083 67.512 45.083 66.7495V46.6245ZM59.458 32.2495C59.458 31.487 59.7609 30.7557 60.3001 30.2166C60.8392 29.6774 61.5705 29.3745 62.333 29.3745H68.083C68.8455 29.3745 69.5768 29.6774 70.1159 30.2166C70.6551 30.7557 70.958 31.487 70.958 32.2495V66.7495C70.958 67.512 70.6551 68.2433 70.1159 68.7824C69.5768 69.3216 68.8455 69.6245 68.083 69.6245H62.333C61.5705 69.6245 60.8392 69.3216 60.3001 68.7824C59.7609 68.2433 59.458 67.512 59.458 66.7495V32.2495Z" fill="url(#paint1_linear_42_1347)" fill-opacity="0.8"/>
<rect x="0.333008" y="70" width="38" height="38" rx="19" fill="#FAF5FE"/>
<rect x="1.33301" y="71" width="36" height="36" rx="18" stroke="url(#paint2_linear_42_1347)" stroke-opacity="0.8" stroke-width="2"/>
<mask id="path-6-inside-1_42_1347" fill="white">
<path d="M17.4873 87.8262H18.8936C19.4404 87.8262 19.8929 87.7318 20.251 87.543C20.6156 87.3542 20.8857 87.0938 21.0615 86.7617C21.2373 86.4297 21.3252 86.0488 21.3252 85.6191C21.3252 85.1699 21.2438 84.7858 21.0811 84.4668C20.9248 84.1413 20.6839 83.8906 20.3584 83.7148C20.0394 83.5391 19.6325 83.4512 19.1377 83.4512C18.721 83.4512 18.3434 83.5358 18.0049 83.7051C17.6729 83.8678 17.4092 84.1022 17.2139 84.4082C17.0186 84.7077 16.9209 85.0658 16.9209 85.4824H14.5576C14.5576 84.7272 14.7562 84.0566 15.1533 83.4707C15.5505 82.8848 16.0908 82.4258 16.7744 82.0938C17.4645 81.7552 18.2393 81.5859 19.0986 81.5859C20.0166 81.5859 20.8174 81.7389 21.501 82.0449C22.1911 82.3444 22.7282 82.7936 23.1123 83.3926C23.4964 83.9915 23.6885 84.7337 23.6885 85.6191C23.6885 86.0228 23.5941 86.4329 23.4053 86.8496C23.2165 87.2663 22.9365 87.6471 22.5654 87.9922C22.1943 88.3307 21.7321 88.6074 21.1787 88.8223C20.6253 89.0306 19.984 89.1348 19.2549 89.1348H17.4873V87.8262ZM17.4873 89.6621V88.373H19.2549C20.0882 88.373 20.7979 88.4707 21.3838 88.666C21.9762 88.8613 22.458 89.1315 22.8291 89.4766C23.2002 89.8151 23.4704 90.2025 23.6396 90.6387C23.8154 91.0749 23.9033 91.5371 23.9033 92.0254C23.9033 92.6895 23.7829 93.2819 23.542 93.8027C23.3076 94.3171 22.9723 94.7533 22.5361 95.1113C22.0999 95.4694 21.5889 95.7396 21.0029 95.9219C20.4235 96.1042 19.792 96.1953 19.1084 96.1953C18.4964 96.1953 17.9105 96.1107 17.3506 95.9414C16.7907 95.7721 16.2894 95.5215 15.8467 95.1895C15.404 94.8509 15.0524 94.431 14.792 93.9297C14.5381 93.4219 14.4111 92.8359 14.4111 92.1719H16.7646C16.7646 92.5951 16.8623 92.9694 17.0576 93.2949C17.2594 93.6139 17.5394 93.8646 17.8975 94.0469C18.262 94.2292 18.6787 94.3203 19.1475 94.3203C19.6423 94.3203 20.0687 94.2324 20.4268 94.0566C20.7848 93.8809 21.0583 93.6204 21.2471 93.2754C21.4424 92.9303 21.54 92.5137 21.54 92.0254C21.54 91.472 21.4326 91.0228 21.2178 90.6777C21.0029 90.3327 20.6969 90.0788 20.2998 89.916C19.9027 89.7467 19.4339 89.6621 18.8936 89.6621H17.4873Z"/>
</mask>
<path d="M17.4873 87.8262H18.8936C19.4404 87.8262 19.8929 87.7318 20.251 87.543C20.6156 87.3542 20.8857 87.0938 21.0615 86.7617C21.2373 86.4297 21.3252 86.0488 21.3252 85.6191C21.3252 85.1699 21.2438 84.7858 21.0811 84.4668C20.9248 84.1413 20.6839 83.8906 20.3584 83.7148C20.0394 83.5391 19.6325 83.4512 19.1377 83.4512C18.721 83.4512 18.3434 83.5358 18.0049 83.7051C17.6729 83.8678 17.4092 84.1022 17.2139 84.4082C17.0186 84.7077 16.9209 85.0658 16.9209 85.4824H14.5576C14.5576 84.7272 14.7562 84.0566 15.1533 83.4707C15.5505 82.8848 16.0908 82.4258 16.7744 82.0938C17.4645 81.7552 18.2393 81.5859 19.0986 81.5859C20.0166 81.5859 20.8174 81.7389 21.501 82.0449C22.1911 82.3444 22.7282 82.7936 23.1123 83.3926C23.4964 83.9915 23.6885 84.7337 23.6885 85.6191C23.6885 86.0228 23.5941 86.4329 23.4053 86.8496C23.2165 87.2663 22.9365 87.6471 22.5654 87.9922C22.1943 88.3307 21.7321 88.6074 21.1787 88.8223C20.6253 89.0306 19.984 89.1348 19.2549 89.1348H17.4873V87.8262ZM17.4873 89.6621V88.373H19.2549C20.0882 88.373 20.7979 88.4707 21.3838 88.666C21.9762 88.8613 22.458 89.1315 22.8291 89.4766C23.2002 89.8151 23.4704 90.2025 23.6396 90.6387C23.8154 91.0749 23.9033 91.5371 23.9033 92.0254C23.9033 92.6895 23.7829 93.2819 23.542 93.8027C23.3076 94.3171 22.9723 94.7533 22.5361 95.1113C22.0999 95.4694 21.5889 95.7396 21.0029 95.9219C20.4235 96.1042 19.792 96.1953 19.1084 96.1953C18.4964 96.1953 17.9105 96.1107 17.3506 95.9414C16.7907 95.7721 16.2894 95.5215 15.8467 95.1895C15.404 94.8509 15.0524 94.431 14.792 93.9297C14.5381 93.4219 14.4111 92.8359 14.4111 92.1719H16.7646C16.7646 92.5951 16.8623 92.9694 17.0576 93.2949C17.2594 93.6139 17.5394 93.8646 17.8975 94.0469C18.262 94.2292 18.6787 94.3203 19.1475 94.3203C19.6423 94.3203 20.0687 94.2324 20.4268 94.0566C20.7848 93.8809 21.0583 93.6204 21.2471 93.2754C21.4424 92.9303 21.54 92.5137 21.54 92.0254C21.54 91.472 21.4326 91.0228 21.2178 90.6777C21.0029 90.3327 20.6969 90.0788 20.2998 89.916C19.9027 89.7467 19.4339 89.6621 18.8936 89.6621H17.4873Z" fill="#FAF5FE"/>
<path d="M17.4873 87.8262V85.8262H15.4873V87.8262H17.4873ZM20.251 87.543L19.3313 85.767L19.3247 85.7704L19.3182 85.7738L20.251 87.543ZM21.0811 84.4668L19.278 85.3323L19.2885 85.3541L19.2995 85.3757L21.0811 84.4668ZM20.3584 83.7148L19.3932 85.4665L19.4006 85.4706L19.4081 85.4747L20.3584 83.7148ZM18.0049 83.7051L18.8852 85.5009L18.8923 85.4975L18.8993 85.4939L18.0049 83.7051ZM17.2139 84.4082L18.8891 85.5007L18.8944 85.4925L18.8997 85.4843L17.2139 84.4082ZM16.9209 85.4824V87.4824H18.9209V85.4824H16.9209ZM14.5576 85.4824H12.5576V87.4824H14.5576V85.4824ZM16.7744 82.0938L17.6482 83.8928L17.6553 83.8893L16.7744 82.0938ZM21.501 82.0449L20.6839 83.8704L20.6943 83.8751L20.7048 83.8796L21.501 82.0449ZM22.5654 87.9922L23.9134 89.4697L23.9204 89.4633L23.9273 89.4569L22.5654 87.9922ZM21.1787 88.8223L21.8834 90.694L21.893 90.6904L21.9025 90.6867L21.1787 88.8223ZM17.4873 89.1348H15.4873V91.1348H17.4873V89.1348ZM17.4873 89.6621H15.4873V91.6621H17.4873V89.6621ZM17.4873 88.373V86.373H15.4873V88.373H17.4873ZM21.3838 88.666L20.7513 90.5634L20.7576 90.5655L21.3838 88.666ZM22.8291 89.4766L21.4672 90.9412L21.4742 90.9477L21.4812 90.9541L22.8291 89.4766ZM23.6396 90.6387L21.7751 91.3622L21.7798 91.3743L21.7846 91.3862L23.6396 90.6387ZM23.542 93.8027L21.7267 92.9632L21.722 92.9734L23.542 93.8027ZM21.0029 95.9219L20.4088 94.0122L20.4027 94.0141L21.0029 95.9219ZM15.8467 95.1895L14.6318 96.7782L14.6392 96.7838L14.6467 96.7895L15.8467 95.1895ZM14.792 93.9297L13.0031 94.8241L13.0101 94.8379L13.0172 94.8517L14.792 93.9297ZM14.4111 92.1719V90.1719H12.4111V92.1719H14.4111ZM16.7646 92.1719H18.7646V90.1719H16.7646V92.1719ZM17.0576 93.2949L15.3426 94.3239L15.3548 94.3442L15.3675 94.3642L17.0576 93.2949ZM17.8975 94.0469L16.9901 95.8292L16.9966 95.8325L17.003 95.8357L17.8975 94.0469ZM21.2471 93.2754L19.5066 92.2902L19.4995 92.3027L19.4925 92.3154L21.2471 93.2754ZM21.2178 90.6777L19.52 91.7349L21.2178 90.6777ZM20.2998 89.916L19.5156 91.7559L19.5284 91.7613L19.5414 91.7666L20.2998 89.916ZM17.4873 89.8262H18.8936V85.8262H17.4873V89.8262ZM18.8936 89.8262C19.6565 89.8262 20.4551 89.6963 21.1838 89.3121L19.3182 85.7738C19.3307 85.7672 19.2243 85.8262 18.8936 85.8262V89.8262ZM21.1707 89.319C21.8617 88.9611 22.4451 88.4229 22.8291 87.6975L19.2939 85.8259C19.2988 85.8168 19.3055 85.806 19.3141 85.7945C19.3227 85.7831 19.3314 85.7735 19.3391 85.7661C19.3555 85.7503 19.3581 85.7531 19.3313 85.767L21.1707 89.319ZM22.8291 87.6975C23.1782 87.0381 23.3252 86.3278 23.3252 85.6191H19.3252C19.3252 85.7699 19.2964 85.8213 19.2939 85.8259L22.8291 87.6975ZM23.3252 85.6191C23.3252 84.9325 23.2008 84.2208 22.8626 83.5579L19.2995 85.3757C19.2868 85.3508 19.3252 85.4074 19.3252 85.6191H23.3252ZM22.8841 83.6013C22.5404 82.8853 21.996 82.3262 21.3087 81.955L19.4081 85.4747C19.4003 85.4704 19.3732 85.4539 19.3412 85.4205C19.3088 85.3868 19.2882 85.3536 19.278 85.3323L22.8841 83.6013ZM21.3236 81.9632C20.6219 81.5765 19.8543 81.4512 19.1377 81.4512V85.4512C19.4107 85.4512 19.4569 85.5016 19.3932 85.4665L21.3236 81.9632ZM19.1377 81.4512C18.4423 81.4512 17.7538 81.5945 17.1105 81.9162L18.8993 85.4939C18.933 85.4771 18.9997 85.4512 19.1377 85.4512V81.4512ZM17.1246 81.9092C16.4696 82.2303 15.9246 82.7109 15.528 83.3321L18.8997 85.4843C18.9009 85.4824 18.9003 85.4837 18.8975 85.4869C18.8947 85.4902 18.891 85.494 18.8868 85.4977C18.8826 85.5015 18.8794 85.5038 18.8781 85.5047C18.8768 85.5055 18.8788 85.5041 18.8852 85.5009L17.1246 81.9092ZM15.5386 83.3157C15.0982 83.991 14.9209 84.7433 14.9209 85.4824H18.9209C18.9209 85.4304 18.9269 85.4156 18.9237 85.4276C18.9221 85.4334 18.9187 85.4439 18.9126 85.4578C18.9064 85.4716 18.8985 85.4863 18.8891 85.5007L15.5386 83.3157ZM16.9209 83.4824H14.5576V87.4824H16.9209V83.4824ZM16.5576 85.4824C16.5576 85.0991 16.6515 84.825 16.8089 84.5928L13.4978 82.3486C12.8609 83.2883 12.5576 84.3553 12.5576 85.4824H16.5576ZM16.8089 84.5928C16.9948 84.3185 17.256 84.0833 17.6482 83.8928L15.9006 80.2947C14.9256 80.7683 14.1061 81.4511 13.4978 82.3486L16.8089 84.5928ZM17.6553 83.8893C18.0403 83.7004 18.5083 83.5859 19.0986 83.5859V79.5859C17.9703 79.5859 16.8887 79.81 15.8936 80.2982L17.6553 83.8893ZM19.0986 83.5859C19.797 83.5859 20.3085 83.7024 20.6839 83.8704L22.3181 80.2195C21.3263 79.7755 20.2362 79.5859 19.0986 79.5859V83.5859ZM20.7048 83.8796C21.0527 84.0306 21.2715 84.2271 21.4288 84.4722L24.7958 82.3129C24.1849 81.3602 23.3295 80.6582 22.2972 80.2102L20.7048 83.8796ZM21.4288 84.4722C21.561 84.6785 21.6885 85.023 21.6885 85.6191H25.6885C25.6885 84.4444 25.4318 83.3046 24.7958 82.3129L21.4288 84.4722ZM21.6885 85.6191C21.6885 85.7024 21.6705 85.8322 21.5836 86.0241L25.227 87.6751C25.5176 87.0337 25.6885 86.3432 25.6885 85.6191H21.6885ZM21.5836 86.0241C21.5154 86.1746 21.4015 86.3435 21.2035 86.5275L23.9273 89.4569C24.4716 88.9508 24.9176 88.3579 25.227 87.6751L21.5836 86.0241ZM21.2175 86.5147C21.0587 86.6596 20.8191 86.8164 20.4549 86.9578L21.9025 90.6867C22.6451 90.3984 23.33 90.0019 23.9134 89.4697L21.2175 86.5147ZM20.4741 86.9505C20.1916 87.0568 19.7975 87.1348 19.2549 87.1348V91.1348C20.1706 91.1348 21.0591 91.0043 21.8834 90.694L20.4741 86.9505ZM19.2549 87.1348H17.4873V91.1348H19.2549V87.1348ZM19.4873 89.1348V87.8262H15.4873V89.1348H19.4873ZM19.4873 89.6621V88.373H15.4873V89.6621H19.4873ZM17.4873 90.373H19.2549V86.373H17.4873V90.373ZM19.2549 90.373C19.9432 90.373 20.4265 90.4551 20.7513 90.5634L22.0162 86.7686C21.1692 86.4863 20.2332 86.373 19.2549 86.373V90.373ZM20.7576 90.5655C21.1381 90.6909 21.3501 90.8323 21.4672 90.9412L24.191 88.0119C23.5659 87.4307 22.8144 87.0318 22.01 86.7666L20.7576 90.5655ZM21.4812 90.9541C21.6413 91.1002 21.7256 91.2347 21.7751 91.3622L25.5042 89.9151C25.2151 89.1702 24.7591 88.53 24.177 87.999L21.4812 90.9541ZM21.7846 91.3862C21.861 91.5757 21.9033 91.7833 21.9033 92.0254H25.9033C25.9033 91.2909 25.7699 90.574 25.4947 89.8911L21.7846 91.3862ZM21.9033 92.0254C21.9033 92.4449 21.8282 92.7438 21.7267 92.9632L25.3572 94.6423C25.7375 93.82 25.9033 92.934 25.9033 92.0254H21.9033ZM21.722 92.9734C21.614 93.2104 21.467 93.4014 21.2671 93.5655L23.8051 96.6572C24.4776 96.1051 25.0012 95.4237 25.3619 94.6321L21.722 92.9734ZM21.2671 93.5655C21.0471 93.7461 20.7701 93.8998 20.4088 94.0122L21.5971 97.8316C22.4077 97.5794 23.1527 97.1927 23.8051 96.6572L21.2671 93.5655ZM20.4027 94.0141C20.0401 94.1281 19.6136 94.1953 19.1084 94.1953V98.1953C19.9704 98.1953 20.8069 98.0802 21.6031 97.8297L20.4027 94.0141ZM19.1084 94.1953C18.6834 94.1953 18.293 94.1369 17.9294 94.027L16.7718 97.8558C17.5279 98.0844 18.3095 98.1953 19.1084 98.1953V94.1953ZM17.9294 94.027C17.5805 93.9215 17.2918 93.7733 17.0467 93.5895L14.6467 96.7895C15.2869 97.2697 16.0009 97.6228 16.7718 97.8558L17.9294 94.027ZM17.0616 93.6007C16.8555 93.4431 16.6937 93.252 16.5668 93.0077L13.0172 94.8517C13.4111 95.61 13.9525 96.2587 14.6318 96.7782L17.0616 93.6007ZM16.5808 93.0353C16.4875 92.8486 16.4111 92.578 16.4111 92.1719H12.4111C12.4111 93.0939 12.5886 93.9951 13.0031 94.8241L16.5808 93.0353ZM14.4111 94.1719H16.7646V90.1719H14.4111V94.1719ZM14.7646 92.1719C14.7646 92.9148 14.94 93.6529 15.3426 94.3239L18.7726 92.2659C18.7748 92.2696 18.7748 92.2716 18.7731 92.2652C18.7711 92.2575 18.7646 92.2289 18.7646 92.1719H14.7646ZM15.3675 94.3642C15.7739 95.0066 16.3332 95.4948 16.9901 95.8292L18.8048 92.2645C18.7694 92.2465 18.7554 92.2343 18.753 92.2321C18.7512 92.2305 18.7504 92.2299 18.7478 92.2256L15.3675 94.3642ZM17.003 95.8357C17.6843 96.1763 18.4149 96.3203 19.1475 96.3203V92.3203C18.9425 92.3203 18.8398 92.282 18.7919 92.258L17.003 95.8357ZM19.1475 96.3203C19.876 96.3203 20.6178 96.1908 21.3081 95.852L19.5454 92.2613C19.5196 92.274 19.4085 92.3203 19.1475 92.3203V96.3203ZM21.3081 95.852C22.0308 95.4972 22.6118 94.9477 23.0016 94.2354L19.4925 92.3154C19.4922 92.3159 19.4945 92.3118 19.4999 92.3047C19.5054 92.2975 19.5126 92.2893 19.5211 92.2812C19.5296 92.2731 19.5372 92.2672 19.5428 92.2633C19.5483 92.2595 19.5497 92.2592 19.5454 92.2613L21.3081 95.852ZM22.9876 94.2606C23.3882 93.5529 23.54 92.7797 23.54 92.0254H19.54C19.54 92.2476 19.4966 92.3078 19.5066 92.2902L22.9876 94.2606ZM23.54 92.0254C23.54 91.2288 23.3871 90.3779 22.9156 89.6206L19.52 91.7349C19.4781 91.6676 19.54 91.7152 19.54 92.0254H23.54ZM22.9156 89.6206C22.4659 88.8984 21.821 88.378 21.0583 88.0654L19.5414 91.7666C19.555 91.7722 19.5609 91.7757 19.561 91.7758C19.5611 91.7758 19.56 91.7752 19.5579 91.7738C19.5559 91.7723 19.5532 91.7703 19.55 91.7676C19.5433 91.7621 19.5365 91.7554 19.5303 91.7484C19.5243 91.7414 19.5209 91.7364 19.52 91.7349L22.9156 89.6206ZM21.084 88.0762C20.385 87.7782 19.6379 87.6621 18.8936 87.6621V91.6621C19.23 91.6621 19.4204 91.7153 19.5156 91.7559L21.084 88.0762ZM18.8936 87.6621H17.4873V91.6621H18.8936V87.6621Z" fill="url(#paint3_linear_42_1347)" fill-opacity="0.8" mask="url(#path-6-inside-1_42_1347)"/>
</g>
<defs>
<linearGradient id="paint0_linear_42_1347" x1="-13.9747" y1="-5.76923" x2="116.795" y2="100" gradientUnits="userSpaceOnUse">
<stop stop-color="#EF2DDC"/>
<stop offset="1" stop-color="#7443FF"/>
</linearGradient>
<linearGradient id="paint1_linear_42_1347" x1="23.7417" y1="27.0524" x2="76.3763" y2="69.6245" gradientUnits="userSpaceOnUse">
<stop stop-color="#EF2DDC"/>
<stop offset="1" stop-color="#7443FF"/>
</linearGradient>
<linearGradient id="paint2_linear_42_1347" x1="-6.24392" y1="67.8077" x2="43.4484" y2="108" gradientUnits="userSpaceOnUse">
<stop stop-color="#EF2DDC"/>
<stop offset="1" stop-color="#7443FF"/>
</linearGradient>
<linearGradient id="paint3_linear_42_1347" x1="11.2561" y1="67.8077" x2="35.6245" y2="74.0318" gradientUnits="userSpaceOnUse">
<stop stop-color="#EF2DDC"/>
<stop offset="1" stop-color="#7443FF"/>
</linearGradient>
<clipPath id="clip0_42_1347">
<rect width="103" height="108" fill="white" transform="translate(0.333008)"/>
</clipPath>
</defs>
</svg>
