<svg width="24" height="24" viewBox="0 0 24 24" fill="none" xmlns="http://www.w3.org/2000/svg">
<path d="M0.109375 11.7177C0.109375 5.30625 5.35507 0.0605469 11.7665 0.0605469C18.1779 0.0605469 23.4236 5.30625 23.4236 11.7177C23.4236 18.1291 18.1779 23.3748 11.7665 23.3748C5.35507 23.3748 0.109375 18.1291 0.109375 11.7177Z" fill="#1A4A7F"/>
<path fill-rule="evenodd" clip-rule="evenodd" d="M10.0939 23.3752C7.73946 23.0101 5.53213 21.9149 3.83984 20.2356L14.435 10.598L8.40165 12.0582C6.70937 12.4963 5.01709 11.4741 4.6492 9.79483C4.6492 9.79483 4.6492 9.79483 4.6492 9.72182C4.28131 8.04253 5.3114 6.36324 7.00368 5.92517L19.659 2.85864C24.6623 7.02036 25.3245 14.3946 21.1306 19.2865C19.9533 20.6737 18.4818 21.7689 16.7895 22.499C16.7895 22.0609 16.7895 21.6229 16.9367 21.2578L18.9233 15.3438C18.8497 15.3438 10.0939 23.3752 10.0939 23.3752Z" fill="url(#paint0_linear_4004_81)"/>
<defs>
<linearGradient id="paint0_linear_4004_81" x1="27.6219" y1="0.0232744" x2="-12.3966" y2="37.0297" gradientUnits="userSpaceOnUse">
<stop stop-color="#FFB800"/>
<stop offset="1" stop-color="#FFF11D"/>
</linearGradient>
</defs>
</svg>
