<svg width="136" height="48" viewBox="0 0 136 48" fill="none" xmlns="http://www.w3.org/2000/svg">
<g clip-path="url(#clip0_21_1592)">
<path d="M56.2611 6.40073C58.1982 6.40073 59.4616 7.49546 59.9669 8.92704C60.5565 10.4428 60.3881 12.2113 58.872 13.306C60.6407 14.0639 61.2303 15.6639 61.2303 17.0955C61.2303 19.3691 59.7143 21.727 56.7664 21.727H49.7759V6.40073H56.2611ZM52.0499 12.5481H56.1769C58.6194 12.5481 58.6194 8.50599 56.2611 8.50599H52.0499V12.5481ZM52.0499 19.6218H56.7664C58.2825 19.6218 59.0405 18.3586 59.0405 17.1797C59.0405 16.0007 58.2825 14.7376 56.7664 14.7376H52.0499V19.6218Z" fill="#3D88C8"/>
<path d="M65.6097 8.67441C66.9573 7.24283 68.8945 6.40073 71 6.40073C73.1056 6.40073 75.0428 7.24283 76.3904 8.67441C77.7379 10.106 78.5802 11.9586 78.5802 14.0639C78.5802 16.1691 77.7379 18.106 76.3904 19.4534C74.9586 20.8849 73.1056 21.727 71 21.727C68.8945 21.727 66.9573 20.8849 65.6097 19.4534C64.2622 18.0218 63.4199 16.1691 63.4199 14.0639C63.4199 11.9586 64.2622 10.106 65.6097 8.67441ZM74.9586 10.1902C73.9479 9.17967 72.6003 8.5902 71.0843 8.5902C69.5682 8.5902 68.2207 9.17967 67.21 10.1902C66.1993 11.2007 65.6097 12.5481 65.6097 14.0639C65.6097 15.5797 66.1993 16.927 67.21 17.9376C68.2207 18.9481 69.5682 19.5376 71.0843 19.5376C72.6003 19.5376 73.9479 18.9481 74.9586 17.9376C75.9692 16.927 76.5588 15.5797 76.5588 14.0639C76.4746 12.5481 75.885 11.2007 74.9586 10.1902Z" fill="#3D88C8"/>
<path d="M85.4026 21.8113V8.50599H80.7703V6.40073H92.3089V8.50599H87.5924V21.8113H85.4026Z" fill="#3D88C8"/>
<path d="M52.1339 42.3577H49.9441V26.9472H59.1245V29.1367H52.1339V33.7683H58.2822V35.8735H52.1339V42.3577Z" fill="#111111"/>
<path d="M70.3266 38.484H64.094L62.578 42.3577H60.2197L66.3681 26.9472H67.9683L74.1166 42.3577H71.7584L70.3266 38.484ZM64.9362 36.3788H69.5685L67.2103 30.3156L64.9362 36.3788Z" fill="#111111"/>
<path d="M91.9715 42.3579H89.6132L88.0129 40.9263C84.644 43.1158 80.1802 42.6947 77.8219 40.0842C76.4743 38.6526 75.5479 36.8 75.5479 34.6947C75.5479 32.5895 76.3901 30.6526 77.8219 29.3053C79.1695 27.8737 81.1066 27.0316 83.2122 27.0316C85.3178 27.0316 87.2549 27.8737 88.6025 29.3053C89.9501 30.7368 90.8765 32.5895 90.8765 34.6947C90.8765 36.4632 90.287 38.0632 89.2763 39.4105L91.8872 41.9369V42.3579H91.9715ZM82.5384 35.7053H85.1493L87.676 38.0632C88.3498 37.1369 88.6867 35.9579 88.6867 34.6947C88.6867 33.179 88.0129 31.8316 87.0865 30.8211C86.0758 29.8105 84.7282 29.2211 83.2122 29.2211C81.6962 29.2211 80.3486 29.8105 79.3379 30.8211C78.4115 31.8316 77.7377 33.179 77.7377 34.6947C77.7377 36.2105 78.4115 37.6421 79.3379 38.5684C81.1908 40.4211 83.9702 40.7579 86.2443 39.4105L82.4542 36.0421V35.7053H82.5384ZM82.5384 36.0421V35.7053V36.0421Z" fill="#111111"/>
<path d="M97.6985 42.3577V29.0525H93.0662V26.9472H104.605V29.0525H99.9725V42.3577H97.6985Z" fill="#111111"/>
<path d="M108.648 29.2209C109.996 27.7893 111.933 26.9472 114.039 26.9472C116.144 26.9472 118.081 27.7893 119.429 29.2209C120.777 30.6525 121.619 32.5051 121.619 34.6104C121.619 36.7156 120.777 38.6525 119.429 39.9998C117.997 41.4314 116.144 42.2735 114.039 42.2735C111.933 42.2735 109.996 41.4314 108.648 39.9998C107.301 38.5683 106.458 36.7156 106.458 34.6104C106.458 32.5893 107.301 30.6525 108.648 29.2209ZM117.913 30.8209C116.902 29.8104 115.555 29.2209 114.039 29.2209C112.523 29.2209 111.175 29.8104 110.164 30.8209C109.154 31.8314 108.564 33.1788 108.564 34.6946C108.564 36.2104 109.154 37.5577 110.164 38.5683C111.175 39.5788 112.523 40.1683 114.039 40.1683C115.555 40.1683 116.902 39.5788 117.913 38.5683C118.924 37.5577 119.513 36.2104 119.513 34.6946C119.513 33.1788 118.924 31.7472 117.913 30.8209Z" fill="#111111"/>
<path d="M127.261 34.5262H129.872C131.725 34.5262 132.652 33.1788 132.652 31.8314C132.652 30.484 131.725 29.1367 129.872 29.1367H126.419V42.2735H124.229V26.9472H129.872C133.241 26.9472 134.926 29.3893 134.926 31.8314C134.926 34.0209 133.578 36.0419 130.967 36.5472L135.852 42.3577H132.988L127.346 35.6209V34.5262H127.261Z" fill="#111111"/>
<path d="M31.752 29.305C27.7093 34.1892 23.3297 39.4945 20.4661 42.4419C20.3818 42.4419 20.3818 42.3577 20.2976 42.2734C18.8658 41.0103 17.0971 39.3261 15.2442 37.3892L12.2122 40.4208C16.0022 44.3787 19.5396 47.3261 20.2976 47.9156C20.3818 47.9998 20.4661 47.9998 20.4661 47.9998C20.4661 47.9998 30.3202 37.2208 34.8683 32.3366L31.752 29.305Z" fill="#4EB594"/>
<path d="M20.2983 8.75797L7.74902 13.6422C7.74902 13.6422 8.84393 21.979 11.6233 27.5369C14.0658 32.4211 19.7088 37.979 20.2983 38.3159C20.8879 37.979 26.7836 32.0843 29.226 27.2001C32.0054 21.6422 32.8477 13.6422 32.8477 13.6422L20.2983 8.75797Z" fill="#3D88C8"/>
<path d="M40.4275 8.58964L20.298 0.0843811L0.168609 8.58964C0.168609 8.58964 -1.26319 20.2949 5.05358 31.1581C6.31693 33.2633 7.83296 35.3686 9.51743 37.3054L12.5495 34.2739C11.1177 32.5896 9.7701 30.737 8.75942 28.9686C5.1378 22.9054 4.37979 16.0002 4.29557 12.1265C6.06426 11.116 18.782 5.97912 20.298 5.38964C21.7299 5.97912 34.5318 11.116 36.3005 12.1265C36.2163 15.2423 35.711 20.2949 33.6896 25.3475L36.9743 28.6318C41.6908 18.5265 40.4275 8.58964 40.4275 8.58964Z" fill="#3D88C8"/>
<path d="M34.8684 32.4208L31.7521 29.305C27.7094 34.1892 23.3297 39.4945 20.4661 42.4419C20.3819 42.4419 20.4661 48.084 20.4661 48.084C20.4661 48.084 30.2361 37.305 34.8684 32.4208Z" fill="#029E81"/>
<path d="M33.6896 25.3474L36.9744 28.6316C41.6909 18.5264 40.4275 8.58952 40.4275 8.58952L20.2981 0.084259V5.38952C21.7299 5.979 34.5319 11.1158 36.3006 12.1264C36.2164 15.2422 35.711 20.2948 33.6896 25.3474Z" fill="#057BAA"/>
<path d="M32.8474 13.6422C32.8474 13.6422 32.0052 21.6422 29.2258 27.2001C26.7833 32.0843 20.8877 37.979 20.2981 38.3159V8.75797L32.8474 13.6422Z" fill="#057BAA"/>
</g>
<defs>
<clipPath id="clip0_21_1592">
<rect width="135.6" height="48" fill="white"/>
</clipPath>
</defs>
</svg>
