<svg width="139" height="139" viewBox="0 0 139 139" fill="none" xmlns="http://www.w3.org/2000/svg">
<path d="M0.664062 22.8256C0.664062 10.68 10.5101 0.833984 22.6557 0.833984H116.12C128.266 0.833984 138.112 10.68 138.112 22.8256V116.29C138.112 128.436 128.266 138.282 116.12 138.282H22.6557C10.5101 138.282 0.664062 128.436 0.664062 116.29V22.8256Z" fill="url(#paint0_linear_2002_1502)" fill-opacity="0.1"/>
<path d="M78.6142 66.205C81.8526 66.205 84.4809 68.8333 84.4809 72.0717V87.9921C84.4809 91.994 82.8912 95.832 80.0614 98.6617C77.2317 101.491 73.3937 103.081 69.3918 103.081C65.3899 103.081 61.552 101.491 58.7222 98.6617C55.8925 95.832 54.3027 91.994 54.3027 87.9921V72.0717C54.3027 68.8333 56.9277 66.205 60.1694 66.205H78.6142ZM53.059 66.205C51.8515 67.6581 51.1252 69.4504 50.9805 71.3341L50.947 72.0717V87.9921C50.947 90.8316 51.5907 93.5202 52.7372 95.9205C50.7501 96.4521 48.6675 96.5196 46.6502 96.1177C44.633 95.7158 42.7352 94.8554 41.1035 93.6029C39.4719 92.3504 38.1502 90.7395 37.2406 88.8947C36.3311 87.0498 35.858 85.0205 35.8579 82.9636V72.0717C35.858 70.5993 36.4116 69.1808 37.409 68.0978C38.4064 67.0147 39.7745 66.3462 41.2418 66.2251L41.7246 66.205H53.059ZM85.7246 66.205H97.0389C100.277 66.205 102.906 68.8333 102.906 72.0717V82.9669C102.906 85.0225 102.434 87.0506 101.526 88.8947C100.618 90.7387 99.2975 92.3493 97.6677 93.6019C96.0379 94.8546 94.142 95.7157 92.1263 96.1189C90.1107 96.5221 88.0294 96.4565 86.0431 95.9272C87.0488 93.8219 87.6657 91.5021 87.8031 89.0481L87.8333 87.9921V72.0717C87.8333 69.8423 87.0455 67.7974 85.7246 66.205ZM69.3818 42.7383C72.0491 42.7383 74.6072 43.7979 76.4932 45.684C78.3793 47.57 79.4389 50.1281 79.4389 52.7954C79.4389 55.4628 78.3793 58.0208 76.4932 59.9069C74.6072 61.793 72.0491 62.8526 69.3818 62.8526C66.7144 62.8526 64.1564 61.793 62.2703 59.9069C60.3842 58.0208 59.3246 55.4628 59.3246 52.7954C59.3246 50.1281 60.3842 47.57 62.2703 45.684C64.1564 43.7979 66.7144 42.7383 69.3818 42.7383ZM91.1723 46.0907C93.395 46.0907 95.5268 46.9737 97.0985 48.5454C98.6702 50.1171 99.5532 52.2489 99.5532 54.4716C99.5532 56.6944 98.6702 58.8261 97.0985 60.3979C95.5268 61.9696 93.395 62.8526 91.1723 62.8526C88.9495 62.8526 86.8178 61.9696 85.246 60.3979C83.6743 58.8261 82.7913 56.6944 82.7913 54.4716C82.7913 52.2489 83.6743 50.1171 85.246 48.5454C86.8178 46.9737 88.9495 46.0907 91.1723 46.0907ZM47.5913 46.0907C49.814 46.0907 51.9458 46.9737 53.5175 48.5454C55.0892 50.1171 55.9722 52.2489 55.9722 54.4716C55.9722 56.6944 55.0892 58.8261 53.5175 60.3979C51.9458 61.9696 49.814 62.8526 47.5913 62.8526C45.3685 62.8526 43.2368 61.9696 41.665 60.3979C40.0933 58.8261 39.2103 56.6944 39.2103 54.4716C39.2103 52.2489 40.0933 50.1171 41.665 48.5454C43.2368 46.9737 45.3685 46.0907 47.5913 46.0907Z" fill="black"/>
<path d="M78.6142 66.205C81.8526 66.205 84.4809 68.8333 84.4809 72.0717V87.9921C84.4809 91.994 82.8912 95.832 80.0614 98.6617C77.2317 101.491 73.3937 103.081 69.3918 103.081C65.3899 103.081 61.552 101.491 58.7222 98.6617C55.8925 95.832 54.3027 91.994 54.3027 87.9921V72.0717C54.3027 68.8333 56.9277 66.205 60.1694 66.205H78.6142ZM53.059 66.205C51.8515 67.6581 51.1252 69.4504 50.9805 71.3341L50.947 72.0717V87.9921C50.947 90.8316 51.5907 93.5202 52.7372 95.9205C50.7501 96.4521 48.6675 96.5196 46.6502 96.1177C44.633 95.7158 42.7352 94.8554 41.1035 93.6029C39.4719 92.3504 38.1502 90.7395 37.2406 88.8947C36.3311 87.0498 35.858 85.0205 35.8579 82.9636V72.0717C35.858 70.5993 36.4116 69.1808 37.409 68.0978C38.4064 67.0147 39.7745 66.3462 41.2418 66.2251L41.7246 66.205H53.059ZM85.7246 66.205H97.0389C100.277 66.205 102.906 68.8333 102.906 72.0717V82.9669C102.906 85.0225 102.434 87.0506 101.526 88.8947C100.618 90.7387 99.2975 92.3493 97.6677 93.6019C96.0379 94.8546 94.142 95.7157 92.1263 96.1189C90.1107 96.5221 88.0294 96.4565 86.0431 95.9272C87.0488 93.8219 87.6657 91.5021 87.8031 89.0481L87.8333 87.9921V72.0717C87.8333 69.8423 87.0455 67.7974 85.7246 66.205ZM69.3818 42.7383C72.0491 42.7383 74.6072 43.7979 76.4932 45.684C78.3793 47.57 79.4389 50.1281 79.4389 52.7954C79.4389 55.4628 78.3793 58.0208 76.4932 59.9069C74.6072 61.793 72.0491 62.8526 69.3818 62.8526C66.7144 62.8526 64.1564 61.793 62.2703 59.9069C60.3842 58.0208 59.3246 55.4628 59.3246 52.7954C59.3246 50.1281 60.3842 47.57 62.2703 45.684C64.1564 43.7979 66.7144 42.7383 69.3818 42.7383ZM91.1723 46.0907C93.395 46.0907 95.5268 46.9737 97.0985 48.5454C98.6702 50.1171 99.5532 52.2489 99.5532 54.4716C99.5532 56.6944 98.6702 58.8261 97.0985 60.3979C95.5268 61.9696 93.395 62.8526 91.1723 62.8526C88.9495 62.8526 86.8178 61.9696 85.246 60.3979C83.6743 58.8261 82.7913 56.6944 82.7913 54.4716C82.7913 52.2489 83.6743 50.1171 85.246 48.5454C86.8178 46.9737 88.9495 46.0907 91.1723 46.0907ZM47.5913 46.0907C49.814 46.0907 51.9458 46.9737 53.5175 48.5454C55.0892 50.1171 55.9722 52.2489 55.9722 54.4716C55.9722 56.6944 55.0892 58.8261 53.5175 60.3979C51.9458 61.9696 49.814 62.8526 47.5913 62.8526C45.3685 62.8526 43.2368 61.9696 41.665 60.3979C40.0933 58.8261 39.2103 56.6944 39.2103 54.4716C39.2103 52.2489 40.0933 50.1171 41.665 48.5454C43.2368 46.9737 45.3685 46.0907 47.5913 46.0907Z" fill="url(#paint1_linear_2002_1502)" fill-opacity="0.8"/>
<defs>
<linearGradient id="paint0_linear_2002_1502" x1="-23.125" y1="-7.0957" x2="156.614" y2="138.282" gradientUnits="userSpaceOnUse">
<stop stop-color="#EF2DDC"/>
<stop offset="1" stop-color="#7443FF"/>
</linearGradient>
<linearGradient id="paint1_linear_2002_1502" x1="24.2535" y1="39.257" x2="104.488" y2="111.363" gradientUnits="userSpaceOnUse">
<stop stop-color="#EF2DDC"/>
<stop offset="1" stop-color="#7443FF"/>
</linearGradient>
</defs>
</svg>
