<svg width="11" height="7" viewBox="0 0 11 7" fill="none" xmlns="http://www.w3.org/2000/svg">
<path d="M0.2713 0.293893C0.0904331 0.489822 0 0.739186 0 1.04199C0 1.34478 0.0904331 1.59415 0.2713 1.79008L4.80942 6.70611C4.90807 6.81298 5.01495 6.8885 5.13004 6.93267C5.24514 6.97685 5.36846 6.99929 5.5 7C5.63154 7 5.75913 6.97328 5.88278 6.91985C6.00643 6.86641 6.10903 6.79517 6.19058 6.70611L10.7287 1.79008C10.9096 1.59415 11 1.34478 11 1.04199C11 0.739186 10.9096 0.489822 10.7287 0.293893C10.5478 0.0979643 10.3176 -4.76837e-07 10.0381 -4.76837e-07C9.75859 -4.76837e-07 9.5284 0.0979643 9.34753 0.293893L5.5 4.46183L1.65247 0.293893C1.4716 0.0979643 1.24141 -4.76837e-07 0.961883 -4.76837e-07C0.682362 -4.76837e-07 0.452167 0.0979643 0.2713 0.293893Z" fill="#CCCCCC"/>
</svg>
