<svg width="52" height="54" viewBox="0 0 52 54" fill="none" xmlns="http://www.w3.org/2000/svg">
<path d="M26.0603 44.9249C22.2997 45.0337 18.5913 44.0248 15.4041 42.0258C12.2169 40.0269 9.69408 37.1277 8.15468 33.6948C6.61528 30.262 6.12845 26.4498 6.75577 22.7403C7.38309 19.0308 9.09637 15.5906 11.6789 12.8548C14.2615 10.1191 17.5974 8.21061 21.2646 7.37081C24.9319 6.53102 28.7658 6.79761 32.2816 8.13686C35.7973 9.47612 38.8369 11.8279 41.016 14.8947C43.1951 17.9616 44.4158 21.6058 44.5237 25.3664C44.5962 27.8631 44.1761 30.3496 43.2873 32.6839C42.3986 35.0182 41.0587 37.1546 39.3441 38.9708C37.6295 40.7871 35.5738 42.2478 33.2946 43.2695C31.0153 44.2911 28.5571 44.8536 26.0603 44.9249ZM51.0544 25.1783C50.905 20.1329 49.2634 15.245 46.3371 11.1322C43.4108 7.01936 39.331 3.86625 34.6133 2.07125C29.8957 0.276259 24.7518 -0.0800703 19.8316 1.04729C14.9115 2.17466 10.436 4.73512 6.97052 8.40515C3.50506 12.0752 1.20522 16.6901 0.361582 21.6667C-0.482051 26.6433 0.168392 31.7583 2.23072 36.3654C4.29305 40.9725 7.67471 44.8649 11.9484 47.5508C16.2221 50.2367 21.1961 51.5956 26.2417 51.4556C29.5973 51.3626 32.9016 50.6087 35.9655 49.2372C39.0294 47.8657 41.7928 45.9034 44.0975 43.4627C46.4022 41.0219 48.2029 38.1507 49.3967 35.0132C50.5904 31.8758 51.1537 28.5337 51.0544 25.1783Z" fill="#0066B3"/>
<path d="M25.4894 44.4738C20.6397 44.4312 15.9992 42.4924 12.5607 39.0722C9.1222 35.652 7.15868 31.0219 7.09021 26.1725C7.02174 21.3231 8.85374 16.6395 12.1943 13.1235C15.5349 9.60758 20.1188 7.53853 24.9653 7.35902H25.5096C30.3903 7.35234 35.0772 9.26873 38.555 12.6931C42.0328 16.1175 44.0216 20.7741 44.0905 25.6544C44.1594 30.5346 42.303 35.2455 38.9232 38.7667C35.5435 42.288 30.9126 44.336 26.0336 44.4671H25.4894M25.4894 44.924H26.0471C31.0492 44.7913 35.7975 42.6928 39.2631 39.0834C42.7287 35.474 44.6324 30.6443 44.5617 25.6409C44.491 20.6375 42.4516 15.8636 38.8854 12.3535C35.3192 8.84343 30.5134 6.88 25.5096 6.8887H24.9519C19.9072 6.95998 15.0975 9.03233 11.5807 12.6499C8.06401 16.2674 6.12838 21.1338 6.19965 26.1785C6.27093 31.2231 8.34328 36.0329 11.9608 39.5496C15.5783 43.0663 20.4447 45.002 25.4894 44.9307" fill="white"/>
<path d="M25.5226 7.81676H24.9918C20.1895 7.88269 15.61 9.85365 12.2609 13.296C8.91174 16.7384 7.06725 21.3703 7.13318 26.1726C7.19911 30.9749 9.17006 35.5544 12.6125 38.9035C16.0548 42.2527 20.6867 44.0972 25.489 44.0312H26.0198C30.744 43.8544 35.2115 41.8363 38.4671 38.4084C41.7227 34.9806 43.5081 30.415 43.4414 25.688C43.3747 20.961 41.4612 16.4476 38.1102 13.113C34.7591 9.77839 30.2365 7.88713 25.5092 7.84364L25.5226 7.81676ZM25.489 45.375C21.6931 45.3589 17.9845 44.2344 14.8188 42.1396C11.6532 40.0447 9.16842 37.0708 7.66975 33.5832C6.17108 30.0956 5.72378 26.2461 6.38282 22.5078C7.04187 18.7694 8.77853 15.305 11.3795 12.5401C13.1265 10.677 15.2254 9.17861 17.5549 8.13147C19.8845 7.08434 22.3984 6.50924 24.9515 6.4394H25.5226C30.6903 6.36723 35.6749 8.35086 39.38 11.9539C43.0851 15.5569 45.2072 20.4843 45.2793 25.6519C45.3515 30.8195 43.3679 35.8042 39.7648 39.5093C36.1618 43.2144 31.2345 45.3364 26.0668 45.4086H25.489" fill="#0066B3"/>
<path d="M43.5562 40.4174L42.7432 39.1744L42.1587 39.9135L43.5562 40.4174ZM40.7007 40.0949L40.5596 40.0344C40.5596 40.0344 40.5126 39.9941 40.5126 39.9672C40.5002 39.9348 40.5002 39.8989 40.5126 39.8664C40.5493 39.8122 40.5898 39.7606 40.6335 39.7119C40.6723 39.6553 40.715 39.6014 40.7612 39.5506C40.7865 39.5218 40.8159 39.4969 40.8485 39.4767C40.857 39.473 40.8662 39.4711 40.8754 39.4711C40.8847 39.4711 40.8938 39.473 40.9023 39.4767H40.956L41.6279 39.7186L42.4073 38.7377L42.031 38.1733C42.0288 38.1532 42.0288 38.1329 42.031 38.1128C42.0243 38.0909 42.0243 38.0675 42.031 38.0456L42.0848 37.9516L42.1923 37.8105L42.3132 37.6694C42.3239 37.6561 42.3371 37.6451 42.3521 37.637C42.3671 37.6289 42.3836 37.624 42.4006 37.6223C42.4006 37.6223 42.4476 37.6223 42.4745 37.6559C42.5077 37.6931 42.537 37.7336 42.5618 37.7769L44.2348 40.4174C44.2372 40.4397 44.2372 40.4622 44.2348 40.4846C44.2379 40.5114 44.2379 40.5384 44.2348 40.5652L44.1676 40.6727C44.1285 40.7291 44.0859 40.7829 44.04 40.8339L43.8922 41.0221L43.7847 41.1228C43.7606 41.1301 43.7348 41.1301 43.7107 41.1228C43.6819 41.1288 43.6522 41.1288 43.6234 41.1228L40.7007 40.0949ZM43.7914 37.105C43.8503 37.1422 43.9169 37.1652 43.9862 37.1722C44.046 37.1855 44.1079 37.1855 44.1676 37.1722C44.2317 37.1476 44.2892 37.1085 44.3356 37.058C44.4081 36.9912 44.4673 36.9114 44.5103 36.8228L44.7253 36.4465L43.8854 35.9695L43.6704 36.3525C43.624 36.4327 43.5879 36.5185 43.5629 36.6078C43.5535 36.6724 43.5535 36.738 43.5629 36.8026C43.5764 36.865 43.6015 36.9242 43.6368 36.9773C43.6794 37.034 43.7346 37.08 43.7981 37.1117M43.5025 37.7366C43.378 37.6666 43.2685 37.5731 43.18 37.4611C43.0944 37.3579 43.0345 37.2358 43.0053 37.105C42.972 36.9568 42.972 36.803 43.0053 36.6548C43.0488 36.4498 43.1284 36.2541 43.2404 36.077L43.6772 35.2976C43.6876 35.2719 43.7031 35.2486 43.7227 35.229C43.7424 35.2094 43.7657 35.1939 43.7914 35.1834C43.8217 35.1776 43.8529 35.1782 43.883 35.1851C43.9131 35.1921 43.9414 35.2052 43.9661 35.2237L46.4856 36.6414C46.5134 36.6521 46.5382 36.6693 46.5581 36.6915C46.578 36.7137 46.5923 36.7402 46.5998 36.7691C46.619 36.8188 46.619 36.8739 46.5998 36.9236L45.6458 38.5697L45.6122 38.6033H45.5584H45.4711L45.3636 38.5495L45.2561 38.4824C45.2327 38.4657 45.2122 38.4453 45.1956 38.4219C45.1905 38.4066 45.1905 38.3901 45.1956 38.3749C45.192 38.3675 45.1902 38.3595 45.1902 38.3513C45.1902 38.3432 45.192 38.3351 45.1956 38.3278L45.8675 37.105L45.1419 36.6951L44.8731 37.1789C44.7898 37.3355 44.6859 37.4801 44.564 37.6089C44.4663 37.7006 44.3524 37.7735 44.2281 37.8239C44.1129 37.8695 43.9882 37.8856 43.8653 37.8709C43.7304 37.8587 43.5998 37.8174 43.4823 37.75M44.2348 34.525C44.2218 34.5296 44.2075 34.5296 44.1945 34.525C44.1945 34.525 44.1945 34.4914 44.1945 34.4645C44.1916 34.4287 44.1916 34.3928 44.1945 34.357C44.2082 34.2997 44.2262 34.2436 44.2483 34.189C44.2579 34.109 44.2759 34.0302 44.302 33.9539C44.3144 33.9176 44.3325 33.8836 44.3558 33.8531C44.3689 33.8342 44.3877 33.8201 44.4095 33.8128H44.4767H45.2628C45.3587 33.8243 45.4557 33.8243 45.5517 33.8128C45.6245 33.8027 45.695 33.7799 45.76 33.7456C45.816 33.7141 45.8642 33.6705 45.9011 33.6179C45.9398 33.5601 45.9692 33.4966 45.9884 33.4298L46.0355 33.3021L44.7723 32.8856C44.7723 32.8856 44.7723 32.8856 44.732 32.8856C44.7242 32.8662 44.7242 32.8445 44.732 32.8251C44.73 32.7915 44.73 32.7579 44.732 32.7243L44.779 32.5698L44.8328 32.422L44.8865 32.3279L44.9336 32.2876H44.9739L46.2303 32.7042L46.2773 32.5832C46.2896 32.5098 46.2896 32.4349 46.2773 32.3615C46.2807 32.2963 46.2668 32.2314 46.237 32.1734C46.2077 32.1082 46.1667 32.049 46.1161 31.9987C46.0507 31.9358 45.9811 31.8775 45.9078 31.824L45.2359 31.3604L45.2762 31.2663C45.2718 31.2419 45.2718 31.2169 45.2762 31.1924C45.2741 31.1566 45.2741 31.1207 45.2762 31.0849C45.2882 31.028 45.304 30.9719 45.3233 30.917C45.3425 30.8619 45.3649 30.8081 45.3905 30.7557C45.4035 30.7209 45.4192 30.6872 45.4375 30.6549L45.4845 30.6146C45.5018 30.6079 45.521 30.6079 45.5383 30.6146C45.5383 30.6146 45.5383 30.6146 45.5786 30.6146H45.6256L45.6928 30.6684L46.2505 31.0984C46.3426 31.1637 46.4281 31.238 46.5058 31.3201C46.5669 31.3768 46.619 31.4425 46.6603 31.5149C46.7015 31.5713 46.7312 31.6352 46.7477 31.7031C46.7514 31.7724 46.7514 31.842 46.7477 31.9113C46.783 31.8603 46.8261 31.8149 46.8753 31.777C46.9246 31.735 46.9817 31.703 47.0433 31.6829C47.1178 31.6588 47.1942 31.6408 47.2717 31.6291C47.3768 31.6214 47.4824 31.6214 47.5875 31.6291H48.3535H48.4274C48.4404 31.6245 48.4546 31.6245 48.4677 31.6291C48.4677 31.6291 48.4677 31.6627 48.4677 31.6896C48.4702 31.7232 48.4702 31.7569 48.4677 31.7904C48.4564 31.8453 48.4407 31.8993 48.4206 31.9517C48.405 32.007 48.3848 32.0609 48.3602 32.1129C48.3602 32.1532 48.3602 32.1935 48.3064 32.207C48.294 32.228 48.2752 32.2445 48.2527 32.254H48.1855H47.4531C47.3659 32.2466 47.2783 32.2466 47.1911 32.254C47.1254 32.2587 47.0613 32.277 47.003 32.3077C46.9508 32.339 46.9051 32.3801 46.8686 32.4287C46.8276 32.4861 46.7958 32.5496 46.7745 32.6168L46.7342 32.7445L47.9167 33.1342C47.9298 33.13 47.9439 33.13 47.957 33.1342C47.957 33.1342 47.957 33.1342 47.957 33.1946C47.9624 33.228 47.9624 33.262 47.957 33.2954C47.9476 33.3486 47.9318 33.4005 47.91 33.4499C47.8954 33.5004 47.8774 33.5497 47.8563 33.5978C47.8428 33.6315 47.8247 33.6631 47.8025 33.6918C47.7923 33.7106 47.7756 33.7249 47.7555 33.7321H47.7084L46.5864 33.4835L46.5461 33.6045C46.5203 33.671 46.5067 33.7415 46.5058 33.8128C46.5055 33.8733 46.5193 33.9331 46.5461 33.9875C46.5775 34.0494 46.6183 34.106 46.667 34.1554C46.7248 34.2173 46.7903 34.2714 46.8619 34.3167L47.4598 34.74C47.4782 34.7499 47.4942 34.7637 47.5069 34.7803C47.5136 34.8022 47.5136 34.8256 47.5069 34.8475C47.5123 34.8831 47.5123 34.9193 47.5069 34.955C47.4981 35.0127 47.4823 35.0691 47.4598 35.1229C47.4444 35.1762 47.4241 35.2279 47.3994 35.2775C47.3864 35.3101 47.3707 35.3416 47.3523 35.3715C47.3402 35.3886 47.3241 35.4025 47.3053 35.4118H47.2583H47.1777L47.0769 35.2976L46.5864 34.9214C46.5042 34.8611 46.4257 34.7961 46.3512 34.7265C46.296 34.6712 46.2465 34.6104 46.2034 34.5451C46.1707 34.4907 46.1458 34.4319 46.1295 34.3704C46.1193 34.3059 46.1193 34.2401 46.1295 34.1756C46.0809 34.2322 46.0269 34.284 45.9683 34.3301C45.9101 34.3716 45.8469 34.4054 45.7801 34.4309C45.7019 34.4597 45.6208 34.48 45.5383 34.4914C45.4264 34.4991 45.3142 34.4991 45.2023 34.4914H44.2483M46.5192 29.3918C46.3623 29.3091 46.2118 29.2148 46.069 29.1096C45.9671 29.0377 45.8803 28.9464 45.8137 28.8408C45.7491 28.7573 45.7095 28.6571 45.6995 28.5519C45.6793 28.4386 45.6793 28.3226 45.6995 28.2093V28.0749C45.6995 28.0346 45.6995 27.9943 45.7466 27.9539C45.7581 27.9207 45.7739 27.8891 45.7936 27.8599L45.8406 27.7994H45.8809H45.9414H46.0355H46.1698C46.2416 27.8015 46.3124 27.8175 46.3781 27.8464C46.4184 27.8464 46.4386 27.8935 46.4319 27.9204C46.4375 27.9378 46.4375 27.9566 46.4319 27.9741C46.4107 27.9911 46.3925 28.0115 46.3781 28.0346C46.3596 28.0621 46.3439 28.0913 46.3311 28.1219C46.3264 28.1621 46.3264 28.2027 46.3311 28.2429C46.3244 28.2761 46.3244 28.3104 46.3311 28.3436C46.3254 28.3747 46.3254 28.4066 46.3311 28.4377C46.354 28.4702 46.3811 28.4996 46.4117 28.525C46.4549 28.5656 46.5022 28.6017 46.5528 28.6326L48.9111 27.8464C48.9556 27.8387 49.001 27.8387 49.0455 27.8464C49.0571 27.841 49.0697 27.8382 49.0824 27.8382C49.0952 27.8382 49.1078 27.841 49.1194 27.8464C49.1291 27.8816 49.1291 27.9188 49.1194 27.9539C49.1244 28.0188 49.1244 28.0839 49.1194 28.1488C49.1194 28.2294 49.1194 28.2899 49.1194 28.3369C49.1153 28.3777 49.1015 28.4169 49.0791 28.4511C49.0686 28.4769 49.0497 28.4982 49.0253 28.5116L48.938 28.5452L47.8764 28.8744L47.5405 28.9819L47.1978 29.0693L47.5203 29.2238L47.8428 29.3918L48.8036 29.9024C48.8245 29.9144 48.8427 29.9304 48.8574 29.9494C48.8597 29.9695 48.8597 29.9898 48.8574 30.0099C48.8606 30.0479 48.8606 30.0861 48.8574 30.1241C48.8574 30.1712 48.8574 30.2383 48.8574 30.3123C48.861 30.3727 48.861 30.4333 48.8574 30.4937C48.8501 30.5294 48.8365 30.5636 48.8171 30.5944C48.8079 30.5998 48.7974 30.6025 48.7868 30.6025C48.7762 30.6025 48.7658 30.5998 48.7566 30.5944C48.7059 30.6072 48.6528 30.6072 48.6021 30.5944L46.5192 29.3918ZM45.9683 26.7042H45.9212C45.9151 26.6869 45.9151 26.6679 45.9212 26.6505C45.9161 26.6171 45.9161 26.5831 45.9212 26.5497C45.9168 26.4961 45.9168 26.4421 45.9212 26.3885V26.2205C45.9212 26.1802 45.9212 26.1466 45.9212 26.1197C45.9187 26.0996 45.9187 26.0793 45.9212 26.0592H45.9683L48.6558 25.9786V25.2664C48.2594 25.2261 47.9167 25.1925 47.6278 25.1455C47.372 25.1181 47.1183 25.0732 46.8686 25.0111C46.691 24.9723 46.5177 24.916 46.3512 24.8431C46.2326 24.7869 46.1237 24.7121 46.0287 24.6214C45.9482 24.5405 45.8883 24.4414 45.854 24.3325C45.8239 24.2114 45.8059 24.0876 45.8003 23.963C45.797 23.9407 45.797 23.918 45.8003 23.8958C45.8099 23.8772 45.8237 23.8611 45.8406 23.8487H45.9212H46.0489C46.1092 23.8419 46.17 23.8419 46.2303 23.8487H46.3311C46.3283 23.8585 46.3238 23.8676 46.3176 23.8756C46.3216 23.891 46.3216 23.9072 46.3176 23.9226C46.3206 23.9742 46.3343 24.0246 46.358 24.0705C46.3866 24.1284 46.4308 24.1772 46.4856 24.2116C46.5728 24.2618 46.6651 24.3024 46.7611 24.3325C46.9111 24.3794 47.0636 24.4175 47.218 24.4467L47.8899 24.5408C48.1586 24.5744 48.4811 24.6013 48.8574 24.6348C48.9215 24.6364 48.9841 24.655 49.0388 24.6886C49.0746 24.7245 49.0961 24.7723 49.0992 24.823L49.1463 26.4557C49.1498 26.4812 49.1474 26.5072 49.1392 26.5317C49.1311 26.5562 49.1174 26.5784 49.0992 26.5967C49.0778 26.6171 49.0524 26.6329 49.0247 26.6433C48.997 26.6537 48.9675 26.6584 48.938 26.6572L45.9683 26.7042ZM46.2101 23.2978H46.1026H46.0287H45.9683H45.9078C45.873 23.2701 45.8415 23.2385 45.8137 23.2037C45.7734 23.1567 45.7331 23.0962 45.6861 23.029C45.639 22.9619 45.6054 22.8745 45.5651 22.7804C45.5303 22.6768 45.5012 22.5714 45.4778 22.4647C45.4377 22.2583 45.4377 22.0462 45.4778 21.8398C45.5092 21.6521 45.5853 21.4747 45.6995 21.3225C45.8213 21.1605 45.9773 21.0275 46.1564 20.9328C46.3666 20.818 46.5932 20.7364 46.8283 20.6909C47.0804 20.6405 47.3387 20.6291 47.5942 20.6573C47.8061 20.6835 48.0099 20.7545 48.1922 20.8656C48.3646 20.9686 48.5097 21.1115 48.6155 21.2822C48.7341 21.4583 48.8142 21.6575 48.8506 21.8667C48.8603 21.956 48.8603 22.0461 48.8506 22.1354C48.8506 22.2228 48.8506 22.3034 48.8506 22.384C48.8421 22.4549 48.8264 22.5247 48.8036 22.5923C48.79 22.6398 48.7696 22.685 48.7431 22.7267L48.6961 22.7872C48.6783 22.7897 48.6602 22.7897 48.6424 22.7872C48.6157 22.7919 48.5884 22.7919 48.5617 22.7872H48.4475H48.3131C48.2841 22.7906 48.2548 22.7906 48.2258 22.7872C48.2085 22.7939 48.1893 22.7939 48.172 22.7872C48.1685 22.781 48.1666 22.7741 48.1666 22.767C48.1666 22.7599 48.1685 22.753 48.172 22.7469C48.159 22.7145 48.159 22.6784 48.172 22.6461L48.2392 22.4714C48.2735 22.4264 48.3049 22.3793 48.3333 22.3303C48.3495 22.2279 48.3495 22.1236 48.3333 22.0212C48.312 21.8989 48.2613 21.7836 48.1855 21.6853C48.1106 21.5942 48.0166 21.5208 47.91 21.4703C47.7855 21.4196 47.6542 21.3879 47.5203 21.3762C47.358 21.3707 47.1957 21.3842 47.0366 21.4165C46.8685 21.4436 46.7054 21.4957 46.5528 21.5711C46.434 21.6293 46.3269 21.7091 46.237 21.8062C46.1654 21.8944 46.1148 21.9978 46.0892 22.1086C46.0623 22.228 46.0623 22.3519 46.0892 22.4714C46.1054 22.5772 46.1394 22.6794 46.19 22.7737C46.2293 22.8444 46.2742 22.9118 46.3244 22.9753C46.3595 23.0225 46.4001 23.0653 46.4453 23.103C46.4714 23.1275 46.492 23.1573 46.5058 23.1903C46.5058 23.1903 46.5058 23.2239 46.5058 23.2306C46.5058 23.2373 46.5058 23.2306 46.5058 23.2642H46.4184H46.2773M46.1497 15.383L45.9145 15.1411C45.8672 15.0433 45.8061 14.9528 45.7331 14.8724C45.6843 14.8264 45.6273 14.7899 45.5651 14.7649C45.5054 14.7518 45.4435 14.7518 45.3837 14.7649C45.318 14.7778 45.2546 14.8004 45.1956 14.8321C45.1389 14.8652 45.0869 14.9059 45.0411 14.953C45.0049 15.0099 44.9819 15.0742 44.9739 15.1411C44.9601 15.2076 44.9601 15.2762 44.9739 15.3427C44.9979 15.4451 45.0388 15.5427 45.0948 15.6316L45.2628 15.9474L46.1497 15.383ZM44.087 17.271C44.0697 17.2778 44.0505 17.2778 44.0332 17.271C44.0332 17.271 44.0332 17.271 43.9795 17.2374L43.919 17.1568C43.8863 17.1121 43.8571 17.0649 43.8317 17.0157L43.7645 16.8746C43.7586 16.8413 43.7586 16.8072 43.7645 16.7738C43.7578 16.7519 43.7578 16.7285 43.7645 16.7066C43.7609 16.6957 43.7609 16.6839 43.7645 16.673L44.8529 16.0818L44.7387 15.8601C44.7031 15.7895 44.6554 15.7259 44.5976 15.6719C44.5549 15.6308 44.5013 15.6028 44.4431 15.5913C44.3786 15.5801 44.3127 15.5801 44.2483 15.5913H44.0064L43.1867 15.813C43.1672 15.8202 43.1457 15.8202 43.1262 15.813C43.1262 15.813 43.0859 15.813 43.0657 15.7794C43.0379 15.7532 43.0131 15.7239 42.9918 15.6921C42.9918 15.6518 42.9381 15.598 42.9045 15.5376C42.8746 15.483 42.8477 15.427 42.8239 15.3696C42.817 15.3363 42.817 15.302 42.8239 15.2688C42.8197 15.2489 42.8197 15.2283 42.8239 15.2083H42.8843H42.9986L43.6704 15.1143H43.9123C43.9794 15.1103 44.0467 15.1103 44.1139 15.1143C44.1746 15.1263 44.2334 15.1466 44.2886 15.1747C44.3438 15.1956 44.3941 15.2276 44.4364 15.2688C44.4265 15.1683 44.4265 15.067 44.4364 14.9665C44.4399 14.8768 44.4581 14.7883 44.4901 14.7044C44.5266 14.6228 44.5766 14.5478 44.6379 14.4827C44.7078 14.4108 44.7896 14.3517 44.8798 14.308C45.0013 14.2376 45.1365 14.194 45.2762 14.1803C45.4063 14.168 45.5375 14.1864 45.6592 14.2341C45.792 14.2917 45.9128 14.3738 46.0153 14.476C46.1621 14.6353 46.2864 14.8138 46.3848 15.0068L46.7678 15.7257C46.7872 15.773 46.7872 15.8261 46.7678 15.8735C46.7589 15.9008 46.744 15.9259 46.7243 15.9468C46.7045 15.9677 46.6804 15.984 46.6536 15.9944L44.087 17.271ZM43.7309 11.8288L42.2864 12.3864L42.8373 13.1255L43.7309 11.8288ZM42.7432 14.5163C42.7185 14.5594 42.6867 14.598 42.6492 14.6305C42.6405 14.6422 42.6294 14.6518 42.6166 14.6588C42.6039 14.6657 42.5898 14.6698 42.5753 14.6708C42.5414 14.6586 42.5113 14.6377 42.4879 14.6104L42.2864 14.5364L42.1654 14.3752C42.1425 14.3445 42.1244 14.3105 42.1117 14.2744C42.1069 14.265 42.1045 14.2547 42.1045 14.2442C42.1045 14.2337 42.1069 14.2233 42.1117 14.2139C42.108 14.2055 42.1061 14.1963 42.1061 14.1871C42.1061 14.1778 42.108 14.1687 42.1117 14.1602L42.4946 13.5757L41.7623 12.588L41.0904 12.8231H41.0232H40.9627C40.9324 12.8053 40.9051 12.7826 40.8821 12.756L40.7679 12.6149L40.6873 12.4536C40.6765 12.4209 40.6765 12.3856 40.6873 12.3528C40.6966 12.3264 40.7159 12.3047 40.741 12.2924L40.8821 12.2319L43.8317 11.2308H43.9123C43.9366 11.2253 43.9619 11.2253 43.9862 11.2308C44.0186 11.2564 44.048 11.2857 44.0736 11.3181C44.1139 11.3584 44.1542 11.4122 44.2079 11.4794L44.3558 11.6742C44.383 11.7117 44.4055 11.7523 44.4229 11.7952C44.4322 11.8235 44.4322 11.8541 44.4229 11.8825C44.4134 11.9091 44.3998 11.934 44.3826 11.9564L42.7432 14.5163ZM41.3995 9.62498C41.442 9.57846 41.4781 9.52649 41.507 9.47045C41.5201 9.4175 41.5201 9.36215 41.507 9.3092C41.4989 9.25167 41.4782 9.19662 41.4465 9.14795C41.4018 9.07604 41.3475 9.01049 41.2852 8.9531L40.9426 8.80529L40.3581 9.43014L40.6335 9.69217C40.69 9.74814 40.756 9.79364 40.8284 9.82655C40.8859 9.83954 40.9456 9.83954 41.0031 9.82655C41.0571 9.826 41.1102 9.81215 41.1576 9.78624C41.2094 9.76015 41.2551 9.72353 41.292 9.67873M40.4521 10.8344C40.4971 10.781 40.5355 10.7223 40.5663 10.6597C40.5792 10.5976 40.5792 10.5336 40.5663 10.4716C40.5569 10.3997 40.5316 10.3309 40.4924 10.27C40.4394 10.1825 40.3711 10.1051 40.2909 10.0416L40.0355 9.76608L39.3637 10.438L39.7198 10.7672C39.7757 10.8256 39.8417 10.8734 39.9146 10.9083C39.9708 10.9383 40.0325 10.9566 40.096 10.962C40.1558 10.9747 40.2176 10.9747 40.2774 10.962C40.3386 10.9356 40.3935 10.8967 40.4387 10.8478M40.9627 11.3114C40.8899 11.3901 40.8062 11.4579 40.7141 11.513C40.629 11.5601 40.5354 11.5898 40.4387 11.6003C40.3454 11.617 40.2498 11.617 40.1565 11.6003C40.0595 11.5851 39.9647 11.558 39.8743 11.5197C39.7794 11.4788 39.6874 11.4317 39.5988 11.3786C39.5009 11.3073 39.4067 11.2311 39.3166 11.1502L38.6783 10.5455C38.6576 10.5292 38.6403 10.5089 38.6276 10.4859C38.6149 10.4628 38.607 10.4373 38.6044 10.4111C38.6033 10.3809 38.6087 10.3509 38.6203 10.3231C38.6319 10.2952 38.6494 10.2702 38.6716 10.2498L40.647 8.1334C40.6654 8.11013 40.6889 8.09137 40.7157 8.07856C40.7425 8.06575 40.7718 8.05923 40.8015 8.0595C40.8547 8.06025 40.9054 8.08199 40.9426 8.11997L41.5473 8.68435C41.679 8.80034 41.7942 8.9337 41.8899 9.08076C41.9682 9.18675 42.0232 9.30811 42.0512 9.43686C42.078 9.5495 42.078 9.66687 42.0512 9.77952C42.0125 9.90238 41.9431 10.0134 41.8496 10.102C41.798 10.1586 41.7393 10.2083 41.6749 10.2498C41.6134 10.2892 41.5451 10.3166 41.4734 10.3305C41.4043 10.3405 41.3342 10.3405 41.2651 10.3305C41.1914 10.3221 41.1191 10.304 41.0501 10.2767C41.1031 10.3514 41.146 10.4327 41.1777 10.5186C41.2042 10.6034 41.2178 10.6918 41.2181 10.7806C41.2108 10.8726 41.1905 10.9631 41.1576 11.0494C41.1153 11.1464 41.0562 11.2351 40.9829 11.3114M38.2551 8.09309C38.3419 7.95916 38.4161 7.81746 38.4768 7.66981C38.5329 7.54985 38.5627 7.41926 38.5641 7.28683C38.5661 7.16686 38.536 7.04854 38.4768 6.94417C38.4007 6.82318 38.2971 6.72189 38.1744 6.64854C38.0666 6.56879 37.9397 6.51874 37.8065 6.50342C37.6733 6.48809 37.5383 6.50801 37.4152 6.5612C37.2952 6.61791 37.186 6.69522 37.0927 6.78964C36.9866 6.89586 36.892 7.01297 36.8105 7.13902C36.7202 7.27437 36.6437 7.41843 36.5821 7.56902C36.5259 7.68898 36.4962 7.81956 36.4947 7.952C36.4902 8.07224 36.5206 8.19123 36.5821 8.29466C36.66 8.41415 36.7632 8.51507 36.8844 8.59028C37.002 8.67205 37.1384 8.72289 37.2808 8.7381C37.4048 8.74545 37.5288 8.72478 37.6436 8.67763C37.7667 8.62279 37.8784 8.5453 37.9729 8.44919C38.0774 8.33918 38.1719 8.22 38.2551 8.09309ZM38.8665 8.44919C38.7313 8.66013 38.566 8.85026 38.376 9.01357C38.2124 9.14943 38.0226 9.25007 37.8183 9.3092C37.6172 9.35618 37.408 9.35618 37.2069 9.3092C36.9668 9.26307 36.7384 9.16941 36.535 9.03373C36.3416 8.90962 36.1692 8.75538 36.0244 8.57685C35.9057 8.42317 35.8252 8.24358 35.7892 8.05278C35.7608 7.84975 35.7792 7.64291 35.843 7.44808C35.9201 7.20832 36.0334 6.98174 36.1789 6.7762C36.3078 6.56645 36.4714 6.38014 36.6627 6.22526C36.8226 6.08916 37.0108 5.99046 37.2136 5.93635C37.4143 5.886 37.6244 5.886 37.8251 5.93635C38.0656 5.98104 38.2943 6.07481 38.4969 6.21182C38.6896 6.33171 38.8601 6.48401 39.0008 6.66198C39.1221 6.8141 39.203 6.99435 39.236 7.18605C39.2678 7.38587 39.254 7.59028 39.1957 7.78403C39.1202 8.0232 39.0092 8.24968 38.8665 8.45591M36.2394 5.24431C36.2235 5.2845 36.2033 5.32281 36.1789 5.35853C36.1663 5.38465 36.1479 5.40761 36.1252 5.42572C36.1097 5.42943 36.0936 5.42943 36.0782 5.42572C36.063 5.43138 36.0463 5.43138 36.0311 5.42572L35.03 4.96884L33.908 7.40105C33.9121 7.41417 33.9121 7.42824 33.908 7.44136H33.8475H33.7467L33.5922 7.37418L33.4511 7.30027C33.4179 7.28683 33.388 7.26618 33.3638 7.2398C33.3462 7.22539 33.3323 7.20695 33.3234 7.18605C33.3234 7.18605 33.3234 7.18605 33.3234 7.13902L34.5731 4.39102C34.5941 4.33741 34.635 4.29404 34.6874 4.27008C34.737 4.25026 34.7923 4.25026 34.8419 4.27008L36.2797 4.94196C36.2797 4.94196 36.32 4.98227 36.32 5.02931C36.313 5.10277 36.29 5.17383 36.2528 5.23759M32.282 5.0629C32.3288 4.90992 32.3581 4.75214 32.3694 4.59258C32.3829 4.46173 32.3715 4.3295 32.3358 4.20289C32.3003 4.08944 32.2354 3.98743 32.1476 3.90726C32.0404 3.81726 31.914 3.75292 31.7781 3.71913C31.6375 3.67952 31.4887 3.67952 31.3481 3.71913C31.2279 3.74628 31.1168 3.80415 31.0256 3.8871C30.926 3.97375 30.8439 4.07866 30.7837 4.19617C30.7179 4.33005 30.6639 4.46944 30.6225 4.61274C30.5793 4.76007 30.5478 4.91059 30.5284 5.0629C30.5036 5.19161 30.5036 5.32388 30.5284 5.45259C30.5628 5.56846 30.6278 5.67291 30.7165 5.75494C30.8261 5.84525 30.9548 5.90957 31.0928 5.94307C31.2316 5.97891 31.3773 5.97891 31.5161 5.94307C31.6373 5.91332 31.75 5.85582 31.8453 5.7751C31.9436 5.68206 32.0254 5.57301 32.0872 5.45259C32.1637 5.32884 32.229 5.19841 32.282 5.0629ZM32.9539 5.22415C32.8874 5.46203 32.7855 5.68853 32.6516 5.89603C32.5448 6.09795 32.3931 6.27265 32.2081 6.40667C32.0321 6.51315 31.8348 6.57967 31.6303 6.60151C31.4037 6.61903 31.1758 6.59396 30.9584 6.5276C30.7359 6.46894 30.5247 6.37357 30.3336 6.24541C30.172 6.13625 30.0404 5.98843 29.9506 5.81541C29.8623 5.63318 29.8164 5.43335 29.8162 5.23087C29.8189 4.97372 29.8574 4.7182 29.9304 4.47164C29.9964 4.23471 30.0959 4.00844 30.2261 3.79976C30.342 3.62319 30.4929 3.47227 30.6695 3.35632C30.8446 3.24795 31.0423 3.18128 31.2473 3.16147C31.474 3.14125 31.7024 3.16637 31.9192 3.23538C32.1388 3.29312 32.3476 3.38615 32.5373 3.51085C32.697 3.62021 32.8264 3.76812 32.9136 3.94086C33.0032 4.1205 33.0514 4.31795 33.0547 4.51867C33.0587 4.77361 33.0225 5.02758 32.9472 5.27118M28.6606 5.84228C28.6643 5.85546 28.6643 5.86942 28.6606 5.8826C28.6407 5.88744 28.62 5.88744 28.6001 5.8826H28.4993H28.3313H28.1701H28.0693C28.0495 5.87485 28.033 5.86065 28.0223 5.84228C28.0174 5.83543 28.0147 5.82721 28.0147 5.81877C28.0147 5.81033 28.0174 5.80211 28.0223 5.79525L28.2776 3.10772L27.5654 3.04053C27.4781 3.43022 27.3974 3.75945 27.3235 4.04836C27.2496 4.33727 27.169 4.57914 27.0884 4.78743C27.0295 4.95842 26.9529 5.1228 26.8599 5.2779C26.7922 5.39035 26.7032 5.48849 26.5979 5.56681C26.508 5.63713 26.4016 5.68338 26.2888 5.70119C26.166 5.71529 26.0421 5.71529 25.9193 5.70119H25.8521L25.8118 5.66088C25.8075 5.63192 25.8075 5.60249 25.8118 5.57353C25.8084 5.53105 25.8084 5.48836 25.8118 5.44587C25.8118 5.37197 25.8118 5.3115 25.8118 5.27118C25.8023 5.23826 25.8023 5.20332 25.8118 5.1704C25.8106 5.14686 25.8172 5.12358 25.8306 5.10416C25.8439 5.08473 25.8633 5.07024 25.8857 5.0629H25.9394C25.9905 5.07287 26.0429 5.07287 26.094 5.0629C26.152 5.03455 26.2044 4.99584 26.2485 4.94868C26.3079 4.86985 26.3575 4.78412 26.3963 4.69336C26.4686 4.55226 26.525 4.40353 26.5643 4.24992C26.6248 4.07523 26.6852 3.84679 26.7524 3.57804C26.8196 3.30929 26.8868 2.9935 26.9607 2.63068C26.9726 2.5646 27.0002 2.50236 27.0413 2.44928C27.0866 2.43097 27.1372 2.43097 27.1824 2.44928L28.8084 2.60381C28.8344 2.60431 28.8599 2.6106 28.8832 2.62222C28.9064 2.63384 28.9268 2.65051 28.9428 2.671C28.9543 2.69632 28.9602 2.72381 28.9602 2.75162C28.9602 2.77944 28.9543 2.80693 28.9428 2.83225L28.6606 5.84228ZM23.6752 3.04725L23.3124 4.48508L24.253 4.41789L23.6752 3.04725ZM25.3818 5.35853C25.3818 5.419 25.4221 5.47275 25.4288 5.50634C25.4359 5.5186 25.4396 5.5325 25.4396 5.54666C25.4396 5.56081 25.4359 5.57471 25.4288 5.58697C25.404 5.61229 25.3702 5.62678 25.3347 5.62728H25.1332H24.9316H24.8174H24.7636C24.7624 5.60939 24.7624 5.59142 24.7636 5.57353L24.4949 4.90165L23.2049 5.0629L23.0436 5.73478C23.0474 5.75702 23.0474 5.77973 23.0436 5.80197C23.033 5.82033 23.0164 5.83454 22.9966 5.84228H22.8891H22.7144H22.5263C22.4918 5.84359 22.4581 5.83156 22.4322 5.80869C22.4262 5.79609 22.4231 5.78232 22.4231 5.76838C22.4231 5.75443 22.4262 5.74066 22.4322 5.72806C22.4247 5.67908 22.4247 5.62924 22.4322 5.58025L23.2116 2.57693C23.2067 2.55254 23.2067 2.52742 23.2116 2.50303C23.2273 2.48231 23.2481 2.46609 23.2721 2.45599C23.3122 2.45071 23.3529 2.45071 23.393 2.45599H23.608H23.8432H23.991C24.0193 2.46117 24.0452 2.4753 24.0649 2.49631C24.0825 2.5184 24.0962 2.54341 24.1052 2.57021L25.3818 5.35853ZM21.6999 5.86916C21.7066 5.88644 21.7066 5.90563 21.6999 5.92291L21.6595 5.96994L21.5588 6.01025C21.51 6.03372 21.4578 6.04958 21.4042 6.05729C21.3517 6.07358 21.2977 6.08483 21.243 6.09088H21.1422C21.1203 6.09762 21.0969 6.09762 21.075 6.09088C21.0719 6.07763 21.0719 6.06382 21.075 6.05057L20.7189 4.74711L19.5162 5.0629L19.8387 6.36635C19.8419 6.37379 19.8435 6.38179 19.8435 6.38987C19.8435 6.39795 19.8419 6.40594 19.8387 6.41338L19.7917 6.46042L19.6977 6.50745L19.5431 6.55448H19.3819C19.3462 6.55992 19.31 6.55992 19.2744 6.55448C19.2545 6.55932 19.2338 6.55932 19.2139 6.55448C19.2109 6.54818 19.2094 6.5413 19.2094 6.53432C19.2094 6.52735 19.2109 6.52047 19.2139 6.51417L18.4211 3.47054C18.4183 3.45498 18.4183 3.43906 18.4211 3.42351L18.4614 3.37647L18.5622 3.33616L18.7167 3.28241H18.878H18.9855C19.0048 3.27457 19.0265 3.27457 19.0459 3.28241V3.32272L19.3416 4.50524L20.5442 4.20289L20.2486 3.02038C20.2455 3.01293 20.2438 3.00494 20.2438 2.99686C20.2438 2.98878 20.2455 2.98079 20.2486 2.97334C20.258 2.9546 20.2718 2.93844 20.2889 2.92631L20.383 2.87928L20.5442 2.83225L20.7055 2.79865H20.8063C20.8257 2.79081 20.8473 2.79081 20.8667 2.79865H20.9003L21.6999 5.86916ZM13.4626 6.19838L13.1737 6.40667C13.0761 6.45947 12.9877 6.52752 12.9116 6.60823C12.8662 6.65771 12.8339 6.71776 12.8176 6.78292C12.8009 6.84225 12.8009 6.905 12.8176 6.96433C12.8388 7.02717 12.8657 7.0879 12.8982 7.14574C12.934 7.20252 12.9794 7.25256 13.0326 7.29355C13.0826 7.32999 13.1399 7.3552 13.2005 7.36746C13.2671 7.38067 13.3356 7.38067 13.4021 7.36746C13.5013 7.33439 13.5961 7.28926 13.6843 7.23308L13.9866 7.03824L13.4626 6.19838ZM15.4782 8.1334C15.4814 8.14085 15.483 8.14884 15.483 8.15692C15.483 8.165 15.4814 8.17299 15.4782 8.18044C15.4844 8.19783 15.4844 8.2168 15.4782 8.23419L15.4043 8.30809L15.2699 8.40216L15.1288 8.48278L15.0281 8.5231H14.9609C14.9573 8.51219 14.9573 8.50041 14.9609 8.4895L14.289 7.44136L14.0807 7.57574C14.011 7.61527 13.9494 7.66772 13.8993 7.73027C13.8641 7.776 13.8389 7.82867 13.8254 7.88481C13.8152 7.94936 13.8152 8.0151 13.8254 8.07965C13.8334 8.1611 13.8468 8.24191 13.8657 8.32153L14.0404 9.0606V9.12779C14.0306 9.15218 14.017 9.17485 14.0001 9.19498L13.9195 9.26889L13.7716 9.36295C13.7205 9.39853 13.6666 9.42998 13.6104 9.45701L13.5096 9.49733H13.3954H13.3618V9.43686C13.3478 9.39965 13.3366 9.36147 13.3282 9.32264L13.1938 8.65075C13.1741 8.57154 13.1629 8.49046 13.1602 8.40888C13.1535 8.33961 13.1535 8.26986 13.1602 8.20059C13.172 8.14137 13.1877 8.08301 13.2073 8.0259C13.2294 7.97076 13.2588 7.91879 13.2946 7.87137C13.1986 7.90105 13.0993 7.91909 12.999 7.92512C12.9102 7.94201 12.819 7.94201 12.7302 7.92512C12.6459 7.89594 12.5683 7.85026 12.5018 7.79074C12.4235 7.72703 12.3575 7.64962 12.3069 7.5623C12.2299 7.4465 12.1773 7.31618 12.1524 7.17933C12.1297 7.04871 12.1413 6.91444 12.186 6.78964C12.2342 6.65217 12.307 6.52466 12.401 6.41338C12.551 6.25791 12.7203 6.12241 12.9049 6.01025L13.5768 5.58025C13.6226 5.56489 13.6721 5.56489 13.7179 5.58025C13.7472 5.58619 13.7747 5.59904 13.7981 5.61773C13.8215 5.63643 13.84 5.66043 13.8523 5.68775L15.4782 8.1334ZM10.1032 8.8456L10.6944 10.1894L11.3797 9.59139L10.1032 8.8456ZM12.8579 9.65186C12.9041 9.67519 12.947 9.70456 12.9855 9.7392C12.9975 9.74754 13.0074 9.75857 13.0144 9.7714C13.0214 9.78422 13.0253 9.79851 13.0259 9.81311C13.0167 9.84679 12.998 9.87712 12.9721 9.90046C12.9721 9.94077 12.8915 9.98108 12.831 10.0416C12.7804 10.0879 12.7265 10.1306 12.6698 10.1692L12.5824 10.2364C12.5604 10.2421 12.5373 10.2421 12.5152 10.2364H12.4615L11.8501 9.88702L10.9229 10.7134L11.1983 11.3383C11.2009 11.3606 11.2009 11.3832 11.1983 11.4055C11.2031 11.4149 11.2055 11.4252 11.2055 11.4357C11.2055 11.4462 11.2031 11.4566 11.1983 11.4659C11.1809 11.4986 11.1582 11.5281 11.1311 11.5533C11.1311 11.5869 11.0572 11.6272 11.0035 11.6809L10.8624 11.7952C10.8354 11.816 10.8024 11.8278 10.7683 11.8288C10.7428 11.8217 10.721 11.8048 10.7079 11.7817C10.6801 11.7398 10.6575 11.6947 10.6407 11.6474L9.44472 8.76497C9.43175 8.7425 9.42492 8.71701 9.42492 8.69107C9.42492 8.66512 9.43175 8.63963 9.44472 8.61716L9.52535 8.51638L9.67988 8.37528L9.86129 8.22075C9.89711 8.18768 9.93792 8.16047 9.98223 8.14012C10.0088 8.13469 10.0363 8.13469 10.0629 8.14012L10.1435 8.17372L12.8579 9.65186ZM10.2443 12.2991C10.2472 12.3054 10.2488 12.3123 10.2488 12.3192C10.2488 12.3262 10.2472 12.3331 10.2443 12.3394C10.2506 12.3613 10.2506 12.3846 10.2443 12.4066L10.1972 12.4939C10.1696 12.5412 10.1381 12.5861 10.1032 12.6283L9.98895 12.7492C9.96803 12.7754 9.94308 12.7981 9.91504 12.8164C9.89552 12.8236 9.87408 12.8236 9.85457 12.8164C9.84724 12.82 9.8392 12.8218 9.83105 12.8218C9.8229 12.8218 9.81486 12.82 9.80754 12.8164L8.74596 11.9833L7.9733 12.9575L9.02143 13.7974C9.02442 13.8037 9.02597 13.8106 9.02597 13.8175C9.02597 13.8245 9.02442 13.8314 9.02143 13.8377C9.02143 13.8377 9.02143 13.8713 9.02143 13.8982C9.00986 13.9314 8.99405 13.963 8.9744 13.9922C8.94675 14.0395 8.91529 14.0844 8.88034 14.1266C8.84562 14.17 8.80742 14.2104 8.76612 14.2475C8.74465 14.2757 8.71709 14.2987 8.68549 14.3147C8.6681 14.3209 8.64913 14.3209 8.63174 14.3147C8.6243 14.3179 8.6163 14.3195 8.60823 14.3195C8.60015 14.3195 8.59215 14.3179 8.58471 14.3147L6.15249 12.3663C6.13793 12.356 6.12634 12.3421 6.1189 12.326C6.11321 12.3039 6.11321 12.2808 6.1189 12.2588C6.1189 12.2588 6.1189 12.205 6.16593 12.1647L6.25999 12.037L6.3675 11.9094C6.39453 11.8844 6.42376 11.8619 6.45484 11.8422H6.50859H6.55562L7.5097 12.6081L8.28236 11.6339L7.34844 10.868C7.34844 10.868 7.34844 10.868 7.34844 10.8277C7.3421 10.8057 7.3421 10.7824 7.34844 10.7605C7.36165 10.7301 7.37738 10.7009 7.39548 10.6731C7.42409 10.6248 7.45788 10.5797 7.49626 10.5387L7.60376 10.4111L7.67767 10.3439H7.74486H7.79189L10.2443 12.2991ZM7.01922 15.074C6.95197 15.0365 6.8795 15.0093 6.80422 14.9933C6.74036 14.9765 6.67324 14.9765 6.60937 14.9933C6.53782 15.0144 6.47298 15.0538 6.42125 15.1075C6.3395 15.1903 6.27146 15.2856 6.21968 15.3897L6.00468 15.7526L6.93188 16.2699L7.12672 15.9138C7.19029 15.8103 7.23573 15.6967 7.2611 15.5779C7.27903 15.505 7.27903 15.429 7.2611 15.3561C7.24236 15.2925 7.20767 15.2347 7.16032 15.1882C7.1214 15.141 7.07342 15.1022 7.01922 15.074ZM7.30813 14.4357C7.43464 14.5111 7.54998 14.6038 7.65079 14.7111C7.74281 14.818 7.80943 14.9444 7.84564 15.0807C7.87942 15.2379 7.87942 15.4005 7.84564 15.5577C7.79399 15.794 7.70557 16.0207 7.5836 16.2296L7.18047 16.9552L7.12672 17.0224C7.10721 17.0296 7.08577 17.0296 7.06625 17.0224C7.03978 17.029 7.0121 17.029 6.98563 17.0224C6.95456 17.0284 6.92263 17.0284 6.89156 17.0224L4.25106 15.5443V15.4838C4.25964 15.4463 4.2732 15.4102 4.29138 15.3763C4.31215 15.3273 4.33686 15.2802 4.36528 15.2352C4.38882 15.1863 4.41576 15.1392 4.44591 15.0941L4.5131 15.0135C4.53049 15.0073 4.54946 15.0073 4.56685 15.0135C4.58413 15.0067 4.60332 15.0067 4.6206 15.0135L5.60155 15.5644L5.82999 15.1546C5.92469 14.9766 6.04214 14.8118 6.17937 14.6641C6.27965 14.5609 6.40115 14.4806 6.53547 14.4289C6.65947 14.3812 6.79285 14.3628 6.92516 14.3752C7.07154 14.3875 7.21359 14.431 7.34173 14.5029M6.57578 17.9698C6.57578 17.9698 6.57578 17.9698 6.61609 17.9698C6.6564 17.9698 6.61609 18.0034 6.61609 18.0302C6.61819 18.066 6.61819 18.1019 6.61609 18.1377C6.6011 18.1902 6.58315 18.2418 6.56234 18.2923C6.54565 18.3451 6.52545 18.3967 6.50187 18.4468C6.48907 18.4774 6.47332 18.5066 6.45484 18.5341C6.44043 18.5517 6.42199 18.5655 6.40109 18.5745C6.39376 18.578 6.38572 18.5799 6.37757 18.5799C6.36943 18.5799 6.36138 18.578 6.35406 18.5745L3.82106 17.6943L3.5859 18.3662C3.942 18.5476 4.25778 18.7088 4.49966 18.8499C4.74154 18.991 4.9767 19.1321 5.17154 19.2531C5.32118 19.3588 5.46267 19.4756 5.59483 19.6024C5.68682 19.6949 5.75986 19.8045 5.80983 19.9249C5.85627 20.0305 5.87478 20.1462 5.86358 20.2609C5.85364 20.385 5.82651 20.5071 5.78296 20.6237C5.77329 20.6425 5.76205 20.6605 5.74936 20.6775C5.74386 20.687 5.73607 20.6951 5.7267 20.701C5.71732 20.7069 5.70664 20.7103 5.69561 20.7111C5.66917 20.7179 5.64143 20.7179 5.61499 20.7111L5.48733 20.6707L5.3328 20.6035C5.29787 20.5928 5.26575 20.5744 5.23873 20.5498C5.22679 20.549 5.21517 20.5456 5.20471 20.5398C5.19425 20.534 5.18522 20.5259 5.17826 20.5162C5.175 20.5007 5.175 20.4847 5.17826 20.4692C5.18806 20.4181 5.18806 20.3657 5.17826 20.3146C5.17021 20.2507 5.14463 20.1903 5.10436 20.1399C5.04405 20.06 4.97409 19.9878 4.89607 19.9249C4.77499 19.8263 4.64701 19.7365 4.5131 19.6562C4.35185 19.5577 4.15028 19.4434 3.9084 19.3135C3.66653 19.1792 3.37762 19.0381 3.04839 18.8701C2.98686 18.8479 2.93315 18.8082 2.89386 18.7559C2.88388 18.7325 2.87874 18.7074 2.87874 18.682C2.87874 18.6566 2.88388 18.6314 2.89386 18.6081L3.44481 17.0694C3.45271 17.0444 3.46576 17.0213 3.48312 17.0017C3.50048 16.982 3.52175 16.9662 3.54559 16.9552C3.57091 16.9437 3.5984 16.9378 3.62621 16.9378C3.65403 16.9378 3.68152 16.9437 3.70684 16.9552L6.57578 17.9698ZM2.68558 22.1489L3.98903 22.8611L4.15028 21.9339L2.68558 22.1489ZM5.37311 21.0671C5.42448 21.0618 5.47627 21.0618 5.52764 21.0671C5.52764 21.0671 5.58811 21.0671 5.60155 21.1007C5.61499 21.1343 5.60155 21.1545 5.60155 21.2015C5.60155 21.2486 5.60155 21.3157 5.60155 21.3964C5.60155 21.477 5.56796 21.5509 5.56124 21.5979C5.55452 21.645 5.56124 21.6853 5.56124 21.7122L5.52092 21.7525C5.50132 21.7591 5.48006 21.7591 5.46045 21.7525L4.78857 21.8533L4.57357 23.0895L5.17826 23.4053H5.23201C5.23686 23.4252 5.23686 23.4459 5.23201 23.4658C5.23874 23.5013 5.23874 23.5378 5.23201 23.5733C5.23704 23.6314 5.23704 23.6898 5.23201 23.748C5.22298 23.8093 5.2095 23.87 5.1917 23.9294C5.19048 23.9464 5.18566 23.963 5.17755 23.9781C5.16945 23.9931 5.15824 24.0063 5.14467 24.0167C5.11646 24.027 5.08553 24.027 5.05732 24.0167L4.92295 23.9495L2.10104 22.4848L2.03385 22.4378C2.02787 22.4135 2.02787 22.3882 2.03385 22.3639C2.02777 22.3238 2.02777 22.283 2.03385 22.2429C2.03385 22.1892 2.03385 22.122 2.03385 22.0347C2.03385 21.9473 2.03385 21.8533 2.08088 21.7928C2.0915 21.7472 2.10497 21.7023 2.1212 21.6584C2.13559 21.6354 2.15376 21.6149 2.17495 21.5979C2.20355 21.5902 2.23369 21.5902 2.26229 21.5979L5.37311 21.0671ZM2.79308 24.9372C2.69364 24.9276 2.59349 24.9462 2.50417 24.9909C2.4374 25.0234 2.3797 25.0719 2.3362 25.132C2.2962 25.1901 2.27084 25.2569 2.26229 25.3269C2.25502 25.3939 2.25502 25.4615 2.26229 25.5285V25.8174H3.38434V25.515C3.37518 25.4291 3.3525 25.3452 3.31715 25.2664C3.29452 25.1994 3.25521 25.1393 3.20293 25.0917C3.14968 25.0399 3.08535 25.0008 3.0148 24.9775C2.93945 24.9501 2.8598 24.9365 2.77964 24.9372M2.77964 24.225C2.9479 24.2285 3.11411 24.2626 3.27012 24.3258C3.40717 24.388 3.52877 24.4798 3.62621 24.5945C3.72803 24.7156 3.80149 24.858 3.84122 25.0111C3.8908 25.1972 3.9112 25.3899 3.90169 25.5822V25.8913H4.96326C4.9763 25.8867 4.99053 25.8867 5.00357 25.8913C5.00976 25.9109 5.00976 25.9321 5.00357 25.9517C5.0061 25.9853 5.0061 26.019 5.00357 26.0525C5.00699 26.1062 5.00699 26.1601 5.00357 26.2138C5.00772 26.2697 5.00772 26.3258 5.00357 26.3817C5.00801 26.4152 5.00801 26.4491 5.00357 26.4825C5.00686 26.5003 5.00686 26.5185 5.00357 26.5363H4.95654L1.96666 26.4557C1.9345 26.457 1.90239 26.4517 1.87235 26.4402C1.8423 26.4286 1.81494 26.411 1.79197 26.3885C1.75171 26.3419 1.73017 26.282 1.7315 26.2205V25.4344V25.2127C1.74042 25.1269 1.75388 25.0417 1.77182 24.9574C1.80023 24.8544 1.84083 24.7551 1.89276 24.6617C1.94522 24.5641 2.01592 24.4774 2.10104 24.4064C2.18444 24.3323 2.28305 24.2772 2.38995 24.2452C2.51013 24.2113 2.63466 24.1954 2.75948 24.1981M4.77513 27.4299H4.90279H4.98342C4.99887 27.4262 5.01499 27.4262 5.03045 27.4299C5.03359 27.4373 5.03521 27.4453 5.03521 27.4534C5.03521 27.4615 5.03359 27.4695 5.03045 27.4769L5.22529 29.1297C5.22985 29.1822 5.21556 29.2346 5.18498 29.2776C5.1683 29.3016 5.14626 29.3213 5.1206 29.3353C5.09494 29.3493 5.06638 29.3571 5.03717 29.3582L2.15479 29.6874C2.1257 29.6958 2.09492 29.6965 2.06547 29.6895C2.03603 29.6824 2.00892 29.6678 1.98682 29.6471C1.95039 29.6135 1.92666 29.5685 1.91963 29.5194L1.7651 27.9069C1.76195 27.8937 1.76195 27.8799 1.7651 27.8666C1.77533 27.852 1.78924 27.8405 1.80541 27.833C1.83206 27.8281 1.85939 27.8281 1.88604 27.833H2.01369H2.13463H2.21526C2.23052 27.8279 2.24703 27.8279 2.26229 27.833C2.2669 27.8461 2.2669 27.8603 2.26229 27.8733L2.40339 29.0491L3.20293 28.9551L3.11558 27.9472C3.11046 27.932 3.11046 27.9155 3.11558 27.9002L3.1559 27.8666C3.18017 27.8606 3.20553 27.8606 3.2298 27.8666H3.35074H3.55231H3.59934V27.9069L3.71356 28.9013L4.66091 28.7804L4.52654 27.5911C4.52327 27.5756 4.52327 27.5596 4.52654 27.5441C4.53677 27.5295 4.55068 27.5179 4.56685 27.5105C4.5935 27.5056 4.62083 27.5056 4.64748 27.5105H4.76841M2.98792 31.9382L3.20293 32.684L3.87481 32.5832L4.39888 32.5295H4.79529H5.09092L5.3328 32.5429L5.50749 32.6034L5.13123 31.3066L2.98792 31.9382ZM6.1189 29.9226H6.15921C6.17459 29.9183 6.19086 29.9183 6.20624 29.9226C6.22372 29.9472 6.23732 29.9744 6.24656 30.0032L6.29359 30.1376C6.29359 30.198 6.29359 30.2383 6.32718 30.2787C6.33008 30.3099 6.33008 30.3414 6.32718 30.3727C6.331 30.3904 6.331 30.4088 6.32718 30.4265H6.28687L5.53436 30.6415L6.13906 32.7646L6.88485 32.6101H6.93188C6.95063 32.6195 6.96678 32.6333 6.97891 32.6504L7.01922 32.731L7.06625 32.8654C7.06625 32.9259 7.06625 32.9729 7.09985 33.0132C7.10272 33.0423 7.10272 33.0715 7.09985 33.1006C7.10471 33.1182 7.10471 33.1367 7.09985 33.1543H7.05953L5.91061 33.4835C5.89452 33.4937 5.87589 33.4991 5.85686 33.4991C5.83784 33.4991 5.81921 33.4937 5.80311 33.4835C5.78809 33.4749 5.77498 33.4633 5.76459 33.4494C5.75419 33.4356 5.74672 33.4198 5.74264 33.4029L5.69561 33.282C5.62843 33.2548 5.55864 33.2345 5.48733 33.2215C5.40956 33.1936 5.328 33.1778 5.24545 33.1745H4.92967H4.48622C4.31825 33.1745 4.11669 33.2148 3.88153 33.2484C3.64637 33.282 3.37762 33.3223 3.06855 33.376C3.01134 33.3914 2.95107 33.3914 2.89386 33.376C2.8704 33.3666 2.84991 33.351 2.83455 33.3309C2.81918 33.3108 2.8095 33.2869 2.80652 33.2618L2.3362 31.6291C2.32441 31.6063 2.31826 31.581 2.31826 31.5552C2.31826 31.5295 2.32441 31.5042 2.3362 31.4813C2.3678 31.4344 2.41568 31.4009 2.47058 31.3873L4.93638 30.7154L4.85576 30.4466C4.84694 30.4301 4.84232 30.4116 4.84232 30.3929C4.84232 30.3741 4.84694 30.3557 4.85576 30.3391C4.85576 30.3391 4.90279 30.2988 4.9431 30.2854L6.1189 29.9226ZM6.28687 33.9539L6.40109 33.9068H6.48172H6.53547H6.56906L7.28126 35.4186C7.29764 35.4665 7.29764 35.5185 7.28126 35.5664C7.2726 35.5949 7.25703 35.6209 7.23593 35.642C7.21484 35.6631 7.18887 35.6787 7.16032 35.6873L4.53997 36.9236C4.51259 36.9362 4.48279 36.9428 4.45263 36.9428C4.42247 36.9428 4.39267 36.9362 4.36528 36.9236C4.31854 36.9006 4.28073 36.8628 4.25778 36.8161L3.5859 35.3111C3.58276 35.2978 3.58276 35.284 3.5859 35.2708C3.58369 35.2551 3.58369 35.2393 3.5859 35.2237L3.65309 35.17L3.76731 35.1095L3.88153 35.0625H3.96216H3.98903L4.49966 36.1308L5.23201 35.7881L4.80201 34.8811C4.7983 34.8656 4.7983 34.8495 4.80201 34.834V34.787L4.8692 34.7332L4.9767 34.6795L5.09092 34.6325H5.16483H5.21858C5.22093 34.6435 5.22093 34.655 5.21858 34.6661L5.64186 35.5798L6.48843 35.1767L5.9778 34.095C5.97466 34.0875 5.97304 34.0795 5.97304 34.0714C5.97304 34.0634 5.97466 34.0554 5.9778 34.0479C5.9778 34.0479 5.9778 34.0479 5.9778 34.0009L6.04499 33.9471L6.28687 33.9539ZM6.81766 39.4566C6.89284 39.5419 6.98133 39.6145 7.07969 39.6716C7.15869 39.7215 7.2486 39.7514 7.34173 39.7589C7.42377 39.7754 7.50828 39.7754 7.59032 39.7589C7.67443 39.7309 7.75374 39.6901 7.82548 39.638C7.91061 39.5791 7.98745 39.5091 8.05392 39.4297C8.11222 39.3645 8.15373 39.2861 8.17486 39.2013C8.19502 39.1128 8.19502 39.021 8.17486 38.9325C8.15335 38.8189 8.11244 38.7098 8.05392 38.61L6.81766 39.4566ZM6.67656 37.8844C6.59399 37.9388 6.51938 38.0043 6.45484 38.0792C6.39655 38.1444 6.35503 38.2228 6.3339 38.3077C6.31351 38.3961 6.31351 38.488 6.3339 38.5764C6.35541 38.6901 6.39632 38.7992 6.45484 38.8989L7.70454 38.0322C7.63122 37.9432 7.54245 37.868 7.44251 37.8105C7.36418 37.7676 7.27808 37.7407 7.18925 37.7315C7.10042 37.7223 7.01064 37.7308 6.92516 37.7567C6.8387 37.7872 6.75721 37.8302 6.68328 37.8844M6.25999 37.3133C6.40055 37.2104 6.56057 37.1373 6.73031 37.0983C6.88528 37.0646 7.04566 37.0646 7.20063 37.0983C7.367 37.1341 7.52459 37.2026 7.66423 37.2998C7.83342 37.4165 7.98502 37.5567 8.11439 37.7164L8.42346 37.4947C8.44074 37.4879 8.45993 37.4879 8.47721 37.4947C8.4946 37.4885 8.51357 37.4885 8.53096 37.4947L8.60487 37.5619L8.69893 37.6962C8.73252 37.75 8.76612 37.7903 8.78627 37.8306C8.8027 37.8583 8.81621 37.8875 8.82659 37.918C8.83228 37.94 8.83228 37.9631 8.82659 37.9852C8.81979 38.0017 8.80806 38.0158 8.79299 38.0255L8.47721 38.2472C8.58882 38.4159 8.67698 38.599 8.73924 38.7914C8.79042 38.9495 8.80647 39.1169 8.78627 39.2819C8.76557 39.4387 8.70801 39.5884 8.6183 39.7186C8.51094 39.8673 8.37918 39.9968 8.22861 40.1016C8.09134 40.1987 7.93598 40.2672 7.77173 40.3032C7.61904 40.3369 7.46083 40.3369 7.30813 40.3032C7.14215 40.2698 6.98453 40.2035 6.84453 40.1083C6.67411 39.9932 6.5223 39.8527 6.39437 39.6917L6.09202 39.9H6.04499C6.02719 39.9029 6.00904 39.9029 5.99124 39.9C5.96571 39.8784 5.94313 39.8536 5.92405 39.8261C5.88541 39.7878 5.85157 39.7449 5.82327 39.6985L5.73593 39.5641C5.71803 39.5348 5.70445 39.5032 5.69561 39.47C5.69089 39.4606 5.68843 39.4503 5.68843 39.4398C5.68843 39.4293 5.69089 39.4189 5.69561 39.4095L6.00468 39.1878C5.90461 39.0213 5.82562 38.843 5.76952 38.657C5.71835 38.4989 5.70229 38.3315 5.72249 38.1666C5.73763 38.0095 5.79318 37.8591 5.88374 37.7298C5.98428 37.5704 6.11156 37.4295 6.25999 37.3133Z" fill="white"/>
<path d="M36.0176 41.9759L35.9168 41.8549C35.7169 41.6612 35.4761 41.5147 35.2122 41.4263C34.9482 41.338 34.6678 41.3099 34.3916 41.3443C33.9924 41.3503 33.5953 41.4045 33.2091 41.5055C32.8261 41.5996 32.3491 41.7541 31.778 41.949C31.7179 41.8212 31.6386 41.7034 31.5428 41.5996C31.2483 41.3419 30.9029 41.149 30.5291 41.0332C30.1552 40.9175 29.7612 40.8816 29.3726 40.9277C27.5251 41.0264 25.7076 41.4376 23.9976 42.1438C22.8171 42.632 21.5587 42.9051 20.2821 42.9501C19.016 42.9209 17.7876 42.5138 16.7547 41.781L16.2911 41.5055L15.7065 41.1562L15.599 41.8281L14.3896 48.9231L14.8264 49.1113L15.0347 47.8817L16.0223 41.902L16.4859 42.1774C17.2718 42.6974 18.1498 43.0623 19.0727 43.2524C19.4762 43.3251 19.8855 43.3611 20.2955 43.3599C21.6254 43.3141 22.9363 43.0296 24.1655 42.5201C25.8252 41.8383 27.5877 41.4408 29.3794 41.3443C29.6745 41.339 29.9694 41.3637 30.2595 41.4182C30.6201 41.4627 30.9557 41.6258 31.2136 41.8818C31.3699 42.0533 31.4604 42.2747 31.4689 42.5067C32.1744 42.2715 32.8127 42.0431 33.3233 41.9288C33.6726 41.8388 34.031 41.7892 34.3916 41.781H34.7074L34.909 41.8146C35.0597 41.8427 35.2049 41.8948 35.339 41.9691C35.48 42.0431 35.7622 41.781 35.7622 41.781L34.5327 49.8436L34.9425 49.6689C34.9761 49.4741 35.003 49.2725 35.0366 49.0575C35.171 48.2311 35.2785 47.6331 35.2785 47.6264V47.4719V47.2837C35.3725 46.7126 35.4599 46.1483 35.5472 45.6175C35.7958 44.0318 36.0108 42.7418 36.0377 42.5537V42.3992V42.1909L36.0176 41.9759Z" fill="#0066B3"/>
<path d="M25.4894 44.4738C20.6397 44.4312 15.9992 42.4924 12.5607 39.0722C9.1222 35.652 7.15868 31.0219 7.09021 26.1725C7.02174 21.3231 8.85374 16.6395 12.1943 13.1235C15.5349 9.60758 20.1188 7.53853 24.9653 7.35902H25.5096C30.3903 7.35234 35.0772 9.26873 38.555 12.6931C42.0328 16.1175 44.0216 20.7741 44.0905 25.6544C44.1594 30.5346 42.303 35.2455 38.9232 38.7667C35.5435 42.288 30.9126 44.336 26.0336 44.4671H25.4894M25.4894 44.924H26.0471C31.0492 44.7913 35.7975 42.6928 39.2631 39.0834C42.7287 35.474 44.6324 30.6443 44.5617 25.6409C44.491 20.6375 42.4516 15.8636 38.8854 12.3535C35.3192 8.84343 30.5134 6.88 25.5096 6.8887H24.9519C19.9072 6.95998 15.0975 9.03233 11.5807 12.6499C8.06401 16.2674 6.12838 21.1338 6.19965 26.1785C6.27093 31.2231 8.34328 36.0329 11.9608 39.5496C15.5783 43.0663 20.4447 45.002 25.4894 44.9307" fill="white"/>
<path d="M29.3794 41.3439C29.703 41.3044 30.0313 41.331 30.3443 41.4223C30.6573 41.5135 30.9485 41.6675 31.2002 41.8747C31.3595 42.0497 31.4501 42.2764 31.4555 42.513C32.1677 42.2711 32.7992 42.0427 33.3233 41.9285C33.6726 41.8384 34.031 41.7888 34.3916 41.7807C35.2113 41.7807 35.4061 41.9486 35.4666 42.0091L35.7622 41.7941L34.1094 52.3023L33.666 52.0537C33.4232 51.9285 33.1529 51.8661 32.8799 51.8723C31.7981 51.9942 30.7444 52.2962 29.7623 52.7659C29.0402 53.1065 28.2832 53.3678 27.5048 53.5453C27.2958 53.578 27.0848 53.5959 26.8732 53.5991C25.899 53.5991 25.7445 53.075 25.7243 52.813L25.7848 52.2687L25.0054 52.5644C24.488 52.7659 23.9976 52.9541 23.5676 53.1019C22.7004 53.3854 21.7923 53.5239 20.88 53.5117C18.6471 53.5472 16.4523 52.9308 14.5643 51.738L14.3896 51.6103L15.9954 41.9016L16.459 42.1771C17.5937 42.9506 18.9357 43.3628 20.3089 43.3596C21.6388 43.3137 22.9497 43.0293 24.179 42.5197C25.8346 41.84 27.5924 41.4426 29.3794 41.3439Z" fill="white"/>
<path d="M26.6182 48.7955L26.0874 52.6118C25.9463 53.2837 26.7593 53.2837 27.4312 53.1963C29.1714 52.9343 32.215 50.8515 33.8141 51.7451C34.0492 49.8436 34.4859 47.4114 34.4859 47.4114C34.4859 47.4114 34.0895 46.8605 32.5912 47.2233C31.0929 47.5861 27.747 49.0239 26.6249 48.7955" fill="#ED1C24"/>
<path d="M34.3109 48.507C34.4789 47.4454 34.6536 46.31 34.8148 45.3021C34.5108 45.1501 34.1793 45.0604 33.8401 45.0385C33.5008 45.0166 33.1606 45.0628 32.8395 45.1745C31.3815 45.5306 28.1901 46.8878 26.9874 46.7601L26.5439 49.6022C26.6783 50.0658 27.2158 50.18 27.928 50.1195C29.6682 49.9784 32.7051 47.6739 34.3109 48.507Z" fill="#0066B3"/>
<path d="M26.0469 52.859C26.1544 52.1334 27.1555 52.1065 27.8139 52.1401C28.4724 52.1737 29.6952 52.1401 29.796 51.6228C29.9169 50.9106 29.9707 50.0371 29.9707 50.0371L26.4903 50.0774L26.0469 52.859Z" fill="#BE1E2D"/>
<path d="M14.793 51.4562L15.5992 46.6321C17.0035 47.4652 19.2072 48.6477 23.7089 46.921C27.3169 45.5369 30.6696 45.2883 30.5083 46.7194L29.7692 51.6578C30.038 49.9646 25.7379 51.987 23.4603 52.7798C21.0079 53.6331 16.9564 53.015 14.793 51.4361" fill="#ED1C24"/>
<path d="M23.8699 45.9197C19.5161 47.586 17.2317 46.1011 15.8073 45.2478L15.2832 48.3721C16.5432 49.1949 17.9841 49.6994 19.4822 49.8421C20.9803 49.9849 22.4906 49.7617 23.8833 49.1918C25.899 48.4124 29.8429 47.0552 30.2796 48.2713C30.4342 47.25 30.5887 46.1683 30.7231 45.2277C30.1654 44.3072 27.0546 44.6902 23.8564 45.8995" fill="#0066B3"/>
<path d="M34.0153 28.9538C34.0153 28.9135 33.9347 28.759 33.8406 28.5507C33.9185 28.5964 33.9993 28.6368 34.0825 28.6716L34.2303 28.9337C34.1595 28.9422 34.0897 28.9579 34.022 28.9807M32.302 28.9807C32.302 28.6246 32.2147 28.3962 32.1072 27.6369C32.2905 28.1179 32.4453 28.6092 32.5708 29.1084C32.4838 29.07 32.3939 29.0386 32.302 29.0143M31.5361 33.3479C31.5361 33.3479 31.5361 33.3479 31.5361 33.4017V33.3479ZM31.5361 33.8787C31.5388 33.8519 31.5388 33.8249 31.5361 33.7981C31.5323 33.8203 31.5323 33.8431 31.5361 33.8653M33.9414 36.2639L33.5517 37.1172L33.1016 36.9022L33.4039 36.2303C33.5935 36.2549 33.7854 36.2549 33.975 36.2303M34.3916 36.1094L34.2841 36.3378L34.0355 36.2236C34.1583 36.1997 34.2778 36.1614 34.3916 36.1094ZM20.786 38.3266C20.8077 38.2429 20.8546 38.1678 20.9203 38.1116C20.9119 38.1605 20.9119 38.2105 20.9203 38.2594L20.786 38.3266ZM19.4691 33.825C19.4728 33.8027 19.4728 33.78 19.4691 33.7578C19.4727 33.7845 19.4727 33.8117 19.4691 33.8384M17.6348 30.526L17.1242 30.2909C17.0971 30.168 17.0433 30.0525 16.9667 29.9527C16.89 29.8529 16.7924 29.7711 16.6807 29.7131C16.7228 29.6309 16.7401 29.5382 16.7306 29.4464C16.721 29.3546 16.6851 29.2675 16.627 29.1957C16.8958 28.853 17.3526 27.8519 17.8633 27.0457C17.749 27.9124 16.2709 29.0613 17.44 29.9012C18.2059 29.787 18.6158 28.8732 18.9181 27.6168C19.0659 27.9124 18.1455 29.2091 19.3952 29.6324C19.9461 29.5316 20.3492 28.4634 20.2081 27.6638C20.2695 27.7043 20.3279 27.7492 20.3828 27.7982C20.5508 27.6168 20.8867 27.6168 21.0077 27.3816L21.1219 27.4555C21.4981 28.0804 21.525 29.2629 21.0077 29.6929C21.1613 29.7008 21.3148 29.6755 21.4578 29.619C21.4578 29.619 21.4578 29.619 21.3906 29.7265L21.3436 29.8004C21.0547 30.0759 20.9741 30.1498 20.1342 30.0288C20.1449 30.1213 20.1746 30.2105 20.2216 30.2909C19.805 30.4656 19.1264 30.4387 18.9383 31.5809C18.928 31.5663 18.9141 31.5547 18.898 31.5473H18.8644C18.8644 31.5473 18.8106 31.5473 18.8039 31.5003C18.7972 31.4532 18.8039 31.4465 18.7569 31.4331H18.5889L18.4612 31.5204C18.3537 31.5675 18.3672 31.4599 18.179 31.7287C18.179 31.7287 18.179 31.7287 18.179 31.8362H18.132L17.9573 31.7489C17.9032 31.733 17.8513 31.7105 17.8028 31.6817L17.5945 31.6212L17.6953 31.6682L17.9305 31.7757L18.0715 31.8362L18.0984 31.937L17.534 31.675H17.5004C17.4585 31.6489 17.4133 31.6286 17.3661 31.6145L17.1578 31.554L17.6348 30.526ZM35.4263 28.114C35.4129 28.1509 35.4129 28.1913 35.4263 28.2282L35.3658 28.1408C35.378 28.0739 35.4031 28.01 35.4397 27.9527L35.48 27.9998C35.4528 28.0327 35.4344 28.072 35.4263 28.114ZM33.6458 28.114L33.8205 28.1812L33.928 28.3827H33.7735L33.6458 28.1005M29.9975 30.0557C29.8064 29.9674 29.652 29.8154 29.5607 29.6257C29.7038 29.6823 29.8573 29.7075 30.0109 29.6996C29.4936 29.2696 29.5204 28.0871 29.8967 27.4622L30.0109 27.3883C30.1318 27.6235 30.4678 27.6235 30.6358 27.8049C30.6907 27.7559 30.749 27.711 30.8104 27.6705C30.8157 28.1467 30.8471 28.6222 30.9045 29.0949C30.5056 29.3079 30.1871 29.6452 29.9975 30.0557ZM31.8384 37.1777L30.9515 36.7678L31.5361 35.4577C31.7923 35.6662 32.0719 35.8444 32.3692 35.9884L31.8384 37.1777ZM19.4959 33.6234V33.6973C19.4983 33.6795 19.4983 33.6614 19.4959 33.6436M34.9492 27.5362L35.1575 27.5966L35.2113 27.6638L34.9963 27.6033C34.9845 27.5784 34.9686 27.5557 34.9492 27.5362ZM33.3636 27.5362L33.4845 27.6033L33.6189 27.8452H33.5047C33.4599 27.7377 33.4129 27.6369 33.3636 27.5429M30.9112 33.6906C30.9081 33.7219 30.9081 33.7534 30.9112 33.7847C30.915 33.7534 30.915 33.7218 30.9112 33.6906ZM28.4454 37.7689L28.8485 37.9839C28.8485 37.9839 28.7276 38.1452 28.311 38.1452C28.308 38.0322 28.2945 37.9197 28.2707 37.8092H28.4185M24.3872 36.9627L24.7635 36.7745C24.6885 37.1002 24.6324 37.43 24.5955 37.7622C24.4726 37.7723 24.349 37.7723 24.226 37.7622C24.2538 37.4889 24.3078 37.2189 24.3872 36.956M22.2036 37.9839L22.4186 37.8764C22.4147 37.9548 22.4147 38.0333 22.4186 38.1116C22.3781 38.1051 22.3394 38.0904 22.3047 38.0685C22.2701 38.0465 22.2402 38.0178 22.2171 37.9839M24.7299 36.0153L24.9248 36.1027C24.9216 36.1362 24.9216 36.1699 24.9248 36.2034L24.6157 36.358C24.656 36.2438 24.703 36.1295 24.7501 36.0153M28.7142 32.2125C28.0956 32.1447 27.4742 32.3126 26.974 32.6828C27.0402 32.5216 27.1427 32.3777 27.2735 32.2625C27.4042 32.1472 27.5598 32.0636 27.728 32.0182C27.8963 31.9727 28.0728 31.9666 28.2438 32.0003C28.4148 32.034 28.5757 32.1066 28.7142 32.2125ZM27.6392 34.8126C27.4034 34.7068 27.1784 34.5786 26.9673 34.4297H27.0009H27.1554C27.4002 34.4462 27.629 34.557 27.7937 34.7387L27.6392 34.8126ZM24.5485 34.8126H24.488C24.5552 34.7387 24.6224 34.6648 24.6829 34.5842C24.6358 34.6581 24.5955 34.732 24.5485 34.7992M25.1733 34.7992C25.1733 34.7253 25.2204 34.6514 25.2338 34.5775C25.2338 34.6514 25.2338 34.7253 25.2338 34.7992M27.1084 35.5517L27.3435 35.4375C27.6198 35.6287 27.8704 35.8545 28.0893 36.1094C27.776 35.99 27.4746 35.8415 27.189 35.6659L27.1084 35.5652M26.9404 35.1419V35.162V35.1419ZM25.8184 34.6245C25.8471 34.7563 25.8829 34.8864 25.9259 35.0142H25.8721C25.8721 34.8933 25.8318 34.7723 25.8184 34.6447M27.9012 33.2337C28.0423 33.704 28.311 34.134 29.2987 33.6906C29.2976 33.7832 29.3285 33.8734 29.3861 33.9459L27.881 34.6917C27.881 34.2214 27.5182 34.0198 27.2092 33.8048C27.3167 33.657 27.2092 33.5898 27.881 33.2001M27.881 33.2001C28.132 33.1331 28.3961 33.1331 28.647 33.2001C28.5312 33.2694 28.3989 33.306 28.264 33.306C28.1291 33.306 27.9968 33.2694 27.881 33.2001ZM29.6346 33.6503L29.7287 33.7242H29.769L29.5406 33.8384C29.5682 33.7804 29.5996 33.7243 29.6346 33.6704M29.5204 35.928C29.097 35.5987 28.6476 35.3044 28.1767 35.0478L30.0848 34.0937C30.1263 34.422 30.0974 34.7554 30.0001 35.0716C29.9028 35.3879 29.7393 35.6798 29.5204 35.928ZM23.749 34.5237H23.7154L23.6482 34.4901L23.8094 34.4431C23.8766 34.4431 23.8699 34.4431 24.1319 34.4028C24.0529 34.4664 23.9699 34.5247 23.8833 34.5775H23.8161M23.0771 34.2348L22.983 34.1878C22.983 34.1878 22.983 34.1878 22.9225 34.1878C22.9225 34.1878 22.9225 34.1878 22.8554 34.1878L22.768 34.1408H22.7075L22.4589 33.9526H22.4253H22.3582C22.7075 33.8854 22.8688 33.9526 23.151 33.2808C22.2641 33.7444 21.5989 32.0646 23.366 32.105C24.1991 32.535 24.5418 33.6637 23.2585 34.3961H23.1913H23.1308H23.0704H23.0032M22.1297 37.6346C22.1258 37.6101 22.1258 37.5851 22.1297 37.5606L22.1768 37.601L22.1297 37.6346ZM18.5419 32.0445C18.5403 32.0691 18.5403 32.0938 18.5419 32.1184C18.5419 32.1184 18.5419 32.1184 18.5016 32.1184V32.0781H18.5351M24.5821 38.9985C24.4311 38.889 24.3239 38.7295 24.2797 38.5483H24.5619C24.548 38.6958 24.548 38.8443 24.5619 38.9918M26.3559 37.3725C26.4411 37.2319 26.5174 37.086 26.5843 36.9358H26.6179C26.5641 37.4061 27.1957 37.8428 26.4365 38.9514C26.4758 38.4104 26.4487 37.8666 26.3559 37.3322M32.4498 32.0579V32.0982C32.4498 32.0982 32.4498 32.2461 32.4498 32.3334L31.9862 32.5753C31.9793 32.5263 31.9793 32.4765 31.9862 32.4275H32.0198C32.0442 32.4323 32.0693 32.4323 32.0937 32.4275C32.1677 32.4275 32.1341 32.4611 32.3759 32.2393C32.4104 32.2079 32.4319 32.1648 32.4364 32.1184M34.0892 26.4275C34.1631 26.488 34.3849 26.7501 34.6536 27.0994L34.5058 27.0457C34.3553 26.8594 34.2162 26.6642 34.0892 26.4611M33.1284 27.133C33.1597 27.175 33.1867 27.22 33.2091 27.2674C33.187 27.2244 33.169 27.1794 33.1553 27.133M15.7737 27.9527C15.7112 27.9462 15.6481 27.9462 15.5856 27.9527C16.0492 27.3951 16.7681 26.5216 16.9293 26.4074C16.8689 26.535 16.2575 27.3413 15.7939 27.9796M14.7121 32.1721H14.4837C14.4752 32.2818 14.4292 32.3852 14.3533 32.4648C14.2773 32.5443 14.1763 32.5953 14.0671 32.6089L13.9932 32.5686L13.9327 32.5148L13.879 32.4476C13.8348 32.3605 13.8162 32.2627 13.8252 32.1654C13.8318 32.0675 13.8722 31.9748 13.9395 31.9034C13.889 31.8551 13.8418 31.8035 13.7984 31.7489C13.7586 31.6931 13.7227 31.6348 13.6909 31.5742C13.5402 31.2698 13.5068 30.9207 13.5968 30.5932C13.7056 30.3253 13.8912 30.0955 14.1304 29.9329C14.3695 29.7703 14.6514 29.6821 14.9406 29.6795C14.9943 29.572 14.9406 29.5316 15.4512 29.3502C15.4512 29.4443 15.7132 29.4712 15.505 29.9751C15.6576 30.1569 15.7594 30.3759 15.7999 30.6098C15.8404 30.8437 15.8182 31.0842 15.7356 31.3067C15.653 31.5293 15.5129 31.726 15.3296 31.8768C15.1463 32.0277 14.9263 32.1272 14.692 32.1654M24.9516 14.468C25.3231 14.49 25.6955 14.49 26.067 14.468C26.7234 15.0379 27.5142 15.431 28.3648 15.6102C27.8279 15.6451 27.289 15.586 26.7724 15.4355C26.7724 15.7715 27.5182 16.1612 27.9953 16.262C27.6367 16.3082 27.2724 16.2571 26.9404 16.1141C27.0962 16.3649 27.3334 16.5547 27.6123 16.6517C27.3963 16.8723 27.1325 17.0403 26.8413 17.1428C26.55 17.2453 26.2391 17.2796 25.9326 17.2429C26.0203 17.3494 26.1332 17.4322 26.2612 17.4839C26.3891 17.5355 26.5279 17.5543 26.6649 17.5385C26.0114 18.4543 25.6063 19.5237 25.4891 20.6426C25.3702 19.5305 24.9702 18.4669 24.3268 17.552C24.4649 17.5683 24.6048 17.5498 24.7339 17.4981C24.863 17.4465 24.9771 17.3634 25.0658 17.2563C24.7602 17.2951 24.4497 17.2618 24.1592 17.1591C23.8687 17.0565 23.6063 16.8873 23.3929 16.6651C23.6697 16.5644 23.9057 16.3755 24.0647 16.1276C23.7327 16.2705 23.3684 16.3216 23.0099 16.2754C23.4869 16.1746 24.2126 15.7849 24.2327 15.449C23.7139 15.5998 23.1728 15.6589 22.6336 15.6237C23.4937 15.4467 24.2927 15.0484 24.9516 14.468ZM31.5361 33.5092C31.5306 33.4713 31.5306 33.4328 31.5361 33.395C31.5295 33.4086 31.5261 33.4235 31.5261 33.4386C31.5261 33.4538 31.5295 33.4687 31.5361 33.4823M31.5361 33.5428C31.5273 33.5593 31.5226 33.5778 31.5226 33.5965C31.5226 33.6153 31.5273 33.6337 31.5361 33.6503C31.5294 33.6035 31.5294 33.556 31.5361 33.5092V33.5428ZM39.8406 22.02C39.3616 21.793 38.8274 21.7091 38.3019 21.7781C38.6916 21.6813 39.047 21.4789 39.3291 21.1933C39.6112 20.9076 39.8091 20.5497 39.901 20.1589C39.429 20.0408 38.9352 20.0408 38.4632 20.1589C38.7932 19.9788 39.0711 19.7166 39.27 19.3976C39.4689 19.0786 39.5822 18.7136 39.5987 18.3381C39.049 18.3247 38.5037 18.4397 38.0063 18.674C39.0948 18.076 39.4845 16.6584 38.9066 15.8521C38.5774 16.047 37.0388 17.6124 36.7902 17.7871C37.7644 16.4837 39.1149 15.0123 37.583 13.4132C36.8724 14.8589 36.0289 16.2355 35.0635 17.5251C35.0023 17.4408 34.9184 17.3755 34.8216 17.337C34.5755 18.004 34.1556 18.5932 33.6055 19.0436C33.5654 18.934 33.5112 18.8301 33.4442 18.7345C29.5204 21.1331 32.8798 25.2182 29.5607 23.6527C29.7189 23.6264 29.8668 23.5575 29.9886 23.4533C30.1104 23.3492 30.2015 23.2137 30.252 23.0616C30.3024 22.9095 30.3104 22.7464 30.275 22.5901C30.2397 22.4338 30.1623 22.2901 30.0512 22.1745C29.7489 22.3559 29.5473 22.9472 28.4589 22.1275C28.5753 22.1865 28.7057 22.212 28.8358 22.2012C28.9658 22.1904 29.0903 22.1438 29.1954 22.0666C29.3006 21.9893 29.3822 21.8843 29.4313 21.7634C29.4804 21.6425 29.4949 21.5104 29.4734 21.3817C27.9281 22.1678 27.7332 19.4736 29.1576 18.3582C29.3121 18.6673 30.9919 17.7401 31.1329 19.1779C31.7578 18.8218 31.5294 18.2507 30.7298 18.029C31.4017 18.1432 33.1755 19.6684 33.3031 17.7199C33.0075 18.4254 31.8519 17.8678 30.6559 17.7199C30.9224 17.5533 31.2376 17.4818 31.5499 17.5172C31.8623 17.5525 32.1534 17.6927 32.3759 17.9148C32.546 17.7642 32.6633 17.5631 32.7106 17.341C32.7579 17.1188 32.7327 16.8874 32.6387 16.6806C32.5447 16.4739 32.3869 16.3027 32.1884 16.1923C31.99 16.0818 31.7613 16.038 31.5361 16.0671C31.5411 16.0279 31.5358 15.988 31.5207 15.9514C31.5057 15.9148 31.4814 15.8828 31.4503 15.8584C31.4191 15.834 31.3821 15.8181 31.343 15.8123C31.3039 15.8065 31.2639 15.811 31.227 15.8252C31.2289 15.7934 31.2231 15.7616 31.2103 15.7324C31.1974 15.7032 31.1778 15.6774 31.1531 15.6573C32.4095 15.7715 33.5114 14.5621 32.8933 12.8622C33.2199 13.0609 33.5794 13.1997 33.9549 13.2721C34.4117 14.0716 33.115 15.0391 34.1027 16.2015C34.1155 16.3056 34.1019 16.4112 34.0631 16.5087C34.0244 16.6061 33.9617 16.6923 33.8809 16.7592C34.3042 16.6584 34.9694 16.3963 34.3244 15.2071C34.4319 15.926 35.4128 14.7973 35.4733 15.879C36.8171 14.7973 34.5461 15.1601 35.0769 14.4076C35.5069 13.8029 35.8496 13.2116 34.311 12.8824C33.9683 11.673 31.1665 11.5386 32.0669 13.7693C32.3222 14.3001 32.6044 15.2138 31.0389 15.5095V15.3549C31.274 14.9316 31.8586 13.7357 30.6089 13.514C30.535 13.4736 30.6089 13.514 30.3334 13.514V13.6215H30.2528V13.4736C30.2528 13.4199 30.4275 13.3796 30.2528 13.0504H30.3468C30.2794 12.9849 30.2186 12.9129 30.1654 12.8354C30.2419 12.8874 30.3139 12.9458 30.3804 13.01V12.3382C30.3129 12.4034 30.2411 12.464 30.1654 12.5196C30.2166 12.4406 30.2776 12.3683 30.3468 12.3046H29.675C29.7423 12.3702 29.803 12.4422 29.8564 12.5196C29.7793 12.4631 29.7053 12.4025 29.6346 12.3382V13.01C29.7016 12.9416 29.776 12.8807 29.8564 12.8286C29.8009 12.9044 29.7403 12.9762 29.675 13.0436H29.769C29.769 13.1108 29.5943 13.1444 29.769 13.4669V13.6147H29.6817V13.5072C29.5607 13.4736 29.6817 13.5072 29.4129 13.5072C28.8351 13.776 28.2304 14.0515 28.9762 15.3482V15.449C28.1951 15.1525 27.4854 14.6946 26.8934 14.1052V13.6685C27.3637 13.0504 28.1699 11.075 26.3626 10.813C26.3113 10.7772 26.2518 10.7548 26.1896 10.7477C26.1275 10.7407 26.0645 10.7493 26.0065 10.7727V10.9406H25.8184V10.7324H25.7176C25.7176 10.6719 26.1274 10.5442 25.7848 10.0202H25.9326C25.8243 9.91838 25.7355 9.7977 25.6705 9.66407C25.8036 9.72717 25.9242 9.81365 26.0266 9.91939V9.09297C25.9289 9.20116 25.81 9.28807 25.6773 9.34829C25.739 9.21447 25.8257 9.09363 25.9326 8.99219H25.086C25.1929 9.09363 25.2796 9.21447 25.3413 9.34829C25.2075 9.28652 25.0867 9.19988 24.9852 9.09297V9.93954C25.0902 9.83683 25.2103 9.75073 25.3413 9.68423C25.2812 9.81901 25.1944 9.94016 25.086 10.0403H25.2338C25.2338 10.1344 24.8441 10.262 25.301 10.7525H25.1935V10.9608H24.9987V10.7928C24.9406 10.7694 24.8777 10.7608 24.8155 10.7679C24.7533 10.7749 24.6939 10.7973 24.6426 10.8331C23.4265 11.0817 23.1039 12.1769 24.1118 13.6886V14.1321C23.5304 14.7314 22.8205 15.1908 22.0357 15.4759V15.3751C22.2708 14.9518 22.8554 13.7558 21.5989 13.5341C21.5317 13.4938 21.5989 13.5341 21.3302 13.5341V13.6416H21.2496V13.4938C21.2496 13.4401 21.4175 13.3997 21.2496 13.0705H21.3436C21.2784 13.003 21.2178 12.9312 21.1622 12.8555C21.2412 12.9095 21.3154 12.9702 21.3839 13.0369V12.365C21.3149 12.4312 21.2408 12.4919 21.1622 12.5464C21.2134 12.4675 21.2744 12.3952 21.3436 12.3314H20.6717C20.7411 12.3951 20.802 12.4674 20.8531 12.5464C20.7746 12.4919 20.7004 12.4312 20.6314 12.365V13.0369L20.8531 12.8622C20.8 12.9398 20.7392 13.0118 20.6717 13.0772H20.786C20.786 13.1444 20.618 13.178 20.786 13.5005V13.6483H20.7053V13.5408C20.5777 13.5072 20.7053 13.5408 20.4299 13.5408C19.852 13.8096 19.2406 14.0918 19.9931 15.3818V15.5363C17.6684 15.926 20.5575 9.68423 16.7211 12.9093C14.8196 12.7547 16.5464 14.9787 15.6595 14.8443C15.3571 14.804 14.8331 15.2609 15.5587 15.9059C15.3706 15.4221 15.9618 15.6841 16.7076 15.234C16.6068 15.711 15.8946 16.3426 17.1511 16.786C17.0734 16.7166 17.013 16.6301 16.9745 16.5333C16.936 16.4365 16.9206 16.3321 16.9293 16.2284C17.6617 15.3549 17.0167 14.6226 17.0772 13.299C17.44 13.2126 17.7854 13.0649 18.0984 12.8622C18.3067 14.206 17.0704 15.3146 19.8386 15.6573C19.8139 15.6774 19.7943 15.7032 19.7814 15.7324C19.7686 15.7616 19.7628 15.7934 19.7647 15.8252C19.7278 15.811 19.6878 15.8065 19.6487 15.8123C19.6096 15.8181 19.5726 15.834 19.5414 15.8584C19.5103 15.8828 19.486 15.9148 19.471 15.9514C19.4559 15.988 19.4506 16.0279 19.4556 16.0671C18.9719 16.1007 17.655 16.739 18.6359 17.8946C18.8584 17.6726 19.1496 17.5324 19.4619 17.497C19.7743 17.4616 20.0894 17.5331 20.3559 17.6998C19.6841 17.3974 18.6628 18.8353 17.7087 17.6998C17.6684 18.5531 18.562 19.1511 20.282 18.0089C19.4825 18.2306 19.2541 18.8017 19.8789 19.1578C19.9931 18.365 20.1544 18.3717 21.8475 18.3381C22.4858 18.7681 23.964 21.7916 21.5385 21.3616C21.5169 21.4902 21.5315 21.6224 21.5806 21.7433C21.6297 21.8642 21.7113 21.9691 21.8164 22.0464C21.9216 22.1237 22.0461 22.1703 22.1761 22.181C22.3061 22.1918 22.4366 22.1663 22.553 22.1073C22.4925 22.1611 21.6124 22.9674 20.9606 22.1544C20.8496 22.2699 20.7722 22.4136 20.7368 22.57C20.7014 22.7263 20.7094 22.8893 20.7599 23.0414C20.8104 23.1936 20.9014 23.329 21.0232 23.4332C21.1451 23.5373 21.293 23.6063 21.4511 23.6325C19.0256 24.7882 19.7311 23.2899 19.852 21.1869C19.5363 20.73 18.3269 19.6684 17.5542 18.7143C17.4873 18.8099 17.433 18.9138 17.3929 19.0234C16.8409 18.5748 16.4206 17.9851 16.1768 17.3168C16.0811 17.3572 15.9977 17.4221 15.935 17.5049C14.9695 16.2154 14.126 14.8388 13.4154 13.393C12.0716 14.5419 12.8241 16.0806 14.2351 17.767C13.9932 17.5923 12.4546 16.0268 12.1187 15.832C11.5476 16.6449 11.9373 18.0559 13.019 18.6539C12.5242 18.4189 11.9809 18.3038 11.4333 18.3179C11.4433 18.6961 11.5513 19.0653 11.7468 19.3892C11.9423 19.7131 12.2186 19.9806 12.5487 20.1656C12.0767 20.0475 11.5828 20.0475 11.1108 20.1656C11.2042 20.5572 11.4044 20.9152 11.6891 21.1999C11.9737 21.4846 12.3318 21.6847 12.7234 21.7781C12.2001 21.7096 11.6682 21.7936 11.1915 22.02C11.2974 22.3918 11.5169 22.7213 11.8193 22.9622C12.1217 23.2031 12.4918 23.3435 12.8779 23.3638C12.3468 23.3995 11.8504 23.6404 11.4938 24.0356C11.6668 24.2715 11.8952 24.461 12.1589 24.5876C12.4226 24.7141 12.7134 24.7738 13.0055 24.7613C12.7953 24.832 12.6019 24.9455 12.4377 25.0947C12.2735 25.2439 12.142 25.4255 12.0515 25.628C12.4613 25.9572 12.9787 26.1655 14.1679 25.7422C12.8241 26.3066 13.0727 26.5821 12.8645 27.1666C13.3885 27.5227 14.4299 27.348 15.4714 26.3536C15.2564 26.7769 13.5968 27.1935 14.0873 28.4566H14.2821C14.264 28.4758 14.2502 28.4988 14.2418 28.5238C13.9663 28.4566 13.2945 28.4163 12.898 29.3637C12.7973 29.2965 12.5487 29.3637 12.1724 29.9213C12.1705 29.9571 12.1705 29.993 12.1724 30.0288C12.1724 30.0692 12.1724 30.0288 12.1724 30.1363V30.2304L12.2194 30.3245L12.2732 30.3984L12.3471 30.4656C12.2821 30.5618 12.2344 30.6687 12.206 30.7813C12.2072 30.7948 12.2072 30.8082 12.206 30.8217C12.1986 30.8999 12.1986 30.9786 12.206 31.0568C12.2084 31.0724 12.2084 31.0883 12.206 31.1038C12.2 31.1327 12.2 31.1624 12.206 31.1912C12.206 31.1912 12.206 31.2449 12.206 31.3256C12.2073 31.3412 12.2073 31.357 12.206 31.3726C12.206 31.4062 12.2396 31.4532 12.2866 31.5339C12.2879 31.5473 12.2879 31.5608 12.2866 31.5742V31.6145L12.3471 31.675C12.3992 31.7291 12.4579 31.7765 12.5218 31.816H12.5621C12.5203 31.9062 12.5041 32.0062 12.5151 32.105V32.1453C12.5164 32.1609 12.5164 32.1767 12.5151 32.1923V32.2326C12.5448 32.2879 12.5859 32.3363 12.6357 32.3745C12.6855 32.4127 12.7429 32.4399 12.804 32.4543C12.7632 32.5383 12.7403 32.6298 12.7368 32.7231C12.7368 32.7231 12.7368 32.7231 12.7368 32.8239C12.7423 32.8765 12.7535 32.9283 12.7704 32.9784C12.7704 32.9784 12.7704 32.9784 12.7704 33.0322C12.8373 33.1538 12.9441 33.2487 13.0727 33.3009H13.1063H13.1668H13.2273H13.7715H13.8051H14.0671H14.1209C14.1209 33.3009 14.1209 33.3009 14.2217 33.2203C14.2712 33.1775 14.3142 33.1277 14.3493 33.0725H14.4703H14.5442H14.5912C14.5912 33.0725 14.5912 33.0725 14.6785 33.0725C14.7527 33.0687 14.8245 33.0455 14.8868 33.0053H14.9204H14.954H14.9876C15.0069 32.9794 15.0249 32.9525 15.0414 32.9247C15.0838 32.9292 15.1266 32.9292 15.169 32.9247H15.2228H15.3101H15.3975C15.4752 32.9179 15.5518 32.9021 15.6259 32.8776H15.6729L16.0828 33.2808H16.3314L16.8084 32.2729C16.9159 32.3401 16.8084 32.2729 17.1108 32.414C17.1038 32.445 17.1038 32.4771 17.1108 32.5081L18.5687 33.18C18.5656 33.2 18.5656 33.2204 18.5687 33.2404V33.2808C18.5687 33.2808 18.5687 33.2808 18.5687 33.3211C18.5575 33.3405 18.5516 33.3625 18.5516 33.3849C18.5516 33.4073 18.5575 33.4293 18.5687 33.4487C18.5652 33.4549 18.5633 33.4618 18.5633 33.4689C18.5633 33.476 18.5652 33.4829 18.5687 33.489C18.6426 33.6234 18.5687 33.7578 18.9584 33.7511C19.0256 33.6973 19.0391 33.7511 19.1264 33.3748C19.1734 33.4958 19.0928 33.4353 19.0727 33.8317C19.0903 33.858 19.1131 33.8806 19.1396 33.8979C19.1662 33.9152 19.196 33.927 19.2272 33.9325C19.2272 33.9325 19.2675 33.9325 19.3884 33.9325C19.4287 33.9325 19.5027 33.9325 19.4892 33.825C19.4892 33.825 19.4556 33.9325 19.5967 34.0467C19.5967 34.0467 19.637 34.0467 19.7781 34.0467H19.8117C19.8789 34.0467 19.852 34.087 19.973 33.9728C20.0939 33.8586 19.973 33.9728 20.0133 33.7376L22.7411 35.0075C22.4993 34.9269 20.5172 37.0567 20.927 35.2561C20.6381 35.2964 20.1141 35.6592 20.1141 36.4386C19.4422 36.5394 18.5956 38.5685 19.207 38.6357C19.289 38.2024 19.5283 37.8147 19.8789 37.5472C19.8789 37.9369 19.7848 37.9167 20.2552 38.6088C20.2149 38.77 18.73 39.1127 18.7233 39.5897C18.945 39.8518 19.6908 39.1866 20.2955 38.9716V39.0724C20.5038 39.0052 20.4299 39.0724 20.7255 38.7768L21.0413 38.6155C21.1214 38.8223 21.2614 39.0005 21.4433 39.1274C21.6252 39.2542 21.8408 39.324 22.0625 39.3277C21.7909 39.6444 21.4217 39.8617 21.0131 39.9457C20.6044 40.0296 20.1794 39.9753 19.805 39.7913C19.805 40.5572 22.4119 41.1351 22.9629 39.3143C23.3929 39.5024 23.3055 40.1743 24.7635 39.6368C24.9264 39.9909 25.176 40.2983 25.4891 40.5304C25.813 40.314 26.0729 40.0147 26.2416 39.6636C26.4499 39.7711 27.787 40.2482 28.2035 38.9918C28.5731 39.2202 29.6145 39.7174 30.0311 38.4811L30.2797 38.5953C30.3872 38.6693 30.1386 38.7902 30.75 39.0254C30.7116 38.9531 30.6931 38.8719 30.6962 38.7902L32.638 39.6972C32.7253 39.6972 32.638 39.6972 32.9739 39.6972H33.0613C33.0613 39.6972 33.0613 39.6972 33.1016 39.6972H33.1419C33.1419 39.6972 33.1419 39.6972 33.2091 39.6502L33.2695 39.583L33.3166 39.5091C33.3137 39.4958 33.3137 39.4821 33.3166 39.4688C33.3155 39.4554 33.3155 39.4419 33.3166 39.4285C33.314 39.4174 33.314 39.4059 33.3166 39.3949C33.3166 39.3949 33.3166 39.3411 33.3166 39.2672C33.3166 39.2672 33.3166 39.2672 33.3166 39.1866C33.3089 39.1592 33.2951 39.134 33.2763 39.1127C33.2582 39.0729 33.2305 39.0383 33.1956 39.0119C33.1956 39.0119 33.1956 39.0119 33.1217 38.9649L32.9672 38.891L32.4902 38.6558L32.6984 38.2124L33.6861 38.6558L34.7813 36.3311V36.2236L34.4655 36.0758C35.2717 35.8944 36.0041 33.442 34.6603 33.1262C34.4485 33.1795 34.2246 33.1556 34.0288 33.059C34.0288 33.2875 34.4655 33.6772 34.4655 33.6772C34.5528 33.8115 34.573 34.0131 33.8944 33.5495C36.0175 35.8205 32.2281 35.6055 31.4286 34.134C31.4958 34.0736 31.5025 34.0803 31.5294 33.9123C31.5294 33.9929 31.5965 34.0064 31.6369 34.0198C31.7175 34.0198 31.6369 34.0198 31.7981 34.0198C31.9594 34.0198 31.7981 34.0198 31.9728 33.8989C32.0131 33.8115 31.9392 33.825 31.9123 33.4622V33.3681C31.9123 33.5764 31.8183 33.4756 32.0669 33.8115C32.0669 33.8115 32.4633 33.872 32.4431 33.5092C32.4543 33.4898 32.4602 33.4678 32.4602 33.4454C32.4602 33.423 32.4543 33.4009 32.4431 33.3815C32.4431 33.3815 32.4431 33.3815 32.4431 33.2404C32.5482 33.1465 32.621 33.0219 32.6514 32.8843H32.7052C32.7361 32.8911 32.7682 32.8911 32.7992 32.8843C32.7992 32.8843 32.7992 32.8843 32.8395 32.8373L32.9605 32.7768C32.9952 32.7876 33.0328 32.7846 33.0654 32.7683C33.0979 32.752 33.1229 32.7238 33.1352 32.6895L35.8966 31.3054L35.9369 31.3793L36.7633 30.9493L36.7297 30.8956L37.0657 30.7276C36.9584 30.5766 36.8725 30.4116 36.8104 30.2371L36.4811 30.4051L36.4475 30.3379L35.6077 30.5932L35.6547 30.6738L32.9672 32.0176C32.9611 32.0141 32.9541 32.0122 32.947 32.0122C32.94 32.0122 32.933 32.0141 32.9269 32.0176C32.9269 32.0176 32.9269 32.0176 32.9269 31.9773C32.9269 31.9101 32.9269 31.9303 32.8798 31.7825C32.8812 31.7646 32.8812 31.7466 32.8798 31.7287C32.8798 31.6279 32.8798 31.675 32.5909 31.554L32.4633 31.4667C32.4633 31.4667 32.4633 31.4667 32.423 31.4264C32.3827 31.386 32.423 31.4264 32.3087 31.4264H32.255C32.2147 31.4264 32.2147 31.4264 32.208 31.4935C32.2012 31.5607 32.1676 31.4935 32.1475 31.5406C32.0333 31.0299 31.9795 30.6201 30.9583 30.2842C31.2069 29.6123 32.5842 29.5518 32.7052 30.9964C32.7387 30.7881 32.8194 29.6526 33.1755 31.171C33.2142 30.9568 33.3286 30.7636 33.498 30.6268C33.498 30.6268 33.7197 30.3312 33.4241 29.7534C33.4994 29.7691 33.572 29.7963 33.6391 29.834C33.8003 29.5316 34.1564 29.4241 34.1027 29.0479C34.5049 29.2496 34.9436 29.3684 35.3927 29.3973L35.3322 29.3368C35.3352 29.319 35.3352 29.3008 35.3322 29.283C35.3672 29.3264 35.4079 29.3648 35.4532 29.3973C35.5539 29.3973 35.0299 29.6123 35.5002 29.9146C35.5808 29.8676 35.218 30.2102 35.6346 30.264C35.6346 30.264 35.5539 30.4253 35.6346 30.526L36.3064 30.1767C36.1989 30.1229 35.0702 29.4241 36.3871 28.7859C36.4689 28.6957 36.5226 28.5836 36.5416 28.4634C36.6562 28.4348 36.7731 28.4168 36.891 28.4096C37.153 27.7377 36.4005 26.8643 35.5069 26.3066C36.1788 26.656 37.0119 27.8587 38.1138 27.1196C37.9055 26.535 38.1676 26.2596 36.8104 25.6952C37.9996 26.1185 38.5169 25.9102 38.9268 25.581C38.8423 25.378 38.7169 25.1946 38.5586 25.042C38.4003 24.8894 38.2123 24.771 38.0063 24.6941C38.2986 24.7072 38.5896 24.6478 38.8533 24.5212C39.1171 24.3946 39.3455 24.2047 39.518 23.9685C39.1615 23.5732 38.6651 23.3323 38.134 23.2966C38.5201 23.2763 38.8902 23.1359 39.1926 22.895C39.495 22.6541 39.7145 22.3246 39.8204 21.9528" fill="#808D9C"/>
<path d="M37.6975 28.7933C37.5646 28.8598 37.4478 28.9543 37.355 29.0703C37.2622 29.1863 37.1957 29.321 37.16 29.4652L37.0928 29.5122L37.0592 29.6063C37.0358 29.5963 37.0107 29.5912 36.9853 29.5912C36.9599 29.5912 36.9347 29.5963 36.9114 29.6063C36.7165 29.6936 36.824 29.9154 36.824 29.9154C36.824 29.9154 36.9114 30.1572 36.9785 30.2983C37.0481 30.4312 37.1267 30.5592 37.2137 30.6813C37.2137 30.6813 37.3682 30.8493 37.5093 30.7754C37.5395 30.7588 37.5647 30.7345 37.5824 30.705C37.6001 30.6755 37.6096 30.6418 37.6101 30.6074H37.684H37.8184C37.9777 30.6636 38.1484 30.6794 38.3153 30.6534C38.4821 30.6274 38.64 30.5605 38.7746 30.4585C38.9093 30.3566 39.0165 30.2228 39.0868 30.0693C39.1571 29.9157 39.1882 29.7471 39.1773 29.5786C39.1664 29.41 39.1139 29.2468 39.0245 29.1035C38.9351 28.9603 38.8115 28.8414 38.6649 28.7576C38.5182 28.6738 38.3531 28.6277 38.1843 28.6234C38.0155 28.6191 37.8482 28.6567 37.6975 28.7329" fill="#808D9C"/>
<path d="M35.5675 30.5936C35.4533 30.4122 35.5272 30.3383 35.5272 30.3383C35.4933 30.3365 35.4606 30.3248 35.4332 30.3047L35.0636 30.4928C34.9964 30.5331 34.8688 30.6138 34.8486 30.7011C35.0935 30.7482 35.3471 30.7102 35.5675 30.5936Z" fill="#808D9C"/>
<path d="M35.4128 30.2921C35.3389 30.2316 35.3187 30.1846 35.3322 30.1174C35.3456 30.0502 35.3322 29.9965 35.4128 29.9629H35.3456C35.3456 29.9629 35.144 29.9629 35.1104 29.9629C34.8857 29.9986 34.6746 30.0937 34.499 30.2384C34.7073 30.4534 35.1709 30.3862 35.4128 30.319" fill="#808D9C"/>
<path d="M35.3188 29.9222C35.2849 29.8972 35.2571 29.8649 35.2373 29.8277C35.2175 29.7905 35.2063 29.7493 35.2046 29.7072C35.2008 29.6654 35.2074 29.6232 35.2238 29.5846C35.2402 29.5459 35.2659 29.5118 35.2986 29.4855C34.8911 29.4329 34.4771 29.465 34.0825 29.5795C34.1959 29.6939 34.3327 29.7825 34.4834 29.8393C34.6341 29.8961 34.7953 29.9198 34.956 29.9088H35.3188" fill="#808D9C"/>
<path d="M37.8521 31.6761C37.6102 31.6761 37.4624 31.8709 37.2272 31.8709C37.1316 31.8729 37.037 31.8505 36.9523 31.8058C36.8677 31.7612 36.7958 31.6957 36.7435 31.6156C36.632 31.3976 36.608 31.1453 36.6763 30.9102L36.0044 31.2663C36.0044 31.4073 36.206 31.4409 36.206 31.4409C36.184 31.4775 36.1725 31.5193 36.1725 31.5619C36.1725 31.6045 36.184 31.6463 36.206 31.6828C36.2731 31.797 36.4344 31.75 36.4344 31.75C36.4344 31.75 36.4344 31.9919 36.5285 32.086C36.5721 32.112 36.6221 32.1257 36.6729 32.1257C36.7238 32.1257 36.7737 32.112 36.8174 32.086C36.8152 32.1498 36.8267 32.2134 36.851 32.2725C36.8754 32.3316 36.912 32.3848 36.9585 32.4286C37.0019 32.4554 37.0519 32.4695 37.1029 32.4695C37.1539 32.4695 37.2039 32.4554 37.2474 32.4286C37.2474 32.4286 37.3011 32.6033 37.3885 32.6436C37.4406 32.6548 37.4948 32.6499 37.544 32.6295C37.5933 32.6091 37.6351 32.5742 37.6639 32.5294C37.6799 32.6013 37.7102 32.6692 37.7529 32.7293C37.7956 32.7893 37.8499 32.8401 37.9125 32.8788C37.9701 32.9007 38.0322 32.9078 38.0932 32.8996C38.1542 32.8914 38.2122 32.8681 38.2619 32.8317C38.45 32.6906 38.3358 32.9056 38.3157 32.9594C38.235 33.2282 38.141 33.4835 38.0536 33.7455C38.0087 33.8447 37.9855 33.9524 37.9855 34.0613C37.9855 34.1702 38.0087 34.2779 38.0536 34.3771C38.0536 34.3771 38.1611 34.498 38.2485 34.4779C38.3224 34.1822 38.4232 33.8933 38.5038 33.5977C38.6217 33.2693 38.6896 32.925 38.7054 32.5764C38.7064 32.3354 38.6311 32.1002 38.4904 31.9045C38.4244 31.8139 38.3354 31.7425 38.2327 31.6977C38.13 31.6528 38.0171 31.6361 37.9058 31.6492" fill="#808D9C"/>
<path d="M36.1051 31.4744C36.1051 31.4744 36.0111 31.4744 35.9237 31.293C35.6992 31.4018 35.519 31.5844 35.4131 31.8103C35.5149 31.8274 35.6194 31.8083 35.7087 31.7566C35.8354 31.701 35.9588 31.6382 36.0782 31.5684C36.0737 31.5373 36.0737 31.5056 36.0782 31.4744" fill="#808D9C"/>
<path d="M36.3334 31.8699C36.33 31.8477 36.33 31.825 36.3334 31.8027C36.2744 31.8217 36.211 31.8217 36.152 31.8027C36.1221 31.7864 36.0975 31.762 36.0808 31.7323C36.0642 31.7026 36.0563 31.6688 36.0579 31.6348C35.8496 31.8027 35.5339 32.1185 35.5876 32.4141C35.8095 32.3614 36.012 32.2473 36.1721 32.0849C36.2229 32.0251 36.2701 31.9623 36.3132 31.8968" fill="#808D9C"/>
<path d="M36.4476 32.1386C36.384 32.0789 36.3456 31.9972 36.3401 31.9102C36.3401 31.9102 36.1587 32.1923 36.1386 32.2125C36.0344 32.3329 35.9581 32.4749 35.9151 32.6282C35.8722 32.7815 35.8636 32.9424 35.89 33.0994C36.2154 32.851 36.4854 32.5375 36.6828 32.1789C36.6433 32.1924 36.6011 32.1959 36.56 32.1888C36.519 32.1818 36.4803 32.1645 36.4476 32.1386Z" fill="#808D9C"/>
<path d="M37.0387 32.5425C36.9978 32.5431 36.9574 32.5336 36.9211 32.5148C36.8847 32.4961 36.8536 32.4687 36.8304 32.435C36.7972 32.4015 36.7712 32.3615 36.7539 32.3177C36.7366 32.2738 36.7283 32.2268 36.7296 32.1797C36.7296 32.1797 36.6221 32.3544 36.6154 32.3544C36.363 32.6988 36.2309 33.1167 36.2391 33.5436C36.3703 33.4611 36.4863 33.3566 36.5818 33.2345C36.6221 33.2345 37.0252 32.5627 37.0252 32.5627" fill="#808D9C"/>
<path d="M37.1596 33.1875L37.4351 32.7239C37.3985 32.7277 37.3615 32.7223 37.3275 32.7082C37.2935 32.6942 37.2635 32.6718 37.2403 32.6433C37.2097 32.6056 37.1869 32.5622 37.1731 32.5156C37.1465 32.5209 37.1191 32.5209 37.0924 32.5156L36.9178 32.7978C36.6918 33.2113 36.5631 33.6709 36.5415 34.1416C36.6241 34.0669 36.6984 33.9836 36.7632 33.893C36.8774 33.725 37.1596 33.2211 37.1596 33.2211" fill="#808D9C"/>
<path d="M37.7511 32.8848C37.6735 32.808 37.6159 32.7135 37.5831 32.6094C37.558 32.6454 37.523 32.6734 37.4823 32.69C37.4353 32.7572 37.1531 33.288 37.1531 33.288C36.9314 33.6978 36.6089 34.5847 36.7567 34.8266C37.0111 34.5278 37.2112 34.1867 37.3479 33.8188L37.7511 32.8848Z" fill="#808D9C"/>
<path d="M37.8518 34.0133L38.2751 32.8711C38.2129 32.9294 38.1336 32.9662 38.0489 32.9759C37.9641 32.9856 37.8785 32.9677 37.8048 32.9248C37.8048 32.9248 37.5293 33.5967 37.3748 33.9797C37.1743 34.4212 37.0999 34.9095 37.1598 35.3907C37.2584 35.321 37.339 35.2289 37.3949 35.1219C37.441 35.0443 37.4814 34.9634 37.5159 34.88L37.8518 34.0133Z" fill="#808D9C"/>
<path d="M37.8721 34.1621C37.6788 34.5913 37.5389 35.0426 37.4556 35.5059C37.465 35.7894 37.5241 36.0692 37.6303 36.3323L38.1678 34.5921C38.1678 34.5921 37.9057 34.5921 37.8721 34.189" fill="#808D9C"/>
<path d="M25.4892 22.6586H21.9282V30.0493C21.9282 30.9631 22.3045 31.3931 23.0906 31.3931H24.2664C24.5489 31.4089 24.8193 31.5136 25.0389 31.6922C25.2585 31.8707 25.4161 32.1141 25.4892 32.3875C25.546 32.1064 25.6953 31.8524 25.9133 31.6661C26.1313 31.4798 26.4054 31.3718 26.6919 31.3595H27.8744C28.6538 31.3595 29.0367 30.9295 29.0367 30.0157V22.625L25.4892 22.6586Z" fill="white"/>
<path d="M25.4892 22.6586H21.9282V30.0493C21.9282 30.9631 22.3045 31.3931 23.0906 31.3931H24.2664C24.5489 31.4089 24.8193 31.5136 25.0389 31.6922C25.2585 31.8707 25.4161 32.1141 25.4892 32.3875C25.546 32.1064 25.6953 31.8524 25.9133 31.6661C26.1313 31.4798 26.4054 31.3718 26.6919 31.3595H27.8744C28.6538 31.3595 29.0367 30.9295 29.0367 30.0157V22.625L25.4892 22.6586Z" stroke="white" stroke-width="0.0201565" stroke-miterlimit="10"/>
<path d="M24.0379 29.733H23.843C23.843 29.6389 23.7691 29.6053 23.7624 29.5045C23.7624 29.1484 23.6213 29.2895 23.9639 28.6244C24.2865 28.3959 24.058 28.3825 24.8307 27.9525C24.9247 28.0197 24.9046 28.2347 24.8307 28.3153C24.8481 28.3518 24.8616 28.3901 24.871 28.4295C24.9277 28.4596 24.989 28.48 25.0524 28.49C25.2002 28.6176 25.1599 28.5572 25.5765 29.2291C25.5765 29.2291 25.5765 29.182 25.5765 29.1551L25.6504 29.2223H25.5899C25.5899 29.2694 25.5899 29.3366 25.6302 29.3366C25.6705 29.3366 25.4622 29.3366 25.4219 29.397C25.3643 29.4013 25.3098 29.425 25.2674 29.4642C25.2069 29.4642 25.1801 29.4642 25.133 29.5112C25.4421 29.3836 24.226 27.9458 24.0177 29.6523C24.0177 29.6523 24.0177 29.6523 23.9505 29.6523C23.8833 29.6523 24.0379 29.6927 24.0379 29.7464M25.7579 28.9872L25.4488 27.8786C25.4932 27.7956 25.5184 27.7038 25.5227 27.6098C25.5966 27.6098 25.6773 27.6098 25.7579 27.6098C25.8117 27.6894 25.842 27.7826 25.8452 27.8786C25.9057 27.8786 25.7713 27.9794 25.8452 28.1608C25.9662 28.1608 25.8788 28.1608 26.0938 28.107C26.2752 28.107 26.1946 28.107 26.4298 28.4026C26.4935 28.6003 26.5888 28.7863 26.7119 28.9536C26.591 28.9536 26.712 28.9536 26.6179 29.1216C26.6179 29.1216 26.6179 29.0141 26.7254 29.0476C26.7254 29.0476 26.7254 29.1081 26.7254 29.135C26.7254 29.1619 26.7254 29.135 26.6448 29.2761C26.6448 29.2761 26.6448 29.2425 26.6448 29.2223C26.6448 29.2022 26.6448 29.2223 26.7388 29.2223C26.7466 29.2623 26.7466 29.3033 26.7388 29.3433C26.7388 29.3433 26.6784 29.3769 26.6649 29.4105C26.6351 29.4028 26.604 29.4019 26.5738 29.4077C26.5436 29.4135 26.5151 29.4259 26.4902 29.4441C26.4902 29.4441 26.4902 29.4441 26.5776 29.4441C26.6649 29.4441 26.5776 29.4777 26.5776 29.5112C26.5776 29.5112 26.5104 29.5112 26.4835 29.5112C26.4566 29.5112 26.329 29.3769 26.208 29.3903C26.0871 29.4037 26.208 29.3903 26.0669 29.3903C26.114 29.3903 26.0669 29.3903 26.1744 29.3903C26.2819 29.3903 26.2416 29.3298 26.2954 29.3231C26.3002 29.3407 26.3002 29.3593 26.2954 29.3769C26.2954 29.4441 26.4902 29.2895 26.2484 29.2156C26.1149 29.272 25.9939 29.3542 25.8923 29.4575C25.8923 29.4037 25.9393 29.3366 25.8923 29.2895C25.9729 29.2895 25.9729 29.1551 26.0737 29.1417C26.1744 29.1283 26.0737 29.1955 26.0737 29.2089C26.1677 29.2089 26.0737 29.2089 26.1341 29.0409C26.0938 29.0409 26.1341 29.0073 25.9998 29.0409C25.8654 29.0745 25.9326 28.9939 25.8385 29.2089C25.8049 29.2089 25.9057 29.135 25.778 29.0006C25.778 29.0006 25.7243 29.0006 25.6907 29.0342M24.1252 23.4374C24.058 23.5449 24.0849 23.4374 24.1655 23.7801C24.1185 23.8674 24.0446 23.8338 24.0714 24.1227C23.9102 24.2101 23.0233 24.0556 23.1711 24.6334C23.1711 24.6334 22.9024 24.9156 23.1711 25.0701C23.1711 25.1574 23.0636 25.1978 23.2383 25.3254C23.2523 25.3506 23.2727 25.3716 23.2975 25.3863C23.3223 25.4009 23.3506 25.4086 23.3794 25.4086C23.4082 25.4086 23.4365 25.4009 23.4613 25.3863C23.4861 25.3716 23.5066 25.3506 23.5205 25.3254C23.7288 25.2314 23.6549 25.8764 23.9572 25.4934C24.0324 25.5104 24.1105 25.5104 24.1857 25.4934L24.273 25.5539C24.3536 25.4934 24.273 25.4867 24.5015 25.5539C24.5195 25.5302 24.543 25.5111 24.5698 25.4983C24.5967 25.4854 24.6262 25.4792 24.656 25.4799L24.7232 25.7285H24.6694C24.6694 25.9368 24.7904 26.0376 24.8105 26.2325C24.5108 26.2261 24.2131 26.2834 23.9371 26.4004C23.6952 25.9435 22.7075 25.9301 22.768 27.0723C22.7547 27.0851 22.7446 27.101 22.7388 27.1186C22.7329 27.1361 22.7314 27.1548 22.7344 27.1731C22.7773 27.1585 22.818 27.1382 22.8553 27.1126C22.8275 27.311 22.8275 27.5122 22.8553 27.7106C22.9434 27.6386 23.0048 27.5393 23.03 27.4284C23.0656 27.5421 23.0656 27.6641 23.03 27.7778C23.0771 27.6434 23.3189 27.7106 23.4264 27.3007C23.4264 27.4351 23.4735 27.5964 23.3861 27.677C23.4164 27.6647 23.4438 27.6464 23.4668 27.6233C23.8833 27.9189 23.198 26.125 23.8766 26.5818C23.6079 26.9782 24.3469 27.8315 23.6885 28.5572C23.6668 28.8639 23.5571 29.1578 23.3727 29.4037C23.3727 29.4037 23.3727 29.4037 23.4063 29.4037C23.4063 29.4037 23.4063 29.4037 23.4399 29.4037C23.4735 29.4037 23.4399 29.4037 23.4063 29.612C23.1778 29.7867 23.5071 28.9401 22.8755 28.9401C23.3593 29.0476 22.7949 30.4855 24.179 30.163V30.2503C24.1264 30.2998 24.0648 30.3386 23.9975 30.3645C24.4679 30.257 25.4958 31.2581 26.208 30.5191C26.208 30.4116 26.5037 30.6266 26.4298 30.2234C26.4768 30.2234 26.4298 30.1495 26.6246 30.1361H26.6716C26.6716 30.1361 26.7254 30.1361 26.8262 30.1361C26.927 30.1361 26.8262 30.2302 27.1285 30.2839C27.1548 30.2506 27.1773 30.2146 27.1957 30.1764C27.4577 30.0689 27.9751 30.2973 28.0087 29.7867C27.9864 29.8263 27.9618 29.8644 27.9348 29.9009C27.9348 29.9009 27.9348 29.9009 27.9952 29.8405C27.9952 29.8942 27.9415 29.9547 27.9146 29.9614C27.8877 29.9681 27.9952 29.7867 27.9146 29.6994C27.9187 29.7484 27.9072 29.7975 27.8819 29.8396C27.8566 29.8818 27.8187 29.915 27.7735 29.9345C27.7735 29.9345 27.8071 29.8002 27.7735 29.7733C27.7743 29.7926 27.7705 29.8119 27.7623 29.8294C27.7541 29.8469 27.7418 29.8623 27.7265 29.8741C27.7265 29.8741 27.7265 29.8002 27.7265 29.7934C27.7203 29.8254 27.7059 29.8552 27.6847 29.88C27.6635 29.9047 27.6362 29.9235 27.6056 29.9345C27.6056 29.9345 27.6056 29.9345 27.6056 29.8741C27.6056 29.8136 27.6056 29.9144 27.5451 29.9144C27.4846 29.9144 27.5451 29.8539 27.5115 29.8405C27.4779 29.827 27.5115 29.8875 27.4712 29.9009C27.4309 29.9144 27.4712 29.8472 27.4376 29.8337C27.404 29.8203 27.4376 29.8337 27.4376 29.8741C27.4222 29.8119 27.3923 29.7544 27.3502 29.7061C27.3973 29.7061 27.3502 29.6389 27.3973 29.6187C27.4443 29.5986 27.3973 29.6187 27.4577 29.6187C27.5182 29.6187 27.4577 29.5717 27.4577 29.5583C27.4577 29.5448 27.4577 29.5583 27.4981 29.5583C27.5384 29.5583 27.4981 29.518 27.4981 29.4978C27.4981 29.4777 27.5316 29.4978 27.5518 29.4575C27.5731 29.4646 27.5922 29.477 27.6074 29.4934C27.6227 29.5099 27.6336 29.5298 27.6391 29.5516C27.6558 29.4922 27.6558 29.4295 27.6391 29.3701C27.6391 29.3701 27.6391 29.3701 27.6862 29.3701C27.7332 29.3701 27.7399 29.4642 27.7332 29.4911C27.7265 29.518 27.7332 29.397 27.7332 29.35C27.7332 29.303 27.7735 29.4105 27.8004 29.4441C27.8004 29.2223 27.5384 29.2828 27.2091 29.5448C27.2091 29.4844 27.1151 29.4575 27.0815 29.3903C27.1073 29.3467 27.1255 29.299 27.1352 29.2492C27.1352 29.2492 27.068 29.2492 27.0546 29.1887C27.061 29.1668 27.061 29.1435 27.0546 29.1216C27.0546 29.1216 26.9941 29.1216 26.9673 29.1216C26.8936 28.6662 26.7858 28.217 26.6448 27.7778C26.6448 27.7778 26.6448 27.8651 26.6448 27.7778L26.806 27.845C26.9202 27.8786 27.2696 27.4284 27.7399 27.3343C27.834 27.4418 27.6324 27.6031 27.5316 27.9256C27.4913 27.9256 27.5316 27.9928 27.4913 28.0331C27.3032 28.0331 27.3234 27.8315 27.236 28.3153C27.4241 28.3153 27.236 28.3153 27.6123 28.2481C27.9012 28.0465 27.9146 27.8047 28.0557 27.1126C27.7802 26.7834 28.0087 26.9178 27.0546 27.1126C27.1487 26.8842 27.0143 26.9648 26.8799 26.1384C26.974 26.1854 26.974 26.2123 27.1554 26.0107C27.1218 26.0107 27.236 26.1921 27.3704 26.0645C27.3704 26.0645 27.3704 26.0645 27.4107 26.0645C27.451 26.0645 27.4107 26.0645 27.5048 26.0645C27.7534 25.9704 27.834 25.9301 27.5988 25.0903C27.5988 25.0903 27.6459 25.0903 27.6391 25.0903H27.7534C27.7131 25.0096 27.7534 24.8954 27.6996 24.8282L27.7802 24.7476C27.7169 24.7187 27.6483 24.7027 27.5787 24.7006C27.5787 24.7006 27.5787 24.667 27.404 24.6401C27.404 24.5931 27.4779 24.546 27.5115 24.4923C27.4378 24.4847 27.3635 24.4847 27.2898 24.4923C27.2898 24.4923 27.2898 24.4923 27.1151 24.452C26.9404 24.4117 26.9538 24.284 26.4432 24.452C26.4729 24.4505 26.5024 24.4572 26.5285 24.4715C26.5545 24.4857 26.5762 24.5068 26.591 24.5326C26.3894 24.5326 26.4566 24.4385 26.1341 24.6401C26.1065 24.6492 26.0816 24.665 26.0617 24.6861C26.0418 24.7072 26.0274 24.733 26.0199 24.761H26.1005C26.0602 24.8148 25.8318 24.761 25.8049 24.8753C25.899 24.8753 25.8587 24.8753 26.0199 24.8753C25.899 24.9223 26.0199 24.8753 25.7512 25.1104C25.7363 25.0084 25.6966 24.9116 25.6357 24.8285C25.5748 24.7453 25.4945 24.6783 25.4018 24.6334C25.4018 24.6334 25.3615 24.6334 25.4018 24.499C25.4421 24.499 25.469 24.5393 25.5429 24.4587C25.8923 24.714 25.9729 23.4374 25.1801 23.8809C25.4757 23.5516 26.2215 24.3109 25.5496 24.452L25.6033 24.4049C25.6033 24.4049 25.6033 24.2907 25.7041 24.2706C25.7078 24.2303 25.7078 24.1899 25.7041 24.1496C25.7125 24.1317 25.7169 24.1123 25.7169 24.0925C25.7169 24.0728 25.7125 24.0533 25.7041 24.0354C25.7041 24.069 25.7041 24.1227 25.6638 24.1429C25.6235 24.1631 25.6638 24.0354 25.6638 24.0152C25.6773 24.0498 25.6773 24.0882 25.6638 24.1227C25.6638 24.1227 25.6638 24.0891 25.6638 24.0623C25.6638 24.0354 25.6638 24.0959 25.6638 24.1093C25.6638 24.1227 25.6235 24.0623 25.5832 24.0623C25.4287 24.0623 25.3144 24.2638 25.2808 24.3982C25.2808 24.3982 25.1465 24.3982 25.2002 24.2571C25.1465 24.3176 25.0524 24.3377 25.2002 24.1093C25.1263 24.1093 25.0927 24.2168 25.0524 24.284C25.0524 24.2302 24.9449 24.1765 25.1397 24.0421C25.0726 24.0421 25.1397 24.0421 25.0054 24.1227C24.9315 24.0556 25.0457 23.9346 25.3212 23.8473C25.3212 23.8473 25.3212 23.8473 25.1666 23.901C25.0793 23.901 24.8172 24.2034 25.086 24.2907C25.086 24.3781 25.1733 24.2907 25.0524 24.4587C24.8407 24.2932 24.5953 24.1762 24.3335 24.116V24.0488C24.3671 23.9749 24.394 23.9816 24.2663 23.8406C24.2663 23.8406 24.2663 23.8406 24.1722 23.8406C24.0782 23.8406 24.3402 23.6323 24.1924 23.377L24.1252 23.4374Z" fill="#808D9C"/>
<path d="M34.7546 33.4163C34.6672 33.4163 34.6471 33.6045 34.8083 33.5306C34.8083 33.4768 34.8553 33.4768 34.7546 33.4163ZM34.7546 33.6112C34.7546 33.6112 34.4858 33.4432 34.7546 33.3491C34.7613 33.282 35.0233 33.5507 34.7546 33.6112ZM33.0614 30.1779C33.1353 30.1779 33.1353 30.245 33.0614 30.1779C32.9741 30.4533 32.9875 30.1107 33.0614 30.1779ZM33.0614 30.3794C32.9338 30.4533 32.8733 29.9024 33.1958 30.2383C33.1958 30.3122 33.2025 30.245 33.0614 30.3794ZM38.1476 34.5317L37.5832 36.2853C37.4791 35.9273 37.4474 35.5522 37.4901 35.1818C37.5328 34.8115 37.6489 34.4534 37.8318 34.1285C37.8654 34.5585 38.1274 34.5317 38.1274 34.5317M37.4555 34.8542C37.3793 35.054 37.2547 35.2318 37.0927 35.3715C36.9583 34.8474 37.3212 33.8463 37.7646 32.8923C37.8403 32.9337 37.9272 32.9502 38.0129 32.9393C38.0986 32.9285 38.1786 32.8908 38.2416 32.8318C38.1073 33.2349 37.7915 34.0949 37.4891 34.8542H37.4555ZM37.301 33.8195C37.1615 34.1875 36.9592 34.5285 36.703 34.8273C36.7277 34.0516 36.9826 33.3009 37.4354 32.6705C37.4631 32.6735 37.4911 32.6696 37.5169 32.659C37.5427 32.6484 37.5655 32.6316 37.5832 32.6101C37.6214 32.702 37.676 32.7863 37.7444 32.8587L37.301 33.8195ZM36.6963 33.8531C36.6283 33.941 36.5518 34.022 36.4679 34.0949C36.503 33.5207 36.696 32.9674 37.0255 32.4959C37.0521 32.5011 37.0795 32.5011 37.1061 32.4959C37.1061 32.4959 37.0726 32.6638 37.3749 32.7041C37.1868 33.0132 37.1666 33.0602 36.703 33.8732M36.5283 33.2013C36.4328 33.3233 36.3169 33.4279 36.1857 33.5104C36.1708 33.0836 36.3011 32.6644 36.5552 32.3212L36.6627 32.1398C36.6627 32.0658 36.6627 32.4891 36.9785 32.5093C36.9785 32.5093 36.5686 33.1812 36.5283 33.1812M36.6157 32.1263C36.4163 32.4875 36.144 32.8032 35.8161 33.0535C35.7881 32.8939 35.7965 32.73 35.8407 32.5741C35.8849 32.4182 35.9638 32.2743 36.0714 32.1532L36.273 31.8508C36.273 31.8508 36.2125 32.133 36.6157 32.1263ZM35.5675 32.348C35.5205 32.0524 35.8363 31.7299 36.0513 31.5619C36.105 31.6224 35.9774 31.703 36.32 31.7568C36.3156 31.7812 36.3156 31.8063 36.32 31.8307C36.274 31.8937 36.2246 31.9543 36.1722 32.0121C36.0096 32.176 35.8051 32.2922 35.581 32.348M36.058 31.5216C35.8637 31.6684 35.6294 31.7528 35.3861 31.7635C35.4954 31.5354 35.6807 31.3525 35.9102 31.2462C35.9908 31.4477 36.0916 31.4276 36.0916 31.4276C36.074 31.4562 36.0625 31.4883 36.058 31.5216ZM38.4499 31.8912C38.6313 32.0591 38.6246 32.3279 38.6716 32.563C38.6044 33.0401 38.7791 32.4219 38.2013 34.4712C37.3615 34.2226 38.927 33.376 37.6168 32.5093C37.6168 32.5093 37.3682 32.8318 37.1935 32.4152C37.2472 32.3346 36.7769 32.6302 36.7635 32.0658C36.824 31.9852 36.3335 32.2741 36.3738 31.7165C36.4611 31.7165 35.9572 31.7702 36.1655 31.4007C36.1655 31.4007 35.9841 31.4007 35.9572 31.226L36.6694 30.8699C36.6694 30.9908 36.5552 32.3144 37.8519 31.6358C37.9657 31.6251 38.0803 31.6435 38.1849 31.6893C38.2895 31.7352 38.3807 31.807 38.4499 31.8979M32.4634 26.207L34.2103 26.805C34.2103 26.805 34.0356 27.0066 34.3649 27.282C33.6527 26.8991 33.478 27.4702 32.4634 26.207ZM34.2238 27.786C33.7416 27.681 33.2962 27.449 32.9338 27.1141C33.6056 26.9999 34.721 27.4769 35.675 27.712C35.3996 27.8128 35.3794 27.9069 35.3458 28.0614L34.2238 27.786ZM33.142 27.786C33.8925 27.7942 34.6366 27.9235 35.3458 28.1689C35.3617 28.2653 35.3984 28.357 35.4533 28.4377C35.4142 28.4238 35.3715 28.4238 35.3324 28.4377C34.5559 28.4104 33.8003 28.1786 33.142 27.7658M34.8957 28.8408C34.4325 28.7793 33.9879 28.6189 33.5922 28.3705C34.1568 28.3494 34.722 28.3877 35.2786 28.4847C35.2786 28.4847 35.1846 28.6057 35.2786 28.8139L35.2182 28.8744L34.8957 28.8408ZM35.0972 29.3649C34.6672 29.3586 34.2505 29.215 33.908 28.955C34.0532 28.8959 34.2081 28.864 34.3649 28.861C34.4186 28.861 35.1913 28.9147 35.1913 28.9147C35.1913 28.9147 35.0233 29.1566 35.3055 29.3783L35.0972 29.3649ZM34.9225 29.8352C34.7608 29.8468 34.5984 29.8233 34.4466 29.7665C34.2947 29.7097 34.1568 29.6209 34.0424 29.506C34.4439 29.3914 34.8644 29.3594 35.2786 29.4119C35.2316 29.4993 35.0703 29.5664 35.2786 29.8486C35.2786 29.8486 34.9427 29.8486 34.9091 29.8486M34.4455 30.1711C34.5635 30.0681 34.7011 29.99 34.85 29.9415C34.999 29.893 35.1562 29.8752 35.3122 29.8889C35.3122 29.8889 35.3525 29.8889 35.3727 29.8889C35.3928 29.8889 35.198 29.9696 35.3727 30.2182C35.1174 30.2921 34.6605 30.3525 34.4455 30.1375M34.8083 30.6415C34.9024 30.534 34.7411 30.5676 35.3996 30.2383C35.4283 30.2573 35.4601 30.2709 35.4936 30.2786C35.4936 30.2786 35.4264 30.3458 35.5407 30.5272C35.3172 30.6493 35.0583 30.6897 34.8083 30.6415ZM34.2238 27.0334C34.2238 27.0334 34.2238 26.8722 34.2238 26.8184C34.8527 27.0183 35.464 27.27 36.0513 27.571C36.0177 27.7725 36.7232 27.7591 36.3268 28.7736C36.3268 29.0021 34.9158 29.3178 36.2529 30.1711C36.011 30.2988 35.581 30.4869 35.5407 30.5272C35.4399 30.4265 35.5407 30.2585 35.5407 30.2585C35.5407 30.2585 35.1174 30.2047 35.413 29.9091C35.5407 29.9494 34.9427 29.6471 35.3593 29.3918C35.4869 29.4455 34.9091 29.0894 35.3257 28.8408C35.4332 28.8408 34.9628 28.5653 35.5004 28.4377C35.2853 27.4903 36.0244 27.9674 34.2103 27.0334M33.861 36.2114L33.431 37.105L32.88 36.8429L33.1756 36.2315C33.3988 36.2575 33.6243 36.2575 33.8475 36.2315M34.2708 36.0971L34.1566 36.3323L33.9013 36.2181C34.0278 36.1889 34.1515 36.1484 34.2708 36.0971ZM30.6628 36.6951L31.3347 35.3514C31.6276 35.6182 31.9554 35.8442 32.3089 36.0232L31.7445 37.2192L30.6628 36.6951ZM30.4276 37.75L29.0839 37.1117C29.2182 37.0714 29.1779 37.1117 29.6953 36.8228L30.6897 37.2864L30.4276 37.75ZM24.7166 37.6089C24.456 37.7041 24.177 37.7384 23.901 37.7093C23.625 37.6802 23.3593 37.5884 23.1243 37.4409L25.2676 36.3793L25.6304 36.5473C25.4657 37.0009 25.1407 37.3785 24.7166 37.6089ZM24.8174 36.1442L23.0504 37.0378C23.1103 36.7724 23.2233 36.5218 23.3827 36.3013C23.542 36.0807 23.7444 35.8947 23.9776 35.7545L24.8174 36.1442ZM27.5453 33.282C27.9034 33.1441 28.2934 33.1113 28.6695 33.1875C29.0456 33.2637 29.3922 33.4456 29.6684 33.712L26.7256 35.2103C26.7995 34.4712 26.9943 33.5238 27.5453 33.282ZM26.8734 35.6201L29.9506 34.0949C30.0715 35.4387 28.9226 37.1318 26.8734 35.6201ZM14.6854 32.1532H14.4637C14.5578 32.5026 13.3013 32.9057 13.6373 31.8105C13.4731 31.6161 13.3675 31.3789 13.3328 31.1268C13.2981 30.8746 13.3358 30.6178 13.4414 30.3862C13.547 30.1546 13.7161 29.9578 13.9293 29.8186C14.1424 29.6794 14.3906 29.6036 14.6451 29.6C14.6921 29.2439 15.7268 29.1096 15.4917 30.0166C15.6309 30.198 15.7215 30.4119 15.755 30.6381C15.7885 30.8643 15.7637 31.0953 15.6829 31.3092C15.6022 31.5231 15.4682 31.7129 15.2937 31.8606C15.1191 32.0083 14.9098 32.109 14.6854 32.1532ZM39.068 29.1835C38.9536 29.0153 38.7946 28.8823 38.6088 28.7994C38.423 28.7166 38.2178 28.6871 38.0162 28.7143C37.8146 28.7415 37.6245 28.8243 37.4674 28.9535C37.3102 29.0826 37.1921 29.253 37.1263 29.4455C36.8105 29.6941 36.7366 29.9024 36.7568 30.0636L30.7098 33.1476C30.1118 32.6369 31.0928 27.1813 32.5575 30.9841C32.5575 30.8766 32.6583 29.5463 33.0345 31.1655C33.0767 30.951 33.1933 30.7582 33.3638 30.6213C33.3638 27.7524 28.6942 28.431 29.6886 32.637C27.8409 31.4746 25.9193 32.8251 25.8118 35.0087C25.2962 34.8208 24.7412 34.7676 24.1993 34.8542L17.2453 31.6157L16.8892 31.4612L17.3729 30.4533C17.3058 30.4533 17.1714 30.3727 16.8556 30.2182C16.8282 30.0945 16.7735 29.9784 16.6957 29.8785C16.6178 29.7786 16.5187 29.6972 16.4054 29.6404C16.4726 29.4388 16.4995 29.553 16.1232 28.9685C16.3181 28.5989 15.8007 27.4836 14.9609 28.4242C14.6384 28.263 14.9609 28.3503 14.289 28.6325C14.0203 28.5653 13.3551 28.525 12.9788 29.4522C12.9788 29.4522 11.9374 29.4522 12.4749 30.5272C12.1927 30.964 12.0315 31.2663 12.6698 32.0457C12.6026 32.2405 12.5757 32.1398 12.9587 32.7176C12.7638 33.0804 13.2745 34.189 14.121 33.2551C14.4368 33.4163 14.121 33.329 14.7929 33.0468C14.9089 33.0999 15.0349 33.1275 15.1625 33.1275C15.29 33.1275 15.416 33.0999 15.532 33.0468L16.0426 33.2887L16.4861 32.3548L23.0638 35.3984C22.637 35.8244 22.363 36.3795 22.2844 36.9773C21.5185 35.7948 17.8769 36.7018 18.925 38.6906C19.0661 38.0187 20.0538 36.3525 21.9619 37.6425C15.1692 41.0019 19.9059 39.2752 22.1769 37.9448C22.0761 38.5025 22.0224 40.8003 19.5297 39.8731C20.0067 41.1295 23.1511 40.928 22.8891 38.227C24.8174 38.9459 25.449 38.4823 26.3963 36.9504L32.5642 39.8059C32.5306 39.8059 33.6392 39.8664 32.9606 38.9728C32.9606 38.9728 32.7188 38.8519 32.2887 38.657L32.5105 38.1934L33.5452 38.6705L34.6874 36.2517L34.3716 36.1039C35.2114 35.9292 35.9572 33.4163 34.5866 33.1274C34.3756 33.1833 34.1516 33.1619 33.955 33.067C34.0692 33.3827 34.9158 34.2763 33.8206 33.5574C36.0983 36.5272 31.2003 34.9885 30.8711 33.6582L36.9986 30.6213C37.1129 30.7355 37.301 30.7758 37.7041 30.6616C38.208 30.7557 39.3704 30.6616 39.0479 29.2507" fill="#FABC42"/>
</svg>
