<svg width="17" height="17" viewBox="0 0 17 17" fill="none" xmlns="http://www.w3.org/2000/svg">
<path fill-rule="evenodd" clip-rule="evenodd" d="M14.7751 1.63431C14.3063 1.16563 13.6705 0.902344 13.0076 0.902344C12.3447 0.902344 11.7089 1.16563 11.2401 1.63431L10.651 2.22431L14.776 6.34931L15.3643 5.76014C15.5965 5.52799 15.7807 5.25237 15.9063 4.94903C16.032 4.64569 16.0967 4.32057 16.0967 3.99223C16.0967 3.66389 16.032 3.33876 15.9063 3.03542C15.7807 2.73208 15.5965 2.45646 15.3643 2.22431L14.7751 1.63431ZM13.5968 7.52764L9.47179 3.40264L1.89679 10.9785C1.73102 11.1443 1.61523 11.3533 1.56262 11.5818L0.705122 15.2943C0.673171 15.4321 0.676836 15.5758 0.715772 15.7118C0.754707 15.8479 0.827631 15.9717 0.927672 16.0718C1.02771 16.1718 1.15158 16.2447 1.28759 16.2837C1.42361 16.3226 1.5673 16.3263 1.70512 16.2943L5.41846 15.4376C5.64663 15.3849 5.85539 15.2691 6.02096 15.1035L13.5968 7.52764Z" fill="url(#paint0_linear_3228_26485)"/>
<defs>
<linearGradient id="paint0_linear_3228_26485" x1="0.683594" y1="8.7602" x2="15.0788" y2="8.7602" gradientUnits="userSpaceOnUse">
<stop stop-color="#27C58B"/>
<stop offset="1" stop-color="#029E81"/>
</linearGradient>
</defs>
</svg>
