<svg width="70" height="71" viewBox="0 0 70 71" fill="none" xmlns="http://www.w3.org/2000/svg">
<circle cx="35" cy="35.5396" r="35" fill="#F5F5F5"/>
<path d="M35 63.1497C50.1878 63.1497 62.5 50.7883 62.5 35.5397C62.5 29.1732 60.3538 23.3099 56.7481 18.6396L55.4979 19.8948C58.7915 24.238 60.747 29.6596 60.747 35.5397C60.747 49.8162 49.2197 61.3897 35 61.3897C20.7803 61.3897 9.25299 49.8162 9.25299 35.5397C9.25299 21.2631 20.7803 9.68969 35 9.68969C42.4142 9.68969 49.0965 12.8361 53.7944 17.8715L55.0346 16.6264C50.0189 11.2727 42.8983 7.92969 35 7.92969C19.8122 7.92969 7.5 20.2911 7.5 35.5397C7.5 50.7883 19.8122 63.1497 35 63.1497Z" fill="#455A64"/>
<path d="M49.1428 22.5418C45.6374 18.6992 40.599 16.2897 35 16.2897C24.4109 16.2897 15.8267 24.9082 15.8267 35.5397C15.8267 46.1712 24.4109 54.7897 35 54.7897C45.5891 54.7897 54.1733 46.1712 54.1733 35.5397C54.1733 31.4846 52.9245 27.7224 50.7919 24.6196L49.5294 25.8871C51.3563 28.6535 52.4203 31.9718 52.4203 35.5397C52.4203 45.1991 44.621 53.0297 35 53.0297C25.379 53.0297 17.5797 45.1991 17.5797 35.5397C17.5797 25.8802 25.379 18.0497 35 18.0497C40.1149 18.0497 44.715 20.2629 47.9019 23.7876L49.1428 22.5418Z" fill="#455A64"/>
<path d="M42.9339 28.7754C41.0248 26.5204 38.1788 25.0897 35 25.0897C29.2516 25.0897 24.5916 29.7683 24.5916 35.5397C24.5916 41.3111 29.2516 45.9897 35 45.9897C40.7484 45.9897 45.4084 41.3111 45.4084 35.5397C45.4084 33.9287 45.0453 32.4029 44.3968 31.0402L43.0646 32.3778C43.446 33.3577 43.6554 34.4241 43.6554 35.5397C43.6554 40.339 39.7802 44.2297 35 44.2297C30.2198 44.2297 26.3446 40.339 26.3446 35.5397C26.3446 30.7403 30.2198 26.8497 35 26.8497C37.6948 26.8497 40.102 28.0862 41.6894 30.0249L42.9339 28.7754Z" fill="#455A64"/>
<path d="M37.3486 34.3664L52.6134 19.0404H55.9191L61.945 13.2654H57.1603L57.0695 13.1743V8.31543L51.2079 13.9804V17.9626L36.0903 33.1407C35.7562 32.9864 35.3845 32.9004 34.9928 32.9004C33.5405 32.9004 32.3633 34.0824 32.3633 35.5404C32.3633 36.9985 33.5405 38.1804 34.9928 38.1804C36.445 38.1804 37.6222 36.9985 37.6222 35.5404C37.6222 35.1187 37.5237 34.72 37.3486 34.3664Z" fill="#455A64"/>
</svg>
