<?xml version="1.0" encoding="utf-8"?>
<!-- Generator: Adobe Illustrator 25.4.1, SVG Export Plug-In . SVG Version: 6.00 Build 0)  -->
<svg version="1.1" id="Слой_1" xmlns="http://www.w3.org/2000/svg" xmlns:xlink="http://www.w3.org/1999/xlink" x="0px" y="0px"
	 viewBox="0 0 20 20" style="enable-background:new 0 0 20 20;" xml:space="preserve">
<style type="text/css">
	.st0{fill-rule:evenodd;clip-rule:evenodd;fill:#FFFFFF;}
	.st1{fill:#FFFFFF;}
</style>
<path class="st0" d="M10,19c5,0,9-4,9-9c0-5-4-9-9-9c-5,0-9,4-9,9C1,15,5,19,10,19z M10,20c5.5,0,10-4.5,10-10c0-5.5-4.5-10-10-10
	C4.5,0,0,4.5,0,10C0,15.5,4.5,20,10,20z"/>
<path class="st1" d="M10.4,12.2H9.1c0-0.4,0-0.8,0.1-1.1c0.1-0.3,0.2-0.5,0.4-0.8c0.2-0.2,0.4-0.5,0.7-0.8c0.2-0.2,0.4-0.4,0.6-0.6
	c0.2-0.2,0.3-0.4,0.4-0.6c0.1-0.2,0.2-0.5,0.2-0.8c0-0.3-0.1-0.6-0.2-0.8c-0.1-0.2-0.3-0.4-0.5-0.5C10.6,6.1,10.3,6,10,6
	c-0.3,0-0.5,0-0.8,0.1C9,6.3,8.8,6.4,8.7,6.6C8.5,6.8,8.5,7.1,8.5,7.4H7.2c0-0.5,0.1-1,0.4-1.3c0.3-0.4,0.6-0.7,1-0.8
	C9,5,9.5,4.9,10,4.9c0.6,0,1.1,0.1,1.5,0.3c0.4,0.2,0.7,0.5,0.9,0.9c0.2,0.4,0.3,0.8,0.3,1.4c0,0.4-0.1,0.8-0.3,1.1
	c-0.2,0.3-0.4,0.7-0.6,1c-0.3,0.3-0.5,0.6-0.8,0.9c-0.3,0.2-0.4,0.5-0.5,0.8C10.4,11.5,10.4,11.9,10.4,12.2z M9.1,14.4
	c0-0.2,0.1-0.4,0.2-0.5c0.1-0.1,0.3-0.2,0.6-0.2c0.2,0,0.4,0.1,0.6,0.2c0.1,0.1,0.2,0.3,0.2,0.5c0,0.2-0.1,0.4-0.2,0.5
	c-0.1,0.1-0.3,0.2-0.6,0.2c-0.2,0-0.4-0.1-0.6-0.2C9.1,14.7,9.1,14.6,9.1,14.4z"/>
</svg>
