<svg width="119" height="118" viewBox="0 0 119 118" fill="none" xmlns="http://www.w3.org/2000/svg">
<path d="M-0.00830078 59.304C-0.00830078 27.0167 26.4086 0.599854 58.6959 0.599854C90.9832 0.599854 117.4 27.0167 117.4 59.304C117.4 91.5913 90.9832 118.008 58.6959 118.008C26.4086 118.008 -0.00830078 91.5913 -0.00830078 59.304Z" fill="#1A4A7F"/>
<path fill-rule="evenodd" clip-rule="evenodd" d="M49.2888 118.008C37.3903 116.177 26.2354 110.682 17.6833 102.257L71.2267 53.9039L40.7367 61.2301C32.1847 63.428 23.6326 58.2996 21.7735 49.8745C21.7735 49.8745 21.7735 49.8745 21.7735 49.5082C19.9143 41.083 25.1199 32.6579 33.672 30.46L97.6266 15.075C122.911 35.9547 126.257 72.9521 105.063 97.4949C99.1139 104.455 91.6773 109.949 83.1252 113.613C83.1252 111.415 83.1252 109.217 83.8689 107.385L93.9083 77.7141C93.5364 77.7141 49.2888 118.008 49.2888 118.008Z" fill="url(#paint0_linear_4004_363)"/>
<defs>
<linearGradient id="paint0_linear_4004_363" x1="137.867" y1="0.849635" x2="-63.0178" y2="187.965" gradientUnits="userSpaceOnUse">
<stop stop-color="#FFB800"/>
<stop offset="1" stop-color="#FFF11D"/>
</linearGradient>
</defs>
</svg>
