<svg width="108" height="16" viewBox="0 0 108 16" fill="none" xmlns="http://www.w3.org/2000/svg">
<path fill-rule="evenodd" clip-rule="evenodd" d="M101.343 0.934535L107.707 7.41606C108.098 7.8138 108.098 8.45866 107.707 8.8564L101.343 15.3379C100.953 15.7357 100.319 15.7357 99.9289 15.3379C99.5384 14.9402 99.5384 14.2953 99.9289 13.8976L104.942 8.79158V7.48088L99.9289 2.37487C99.5384 1.97714 99.5384 1.33227 99.9289 0.934535C100.319 0.536796 100.953 0.536796 101.343 0.934535ZM2.05769 9.1547H0V7.11776H2.05769V9.1547ZM10.2885 9.1547H6.17308V7.11776H10.2885V9.1547ZM18.5192 9.1547H14.4038V7.11776H18.5192V9.1547ZM26.75 9.1547H22.6346V7.11776H26.75V9.1547ZM34.9808 9.1547H30.8654V7.11776H34.9808V9.1547ZM43.2115 9.1547H39.0962V7.11776H43.2115V9.1547ZM51.4423 9.1547H47.3269V7.11776H51.4423V9.1547ZM59.6731 9.1547H55.5577V7.11776H59.6731V9.1547ZM67.9038 9.1547H63.7884V7.11776H67.9038V9.1547ZM76.1346 9.1547H72.0192V7.11776H76.1346V9.1547ZM84.3654 9.1547H80.25V7.11776H84.3654V9.1547ZM92.5962 9.1547H88.4808V7.11776H92.5962V9.1547ZM100.827 9.1547H96.7115V7.11776H100.827V9.1547Z" fill="white"/>
</svg>
