<svg width="71" height="71" viewBox="0 0 71 71" fill="none" xmlns="http://www.w3.org/2000/svg">
<circle cx="35.9531" cy="35.5396" r="35" fill="#F5F5F5"/>
<path fill-rule="evenodd" clip-rule="evenodd" d="M46.5681 34.2122C46.4241 34.5914 45.9999 34.782 45.6207 34.638L35.1514 30.6612C34.7722 30.5172 34.5816 30.0931 34.7256 29.7139C34.8697 29.3347 35.2938 29.1441 35.673 29.2881L46.1423 33.2649C46.5215 33.4089 46.7121 33.833 46.5681 34.2122Z" fill="#455A64"/>
<path fill-rule="evenodd" clip-rule="evenodd" d="M21.7841 23.4348C21.3298 22.2478 22.4953 21.0832 23.6819 21.5384L55.4857 33.7383C56.6111 34.17 56.7661 35.6987 55.7502 36.3475L46.8353 42.0411L57.6313 52.5074C58.2408 53.0984 58.2239 54.0815 57.5943 54.6511L54.8342 57.1484C54.2571 57.6705 53.3729 57.6519 52.8183 57.1059L42.0943 46.5482L36.3136 54.9565C35.6433 55.9314 34.1544 55.7544 33.7315 54.6494L21.7841 23.4348ZM54.9596 35.1096L23.1559 22.9098L35.1032 54.1244L40.884 45.716C41.4016 44.9631 42.4737 44.8605 43.1248 45.5015L53.8488 56.0592L56.6089 53.562L45.8129 43.0956C45.1322 42.4357 45.2457 41.3134 46.0447 40.8032L54.9596 35.1096Z" fill="#455A64"/>
<path fill-rule="evenodd" clip-rule="evenodd" d="M32.4299 28.6125C32.2875 28.9923 31.8642 29.1847 31.4844 29.0423L29.1877 28.181C28.8079 28.0386 28.6155 27.6153 28.7579 27.2355C28.9003 26.8557 29.3236 26.6633 29.7034 26.8057L32.0002 27.667C32.3799 27.8094 32.5724 28.2328 32.4299 28.6125Z" fill="#455A64"/>
<path fill-rule="evenodd" clip-rule="evenodd" d="M18.2369 22.4468C18.2399 22.8524 17.9136 23.1837 17.508 23.1868L15.0551 23.2053C14.6495 23.2083 14.3183 22.882 14.3152 22.4764C14.3121 22.0708 14.6384 21.7395 15.044 21.7365L17.4969 21.718C17.9025 21.7149 18.2338 22.0412 18.2369 22.4468Z" fill="#455A64"/>
<path fill-rule="evenodd" clip-rule="evenodd" d="M22.422 17.9654C22.0165 17.9725 21.682 17.6495 21.6749 17.2439L21.6321 14.7914C21.625 14.3858 21.9481 14.0513 22.3536 14.0442C22.7592 14.0372 23.0937 14.3602 23.1007 14.7657L23.1435 17.2183C23.1506 17.6239 22.8276 17.9584 22.422 17.9654Z" fill="#455A64"/>
<path fill-rule="evenodd" clip-rule="evenodd" d="M19.2951 18.2203C19.0459 18.5403 18.5844 18.5977 18.2644 18.3484L16.3292 16.8411C16.0092 16.5919 15.9519 16.1304 16.2011 15.8104C16.4504 15.4904 16.9118 15.4331 17.2318 15.6823L19.167 17.1896C19.487 17.4389 19.5444 17.9003 19.2951 18.2203Z" fill="#455A64"/>
<path fill-rule="evenodd" clip-rule="evenodd" d="M26.3781 18.7168C26.0729 18.4496 26.042 17.9857 26.3091 17.6804L27.9246 15.8346C28.1917 15.5293 28.6557 15.4985 28.9609 15.7656C29.2661 16.0327 29.297 16.4967 29.0299 16.8019L27.4144 18.6478C27.1473 18.953 26.6833 18.9839 26.3781 18.7168Z" fill="#455A64"/>
<path fill-rule="evenodd" clip-rule="evenodd" d="M16.7375 28.4174C16.4322 28.1503 16.4014 27.6863 16.6685 27.3811L18.2839 25.5352C18.5511 25.23 19.015 25.1991 19.3203 25.4663C19.6255 25.7334 19.6564 26.1974 19.3893 26.5026L17.7738 28.3485C17.5067 28.6537 17.0427 28.6846 16.7375 28.4174Z" fill="#455A64"/>
</svg>
