<svg width="71" height="71" viewBox="0 0 71 71" fill="none" xmlns="http://www.w3.org/2000/svg">
<circle cx="35.7188" cy="35.5396" r="35" fill="#F5F5F5"/>
<path d="M26.8703 27.2894L25.0703 29.0894L24.6703 28.6894C24.3703 28.3894 23.9703 28.3894 23.6703 28.6894C23.3703 28.9894 23.3703 29.3894 23.6703 29.6894L24.5703 30.5894C24.6703 30.6894 24.8703 30.7894 25.0703 30.7894C25.2703 30.7894 25.4703 30.6894 25.5703 30.5894L27.8703 28.2894C28.1703 27.9894 28.1703 27.5894 27.8703 27.2894C27.5703 26.9895 27.0703 26.9895 26.8703 27.2894Z" fill="#455A64"/>
<path d="M30.3719 28.4898H46.2719C46.6719 28.4898 46.9719 28.1898 46.9719 27.7898C46.9719 27.3898 46.6719 27.0898 46.2719 27.0898H30.3719C29.9719 27.0898 29.6719 27.3898 29.6719 27.7898C29.6719 28.0898 29.9719 28.4898 30.3719 28.4898Z" fill="#455A64"/>
<path d="M30.3719 31.1901H42.8719C43.2719 31.1901 43.5719 30.8901 43.5719 30.4901C43.5719 30.0901 43.2719 29.79 42.8719 29.79H30.3719C29.9719 29.79 29.6719 30.0901 29.6719 30.4901C29.6719 30.8901 29.9719 31.1901 30.3719 31.1901Z" fill="#455A64"/>
<path d="M26.8703 34.4897L25.0703 36.2897L24.6703 35.8897C24.3703 35.5897 23.9703 35.5897 23.6703 35.8897C23.3703 36.1897 23.3703 36.5897 23.6703 36.8897L24.5703 37.7897C24.6703 37.8897 24.8703 37.9897 25.0703 37.9897C25.2703 37.9897 25.4703 37.8897 25.5703 37.7897L27.8703 35.4897C28.1703 35.1897 28.1703 34.7897 27.8703 34.4897C27.5703 34.1896 27.0703 34.1896 26.8703 34.4897Z" fill="#455A64"/>
<path d="M30.3719 38.3902H42.8719C43.2719 38.3902 43.5719 38.0902 43.5719 37.6902C43.5719 37.2902 43.2719 36.9902 42.8719 36.9902H30.3719C29.9719 36.9902 29.6719 37.2902 29.6719 37.6902C29.6719 38.0902 29.9719 38.3902 30.3719 38.3902Z" fill="#455A64"/>
<path d="M26.8703 41.6896L25.0703 43.4897L24.6703 43.0896C24.3703 42.7896 23.9703 42.7896 23.6703 43.0896C23.3703 43.3896 23.3703 43.7897 23.6703 44.0897L24.5703 44.9897C24.6703 45.0897 24.8703 45.1897 25.0703 45.1897C25.2703 45.1897 25.4703 45.0897 25.5703 44.9897L27.8703 42.6896C28.1703 42.3896 28.1703 41.9896 27.8703 41.6896C27.5703 41.4895 27.0703 41.4895 26.8703 41.6896Z" fill="#455A64"/>
<path d="M30.3719 42.8903H46.2719C46.6719 42.8903 46.9719 42.5903 46.9719 42.1903C46.9719 41.7902 46.6719 41.4902 46.2719 41.4902H30.3719C29.9719 41.4902 29.6719 41.7902 29.6719 42.1903C29.6719 42.5903 29.9719 42.8903 30.3719 42.8903Z" fill="#455A64"/>
<path d="M30.3719 45.6901H42.8719C43.2719 45.6901 43.5719 45.3901 43.5719 44.9901C43.5719 44.5901 43.2719 44.29 42.8719 44.29H30.3719C29.9719 44.29 29.6719 44.5901 29.6719 44.9901C29.6719 45.3901 29.9719 45.6901 30.3719 45.6901Z" fill="#455A64"/>
<path d="M61.1695 35.5899C61.1695 31.4899 57.8695 28.0899 53.6695 28.0899V17.6899C53.6695 15.7899 52.0695 14.1899 50.1695 14.1899H38.1695C37.5695 12.9899 36.3695 12.1899 34.9695 12.1899C33.5695 12.1899 32.3695 12.9899 31.7695 14.1899H19.7695C17.8695 14.1899 16.2695 15.7899 16.2695 17.6899V55.3899C16.2695 57.2899 17.8695 58.8899 19.7695 58.8899H50.1695C52.0695 58.8899 53.6695 57.2899 53.6695 55.3899V43.0899C55.5695 43.0899 57.2695 42.3899 58.5695 41.1899L58.6695 41.0899C60.1695 39.7899 61.1695 37.7899 61.1695 35.5899ZM59.7695 35.5899C59.7695 37.0899 59.2695 38.3899 58.3695 39.4899C57.7695 38.3899 56.8695 37.4899 55.6695 36.9899C56.0695 36.4899 56.3695 35.7899 56.3695 35.0899V34.5899C56.3695 32.9899 55.0695 31.7899 53.5695 31.7899C51.9695 31.7899 50.7695 33.0899 50.7695 34.5899V35.0899C50.7695 35.7899 51.0695 36.4899 51.4695 36.9899C50.3695 37.4899 49.3695 38.3899 48.7695 39.4899C47.8695 38.3899 47.3695 37.0899 47.3695 35.5899C47.3695 32.1899 50.1695 29.3899 53.5695 29.3899C56.9695 29.3899 59.7695 32.1899 59.7695 35.5899ZM49.8695 40.4899C50.4695 38.9899 51.9695 37.9899 53.5695 37.9899C55.1695 37.9899 56.6695 38.9899 57.2695 40.4899C56.2695 41.2899 54.9695 41.7899 53.5695 41.7899C52.1695 41.6899 50.9695 41.1899 49.8695 40.4899ZM52.1695 35.0899V34.5899C52.1695 33.7899 52.8695 33.0899 53.6695 33.0899C54.4695 33.0899 55.1695 33.7899 55.1695 34.5899V35.0899C55.1695 35.8899 54.4695 36.5899 53.6695 36.5899C52.8695 36.5899 52.1695 35.8899 52.1695 35.0899ZM52.2695 17.6899V28.0899C51.5695 28.1899 50.9695 28.3899 50.3695 28.6899V18.2899C50.3695 17.8899 50.0695 17.5899 49.6695 17.5899H41.2695V16.1899C41.2695 15.9899 41.2695 15.8899 41.1695 15.6899H50.1695C51.3695 15.6899 52.2695 16.5899 52.2695 17.6899ZM32.2695 15.6899C32.5695 15.6899 32.8695 15.4899 32.9695 15.1899C33.1695 14.2899 34.0695 13.6899 34.9695 13.6899H35.0695C35.9695 13.6899 36.8695 14.2899 37.0695 15.1899C37.1695 15.4899 37.4695 15.6899 37.7695 15.6899H39.3695C39.6695 15.6899 39.8695 15.8899 39.8695 16.1899V17.5899H30.1695V16.1899C30.1695 15.8899 30.3695 15.6899 30.6695 15.6899H32.2695ZM50.2695 57.4899H19.8695C18.7695 57.4899 17.7695 56.5899 17.7695 55.3899V17.6899C17.7695 16.5899 18.6695 15.5899 19.8695 15.5899H28.8695C28.8695 15.7899 28.7695 15.8899 28.7695 16.0899V17.4899H20.3695C19.9695 17.4899 19.6695 17.7899 19.6695 18.1899V54.7899C19.6695 55.1899 19.9695 55.4899 20.3695 55.4899H32.2695C32.6695 55.4899 32.9695 55.1899 32.9695 54.7899C32.9695 54.3899 32.6695 54.0899 32.2695 54.0899H21.0695V18.9899H48.9695V29.5899C47.5695 30.6899 46.4695 32.3899 46.1695 34.2899H30.3695C29.9695 34.2899 29.6695 34.5899 29.6695 34.9899C29.6695 35.3899 29.9695 35.6899 30.3695 35.6899H46.0695C46.0695 37.8899 47.0695 39.7899 48.5695 41.1899L48.6695 41.2899C48.7695 41.3899 48.8695 41.4899 48.9695 41.5899V54.2899H37.7695C37.3695 54.2899 37.0695 54.5899 37.0695 54.9899C37.0695 55.3899 37.3695 55.6899 37.7695 55.6899H49.6695C50.0695 55.6899 50.3695 55.3899 50.3695 54.9899V42.3899C50.9695 42.6899 51.6695 42.8899 52.2695 42.9899V55.3899C52.2695 56.5899 51.3695 57.4899 50.2695 57.4899Z" fill="#455A64"/>
<path d="M35.0672 16.2902C35.2672 16.2902 35.4672 16.1902 35.5672 16.0902C35.6672 15.9902 35.7672 15.7902 35.7672 15.5902C35.7672 15.3902 35.6672 15.1901 35.5672 15.0901C35.4672 14.9901 35.2672 14.8901 35.0672 14.8901C34.8672 14.8901 34.6672 14.9901 34.5672 15.0901C34.4672 15.1901 34.3672 15.3902 34.3672 15.5902C34.3672 15.7902 34.4672 15.9902 34.5672 16.0902C34.6672 16.1902 34.8672 16.2902 35.0672 16.2902Z" fill="#455A64"/>
<path d="M35.0672 54.1895C34.8672 54.1895 34.6672 54.2895 34.5672 54.3895C34.4672 54.4895 34.3672 54.6895 34.3672 54.8895C34.3672 55.0895 34.4672 55.2895 34.5672 55.3895C34.6672 55.4895 34.8672 55.5895 35.0672 55.5895C35.2672 55.5895 35.4672 55.4895 35.5672 55.3895C35.6672 55.2895 35.7672 55.0895 35.7672 54.8895C35.7672 54.6895 35.6672 54.4895 35.5672 54.3895C35.3672 54.1895 35.2672 54.1895 35.0672 54.1895Z" fill="#455A64"/>
</svg>
