<svg width="71" height="71" viewBox="0 0 71 71" fill="none" xmlns="http://www.w3.org/2000/svg">
<circle cx="35.6992" cy="35.5396" r="35" fill="#F5F5F5"/>
<g clip-path="url(#clip0_3867_27)">
<path d="M21.8242 50.375H54.1992V55H17.1992V18H21.8242V50.375ZM27.6055 48.0625C25.7555 48.0625 24.1367 46.4438 24.1367 44.5938C24.1367 42.7437 25.7555 41.125 27.6055 41.125H27.8367L31.5367 34.8813C31.3055 34.4188 31.0742 33.725 31.0742 33.0312C31.0742 31.1812 32.693 29.5625 34.543 29.5625C36.393 29.5625 38.0117 31.1812 38.0117 33.0312C38.0117 33.725 37.7805 34.4188 37.5492 34.8813L41.2492 41.125H41.4805H41.7117L47.9555 30.2563C47.493 29.7938 47.2617 29.1 47.2617 28.4062C47.2617 26.5562 48.8805 24.9375 50.7305 24.9375C52.5805 24.9375 54.1992 26.5562 54.1992 28.4062C54.1992 30.2563 52.5805 31.875 50.7305 31.875H50.4992L44.2555 42.7437C44.718 43.2062 44.9492 43.9 44.9492 44.5938C44.9492 46.4438 43.3305 48.0625 41.4805 48.0625C39.6305 48.0625 38.0117 46.4438 38.0117 44.5938C38.0117 43.9 38.243 43.2062 38.4742 42.7437L34.7742 36.5H34.543H34.3117L30.6117 42.7437C30.843 43.2062 31.0742 43.9 31.0742 44.5938C31.0742 46.4438 29.4555 48.0625 27.6055 48.0625Z" fill="#455A64" stroke="#F5F5F5" stroke-width="2"/>
</g>
<defs>
<clipPath id="clip0_3867_27">
<rect width="37" height="37" fill="white" transform="translate(17.1992 18)"/>
</clipPath>
</defs>
</svg>
