<svg width="90" height="75" viewBox="0 0 90 75" fill="none" xmlns="http://www.w3.org/2000/svg">
<path d="M44.9998 30C48.978 30 52.7933 28.4196 55.6064 25.6066C58.4194 22.7936 59.9998 18.9782 59.9998 15C59.9998 11.0218 58.4194 7.20644 55.6064 4.3934C52.7933 1.58035 48.978 0 44.9998 0C41.0215 0 37.2062 1.58035 34.3932 4.3934C31.5801 7.20644 29.9998 11.0218 29.9998 15C29.9998 18.9782 31.5801 22.7936 34.3932 25.6066C37.2062 28.4196 41.0215 30 44.9998 30ZM24.9998 25C24.9998 27.6522 23.9462 30.1957 22.0708 32.0711C20.1955 33.9464 17.6519 35 14.9998 35C12.3476 35 9.80406 33.9464 7.9287 32.0711C6.05333 30.1957 4.99977 27.6522 4.99977 25C4.99977 22.3478 6.05333 19.8043 7.9287 17.9289C9.80406 16.0536 12.3476 15 14.9998 15C17.6519 15 20.1955 16.0536 22.0708 17.9289C23.9462 19.8043 24.9998 22.3478 24.9998 25ZM2.44977 61.63C1.5962 61.1449 0.956991 60.3557 0.659766 59.42C-0.221206 56.5666 -0.230444 53.5153 0.633234 50.6566C1.49691 47.798 3.19419 45.2622 5.50773 43.374C7.82127 41.4858 10.6457 40.3311 13.6195 40.0578C18.0305 39.6525 18.9858 45.0155 16.7856 48.86C14.5552 52.7573 13.1424 57.1041 12.6748 61.635C12.5045 63.2786 11.1697 64.7651 9.55661 64.4071C7.06518 63.8542 4.66727 62.9193 2.44977 61.63ZM77.1998 64.9004C77.1998 64.9002 77.1999 64.9 77.2001 64.9C80.8488 64.5859 84.383 63.4693 87.5498 61.63C88.4015 61.1439 89.0388 60.3549 89.3348 59.42C90.2172 56.5663 90.2275 53.5142 89.3644 50.6546C88.5013 47.7951 86.8041 45.2583 84.4903 43.3693C82.1765 41.4803 79.3513 40.3251 76.3769 40.0518C71.9655 39.6464 71.0113 45.0103 73.2132 48.8544C75.4463 52.7529 76.8611 57.1017 77.3298 61.635C77.441 62.7241 77.3975 63.8235 77.2006 64.9005C77.2005 64.901 77.1998 64.9009 77.1998 64.9004ZM84.9998 25C84.9998 27.6522 83.9462 30.1957 82.0708 32.0711C80.1955 33.9464 77.6519 35 74.9998 35C72.3476 35 69.8041 33.9464 67.9287 32.0711C66.0533 30.1957 64.9998 27.6522 64.9998 25C64.9998 22.3478 66.0533 19.8043 67.9287 17.9289C69.8041 16.0536 72.3476 15 74.9998 15C77.6519 15 80.1955 16.0536 82.0708 17.9289C83.9462 19.8043 84.9998 22.3478 84.9998 25ZM21.5198 65.95C21.0267 65.5084 20.6444 64.9569 20.4038 64.3402C20.1632 63.7235 20.071 63.0589 20.1348 62.4C20.7707 56.2474 23.665 50.549 28.258 46.4062C32.8511 42.2635 38.8169 39.9705 45.0023 39.9705C51.1876 39.9705 57.1534 42.2635 61.7465 46.4062C66.3396 50.549 69.2338 56.2474 69.8698 62.4C69.9339 63.0589 69.842 63.7237 69.6013 64.3404C69.3607 64.9572 68.9782 65.5086 68.4848 65.95C62.0558 71.7847 53.6817 75.0117 44.9998 75C36.3195 75.011 27.9472 71.784 21.5198 65.95Z" fill="url(#paint0_linear_42_2324)" fill-opacity="0.8"/>
<defs>
<linearGradient id="paint0_linear_42_2324" x1="-15.5868" y1="-4.32693" x2="84.6618" y2="92.9861" gradientUnits="userSpaceOnUse">
<stop stop-color="#EF2DDC"/>
<stop offset="1" stop-color="#7443FF"/>
</linearGradient>
</defs>
</svg>
