<svg width="21" height="24" viewBox="0 0 21 24" fill="none" xmlns="http://www.w3.org/2000/svg">
<mask id="mask0_5002_23613" style="mask-type:luminance" maskUnits="userSpaceOnUse" x="0" y="0" width="21" height="24">
<path d="M20.1276 0.125H0V23.8757H20.1276V0.125Z" fill="white"/>
</mask>
<g mask="url(#mask0_5002_23613)">
<path d="M19.0385 15.971C18.3989 17.7099 17.4577 19.2222 16.1785 20.4347C14.7502 21.8338 12.8678 22.9697 10.6109 23.7625C10.5347 23.7991 10.4618 23.7991 10.3856 23.8391C10.2729 23.8757 10.1602 23.8757 10.084 23.8757H10.0475C9.93486 23.8757 9.82218 23.8757 9.7095 23.8391C9.63328 23.8391 9.56037 23.8024 9.48415 23.7625C7.22728 22.9697 5.34491 21.8338 3.91655 20.4347C2.63733 19.2255 1.69615 17.7132 1.05654 15.971C-0.11332 12.8331 -0.0370973 9.35214 0.0358116 6.59066V6.55402C0.0358116 6.32751 0.0358116 6.10099 0.0722661 5.79786C0.0358116 4.51206 1.08968 3.41613 2.40867 3.33951C5.11624 3.18961 7.22397 2.28022 9.03012 0.541387C9.3317 0.274899 9.70619 0.125 10.084 0.125C10.4618 0.125 10.7998 0.274899 11.1014 0.541387C12.9042 2.31686 15.012 3.18961 17.7195 3.33951C19.0352 3.41613 20.0526 4.51206 20.0891 5.79786C20.0891 6.06102 20.0891 6.29086 20.1255 6.55402C20.1288 9.35214 20.2051 12.8331 19.0385 15.971Z" fill="#57B36E"/>
</g>
<mask id="mask1_5002_23613" style="mask-type:luminance" maskUnits="userSpaceOnUse" x="0" y="0" width="21" height="24">
<path d="M20.1276 0.125H0V23.8757H20.1276V0.125Z" fill="white"/>
</mask>
<g mask="url(#mask1_5002_23613)">
<path d="M19.0311 15.971C18.3902 17.7099 17.4471 19.2222 16.1654 20.4347C14.7341 21.8338 12.848 22.9697 10.5866 23.7625C10.5102 23.7991 10.4372 23.7991 10.3608 23.8391C10.2479 23.8757 10.135 23.8757 10.0586 23.8757V0.125C10.4372 0.125 10.7759 0.274899 11.078 0.541387C12.8845 2.32019 14.9965 3.18961 17.7095 3.33951C19.0278 3.41613 20.0473 4.51206 20.0838 5.79786C20.0838 6.06102 20.0838 6.29086 20.1203 6.55402C20.1236 9.35214 20.2 12.8331 19.0311 15.971Z" fill="#57B36E"/>
</g>
<path d="M15.6897 11.9972C15.6897 15.214 13.0775 17.8342 9.87071 17.8342H9.83457C6.62774 17.8342 4.01562 15.214 4.01562 11.9972C4.01562 8.7804 6.62774 6.16016 9.83457 6.16016H9.87071C13.0775 6.16016 15.6897 8.7804 15.6897 11.9972Z" fill="white"/>
<path d="M15.6904 12.0208C15.6904 15.2268 13.1605 17.8382 10.0547 17.8382V6.16406C13.1605 6.20348 15.6904 8.81488 15.6904 12.0208Z" fill="#E1EBF0"/>
<path d="M13.917 11.8031C13.8403 11.8031 13.767 11.7251 13.767 11.6505V11.264C13.767 9.30085 12.1766 7.68354 10.2461 7.68354C8.31566 7.68354 6.72195 9.30085 6.72195 11.264V11.6505C6.72195 11.7285 6.64526 11.8031 6.57191 11.8031C6.49523 11.8031 6.42188 11.7251 6.42188 11.6505V11.264C6.42188 9.10759 8.12562 7.375 10.2461 7.375C12.3666 7.375 14.0704 9.10759 14.0704 11.264V11.6505C14.067 11.7658 13.9904 11.8031 13.917 11.8031Z" fill="#848484"/>
<path d="M13.4947 13.4149H13.0448C12.954 13.4149 12.8672 13.3288 12.8672 13.2464C12.8672 13.1603 12.958 13.0779 13.0448 13.0779H13.4947C13.6289 13.0779 13.7197 12.9918 13.7197 12.8644V11.9732C13.7197 11.8871 13.8104 11.8047 13.8972 11.8047C13.9841 11.8047 14.0748 11.8908 14.0748 11.9732V12.8644C14.0314 13.2015 13.8104 13.4149 13.4947 13.4149Z" fill="#848484"/>
<path d="M8.83594 13.4141H10.8487V15.0243H8.83594V13.4141Z" fill="#CBCBCB"/>
<path d="M12.8273 13.0772C12.8625 12.9632 12.8625 12.8491 12.8625 12.6948V10.105C12.8625 9.26637 12.2087 8.58203 11.4074 8.58203H8.27931C7.47805 8.58203 6.82422 9.26637 6.82422 10.105V12.6948C6.82422 13.5335 7.47805 14.2178 8.27931 14.2178H11.4459C11.8113 14.2178 12.1382 14.0668 12.3914 13.8354" fill="#E5E5E5"/>
<path d="M8.03188 13.2868V14.22C7.33198 14.0656 6.82422 13.4412 6.82422 12.7001V11.8047C7.52411 11.9625 8.03188 12.5458 8.03188 13.2868Z" fill="#CBCBCB"/>
<path d="M13.2623 11.8047V12.7001C13.2623 12.8168 13.2623 12.9712 13.2234 13.0913L12.7413 13.8701C12.5392 14.0245 12.2982 14.1411 12.0571 14.22V13.3246C12.0146 12.5423 12.5357 11.9591 13.2623 11.8047Z" fill="#CBCBCB"/>
<path d="M9.63776 10.7954C9.63776 11.3379 9.21133 11.8018 8.63138 11.8018C8.08896 11.8018 7.625 11.3754 7.625 10.7954C7.625 10.253 8.05143 9.78906 8.63138 9.78906C9.1738 9.82659 9.63776 10.253 9.63776 10.7954Z" fill="white"/>
<path d="M12.4581 10.7955C12.4581 11.3379 12.0316 11.8018 11.4517 11.8018C10.8717 11.8018 10.4453 11.3754 10.4453 10.7955C10.4453 10.253 10.8717 9.78908 11.4517 9.78908C12.0316 9.78567 12.4581 10.253 12.4581 10.7955Z" fill="white"/>
<path d="M8.84005 11.0004C8.63878 11.0004 8.4375 10.8415 8.4375 10.5979C8.4375 10.3542 8.5964 10.1953 8.84005 10.1953C9.04133 10.1953 9.24261 10.3542 9.24261 10.5979C9.24261 10.8415 9.04133 11.0004 8.84005 11.0004Z" fill="#444444"/>
<path d="M11.2541 11.0004C11.0528 11.0004 10.8516 10.8415 10.8516 10.5979C10.8516 10.3542 11.0105 10.1953 11.2541 10.1953C11.4942 10.1953 11.6567 10.3542 11.6567 10.5979C11.6567 10.8415 11.4554 11.0004 11.2541 11.0004Z" fill="#444444"/>
<path d="M7.62932 13.4165C7.62932 13.6343 7.47376 13.8168 7.28818 13.8168H7.16537C6.97978 13.8168 6.82422 13.6343 6.82422 13.4165C6.82422 13.1986 6.97978 13.0161 7.16537 13.0161H7.28818C7.47649 12.9808 7.62932 13.1634 7.62932 13.4165Z" fill="#444444"/>
<path d="M9.64062 12.6094H10.0432V14.2196H9.64062V12.6094Z" fill="#7B7B7B"/>
<path d="M10.043 12.6094H10.4455V14.2196H10.043V12.6094Z" fill="#7B7B7B"/>
<path d="M10.8516 12.6094V14.2196H11.2541V13.1981C11.2541 12.8864 11.1092 12.6509 10.8516 12.6094Z" fill="#7B7B7B"/>
<path d="M9.23849 12.6094C9.0195 12.689 8.83594 12.9245 8.83594 13.1981V14.2196H9.23849V12.6094Z" fill="#7B7B7B"/>
<path d="M6.82485 10.679V12.1269C6.82485 12.3492 6.67555 12.5355 6.44662 12.6106C6.41013 12.6106 6.37032 12.6106 6.29732 12.6106H6.10821C5.84611 12.6106 5.61719 12.3884 5.61719 12.1269V10.679C5.61719 10.4208 5.84279 10.1953 6.10821 10.1953H6.29732C6.33382 10.1953 6.37363 10.1953 6.44662 10.1953C6.67555 10.2705 6.82485 10.4535 6.82485 10.679Z" fill="#686868"/>
<path d="M6.82854 10.679V12.1269C6.82854 12.3492 6.66964 12.5355 6.42599 12.6106C6.18587 12.5355 6.02344 12.3524 6.02344 12.1269V10.679C6.02344 10.4568 6.18234 10.2705 6.42599 10.1953C6.66964 10.2705 6.82854 10.4535 6.82854 10.679Z" fill="#7B7B7B"/>
<path d="M14.4733 10.679V12.1269C14.4733 12.3492 14.324 12.5355 14.0951 12.6106C14.0586 12.6106 14.0188 12.6106 13.9458 12.6106H13.7567C13.4945 12.6106 13.2656 12.3884 13.2656 12.1269V10.679C13.2656 10.4208 13.4912 10.1953 13.7567 10.1953H13.9458C13.9823 10.1953 14.0221 10.1953 14.0951 10.1953C14.324 10.2705 14.4733 10.4535 14.4733 10.679Z" fill="#686868"/>
<path d="M14.4731 10.679V12.1269C14.4731 12.3492 14.3142 12.5355 14.0705 12.6106C13.8304 12.5355 13.668 12.3524 13.668 12.1269V10.679C13.668 10.4568 13.8269 10.2705 14.0705 10.1953C14.3142 10.2705 14.4731 10.4535 14.4731 10.679Z" fill="#7B7B7B"/>
<path d="M12.8021 13.0117H12.9249C13.1105 13.0117 13.266 13.1953 13.266 13.4143C13.266 13.6333 13.1105 13.8168 12.9249 13.8168H12.8021C12.6165 13.8168 12.4609 13.6333 12.4609 13.4143C12.4609 13.1953 12.6165 13.0117 12.8021 13.0117Z" fill="#444444"/>
<path d="M6.02344 13.2629V12.3716C6.02344 12.2855 6.11421 12.2031 6.20103 12.2031C6.29181 12.2031 6.37863 12.2893 6.37863 12.3716V13.2629C6.37863 13.3902 6.4694 13.4763 6.60359 13.4763H7.0535C7.14427 13.4763 7.2311 13.5624 7.2311 13.6448C7.2311 13.731 7.14032 13.8133 7.0535 13.8133H6.60359C6.29181 13.8133 6.02344 13.5587 6.02344 13.2629Z" fill="#848484"/>
<path d="M13.2649 15.7893L7.22656 15.8327V15.7893C7.22656 15.1617 7.64197 14.625 8.20691 14.625H12.3211C12.8096 14.625 13.2649 15.1617 13.2649 15.7893Z" fill="#CBCBCB"/>
<path d="M12.8619 15.7893L8.03125 15.8327V15.7893C8.03125 15.1617 8.44035 14.625 8.99672 14.625H11.9324C12.4135 14.625 12.8619 15.1617 12.8619 15.7893Z" fill="#E5E5E5"/>
<path d="M9.84855 6.16406C6.63518 6.16406 4.02344 8.77582 4.02344 11.9892C4.02344 15.2026 6.63518 17.8144 9.84855 17.8144C13.0619 17.8144 15.6737 15.2026 15.6737 11.9892C15.6737 8.77582 13.0619 6.16406 9.84855 6.16406ZM9.84855 17.1313C7.03509 17.1313 4.70646 14.8416 4.70646 11.9892C4.70646 10.7435 5.18775 9.5367 5.9911 8.61303L13.2247 15.8467C12.2586 16.65 11.0943 17.1313 9.84855 17.1313ZM13.706 15.3654L6.47239 8.13173C7.39606 7.32838 8.56037 6.84708 9.84855 6.84708C12.662 6.84708 14.9907 9.1368 14.9907 11.9892C14.9907 13.2349 14.5094 14.4417 13.706 15.3654Z" fill="#E84C4F"/>
</svg>
