<svg width="22" height="22" viewBox="0 0 22 22" fill="none" xmlns="http://www.w3.org/2000/svg">
<path d="M12.197 3.44705L13.7007 1.968C14.5235 1.15781 15.2423 0.507782 15.2896 0.536044C15.3463 0.564306 15.3841 1.70422 15.3652 6.50879H18.3916C20.7466 6.50879 21.4181 6.53705 21.4181 6.63126C21.4181 6.68778 20.7655 7.39434 18.5335 9.61763H14.5141L12.2915 11.9069L12.2821 12.5757C12.2726 12.9432 12.197 13.4613 12.1213 13.7157C12.0267 14.0077 11.7903 14.3845 11.516 14.6954C11.2701 14.9686 10.8634 15.2983 10.6081 15.4208C10.3622 15.5433 9.9366 15.6846 9.66233 15.7223C9.39752 15.76 8.94355 15.76 8.66928 15.7223C8.40447 15.6846 8.01671 15.5621 7.81811 15.4679C7.62895 15.3737 7.3074 15.1382 7.10879 14.9498C6.91964 14.7614 6.65483 14.4034 6.52242 14.1396C6.39002 13.8852 6.24815 13.4236 6.21032 13.1316C6.16303 12.8301 6.15358 12.3967 6.19141 12.1612C6.22924 11.9257 6.35218 11.5583 6.46567 11.3416C6.56971 11.1155 6.80615 10.7764 6.98584 10.588C7.15608 10.3901 7.55329 10.1075 7.85594 9.94736C8.33827 9.70242 8.52742 9.66473 10.1163 9.62705L12.2442 7.49797L12.197 3.44705Z" fill="#E84342"/>
<path d="M7.70461 3.58836C8.04509 3.54126 8.50851 3.48473 8.74495 3.47531L9.17054 3.44705L9.19891 4.90726C9.20837 5.70803 9.19891 6.424 9.17054 6.48995C9.14216 6.55589 8.94355 6.603 8.66928 6.603C8.42339 6.603 7.96943 6.66894 7.65733 6.75373C7.34523 6.83851 6.81561 7.04577 6.47513 7.21534C6.13466 7.38492 5.62395 7.71464 5.34023 7.94074C5.0565 8.17626 4.63091 8.60961 4.40393 8.9205C4.16749 9.22196 3.83648 9.77778 3.66624 10.1358C3.496 10.4938 3.28794 11.0967 3.21228 11.4547C3.13662 11.8127 3.07041 12.3873 3.07041 12.7265C3.07041 13.0656 3.13662 13.6403 3.21228 13.9983C3.28794 14.3563 3.52438 14.9969 3.73244 15.4114C3.94051 15.8259 4.32827 16.4194 4.60254 16.7209C4.87681 17.0223 5.35914 17.4557 5.67124 17.6818C5.98334 17.8985 6.56025 18.2093 6.94801 18.3695C7.33577 18.5202 7.97888 18.6992 8.36664 18.7652C8.78278 18.8217 9.35023 18.8405 9.73799 18.8028C10.0974 18.7652 10.7216 18.6427 11.1093 18.5202C11.4971 18.3978 12.0929 18.1151 12.4334 17.8985C12.7739 17.6818 13.2846 17.2673 13.5683 16.9658C13.852 16.6738 14.2492 16.165 14.4478 15.8259C14.6465 15.4962 14.9113 14.8932 15.0342 14.4976C15.1666 14.0925 15.2707 13.6214 15.2707 13.4613C15.2707 13.2917 15.2896 13.0562 15.3179 12.9432C15.3652 12.7265 15.3841 12.7265 18.4389 12.7265L18.3727 13.6026C18.3349 14.0736 18.193 14.8367 18.0606 15.2983C17.9282 15.7505 17.6918 16.3817 17.531 16.7114C17.3702 17.0317 17.0487 17.5687 16.8312 17.9079C16.6042 18.247 16.1124 18.8311 15.7246 19.2079C15.3463 19.5942 14.7599 20.0841 14.4195 20.3102C14.079 20.5268 13.5494 20.8377 13.2373 20.9979C12.9252 21.1486 12.3104 21.3841 11.8659 21.5254C11.4214 21.6573 10.6175 21.8175 10.069 21.874C9.3124 21.9588 8.85844 21.9588 8.17749 21.874C7.6857 21.8175 6.87235 21.6479 6.38056 21.4878C5.88876 21.337 5.14162 21.0167 4.72549 20.7812C4.30935 20.5363 3.6757 20.1029 3.31631 19.8109C2.95692 19.5188 2.38947 18.9347 2.05846 18.5202C1.72744 18.1057 1.24511 17.3426 0.980295 16.8245C0.715484 16.2969 0.403385 15.4679 0.270979 14.9403C0.0629128 14.1584 0.0250826 13.7816 0.015625 12.7265C0.015625 11.8503 0.0629128 11.2192 0.176403 10.701C0.270979 10.2865 0.488503 9.58937 0.677654 9.1466C0.866805 8.70382 1.24511 8.00669 1.51938 7.59217C1.79364 7.17766 2.30435 6.55589 2.66374 6.20733C3.01367 5.85876 3.496 5.42541 3.73244 5.25583C3.96888 5.07684 4.4323 4.77537 4.77277 4.59638C5.11325 4.40797 5.77527 4.12534 6.23869 3.96519C6.70211 3.80504 7.36414 3.63547 7.70461 3.58836Z" fill="#E84342"/>
</svg>
