<svg width="24" height="24" viewBox="0 0 24 24" fill="none" xmlns="http://www.w3.org/2000/svg">
<g clip-path="url(#clip0_2037_107)">
<path d="M0.109741 11.7177C0.109741 5.30625 5.35544 0.0605469 11.7668 0.0605469C18.1783 0.0605469 23.4239 5.30625 23.4239 11.7177C23.4239 18.1291 18.1783 23.3748 11.7668 23.3748C5.35544 23.3748 0.109741 18.1291 0.109741 11.7177Z" fill="#1A4A7F"/>
<path fill-rule="evenodd" clip-rule="evenodd" d="M10.0943 23.3752C7.73982 23.0101 5.53249 21.9149 3.84021 20.2356L14.4354 10.598L8.40202 12.0582C6.70974 12.4963 5.01745 11.4741 4.64956 9.79483C4.64956 9.79483 4.64956 9.79483 4.64956 9.72182C4.28168 8.04253 5.31176 6.36324 7.00405 5.92517L19.6594 2.85864C24.6627 7.02036 25.3249 14.3946 21.1309 19.2865C19.9537 20.6737 18.4822 21.7689 16.7899 22.499C16.7899 22.0609 16.7899 21.6229 16.937 21.2578L18.9236 15.3438C18.85 15.3438 10.0943 23.3752 10.0943 23.3752Z" fill="url(#paint0_linear_2037_107)"/>
</g>
<defs>
<linearGradient id="paint0_linear_2037_107" x1="27.6223" y1="0.0232744" x2="-12.3963" y2="37.0297" gradientUnits="userSpaceOnUse">
<stop stop-color="#FFB800"/>
<stop offset="1" stop-color="#FFF11D"/>
</linearGradient>
<clipPath id="clip0_2037_107">
<rect width="23.7805" height="23.3142" fill="white" transform="translate(0.109924 0.0605469)"/>
</clipPath>
</defs>
</svg>
