<svg width="14" height="22" viewBox="0 0 14 22" fill="none" xmlns="http://www.w3.org/2000/svg">
<path d="M9.35969 13.0476L10.4317 13.1616V22L7.47062 18.7973V13.7021L8.33063 14.1275L9.35969 13.0476ZM4.64031 13.0476L3.56772 13.1616V22L6.52877 18.7973V13.7021L5.6688 14.1275L4.64031 13.0476ZM12.7608 7.51032L13.1077 8.73343L12.0663 9.4446L11.9791 10.7154L10.7604 11.0227L10.2503 12.1855L9.00093 12.0518L8.12859 12.9647L7 12.4062L5.87141 12.9647L4.99907 12.0488L3.74969 12.1825L3.2396 11.0197L2.02092 10.7154L1.93371 9.44637L0.889355 8.7328L1.23631 7.50975L0.5 6.47938L1.23867 5.45016L0.889355 4.2295L1.93135 3.51833L2.01856 2.24926L3.2396 1.94499L3.74969 0.782196L4.99907 0.915822L5.87141 0L7 0.558465L8.12859 0L9.00093 0.915822L10.2503 0.782196L10.7604 1.94499L11.9791 2.25227L12.0663 3.52129L13.1077 4.23247L12.7608 5.45557L13.5 6.47938L12.7608 7.51032ZM10.437 6.47938C10.437 5.79604 10.2369 5.12804 9.86213 4.55986C9.48732 3.99168 8.95458 3.54884 8.33129 3.28733C7.70799 3.02583 7.02214 2.9574 6.36045 3.09072C5.69877 3.22403 5.09097 3.55309 4.61392 4.03629C4.13687 4.51949 3.812 5.13512 3.68038 5.80533C3.54877 6.47555 3.61632 7.17025 3.87449 7.80157C4.13267 8.4329 4.56988 8.97251 5.13083 9.35215C5.69178 9.7318 6.35127 9.93443 7.02592 9.93443C7.93016 9.93301 8.79697 9.56853 9.43636 8.92089C10.0758 8.27326 10.4356 7.39528 10.437 6.47938ZM7.02592 3.97889C6.53768 3.97889 6.0604 4.12554 5.65443 4.40029C5.24847 4.67504 4.93206 5.06555 4.74522 5.52245C4.55837 5.97934 4.50948 6.48209 4.60473 6.96713C4.69998 7.45217 4.93509 7.8977 5.28033 8.2474C5.62556 8.59709 6.06543 8.83524 6.54429 8.93173C7.02315 9.02821 7.51951 8.9787 7.97059 8.78946C8.42167 8.60021 8.80722 8.27973 9.07848 7.86854C9.34974 7.45735 9.49453 6.97392 9.49454 6.47938C9.49267 5.81697 9.23193 5.18225 8.76933 4.71402C8.30673 4.24579 7.67991 3.98213 7.02592 3.98071V3.97889Z" fill="black"/>
<path d="M9.35969 13.0476L10.4317 13.1616V22L7.47062 18.7973V13.7021L8.33063 14.1275L9.35969 13.0476ZM4.64031 13.0476L3.56772 13.1616V22L6.52877 18.7973V13.7021L5.6688 14.1275L4.64031 13.0476ZM12.7608 7.51032L13.1077 8.73343L12.0663 9.4446L11.9791 10.7154L10.7604 11.0227L10.2503 12.1855L9.00093 12.0518L8.12859 12.9647L7 12.4062L5.87141 12.9647L4.99907 12.0488L3.74969 12.1825L3.2396 11.0197L2.02092 10.7154L1.93371 9.44637L0.889355 8.7328L1.23631 7.50975L0.5 6.47938L1.23867 5.45016L0.889355 4.2295L1.93135 3.51833L2.01856 2.24926L3.2396 1.94499L3.74969 0.782196L4.99907 0.915822L5.87141 0L7 0.558465L8.12859 0L9.00093 0.915822L10.2503 0.782196L10.7604 1.94499L11.9791 2.25227L12.0663 3.52129L13.1077 4.23247L12.7608 5.45557L13.5 6.47938L12.7608 7.51032ZM10.437 6.47938C10.437 5.79604 10.2369 5.12804 9.86213 4.55986C9.48732 3.99168 8.95458 3.54884 8.33129 3.28733C7.70799 3.02583 7.02214 2.9574 6.36045 3.09072C5.69877 3.22403 5.09097 3.55309 4.61392 4.03629C4.13687 4.51949 3.812 5.13512 3.68038 5.80533C3.54877 6.47555 3.61632 7.17025 3.87449 7.80157C4.13267 8.4329 4.56988 8.97251 5.13083 9.35215C5.69178 9.7318 6.35127 9.93443 7.02592 9.93443C7.93016 9.93301 8.79697 9.56853 9.43636 8.92089C10.0758 8.27326 10.4356 7.39528 10.437 6.47938ZM7.02592 3.97889C6.53768 3.97889 6.0604 4.12554 5.65443 4.40029C5.24847 4.67504 4.93206 5.06555 4.74522 5.52245C4.55837 5.97934 4.50948 6.48209 4.60473 6.96713C4.69998 7.45217 4.93509 7.8977 5.28033 8.2474C5.62556 8.59709 6.06543 8.83524 6.54429 8.93173C7.02315 9.02821 7.51951 8.9787 7.97059 8.78946C8.42167 8.60021 8.80722 8.27973 9.07848 7.86854C9.34974 7.45735 9.49453 6.97392 9.49454 6.47938C9.49267 5.81697 9.23193 5.18225 8.76933 4.71402C8.30673 4.24579 7.67991 3.98213 7.02592 3.98071V3.97889Z" fill="url(#paint0_linear_42_1470)" fill-opacity="0.8"/>
<defs>
<linearGradient id="paint0_linear_42_1470" x1="-1.75" y1="-1.26923" x2="21.1421" y2="9.67186" gradientUnits="userSpaceOnUse">
<stop stop-color="#EF2DDC"/>
<stop offset="1" stop-color="#7443FF"/>
</linearGradient>
</defs>
</svg>
