<svg width="18" height="18" viewBox="0 0 18 18" fill="none" xmlns="http://www.w3.org/2000/svg">
<g clip-path="url(#clip0_125_6518)">
<path d="M9.2201 15.066C7.94754 15.1028 6.69265 14.7614 5.61413 14.085C4.53561 13.4086 3.68191 12.4275 3.16099 11.2659C2.64007 10.1042 2.47533 8.81422 2.68761 7.55895C2.89989 6.30368 3.47965 5.13956 4.35356 4.21381C5.22748 3.28805 6.35631 2.64225 7.59727 2.35807C8.83824 2.07389 10.1356 2.1641 11.3253 2.61729C12.515 3.07048 13.5436 3.8663 14.281 4.9041C15.0184 5.94189 15.4314 7.17505 15.4679 8.44762C15.4925 9.29248 15.3503 10.1339 15.0496 10.9238C14.7488 11.7137 14.2954 12.4366 13.7152 13.0512C13.135 13.6659 12.4394 14.1601 11.6681 14.5058C10.8968 14.8515 10.065 15.0419 9.2201 15.066ZM17.6779 8.38396C17.6273 6.67664 17.0718 5.02261 16.0816 3.63087C15.0913 2.23914 13.7108 1.17215 12.1144 0.564744C10.5179 -0.0426661 8.77729 -0.163245 7.11237 0.218245C5.44745 0.599735 3.93296 1.46617 2.76028 2.70808C1.5876 3.94998 0.809352 5.51162 0.523874 7.19566C0.238396 8.87971 0.4585 10.6106 1.15637 12.1696C1.85425 13.7286 2.99857 15.0457 4.44475 15.9546C5.89093 16.8635 7.57407 17.3233 9.28148 17.276C10.417 17.2445 11.5351 16.9894 12.5719 16.5253C13.6087 16.0612 14.5438 15.3971 15.3237 14.5712C16.1036 13.7453 16.7129 12.7737 17.1169 11.712C17.5209 10.6503 17.7115 9.5194 17.6779 8.38396Z" fill="#0066B3"/>
<path d="M9.02715 14.9133C7.38605 14.8989 5.81576 14.2428 4.6522 13.0854C3.48863 11.9281 2.82419 10.3613 2.80102 8.7203C2.77785 7.07931 3.39779 5.49441 4.52821 4.30464C5.65863 3.11488 7.20977 2.41473 8.84981 2.35399H9.03397C10.6856 2.35173 12.2716 3.00022 13.4484 4.15899C14.6253 5.31777 15.2983 6.89353 15.3216 8.54496C15.3449 10.1964 14.7167 11.7905 13.573 12.9821C12.4294 14.1736 10.8623 14.8666 9.21131 14.911H9.02715M9.02715 15.0656H9.21585C10.9085 15.0207 12.5153 14.3106 13.688 13.0892C14.8608 11.8678 15.505 10.2335 15.481 8.54041C15.4571 6.84732 14.767 5.23185 13.5602 4.04407C12.3534 2.85629 10.7272 2.19189 9.03397 2.19483H8.84526C7.13818 2.21895 5.51061 2.92022 4.32058 4.14436C3.13055 5.3685 2.47555 7.01524 2.49967 8.72231C2.52379 10.4294 3.22505 12.057 4.44919 13.247C5.67333 14.437 7.32007 15.092 9.02715 15.0679" fill="white"/>
<path d="M9.03878 2.50921H8.85917C7.2341 2.53152 5.68445 3.19847 4.55113 4.36335C3.41781 5.52822 2.79365 7.09559 2.81596 8.72066C2.83827 10.3457 3.50522 11.8954 4.6701 13.0287C5.83497 14.162 7.40234 14.7862 9.02741 14.7639H9.20703C10.8056 14.704 12.3174 14.0211 13.4191 12.8612C14.5208 11.7012 15.1249 10.1563 15.1023 8.55668C15.0797 6.9571 14.4323 5.42982 13.2983 4.30142C12.1643 3.17301 10.6339 2.53302 9.03423 2.5183L9.03878 2.50921ZM9.02741 15.2186C7.74289 15.2131 6.48794 14.8326 5.41672 14.1237C4.3455 13.4149 3.50467 12.4085 2.99753 11.2283C2.49039 10.0482 2.33903 8.74554 2.56205 7.48052C2.78506 6.21549 3.37273 5.04316 4.25287 4.10754C4.84405 3.47709 5.5543 2.97005 6.34259 2.61571C7.13088 2.26137 7.98158 2.06676 8.84552 2.04312H9.03878C10.7875 2.0187 12.4742 2.68994 13.728 3.90918C14.9818 5.12842 15.6999 6.79578 15.7243 8.54446C15.7487 10.2931 15.0775 11.9799 13.8582 13.2337C12.639 14.4874 10.9716 15.2055 9.22294 15.23H9.02741" fill="#0066B3"/>
<path d="M15.1414 13.5402L14.8663 13.1196L14.6685 13.3697L15.1414 13.5402ZM14.1751 13.4311L14.1274 13.4106C14.1274 13.4106 14.1115 13.397 14.1115 13.3879C14.1073 13.3769 14.1073 13.3648 14.1115 13.3538C14.1239 13.3354 14.1376 13.318 14.1524 13.3015C14.1655 13.2823 14.18 13.2641 14.1956 13.2469C14.2042 13.2372 14.2141 13.2287 14.2251 13.2219C14.228 13.2207 14.2311 13.22 14.2342 13.22C14.2374 13.22 14.2405 13.2207 14.2433 13.2219H14.2615L14.4889 13.3038L14.7526 12.9718L14.6253 12.7808C14.6245 12.774 14.6245 12.7672 14.6253 12.7604C14.623 12.753 14.623 12.745 14.6253 12.7376L14.6435 12.7058L14.6799 12.6581L14.7208 12.6103C14.7244 12.6058 14.7289 12.6021 14.734 12.5994C14.739 12.5966 14.7446 12.5949 14.7503 12.5944C14.7503 12.5944 14.7663 12.5944 14.7754 12.6058C14.7866 12.6183 14.7965 12.632 14.8049 12.6467L15.371 13.5402C15.3718 13.5478 15.3718 13.5554 15.371 13.5629C15.3721 13.572 15.3721 13.5812 15.371 13.5902L15.3483 13.6266C15.3351 13.6457 15.3206 13.6639 15.3051 13.6812L15.2551 13.7448L15.2187 13.7789C15.2106 13.7814 15.2019 13.7814 15.1937 13.7789C15.184 13.781 15.1739 13.781 15.1641 13.7789L14.1751 13.4311ZM15.221 12.4193C15.2409 12.4319 15.2635 12.4397 15.2869 12.4421C15.3071 12.4466 15.3281 12.4466 15.3483 12.4421C15.37 12.4338 15.3894 12.4205 15.4051 12.4034C15.4297 12.3808 15.4497 12.3538 15.4643 12.3238L15.537 12.1965L15.2528 12.0351L15.1801 12.1647C15.1643 12.1918 15.1521 12.2209 15.1437 12.2511C15.1405 12.2729 15.1405 12.2952 15.1437 12.317C15.1483 12.3381 15.1567 12.3582 15.1687 12.3761C15.1831 12.3953 15.2018 12.4109 15.2233 12.4216M15.1232 12.633C15.0811 12.6094 15.044 12.5777 15.0141 12.5398C14.9851 12.5049 14.9649 12.4636 14.955 12.4193C14.9437 12.3692 14.9437 12.3172 14.955 12.267C14.9697 12.1976 14.9966 12.1314 15.0345 12.0715L15.1823 11.8077C15.1859 11.799 15.1911 11.7911 15.1978 11.7845C15.2044 11.7779 15.2123 11.7726 15.221 11.7691C15.2312 11.7671 15.2418 11.7673 15.252 11.7697C15.2622 11.772 15.2717 11.7765 15.2801 11.7827L16.1327 12.2624C16.1421 12.2661 16.1505 12.2719 16.1572 12.2794C16.1639 12.2869 16.1688 12.2959 16.1713 12.3056C16.1778 12.3225 16.1778 12.3411 16.1713 12.3579L15.8485 12.915L15.8371 12.9263H15.8189H15.7894L15.753 12.9081L15.7166 12.8854C15.7087 12.8798 15.7018 12.8729 15.6962 12.865C15.6944 12.8598 15.6944 12.8542 15.6962 12.849C15.695 12.8466 15.6943 12.8438 15.6943 12.8411C15.6943 12.8383 15.695 12.8356 15.6962 12.8331L15.9235 12.4193L15.678 12.2806L15.587 12.4443C15.5589 12.4973 15.5237 12.5463 15.4824 12.5898C15.4494 12.6209 15.4108 12.6456 15.3688 12.6626C15.3298 12.678 15.2876 12.6835 15.246 12.6785C15.2004 12.6744 15.1561 12.6604 15.1164 12.6376M15.371 11.5463C15.3666 11.5478 15.3618 11.5478 15.3574 11.5463C15.3574 11.5463 15.3574 11.5349 15.3574 11.5258C15.3564 11.5137 15.3564 11.5015 15.3574 11.4894C15.362 11.4701 15.3681 11.4511 15.3756 11.4326C15.3789 11.4055 15.385 11.3788 15.3938 11.353C15.398 11.3407 15.4041 11.3292 15.412 11.3189C15.4164 11.3125 15.4228 11.3078 15.4302 11.3053H15.4529H15.7189C15.7514 11.3092 15.7842 11.3092 15.8167 11.3053C15.8413 11.3018 15.8652 11.2942 15.8871 11.2825C15.9061 11.2719 15.9224 11.2571 15.9349 11.2393C15.948 11.2198 15.9579 11.1983 15.9644 11.1757L15.9804 11.1325L15.5529 10.9915C15.5529 10.9915 15.5529 10.9915 15.5393 10.9915C15.5366 10.9849 15.5366 10.9776 15.5393 10.971C15.5386 10.9597 15.5386 10.9483 15.5393 10.9369L15.5552 10.8847L15.5734 10.8346L15.5916 10.8028L15.6075 10.7892H15.6211L16.0463 10.9301L16.0622 10.8892C16.0664 10.8644 16.0664 10.839 16.0622 10.8142C16.0634 10.7921 16.0587 10.7702 16.0486 10.7505C16.0387 10.7285 16.0248 10.7084 16.0076 10.6914C15.9855 10.6701 15.962 10.6504 15.9372 10.6323L15.7098 10.4754L15.7234 10.4436C15.722 10.4353 15.722 10.4268 15.7234 10.4186C15.7227 10.4065 15.7227 10.3943 15.7234 10.3822C15.7275 10.3629 15.7328 10.3439 15.7394 10.3253C15.7459 10.3067 15.7535 10.2885 15.7621 10.2708C15.7665 10.259 15.7718 10.2476 15.778 10.2367L15.7939 10.223C15.7998 10.2208 15.8063 10.2208 15.8121 10.223C15.8121 10.223 15.8121 10.223 15.8258 10.223H15.8417L15.8644 10.2412L16.0531 10.3867C16.0843 10.4089 16.1132 10.434 16.1395 10.4618C16.1602 10.481 16.1778 10.5032 16.1918 10.5277C16.2057 10.5468 16.2158 10.5684 16.2214 10.5914C16.2226 10.6148 16.2226 10.6384 16.2214 10.6618C16.2333 10.6446 16.2479 10.6292 16.2646 10.6164C16.2813 10.6022 16.3006 10.5913 16.3214 10.5845C16.3466 10.5764 16.3725 10.5703 16.3987 10.5664C16.4343 10.5637 16.47 10.5637 16.5056 10.5664H16.7647H16.7898C16.7942 10.5648 16.799 10.5648 16.8034 10.5664C16.8034 10.5664 16.8034 10.5777 16.8034 10.5868C16.8043 10.5982 16.8043 10.6096 16.8034 10.6209C16.7996 10.6395 16.7943 10.6578 16.7875 10.6755C16.7822 10.6942 16.7753 10.7125 16.767 10.73C16.767 10.7437 16.767 10.7573 16.7488 10.7619C16.7446 10.769 16.7383 10.7746 16.7306 10.7778H16.7079H16.4601C16.4306 10.7753 16.4009 10.7753 16.3714 10.7778C16.3492 10.7794 16.3275 10.7856 16.3078 10.796C16.2901 10.8066 16.2747 10.8205 16.2623 10.8369C16.2484 10.8563 16.2377 10.8778 16.2305 10.9006L16.2168 10.9438L16.617 11.0756C16.6214 11.0742 16.6262 11.0742 16.6306 11.0756C16.6306 11.0756 16.6306 11.0756 16.6306 11.0961C16.6324 11.1074 16.6324 11.1189 16.6306 11.1302C16.6274 11.1482 16.6221 11.1658 16.6147 11.1825C16.6097 11.1995 16.6037 11.2163 16.5965 11.2325C16.592 11.2439 16.5858 11.2546 16.5783 11.2643C16.5749 11.2707 16.5692 11.2755 16.5624 11.278H16.5465L16.1668 11.1939L16.1532 11.2348C16.1444 11.2573 16.1398 11.2811 16.1395 11.3053C16.1394 11.3258 16.1441 11.346 16.1532 11.3644C16.1638 11.3853 16.1776 11.4045 16.1941 11.4212C16.2136 11.4421 16.2358 11.4605 16.26 11.4758L16.4624 11.619C16.4686 11.6224 16.474 11.627 16.4783 11.6327C16.4806 11.6401 16.4806 11.648 16.4783 11.6554C16.4801 11.6675 16.4801 11.6797 16.4783 11.6918C16.4753 11.7113 16.47 11.7304 16.4624 11.7486C16.4571 11.7666 16.4503 11.7841 16.4419 11.8009C16.4375 11.812 16.4322 11.8226 16.426 11.8327C16.4219 11.8385 16.4164 11.8432 16.4101 11.8464H16.3942H16.3669L16.3328 11.8077L16.1668 11.6804C16.139 11.66 16.1124 11.638 16.0872 11.6145C16.0685 11.5957 16.0518 11.5752 16.0372 11.5531C16.0261 11.5347 16.0177 11.5148 16.0122 11.494C16.0087 11.4721 16.0087 11.4499 16.0122 11.428C15.9958 11.4472 15.9775 11.4647 15.9576 11.4803C15.9379 11.4944 15.9165 11.5058 15.894 11.5144C15.8675 11.5242 15.8401 11.5311 15.8121 11.5349C15.7743 11.5375 15.7363 11.5375 15.6984 11.5349H15.3756M16.1441 9.80924C16.091 9.78127 16.04 9.74935 15.9917 9.71375C15.9572 9.68942 15.9279 9.65852 15.9053 9.62281C15.8834 9.59454 15.87 9.56064 15.8667 9.52505C15.8598 9.4867 15.8598 9.44744 15.8667 9.40909V9.36362C15.8667 9.34998 15.8667 9.33634 15.8826 9.3227C15.8865 9.31145 15.8919 9.30075 15.8985 9.29087L15.9144 9.2704H15.9281H15.9485H15.9804H16.0258C16.0501 9.27112 16.0741 9.27652 16.0963 9.28632C16.11 9.28632 16.1168 9.30223 16.1145 9.31133C16.1164 9.31724 16.1164 9.3236 16.1145 9.32952C16.1073 9.33527 16.1012 9.34219 16.0963 9.34998C16.0901 9.35929 16.0847 9.36919 16.0804 9.37954C16.0788 9.39313 16.0788 9.40687 16.0804 9.42046C16.0781 9.43172 16.0781 9.44331 16.0804 9.45457C16.0785 9.46509 16.0785 9.47587 16.0804 9.48639C16.0882 9.49739 16.0973 9.50733 16.1077 9.51595C16.1223 9.52969 16.1383 9.54188 16.1554 9.55233L16.9535 9.28632C16.9685 9.28369 16.9839 9.28369 16.9989 9.28632C17.0028 9.28449 17.0071 9.28354 17.0114 9.28354C17.0158 9.28354 17.02 9.28449 17.0239 9.28632C17.0272 9.29822 17.0272 9.31079 17.0239 9.3227C17.0256 9.34464 17.0256 9.36668 17.0239 9.38863C17.0239 9.41591 17.0239 9.43638 17.0239 9.45229C17.0226 9.46608 17.0179 9.47934 17.0103 9.49094C17.0068 9.49965 17.0003 9.50687 16.9921 9.5114L16.9626 9.52277L16.6033 9.63418L16.4896 9.67056L16.3737 9.70011L16.4828 9.75241L16.592 9.80924L16.9171 9.98204C16.9241 9.98608 16.9303 9.9915 16.9353 9.99795C16.9361 10.0048 16.9361 10.0116 16.9353 10.0184C16.9364 10.0313 16.9364 10.0442 16.9353 10.0571C16.9353 10.073 16.9353 10.0957 16.9353 10.1207C16.9365 10.1412 16.9365 10.1617 16.9353 10.1821C16.9328 10.1942 16.9282 10.2058 16.9216 10.2162C16.9185 10.218 16.915 10.219 16.9114 10.219C16.9078 10.219 16.9043 10.218 16.9012 10.2162C16.884 10.2205 16.866 10.2205 16.8489 10.2162L16.1441 9.80924ZM15.9576 8.89981H15.9417C15.9396 8.89392 15.9396 8.8875 15.9417 8.88162C15.94 8.87032 15.94 8.85882 15.9417 8.84752C15.9402 8.82936 15.9402 8.81111 15.9417 8.79295V8.73611C15.9417 8.72247 15.9417 8.7111 15.9417 8.70201C15.9409 8.69521 15.9409 8.68834 15.9417 8.68154H15.9576L16.8671 8.65426V8.41326C16.7329 8.39962 16.617 8.38825 16.5192 8.37234C16.4326 8.36307 16.3468 8.34788 16.2623 8.32686C16.2022 8.31374 16.1436 8.2947 16.0872 8.27002C16.0471 8.251 16.0102 8.22567 15.9781 8.195C15.9508 8.16762 15.9306 8.13409 15.919 8.09723C15.9088 8.05626 15.9027 8.01437 15.9008 7.97218C15.8997 7.96465 15.8997 7.95698 15.9008 7.94945C15.904 7.94315 15.9087 7.9377 15.9144 7.93353H15.9417H15.9849C16.0053 7.93122 16.0259 7.93122 16.0463 7.93353H16.0804C16.0795 7.93682 16.0779 7.93991 16.0759 7.94263C16.0772 7.94785 16.0772 7.95332 16.0759 7.95854C16.0769 7.97598 16.0815 7.99302 16.0895 8.00856C16.0992 8.02817 16.1142 8.04469 16.1327 8.05631C16.1622 8.07331 16.1934 8.08703 16.2259 8.09723C16.2767 8.11309 16.3283 8.12599 16.3805 8.13588L16.6079 8.16771C16.6988 8.17908 16.8079 8.18817 16.9353 8.19954C16.957 8.20007 16.9782 8.20635 16.9967 8.21773C17.0088 8.22989 17.0161 8.24606 17.0171 8.2632L17.033 8.81569C17.0342 8.82433 17.0334 8.83314 17.0306 8.84142C17.0279 8.8497 17.0233 8.85723 17.0171 8.86343C17.0098 8.87031 17.0013 8.87566 16.9919 8.87918C16.9825 8.88269 16.9726 8.88429 16.9626 8.88389L15.9576 8.89981ZM16.0395 7.7471H16.0031H15.9781H15.9576H15.9372C15.9254 7.73772 15.9147 7.72704 15.9053 7.71527C15.8917 7.69935 15.878 7.67889 15.8621 7.65615C15.8462 7.63342 15.8349 7.60386 15.8212 7.57203C15.8094 7.53697 15.7996 7.5013 15.7917 7.46517C15.7781 7.39534 15.7781 7.32356 15.7917 7.25373C15.8023 7.19021 15.828 7.13017 15.8667 7.07866C15.9079 7.02387 15.9607 6.97884 16.0213 6.94679C16.0924 6.90796 16.1691 6.88036 16.2486 6.86494C16.3339 6.84788 16.4214 6.84405 16.5078 6.85358C16.5795 6.86245 16.6485 6.88648 16.7102 6.92406C16.7685 6.95892 16.8176 7.00726 16.8534 7.06502C16.8935 7.12463 16.9207 7.19203 16.933 7.26282C16.9362 7.29305 16.9362 7.32354 16.933 7.35377C16.933 7.38332 16.933 7.41061 16.933 7.43789C16.9301 7.46187 16.9248 7.48548 16.9171 7.50837C16.9125 7.52443 16.9056 7.53974 16.8966 7.55384L16.8807 7.57431C16.8747 7.57515 16.8685 7.57515 16.8625 7.57431C16.8535 7.57592 16.8443 7.57592 16.8352 7.57431H16.7966H16.7511C16.7413 7.57545 16.7314 7.57545 16.7216 7.57431C16.7157 7.57659 16.7092 7.57659 16.7034 7.57431C16.7022 7.57223 16.7015 7.56988 16.7015 7.56748C16.7015 7.56509 16.7022 7.56274 16.7034 7.56066C16.6989 7.54973 16.6989 7.5375 16.7034 7.52656L16.7261 7.46745C16.7377 7.45222 16.7483 7.43627 16.7579 7.4197C16.7634 7.38506 16.7634 7.34976 16.7579 7.31512C16.7507 7.27373 16.7335 7.23472 16.7079 7.20144C16.6826 7.17061 16.6508 7.14576 16.6147 7.12868C16.5726 7.11154 16.5281 7.10081 16.4828 7.09685C16.4279 7.09498 16.373 7.09956 16.3191 7.11049C16.2623 7.11966 16.2071 7.13729 16.1554 7.16278C16.1152 7.18251 16.079 7.20948 16.0486 7.24236C16.0243 7.27221 16.0072 7.3072 15.9986 7.34467C15.9895 7.38509 15.9895 7.42703 15.9986 7.46745C16.004 7.50324 16.0155 7.53784 16.0327 7.56976C16.0459 7.59368 16.0612 7.61649 16.0781 7.63797C16.09 7.65393 16.1038 7.66843 16.1191 7.68116C16.1279 7.68947 16.1348 7.69954 16.1395 7.71072C16.1395 7.71072 16.1395 7.72209 16.1395 7.72436C16.1395 7.72664 16.1395 7.72436 16.1395 7.73573H16.11H16.0622M16.019 5.06881L15.9394 4.98696C15.9234 4.95386 15.9028 4.92324 15.878 4.89601C15.8615 4.88045 15.8423 4.86811 15.8212 4.85964C15.801 4.8552 15.78 4.8552 15.7598 4.85964C15.7376 4.864 15.7161 4.87167 15.6962 4.88237C15.677 4.89358 15.6594 4.90735 15.6439 4.9233C15.6316 4.94255 15.6238 4.9643 15.6211 4.98696C15.6165 5.00946 15.6165 5.03267 15.6211 5.05517C15.6293 5.0898 15.6431 5.12284 15.6621 5.15293L15.7189 5.25979L16.019 5.06881ZM15.321 5.70769C15.3152 5.70997 15.3087 5.70997 15.3028 5.70769C15.3028 5.70769 15.3028 5.70769 15.2846 5.69632L15.2642 5.66904C15.2531 5.65391 15.2432 5.63794 15.2346 5.62129L15.2119 5.57354C15.2099 5.56226 15.2099 5.55072 15.2119 5.53944C15.2096 5.53203 15.2096 5.52411 15.2119 5.51671C15.2107 5.51301 15.2107 5.50903 15.2119 5.50534L15.5802 5.30526L15.5416 5.23023C15.5295 5.20637 15.5133 5.18482 15.4938 5.16657C15.4794 5.15265 15.4612 5.14318 15.4415 5.13929C15.4197 5.13551 15.3974 5.13551 15.3756 5.13929H15.2937L15.0164 5.21432C15.0098 5.21675 15.0025 5.21675 14.9959 5.21432C14.9959 5.21432 14.9823 5.21432 14.9754 5.20295C14.966 5.19408 14.9576 5.18416 14.9504 5.17339C14.9504 5.15975 14.9322 5.14156 14.9209 5.1211C14.9108 5.10265 14.9017 5.08368 14.8936 5.06426C14.8913 5.05301 14.8913 5.04141 14.8936 5.03016C14.8922 5.02341 14.8922 5.01644 14.8936 5.00969H14.914H14.9527L15.1801 4.97786H15.2619C15.2846 4.97651 15.3074 4.97651 15.3301 4.97786C15.3507 4.98193 15.3706 4.98881 15.3892 4.99833C15.4079 5.00539 15.4249 5.01623 15.4392 5.03016C15.4359 4.99613 15.4359 4.96187 15.4392 4.92785C15.4405 4.8975 15.4466 4.86755 15.4574 4.83918C15.4698 4.81154 15.4867 4.78618 15.5075 4.76415C15.5311 4.73982 15.5588 4.71982 15.5893 4.70503C15.6304 4.6812 15.6762 4.66647 15.7234 4.66183C15.7675 4.65765 15.8119 4.66388 15.853 4.68002C15.898 4.69952 15.9389 4.72728 15.9735 4.76187C16.0232 4.81577 16.0653 4.8762 16.0986 4.94149L16.2282 5.18476C16.2348 5.20079 16.2348 5.21875 16.2282 5.23478C16.2252 5.24403 16.2201 5.2525 16.2134 5.25957C16.2068 5.26665 16.1986 5.27216 16.1895 5.2757L15.321 5.70769ZM15.2005 3.86608L14.7117 4.05479L14.8981 4.30488L15.2005 3.86608ZM14.8663 4.77551C14.8579 4.79009 14.8472 4.80316 14.8345 4.81417C14.8315 4.81811 14.8278 4.82137 14.8235 4.82372C14.8191 4.82608 14.8144 4.82747 14.8095 4.82781C14.798 4.82366 14.7878 4.81661 14.7799 4.80734L14.7117 4.78234L14.6708 4.72777C14.663 4.71739 14.6569 4.70589 14.6526 4.69367C14.651 4.69049 14.6502 4.68699 14.6502 4.68343C14.6502 4.67988 14.651 4.67638 14.6526 4.6732C14.6513 4.67033 14.6507 4.66724 14.6507 4.66411C14.6507 4.66098 14.6513 4.65788 14.6526 4.65501L14.7822 4.45721L14.5344 4.12299L14.307 4.20257H14.2843H14.2638C14.2535 4.19653 14.2443 4.18885 14.2365 4.17983L14.1979 4.13209L14.1706 4.07752C14.1669 4.06645 14.1669 4.05449 14.1706 4.04342C14.1737 4.03449 14.1803 4.02715 14.1888 4.02296L14.2365 4.00249L15.2346 3.66373H15.2619C15.2701 3.66187 15.2787 3.66187 15.2869 3.66373C15.2979 3.6724 15.3078 3.68232 15.3165 3.69329C15.3301 3.70693 15.3438 3.72512 15.3619 3.74785L15.412 3.81379C15.4212 3.82646 15.4288 3.8402 15.4347 3.85471C15.4378 3.86431 15.4378 3.87466 15.4347 3.88427C15.4315 3.89325 15.4269 3.90169 15.4211 3.90928L14.8663 4.77551ZM14.4116 3.12034C14.426 3.1046 14.4382 3.08701 14.448 3.06805C14.4524 3.05013 14.4524 3.0314 14.448 3.01348C14.4452 2.99401 14.4382 2.97538 14.4275 2.95892C14.4124 2.93458 14.394 2.9124 14.3729 2.89298L14.257 2.84296L14.0592 3.05441L14.1524 3.14308C14.1715 3.16202 14.1938 3.17741 14.2183 3.18855C14.2378 3.19294 14.258 3.19294 14.2774 3.18855C14.2957 3.18836 14.3137 3.18368 14.3297 3.17491C14.3473 3.16608 14.3627 3.15369 14.3752 3.13853M14.091 3.52959C14.1062 3.51152 14.1192 3.49167 14.1297 3.47047C14.134 3.44948 14.134 3.42781 14.1297 3.40681C14.1265 3.38251 14.1179 3.35922 14.1046 3.33861C14.0867 3.30898 14.0636 3.28281 14.0364 3.2613L13.95 3.16809L13.7227 3.39544L13.8432 3.50685C13.8621 3.5266 13.8844 3.54278 13.9091 3.5546C13.9281 3.56475 13.949 3.57094 13.9705 3.57278C13.9907 3.57708 14.0117 3.57708 14.0319 3.57278C14.0526 3.56385 14.0712 3.55068 14.0865 3.53413M14.2638 3.69101C14.2391 3.71763 14.2108 3.74059 14.1797 3.75922C14.1509 3.77517 14.1192 3.78521 14.0865 3.78878C14.0549 3.79444 14.0225 3.79444 13.991 3.78878C13.9581 3.78361 13.9261 3.77445 13.8955 3.76149C13.8634 3.74767 13.8322 3.73172 13.8023 3.71375C13.7691 3.68964 13.7373 3.66383 13.7068 3.63645L13.4908 3.43182C13.4838 3.42633 13.4779 3.41947 13.4736 3.41165C13.4693 3.40383 13.4666 3.39523 13.4658 3.38635C13.4654 3.37615 13.4672 3.36599 13.4711 3.35657C13.4751 3.34715 13.481 3.33869 13.4885 3.33178L14.1569 2.6156C14.1632 2.60773 14.1711 2.60138 14.1802 2.59704C14.1893 2.59271 14.1992 2.5905 14.2092 2.59059C14.2272 2.59085 14.2444 2.5982 14.257 2.61106L14.4616 2.80204C14.5062 2.84129 14.5452 2.88642 14.5776 2.93618C14.604 2.97205 14.6226 3.01311 14.6321 3.05668C14.6412 3.0948 14.6412 3.13452 14.6321 3.17263C14.619 3.21421 14.5955 3.25176 14.5639 3.28177C14.5465 3.30092 14.5266 3.31773 14.5048 3.33178C14.484 3.34511 14.4608 3.35436 14.4366 3.35907C14.4132 3.36246 14.3895 3.36246 14.3661 3.35907C14.3412 3.35625 14.3167 3.35013 14.2934 3.34088C14.3113 3.36614 14.3258 3.39366 14.3366 3.42273C14.3455 3.45143 14.3501 3.48132 14.3502 3.5114C14.3477 3.54253 14.3409 3.57316 14.3297 3.60234C14.3154 3.63516 14.2954 3.66519 14.2706 3.69101M13.3475 2.60196C13.3769 2.55664 13.402 2.50869 13.4226 2.45873C13.4416 2.41813 13.4516 2.37394 13.4521 2.32913C13.4528 2.28853 13.4426 2.2485 13.4226 2.21318C13.3968 2.17224 13.3618 2.13796 13.3203 2.11314C13.2838 2.08615 13.2408 2.06922 13.1958 2.06403C13.1507 2.05884 13.105 2.06559 13.0633 2.08358C13.0227 2.10277 12.9858 2.12894 12.9542 2.16089C12.9183 2.19683 12.8863 2.23646 12.8587 2.27911C12.8282 2.32492 12.8023 2.37366 12.7814 2.42462C12.7624 2.46521 12.7523 2.5094 12.7519 2.55422C12.7503 2.59491 12.7606 2.63517 12.7814 2.67017C12.8078 2.7106 12.8427 2.74475 12.8837 2.77021C12.9235 2.79788 12.9697 2.81508 13.0179 2.82023C13.0598 2.82272 13.1018 2.81572 13.1406 2.79976C13.1823 2.78121 13.2201 2.75498 13.2521 2.72246C13.2874 2.68524 13.3194 2.64491 13.3475 2.60196ZM13.5544 2.72246C13.5087 2.79384 13.4528 2.85818 13.3885 2.91344C13.3331 2.95942 13.2689 2.99347 13.1998 3.01348C13.1317 3.02938 13.0609 3.02938 12.9929 3.01348C12.9116 2.99787 12.8343 2.96618 12.7655 2.92026C12.7 2.87827 12.6417 2.82607 12.5927 2.76566C12.5526 2.71366 12.5253 2.65289 12.5131 2.58832C12.5035 2.51962 12.5097 2.44962 12.5313 2.3837C12.5574 2.30256 12.5958 2.22589 12.645 2.15634C12.6886 2.08536 12.744 2.02231 12.8087 1.9699C12.8628 1.92385 12.9265 1.89045 12.9951 1.87214C13.0631 1.8551 13.1341 1.8551 13.202 1.87214C13.2834 1.88726 13.3608 1.919 13.4294 1.96536C13.4946 2.00593 13.5523 2.05746 13.5999 2.11769C13.6409 2.16916 13.6683 2.23016 13.6795 2.29503C13.6902 2.36264 13.6856 2.43181 13.6658 2.49738C13.6403 2.57831 13.6027 2.65495 13.5544 2.72474M12.6655 1.63796C12.6601 1.65156 12.6532 1.66452 12.645 1.67661C12.6407 1.68545 12.6345 1.69322 12.6268 1.69935C12.6216 1.7006 12.6161 1.7006 12.6109 1.69935C12.6058 1.70126 12.6001 1.70126 12.595 1.69935L12.2562 1.54474L11.8765 2.36778C11.8779 2.37222 11.8779 2.37698 11.8765 2.38142H11.8561H11.822L11.7697 2.35869L11.7219 2.33368C11.7107 2.32913 11.7006 2.32214 11.6924 2.31322C11.6864 2.30834 11.6817 2.3021 11.6787 2.29503C11.6787 2.29503 11.6787 2.29503 11.6787 2.27911L12.1016 1.34921C12.1087 1.33107 12.1226 1.3164 12.1403 1.30829C12.1571 1.30158 12.1758 1.30158 12.1926 1.30829L12.6791 1.53565C12.6791 1.53565 12.6927 1.54929 12.6927 1.5652C12.6904 1.59007 12.6826 1.61411 12.67 1.63569M11.3263 1.57657C11.3421 1.5248 11.3521 1.47142 11.3559 1.41742C11.3605 1.37314 11.3566 1.3284 11.3445 1.28555C11.3325 1.24716 11.3105 1.21264 11.2808 1.18551C11.2446 1.15506 11.2018 1.13329 11.1558 1.12185C11.1082 1.10845 11.0579 1.10845 11.0103 1.12185C10.9696 1.13104 10.932 1.15062 10.9012 1.17869C10.8675 1.20801 10.8397 1.24352 10.8193 1.28328C10.797 1.32858 10.7788 1.37575 10.7647 1.42424C10.7501 1.4741 10.7395 1.52503 10.7329 1.57657C10.7245 1.62013 10.7245 1.66489 10.7329 1.70844C10.7445 1.74765 10.7665 1.78299 10.7966 1.81075C10.8337 1.84131 10.8772 1.86308 10.9239 1.87441C10.9709 1.88654 11.0202 1.88654 11.0671 1.87441C11.1082 1.86435 11.1463 1.84489 11.1785 1.81757C11.2118 1.78609 11.2395 1.74919 11.2604 1.70844C11.2863 1.66656 11.3084 1.62243 11.3263 1.57657ZM11.5537 1.63114C11.5312 1.71163 11.4967 1.78828 11.4514 1.8585C11.4152 1.92682 11.3639 1.98594 11.3013 2.03129C11.2418 2.06733 11.175 2.08983 11.1058 2.09722C11.0291 2.10315 10.952 2.09467 10.8784 2.07222C10.8031 2.05236 10.7317 2.02009 10.667 1.97672C10.6123 1.93978 10.5678 1.88976 10.5374 1.83121C10.5075 1.76955 10.492 1.70193 10.4919 1.63341C10.4928 1.5464 10.5058 1.45993 10.5306 1.3765C10.5529 1.29632 10.5866 1.21975 10.6306 1.14914C10.6698 1.08939 10.7209 1.03832 10.7807 0.99908C10.8399 0.962409 10.9068 0.93985 10.9762 0.933146C11.0529 0.926302 11.1302 0.934804 11.2035 0.958156C11.2779 0.977695 11.3485 1.00918 11.4127 1.05137C11.4667 1.08838 11.5105 1.13843 11.54 1.19688C11.5704 1.25767 11.5867 1.32449 11.5878 1.39241C11.5892 1.47868 11.5769 1.56462 11.5514 1.64705M10.1009 1.84031C10.1021 1.84477 10.1021 1.84949 10.1009 1.85395C10.0941 1.85559 10.0871 1.85559 10.0804 1.85395H10.0463H9.98945H9.93488H9.90078C9.89409 1.85133 9.88848 1.84652 9.88486 1.84031C9.8832 1.83799 9.8823 1.83521 9.8823 1.83235C9.8823 1.8295 9.8832 1.82671 9.88486 1.82439L9.97126 0.914958L9.73026 0.892222C9.7007 1.02409 9.67342 1.1355 9.64841 1.23326C9.6234 1.33102 9.59612 1.41287 9.56883 1.48336C9.54891 1.54122 9.523 1.59684 9.49153 1.64933C9.46862 1.68738 9.4385 1.72059 9.40286 1.74709C9.37243 1.77089 9.33644 1.78654 9.29828 1.79256C9.25673 1.79734 9.21478 1.79734 9.17323 1.79256H9.15049L9.13685 1.77892C9.13539 1.76912 9.13539 1.75916 9.13685 1.74937C9.13569 1.73499 9.13569 1.72054 9.13685 1.70617C9.13685 1.68116 9.13685 1.6607 9.13685 1.64705C9.13363 1.63591 9.13363 1.62409 9.13685 1.61295C9.13646 1.60498 9.13869 1.59711 9.14321 1.59053C9.14773 1.58396 9.15428 1.57906 9.16186 1.57657H9.18005C9.19732 1.57994 9.21508 1.57994 9.23234 1.57657C9.25198 1.56698 9.2697 1.55388 9.28464 1.53792C9.30473 1.51125 9.32153 1.48224 9.33465 1.45152C9.35913 1.40378 9.37819 1.35345 9.39149 1.30147C9.41196 1.24235 9.43242 1.16505 9.45516 1.07411C9.47789 0.983165 9.50063 0.876307 9.52564 0.753533C9.52965 0.731171 9.53901 0.71011 9.55292 0.692146C9.56823 0.685951 9.58535 0.685951 9.60067 0.692146L10.1509 0.744438C10.1597 0.744607 10.1683 0.746735 10.1762 0.750668C10.184 0.754601 10.1909 0.76024 10.1963 0.767174C10.2002 0.775743 10.2023 0.785045 10.2023 0.794457C10.2023 0.803869 10.2002 0.813172 10.1963 0.82174L10.1009 1.84031ZM8.41385 0.894495L8.29108 1.38104L8.60938 1.35831L8.41385 0.894495ZM8.99134 1.67661C8.99134 1.69707 9.00498 1.71526 9.00726 1.72663C9.00965 1.73078 9.01091 1.73548 9.01091 1.74027C9.01091 1.74506 9.00965 1.74977 9.00726 1.75391C8.99886 1.76248 8.98742 1.76738 8.97543 1.76755H8.90722H8.83901H8.80036H8.78217C8.78174 1.7615 8.78174 1.75542 8.78217 1.74937L8.69123 1.52201L8.2547 1.57657L8.20013 1.80393C8.2014 1.81146 8.2014 1.81914 8.20013 1.82667C8.19652 1.83288 8.19091 1.83769 8.18422 1.84031H8.14784H8.08873H8.02507C8.01339 1.84075 8.00199 1.83668 7.99324 1.82894C7.99121 1.82468 7.99016 1.82002 7.99016 1.8153C7.99016 1.81058 7.99121 1.80592 7.99324 1.80166C7.99071 1.78508 7.99071 1.76822 7.99324 1.75164L8.25697 0.735344C8.25532 0.727089 8.25532 0.718589 8.25697 0.710334C8.26228 0.703323 8.26933 0.697834 8.27743 0.694419C8.29102 0.692632 8.30478 0.692632 8.31836 0.694419H8.39111H8.47069H8.52071C8.53029 0.69617 8.53906 0.700952 8.54572 0.708061C8.55169 0.715536 8.55631 0.724 8.55936 0.73307L8.99134 1.67661ZM7.74541 1.8494C7.7477 1.85525 7.7477 1.86174 7.74541 1.86759L7.73177 1.88351L7.69767 1.89715C7.68115 1.90509 7.66352 1.91046 7.64538 1.91306C7.62759 1.91858 7.60932 1.92238 7.59081 1.92443H7.55671C7.5493 1.92671 7.54138 1.92671 7.53397 1.92443C7.53291 1.91995 7.53291 1.91528 7.53397 1.91079L7.41347 1.46971L7.0065 1.57657L7.11563 2.01765C7.11669 2.02017 7.11724 2.02287 7.11724 2.02561C7.11724 2.02834 7.11669 2.03105 7.11563 2.03356L7.09971 2.04948L7.06788 2.06539L7.01559 2.08131H6.96102C6.94897 2.08315 6.9367 2.08315 6.92465 2.08131C6.91792 2.08295 6.91091 2.08295 6.90419 2.08131C6.90317 2.07918 6.90265 2.07685 6.90265 2.07449C6.90265 2.07213 6.90317 2.0698 6.90419 2.06767L6.6359 1.03773C6.63497 1.03247 6.63497 1.02708 6.6359 1.02182L6.64954 1.0059L6.68365 0.99226L6.73594 0.974071H6.79051H6.82688C6.83345 0.971416 6.84078 0.971416 6.84735 0.974071V0.987712L6.94738 1.38786L7.35436 1.28555L7.25432 0.885401C7.25326 0.882883 7.25271 0.880177 7.25271 0.877443C7.25271 0.87471 7.25326 0.872004 7.25432 0.869486C7.25749 0.863141 7.26218 0.857675 7.26796 0.853571L7.29979 0.837655L7.35436 0.82174L7.40892 0.810372H7.44303C7.44959 0.807718 7.45693 0.807718 7.46349 0.810372H7.47486L7.74541 1.8494ZM4.95799 1.96081L4.86023 2.03129C4.82723 2.04916 4.79729 2.07219 4.77156 2.0995C4.75619 2.11624 4.74525 2.13656 4.73973 2.15861C4.7341 2.17869 4.7341 2.19992 4.73973 2.22C4.7469 2.24126 4.75603 2.26181 4.76701 2.28139C4.77911 2.3006 4.7945 2.31753 4.81248 2.3314C4.82941 2.34373 4.8488 2.35226 4.86932 2.35641C4.89184 2.36089 4.91501 2.36089 4.93753 2.35641C4.9711 2.34523 5.00317 2.32995 5.03302 2.31094L5.13533 2.24501L4.95799 1.96081ZM5.64007 2.6156C5.64113 2.61812 5.64168 2.62083 5.64168 2.62356C5.64168 2.62629 5.64113 2.629 5.64007 2.63152C5.64215 2.6374 5.64215 2.64382 5.64007 2.64971L5.61506 2.67472L5.56959 2.70655L5.52184 2.73383L5.48774 2.74747H5.465C5.46379 2.74378 5.46379 2.7398 5.465 2.7361L5.23764 2.38142L5.16716 2.4269C5.14357 2.44027 5.12273 2.45802 5.10577 2.47919C5.09385 2.49466 5.08532 2.51248 5.08076 2.53148C5.07732 2.55332 5.07732 2.57557 5.08076 2.59741C5.08346 2.62497 5.08802 2.65232 5.09441 2.67926L5.15352 2.92936V2.95209C5.1502 2.96035 5.1456 2.96802 5.13988 2.97483L5.1126 2.99984L5.06258 3.03167C5.04526 3.04371 5.02701 3.05435 5.00801 3.0635L4.97391 3.07714H4.93526H4.92389V3.05668C4.91917 3.04409 4.91537 3.03117 4.91252 3.01803L4.86705 2.79067C4.86038 2.76386 4.85657 2.73643 4.85568 2.70882C4.8534 2.68538 4.8534 2.66178 4.85568 2.63834C4.85965 2.6183 4.86497 2.59855 4.87159 2.57923C4.87909 2.56056 4.88903 2.54298 4.90115 2.52693C4.86865 2.53698 4.83507 2.54308 4.80111 2.54512C4.77107 2.55084 4.74021 2.55084 4.71017 2.54512C4.68164 2.53525 4.65536 2.51979 4.63287 2.49965C4.60639 2.47809 4.58405 2.4519 4.56693 2.42235C4.54086 2.38316 4.52306 2.33906 4.51464 2.29275C4.50695 2.24855 4.51087 2.20312 4.52601 2.16089C4.54231 2.11437 4.56696 2.07122 4.59876 2.03356C4.6495 1.98095 4.70682 1.9351 4.76928 1.89715L4.99664 1.75164C5.01213 1.74644 5.0289 1.74644 5.04439 1.75164C5.05431 1.75365 5.06362 1.758 5.07153 1.76432C5.07944 1.77065 5.08572 1.77877 5.08986 1.78802L5.64007 2.6156ZM3.8212 2.8566L4.02127 3.31132L4.25318 3.10897L3.8212 2.8566ZM4.75337 3.12943C4.76901 3.13733 4.78354 3.14727 4.79657 3.15899C4.80063 3.16181 4.80397 3.16554 4.80634 3.16988C4.80871 3.17423 4.81003 3.17906 4.81021 3.184C4.80711 3.1954 4.8008 3.20566 4.79202 3.21356C4.79202 3.2272 4.76474 3.24084 4.74427 3.2613C4.72715 3.277 4.70891 3.29144 4.68971 3.3045L4.66015 3.32724C4.65269 3.32916 4.64487 3.32916 4.63741 3.32724H4.61923L4.41233 3.20901L4.09857 3.48866L4.19179 3.70011C4.19266 3.70766 4.19266 3.71529 4.19179 3.72284C4.19339 3.72602 4.19422 3.72952 4.19422 3.73307C4.19422 3.73663 4.19339 3.74013 4.19179 3.7433C4.18589 3.75434 4.17821 3.76433 4.16905 3.77286C4.16905 3.78423 4.14405 3.79787 4.12586 3.81606L4.07811 3.85471C4.06897 3.86177 4.05783 3.86575 4.04628 3.86608C4.03763 3.86367 4.03028 3.85795 4.02582 3.85016C4.01642 3.83599 4.00878 3.82072 4.00308 3.80469L3.59838 2.82932C3.59399 2.82172 3.59168 2.81309 3.59168 2.80431C3.59168 2.79553 3.59399 2.78691 3.59838 2.7793L3.62567 2.7452L3.67796 2.69745L3.73935 2.64516C3.75147 2.63397 3.76528 2.62476 3.78027 2.61788C3.78927 2.61604 3.79855 2.61604 3.80755 2.61788L3.83484 2.62924L4.75337 3.12943ZM3.86894 4.02523C3.86995 4.02736 3.87048 4.02969 3.87048 4.03205C3.87048 4.03441 3.86995 4.03674 3.86894 4.03887C3.87109 4.0463 3.87109 4.05418 3.86894 4.06161L3.85303 4.09116C3.84367 4.10716 3.83302 4.12237 3.8212 4.13664L3.78254 4.17756C3.77547 4.18642 3.76702 4.19409 3.75753 4.2003C3.75093 4.20273 3.74368 4.20273 3.73707 4.2003C3.73459 4.2015 3.73187 4.20213 3.72912 4.20213C3.72636 4.20213 3.72364 4.2015 3.72116 4.2003L3.36193 3.91837L3.10047 4.24804L3.45515 4.53224C3.45616 4.53437 3.45668 4.5367 3.45668 4.53906C3.45668 4.54142 3.45616 4.54375 3.45515 4.54588C3.45515 4.54588 3.45515 4.55725 3.45515 4.56634C3.45123 4.57759 3.44588 4.58829 3.43923 4.59817C3.42988 4.61417 3.41923 4.62938 3.4074 4.64365C3.39565 4.65832 3.38273 4.672 3.36875 4.68457C3.36149 4.69411 3.35216 4.70188 3.34147 4.70731C3.33558 4.70939 3.32916 4.70939 3.32328 4.70731C3.32076 4.70837 3.31806 4.70892 3.31532 4.70892C3.31259 4.70892 3.30988 4.70837 3.30736 4.70731L2.48432 4.04797C2.4794 4.0445 2.47547 4.0398 2.47296 4.03432C2.47103 4.02687 2.47103 4.01904 2.47296 4.01159C2.47296 4.01159 2.47296 3.9934 2.48887 3.97976L2.5207 3.93656L2.55708 3.89336C2.56623 3.88491 2.57612 3.8773 2.58664 3.87063H2.60482H2.62074L2.94359 4.12981L3.20505 3.80014L2.88902 3.54095C2.88902 3.54095 2.88902 3.54095 2.88902 3.52731C2.88688 3.51989 2.88688 3.512 2.88902 3.50458C2.89349 3.4943 2.89881 3.48441 2.90494 3.47502C2.91462 3.45867 2.92606 3.44342 2.93904 3.42955L2.97542 3.38635L3.00043 3.36361H3.02317H3.03908L3.86894 4.02523ZM2.77762 4.96422C2.75486 4.95156 2.73034 4.94236 2.70486 4.93694C2.68325 4.93126 2.66054 4.93126 2.63893 4.93694C2.61471 4.94408 2.59278 4.9574 2.57527 4.97559C2.5476 5.0036 2.52458 5.03583 2.50706 5.07108L2.4343 5.19386L2.74806 5.36892L2.81399 5.24842C2.83551 5.21339 2.85088 5.17494 2.85947 5.13474C2.86554 5.1101 2.86554 5.08435 2.85947 5.05971C2.85312 5.03817 2.84139 5.01861 2.82536 5.00287C2.81219 4.98693 2.79596 4.97378 2.77762 4.96422ZM2.87538 4.74823C2.91819 4.77374 2.95722 4.80512 2.99133 4.84145C3.02247 4.87762 3.04502 4.92037 3.05727 4.9665C3.0687 5.0197 3.0687 5.07472 3.05727 5.12792C3.03979 5.20788 3.00987 5.2846 2.9686 5.35528L2.83218 5.60083L2.81399 5.62356C2.80739 5.626 2.80014 5.626 2.79353 5.62356C2.78457 5.62578 2.77521 5.62578 2.76625 5.62356C2.75574 5.62559 2.74493 5.62559 2.73442 5.62356L1.8409 5.12337V5.10291C1.8438 5.09023 1.84839 5.078 1.85454 5.06653C1.86157 5.04997 1.86993 5.034 1.87955 5.01879C1.88751 5.00225 1.89663 4.9863 1.90683 4.97104L1.92957 4.94376C1.93545 4.94168 1.94187 4.94168 1.94776 4.94376C1.9536 4.94148 1.9601 4.94148 1.96595 4.94376L2.29789 5.13019L2.37519 4.99151C2.40724 4.93129 2.44698 4.8755 2.49342 4.82553C2.52735 4.7906 2.56847 4.76345 2.61392 4.74596C2.65588 4.72979 2.70102 4.72356 2.74579 4.72777C2.79532 4.73193 2.84339 4.74666 2.88675 4.77097M2.62756 5.94414C2.62756 5.94414 2.62756 5.94414 2.6412 5.94414C2.65484 5.94414 2.6412 5.95551 2.6412 5.9646C2.64191 5.97672 2.64191 5.98886 2.6412 6.00098C2.63613 6.01874 2.63005 6.0362 2.62301 6.05327C2.61736 6.07114 2.61053 6.08861 2.60255 6.10557C2.59822 6.11591 2.59289 6.12581 2.58664 6.13512C2.58176 6.14107 2.57552 6.14575 2.56845 6.14876C2.56597 6.14997 2.56325 6.1506 2.56049 6.1506C2.55773 6.1506 2.55501 6.14997 2.55253 6.14876L1.69539 5.85092L1.61581 6.07828C1.73631 6.13967 1.84317 6.19424 1.92502 6.24198C2.00687 6.28973 2.08645 6.33747 2.15238 6.3784C2.20302 6.41417 2.2509 6.45369 2.29562 6.49662C2.32675 6.52791 2.35146 6.56499 2.36837 6.60576C2.38409 6.64146 2.39035 6.68061 2.38656 6.71943C2.3832 6.76143 2.37401 6.80275 2.35928 6.84221C2.35601 6.84858 2.3522 6.85466 2.34791 6.8604C2.34605 6.86364 2.34341 6.86638 2.34024 6.86836C2.33707 6.87034 2.33345 6.87151 2.32972 6.87177C2.32077 6.87408 2.31138 6.87408 2.30244 6.87177L2.25924 6.85812L2.20695 6.83539C2.19513 6.83174 2.18426 6.82553 2.17512 6.8172C2.17108 6.81694 2.16714 6.81579 2.1636 6.81382C2.16006 6.81185 2.15701 6.80913 2.15465 6.80583C2.15355 6.80058 2.15355 6.79516 2.15465 6.78992C2.15797 6.77264 2.15797 6.7549 2.15465 6.73762C2.15193 6.71599 2.14327 6.69553 2.12964 6.67851C2.10924 6.65145 2.08556 6.62701 2.05916 6.60576C2.01819 6.57239 1.97488 6.54199 1.92957 6.51481C1.875 6.48147 1.80679 6.44281 1.72494 6.39886C1.6431 6.35339 1.54533 6.30564 1.43392 6.2488C1.4131 6.24128 1.39493 6.22785 1.38163 6.21015C1.37826 6.20224 1.37651 6.19374 1.37651 6.18514C1.37651 6.17654 1.37826 6.16804 1.38163 6.16013L1.56807 5.63948C1.57074 5.63101 1.57516 5.6232 1.58103 5.61655C1.58691 5.60989 1.59411 5.60454 1.60217 5.60083C1.61074 5.59693 1.62004 5.59492 1.62945 5.59492C1.63887 5.59492 1.64817 5.59693 1.65674 5.60083L2.62756 5.94414ZM1.31115 7.35831L1.75223 7.59931L1.80679 7.28556L1.31115 7.35831ZM2.22059 6.99227C2.23797 6.99045 2.2555 6.99045 2.27288 6.99227C2.27288 6.99227 2.29334 6.99227 2.29789 7.00363C2.30244 7.015 2.29789 7.02182 2.29789 7.03774C2.29789 7.05365 2.29789 7.07639 2.29789 7.10367C2.29789 7.13095 2.28652 7.15596 2.28425 7.17188C2.28197 7.18779 2.28425 7.20144 2.28425 7.21053L2.27061 7.22417C2.26397 7.22642 2.25678 7.22642 2.25014 7.22417L2.02278 7.25828L1.95003 7.67662L2.15465 7.78347H2.17284C2.17448 7.7902 2.17448 7.79721 2.17284 7.80394C2.17512 7.81596 2.17512 7.8283 2.17284 7.84031C2.17454 7.85998 2.17454 7.87976 2.17284 7.89943C2.16978 7.92019 2.16523 7.94071 2.1592 7.96082C2.15879 7.96659 2.15716 7.97221 2.15441 7.9773C2.15167 7.9824 2.14788 7.98685 2.14329 7.99037C2.13374 7.99385 2.12327 7.99385 2.11373 7.99037L2.06826 7.96764L1.11335 7.47199L1.09061 7.45608C1.08859 7.44786 1.08859 7.43928 1.09061 7.43107C1.08855 7.4175 1.08855 7.40371 1.09061 7.39014C1.09061 7.37195 1.09061 7.34922 1.09061 7.31966C1.09061 7.29011 1.09061 7.25828 1.10653 7.23781C1.11012 7.22239 1.11468 7.2072 1.12017 7.19234C1.12504 7.18455 1.13119 7.17763 1.13836 7.17188C1.14804 7.16927 1.15823 7.16927 1.16791 7.17188L2.22059 6.99227ZM1.34753 8.30185C1.31388 8.2986 1.27999 8.3049 1.24976 8.32004C1.22717 8.33103 1.20764 8.34743 1.19292 8.36779C1.17939 8.38743 1.17081 8.41005 1.16791 8.43372C1.16545 8.45639 1.16545 8.47926 1.16791 8.50193V8.59969H1.5476V8.49738C1.54451 8.46832 1.53683 8.43993 1.52487 8.41326C1.51721 8.39059 1.50391 8.37025 1.48622 8.35415C1.4682 8.33661 1.44643 8.32339 1.42256 8.3155C1.39706 8.30624 1.37011 8.30162 1.34298 8.30185M1.34298 8.06085C1.39992 8.06204 1.45616 8.07359 1.50895 8.09496C1.55533 8.11602 1.59648 8.14708 1.62945 8.1859C1.66391 8.22688 1.68876 8.27504 1.70221 8.32686C1.71899 8.38983 1.72589 8.45503 1.72267 8.52012V8.6247H2.0819C2.08631 8.62314 2.09113 8.62314 2.09554 8.6247C2.09763 8.63136 2.09763 8.63851 2.09554 8.64517C2.09639 8.65652 2.09639 8.66792 2.09554 8.67927C2.0967 8.69744 2.0967 8.71567 2.09554 8.73384C2.09694 8.75276 2.09694 8.77176 2.09554 8.79068C2.09704 8.80199 2.09704 8.81346 2.09554 8.82478C2.09665 8.83079 2.09665 8.83696 2.09554 8.84297H2.07962L1.06788 8.81569C1.05699 8.81614 1.04613 8.81436 1.03596 8.81045C1.02579 8.80654 1.01654 8.80058 1.00876 8.79295C0.99514 8.77719 0.987849 8.75694 0.988301 8.73611V8.4701V8.39507C0.991318 8.36605 0.995872 8.33721 1.00194 8.30867C1.01156 8.27382 1.0253 8.24024 1.04287 8.20864C1.06062 8.1756 1.08455 8.14627 1.11335 8.12224C1.14157 8.09715 1.17494 8.07852 1.21111 8.06767C1.25178 8.05622 1.29392 8.05085 1.33616 8.05176M2.01824 9.14536H2.06144H2.08872C2.09395 9.1441 2.0994 9.1441 2.10463 9.14536C2.1057 9.14787 2.10625 9.15058 2.10625 9.15331C2.10625 9.15605 2.1057 9.15875 2.10463 9.16127L2.17057 9.72057C2.17211 9.73834 2.16727 9.75607 2.15693 9.77059C2.15128 9.77871 2.14382 9.78541 2.13514 9.79014C2.12646 9.79488 2.11679 9.79753 2.10691 9.79788L1.13154 9.90928C1.12169 9.91213 1.11128 9.91237 1.10131 9.90998C1.09135 9.90759 1.08218 9.90265 1.0747 9.89564C1.06237 9.88429 1.05434 9.86903 1.05196 9.85244L0.999669 9.30678C0.998605 9.3023 0.998605 9.29762 0.999669 9.29314C1.00313 9.28821 1.00784 9.28429 1.01331 9.28177C1.02233 9.2801 1.03158 9.2801 1.04059 9.28177H1.08379H1.12472H1.152C1.15716 9.28004 1.16275 9.28004 1.16791 9.28177C1.16948 9.28619 1.16948 9.291 1.16791 9.29541L1.21566 9.69329L1.48622 9.66146L1.45666 9.32042C1.45493 9.31526 1.45493 9.30967 1.45666 9.30451L1.4703 9.29314C1.47852 9.29112 1.4871 9.29112 1.49531 9.29314H1.53624H1.60444H1.62036V9.30678L1.65901 9.64327L1.97959 9.60235L1.93411 9.19992C1.93301 9.19467 1.93301 9.18925 1.93411 9.18401C1.93758 9.17908 1.94229 9.17516 1.94776 9.17264C1.95677 9.17097 1.96602 9.17097 1.97504 9.17264H2.01596M1.41346 10.6709L1.48622 10.9233L1.71358 10.8892L1.89092 10.871H2.02506H2.1251L2.20695 10.8756L2.26606 10.896L2.13874 10.4572L1.41346 10.6709ZM2.47296 9.98886H2.4866C2.4918 9.9874 2.49731 9.9874 2.50251 9.98886C2.50843 9.9972 2.51303 10.0064 2.51615 10.0161L2.53207 10.0616C2.53207 10.0821 2.53207 10.0957 2.54344 10.1094C2.54442 10.1199 2.54442 10.1306 2.54344 10.1412C2.54473 10.1472 2.54473 10.1534 2.54344 10.1594H2.5298L2.27515 10.2321L2.47978 10.9506L2.73215 10.8983H2.74806C2.75441 10.9015 2.75987 10.9062 2.76398 10.9119L2.77762 10.9392L2.79353 10.9847C2.79353 11.0052 2.79353 11.0211 2.8049 11.0347C2.80587 11.0445 2.80587 11.0544 2.8049 11.0643C2.80655 11.0702 2.80655 11.0765 2.8049 11.0825H2.79126L2.40247 11.1939C2.39703 11.1973 2.39072 11.1991 2.38429 11.1991C2.37785 11.1991 2.37154 11.1973 2.3661 11.1939C2.36101 11.1909 2.35658 11.187 2.35306 11.1823C2.34954 11.1776 2.34702 11.1723 2.34563 11.1666L2.32972 11.1257C2.30699 11.1164 2.28337 11.1096 2.25924 11.1052C2.23292 11.0958 2.20532 11.0904 2.17739 11.0893H2.07053H1.92047C1.86363 11.0893 1.79543 11.1029 1.71585 11.1143C1.63627 11.1257 1.54533 11.1393 1.44075 11.1575C1.42139 11.1627 1.40099 11.1627 1.38163 11.1575C1.37369 11.1543 1.36676 11.149 1.36156 11.1422C1.35636 11.1354 1.35308 11.1273 1.35208 11.1188L1.19292 10.5664C1.18894 10.5586 1.18686 10.55 1.18686 10.5413C1.18686 10.5326 1.18894 10.5241 1.19292 10.5163C1.20362 10.5005 1.21982 10.4891 1.2384 10.4845L2.0728 10.2571L2.04552 10.1662C2.04254 10.1606 2.04097 10.1544 2.04097 10.148C2.04097 10.1417 2.04254 10.1354 2.04552 10.1298C2.04552 10.1298 2.06144 10.1162 2.07508 10.1116L2.47296 9.98886ZM2.5298 11.353L2.56845 11.3371H2.59573H2.61392H2.62529L2.86629 11.8487C2.87183 11.8649 2.87183 11.8825 2.86629 11.8987C2.86336 11.9083 2.85809 11.9171 2.85095 11.9243C2.84381 11.9314 2.83502 11.9367 2.82536 11.9396L1.93866 12.3579C1.9294 12.3622 1.91931 12.3644 1.90911 12.3644C1.8989 12.3644 1.88881 12.3622 1.87955 12.3579C1.86373 12.3502 1.85093 12.3374 1.84317 12.3216L1.61581 11.8123C1.61475 11.8078 1.61475 11.8031 1.61581 11.7986C1.61507 11.7934 1.61507 11.788 1.61581 11.7827L1.63855 11.7645L1.6772 11.7441L1.71585 11.7282H1.74313H1.75223L1.92502 12.0897L2.17284 11.9737L2.02733 11.6668C2.02608 11.6615 2.02608 11.6561 2.02733 11.6509V11.6349L2.05007 11.6167L2.08645 11.5986L2.1251 11.5826H2.15011H2.16829C2.16909 11.5864 2.16909 11.5903 2.16829 11.594L2.31153 11.9032L2.598 11.7668L2.42521 11.4008C2.42415 11.3982 2.4236 11.3955 2.4236 11.3928C2.4236 11.3901 2.42415 11.3874 2.42521 11.3848C2.42521 11.3848 2.42521 11.3848 2.42521 11.3689L2.44795 11.3507L2.5298 11.353ZM2.70941 13.2151C2.73485 13.244 2.76479 13.2685 2.79808 13.2878C2.82481 13.3047 2.85524 13.3149 2.88675 13.3174C2.91451 13.323 2.94311 13.323 2.97087 13.3174C2.99933 13.3079 3.02617 13.2941 3.05045 13.2765C3.07926 13.2565 3.10526 13.2328 3.12775 13.206C3.14748 13.1839 3.16152 13.1574 3.16867 13.1287C3.1755 13.0988 3.1755 13.0677 3.16867 13.0377C3.1614 12.9993 3.14755 12.9624 3.12775 12.9286L2.70941 13.2151ZM2.66166 12.6831C2.63372 12.7015 2.60847 12.7237 2.58664 12.749C2.56691 12.7711 2.55286 12.7976 2.54571 12.8263C2.53881 12.8562 2.53881 12.8873 2.54571 12.9172C2.55299 12.9557 2.56683 12.9926 2.58664 13.0264L3.00952 12.7331C2.98471 12.703 2.95467 12.6775 2.92085 12.6581C2.89435 12.6435 2.86521 12.6345 2.83515 12.6313C2.80509 12.6282 2.77471 12.6311 2.74579 12.6399C2.71653 12.6502 2.68895 12.6647 2.66394 12.6831M2.5207 12.4898C2.56827 12.455 2.62241 12.4303 2.67985 12.4171C2.73229 12.4057 2.78656 12.4057 2.839 12.4171C2.8953 12.4292 2.94863 12.4523 2.99588 12.4853C3.05313 12.5247 3.10443 12.5722 3.14821 12.6262L3.2528 12.5512C3.25865 12.5489 3.26514 12.5489 3.27099 12.5512C3.27687 12.5491 3.28329 12.5491 3.28918 12.5512L3.31418 12.5739L3.34602 12.6194C3.35738 12.6376 3.36875 12.6512 3.37557 12.6649C3.38113 12.6742 3.3857 12.6841 3.38921 12.6944C3.39114 12.7019 3.39114 12.7097 3.38921 12.7172C3.38691 12.7228 3.38294 12.7275 3.37785 12.7308L3.27099 12.8058C3.30876 12.8629 3.33859 12.9249 3.35966 12.99C3.37697 13.0435 3.38241 13.1001 3.37557 13.156C3.36857 13.209 3.34909 13.2597 3.31873 13.3038C3.2824 13.3541 3.23782 13.3979 3.18686 13.4333C3.14041 13.4662 3.08784 13.4894 3.03226 13.5016C2.98059 13.513 2.92705 13.513 2.87538 13.5016C2.81922 13.4903 2.76588 13.4678 2.7185 13.4356C2.66083 13.3967 2.60946 13.3491 2.56617 13.2947L2.46386 13.3651H2.44795C2.44192 13.3661 2.43578 13.3661 2.42976 13.3651C2.42112 13.3578 2.41348 13.3494 2.40702 13.3401C2.39395 13.3272 2.38249 13.3127 2.37292 13.2969L2.34336 13.2515C2.33731 13.2416 2.33271 13.2308 2.32972 13.2196C2.32812 13.2165 2.32729 13.213 2.32729 13.2094C2.32729 13.2058 2.32812 13.2023 2.32972 13.1992L2.4343 13.1241C2.40044 13.0678 2.37371 13.0075 2.35473 12.9445C2.33741 12.891 2.33198 12.8344 2.33881 12.7786C2.34394 12.7254 2.36274 12.6745 2.39338 12.6308C2.4274 12.5768 2.47047 12.5291 2.5207 12.4898Z" fill="white"/>
<path d="M12.5902 14.0683L12.5561 14.0274C12.4884 13.9618 12.407 13.9123 12.3176 13.8824C12.2283 13.8525 12.1334 13.843 12.04 13.8546C11.9049 13.8566 11.7705 13.875 11.6398 13.9092C11.5102 13.941 11.3488 13.9933 11.1555 14.0592C11.1352 14.016 11.1084 13.9761 11.076 13.941C10.9763 13.8538 10.8594 13.7885 10.7329 13.7493C10.6064 13.7102 10.4731 13.698 10.3416 13.7136C9.7164 13.747 9.10139 13.8862 8.52272 14.1252C8.12325 14.2904 7.69744 14.3828 7.26542 14.398C6.837 14.3881 6.42131 14.2503 6.07179 14.0024L5.91491 13.9092L5.71711 13.7909L5.68073 14.0183L5.27148 16.4192L5.41927 16.4829L5.48975 16.0668L5.82397 14.0433L5.98084 14.1365C6.24676 14.3125 6.54388 14.436 6.85618 14.5003C6.99273 14.5249 7.13122 14.5371 7.26997 14.5367C7.72 14.5212 8.16358 14.4249 8.57956 14.2525C9.14116 14.0218 9.7376 13.8873 10.3439 13.8546C10.4437 13.8528 10.5435 13.8612 10.6417 13.8796C10.7637 13.8947 10.8773 13.9499 10.9646 14.0365C11.0175 14.0945 11.0481 14.1695 11.051 14.2479C11.2897 14.1684 11.5057 14.0911 11.6785 14.0524C11.7966 14.0219 11.9179 14.0051 12.04 14.0024H12.1468L12.215 14.0138C12.266 14.0232 12.3152 14.0409 12.3605 14.066C12.4083 14.0911 12.5038 14.0024 12.5038 14.0024L12.0877 16.7307L12.2264 16.6716C12.2378 16.6056 12.2469 16.5374 12.2582 16.4647C12.3037 16.185 12.3401 15.9827 12.3401 15.9804V15.9281V15.8645C12.3719 15.6712 12.4015 15.4802 12.431 15.3006C12.5151 14.764 12.5879 14.3275 12.597 14.2638V14.2116V14.1411L12.5902 14.0683Z" fill="#0066B3"/>
<path d="M9.02715 14.9133C7.38605 14.8989 5.81576 14.2428 4.6522 13.0854C3.48863 11.9281 2.82419 10.3613 2.80102 8.7203C2.77785 7.07931 3.39779 5.49441 4.52821 4.30464C5.65863 3.11488 7.20977 2.41473 8.84981 2.35399H9.03397C10.6856 2.35173 12.2716 3.00022 13.4484 4.15899C14.6253 5.31777 15.2983 6.89353 15.3216 8.54496C15.3449 10.1964 14.7167 11.7905 13.573 12.9821C12.4294 14.1736 10.8623 14.8666 9.21131 14.911H9.02715M9.02715 15.0656H9.21585C10.9085 15.0207 12.5153 14.3106 13.688 13.0892C14.8608 11.8678 15.505 10.2335 15.481 8.54041C15.4571 6.84732 14.767 5.23185 13.5602 4.04407C12.3534 2.85629 10.7272 2.19189 9.03397 2.19483H8.84526C7.13818 2.21895 5.51061 2.92022 4.32058 4.14436C3.13055 5.3685 2.47555 7.01524 2.49967 8.72231C2.52379 10.4294 3.22505 12.057 4.44919 13.247C5.67333 14.437 7.32007 15.092 9.02715 15.0679" fill="white"/>
<path d="M10.3439 13.8542C10.4534 13.8408 10.5645 13.8498 10.6704 13.8807C10.7763 13.9115 10.8748 13.9636 10.96 14.0338C11.0139 14.093 11.0446 14.1697 11.0464 14.2498C11.2874 14.1679 11.5011 14.0906 11.6785 14.052C11.7966 14.0215 11.9179 14.0047 12.04 14.0019C12.3173 14.0019 12.3833 14.0588 12.4037 14.0792L12.5038 14.0065L11.9445 17.5624L11.7944 17.4783C11.7123 17.4359 11.6208 17.4148 11.5284 17.4169C11.1624 17.4581 10.8058 17.5603 10.4735 17.7193C10.2291 17.8345 9.97295 17.9229 9.70953 17.983C9.63881 17.994 9.56739 18.0001 9.49582 18.0012C9.16615 18.0012 9.11385 17.8238 9.10703 17.7352L9.12749 17.551L8.86376 17.6511C8.68869 17.7193 8.52272 17.7829 8.37721 17.8329C8.08376 17.9289 7.77648 17.9758 7.46777 17.9716C6.71217 17.9836 5.96946 17.775 5.3306 17.3714L5.27148 17.3282L5.81487 14.0429L5.97175 14.1361C6.3557 14.3978 6.80984 14.5373 7.27452 14.5362C7.72455 14.5207 8.16813 14.4245 8.58411 14.252C9.14435 14.022 9.73917 13.8875 10.3439 13.8542Z" fill="white"/>
<path d="M9.40968 16.3756L9.23007 17.667C9.18232 17.8944 9.45742 17.8944 9.68478 17.8648C10.2736 17.7762 11.3036 17.0713 11.8447 17.3737C11.9243 16.7303 12.0721 15.9073 12.0721 15.9073C12.0721 15.9073 11.9379 15.7208 11.4309 15.8436C10.9239 15.9664 9.79164 16.4529 9.41195 16.3756" fill="#ED1C24"/>
<path d="M12.013 16.278C12.0699 15.9188 12.129 15.5346 12.1836 15.1935C12.0807 15.1421 11.9685 15.1118 11.8537 15.1043C11.7389 15.0969 11.6238 15.1126 11.5151 15.1503C11.0218 15.2708 9.9418 15.7301 9.53482 15.6869L9.38477 16.6486C9.43024 16.8055 9.61213 16.8442 9.85313 16.8237C10.442 16.776 11.4696 15.9961 12.013 16.278Z" fill="#0066B3"/>
<path d="M9.21582 17.7508C9.2522 17.5053 9.59096 17.4962 9.81377 17.5075C10.0366 17.5189 10.4504 17.5075 10.4845 17.3325C10.5254 17.0915 10.5436 16.7959 10.5436 16.7959L9.36588 16.8095L9.21582 17.7508Z" fill="#BE1E2D"/>
<path d="M5.4082 17.2759L5.68103 15.6435C6.15621 15.9254 6.90195 16.3256 8.42526 15.7413C9.64618 15.2729 10.7807 15.1888 10.7261 15.6731L10.476 17.3442C10.567 16.7712 9.11188 17.4556 8.34114 17.7238C7.51127 18.0126 6.1403 17.8034 5.4082 17.2691" fill="#ED1C24"/>
<path d="M8.47987 15.4022C7.00658 15.966 6.23356 15.4636 5.75156 15.1748L5.57422 16.232C6.00058 16.5105 6.48819 16.6812 6.99512 16.7295C7.50205 16.7778 8.01313 16.7023 8.48442 16.5094C9.16649 16.2457 10.5011 15.7864 10.6489 16.1979C10.7012 15.8523 10.7535 15.4863 10.7989 15.168C10.6102 14.8565 9.55755 14.9861 8.47532 15.3953" fill="#0066B3"/>
<path d="M11.9128 9.66207C11.9128 9.64842 11.8855 9.59613 11.8537 9.52565C11.88 9.54111 11.9073 9.55478 11.9355 9.56657L11.9855 9.65524C11.9616 9.65812 11.9379 9.66345 11.9151 9.67116M11.333 9.67116C11.333 9.55066 11.3035 9.47336 11.2671 9.21644C11.3291 9.37918 11.3815 9.54545 11.424 9.71436C11.3945 9.70138 11.3641 9.69074 11.333 9.68253M11.0738 11.149C11.0738 11.149 11.0738 11.149 11.0738 11.1672V11.149ZM11.0738 11.3286C11.0747 11.3195 11.0747 11.3104 11.0738 11.3013C11.0726 11.3088 11.0726 11.3165 11.0738 11.3241M11.8878 12.1357L11.7559 12.4245L11.6036 12.3517L11.7059 12.1244C11.77 12.1327 11.835 12.1327 11.8991 12.1244M12.0401 12.0834L12.0037 12.1607L11.9196 12.1221C11.9612 12.114 12.0016 12.101 12.0401 12.0834ZM7.43608 12.8337C7.44345 12.8054 7.45932 12.78 7.48155 12.761C7.47871 12.7775 7.47871 12.7944 7.48155 12.811L7.43608 12.8337ZM6.99046 11.3104C6.99173 11.3029 6.99173 11.2952 6.99046 11.2877C6.99167 11.2967 6.99167 11.3059 6.99046 11.315M6.36977 10.1941L6.19697 10.1145C6.18779 10.0729 6.16959 10.0339 6.14367 10.0001C6.11774 9.96629 6.08471 9.93861 6.04692 9.91898C6.06115 9.89117 6.06701 9.85983 6.06378 9.82875C6.06055 9.79768 6.04838 9.76821 6.02873 9.74391C6.11967 9.62796 6.27428 9.2892 6.44707 9.01637C6.40842 9.30966 5.90823 9.69844 6.30383 9.98264C6.56302 9.94399 6.70171 9.63478 6.80402 9.20962C6.85404 9.30966 6.54256 9.74846 6.96545 9.8917C7.15188 9.85759 7.2883 9.49609 7.24055 9.22554C7.26133 9.23924 7.28109 9.25444 7.29966 9.27101C7.3565 9.20962 7.47018 9.20962 7.51111 9.13005L7.54976 9.15506C7.67708 9.3665 7.68618 9.76665 7.51111 9.91216C7.56309 9.91482 7.61504 9.90629 7.66344 9.88715C7.66344 9.88715 7.66344 9.88715 7.6407 9.92353L7.62479 9.94854C7.52702 10.0418 7.49974 10.0668 7.21554 10.0258C7.21915 10.0571 7.22921 10.0873 7.2451 10.1145C7.10414 10.1736 6.8745 10.1645 6.81084 10.551C6.80738 10.5461 6.80267 10.5422 6.7972 10.5397H6.78583C6.78583 10.5397 6.76764 10.5397 6.76537 10.5238C6.7631 10.5078 6.76537 10.5056 6.74946 10.501H6.69262L6.64942 10.5306C6.61304 10.5465 6.61759 10.5101 6.55393 10.6011C6.55393 10.6011 6.55393 10.6011 6.55393 10.6374H6.53801L6.4789 10.6079C6.46058 10.6025 6.44301 10.5949 6.42661 10.5851L6.35612 10.5647L6.39023 10.5806L6.4698 10.617L6.51755 10.6374L6.52664 10.6715L6.33566 10.5829H6.32429C6.31011 10.5741 6.29482 10.5672 6.27882 10.5624L6.20834 10.5419L6.36977 10.1941ZM12.3902 9.37787C12.3857 9.39036 12.3857 9.40403 12.3902 9.41652L12.3698 9.38696C12.3739 9.36432 12.3824 9.3427 12.3948 9.3233L12.4084 9.33922C12.3992 9.35037 12.393 9.36366 12.3902 9.37787ZM11.7877 9.37787L11.8468 9.4006L11.8832 9.46881H11.8309L11.7877 9.37332M10.5532 10.0349C10.4885 10.005 10.4363 9.95361 10.4054 9.88942C10.4538 9.90856 10.5057 9.91709 10.5577 9.91443C10.3827 9.76892 10.3917 9.36877 10.5191 9.15733L10.5577 9.13232C10.5986 9.21189 10.7123 9.21189 10.7692 9.27328C10.7877 9.25671 10.8075 9.24152 10.8283 9.22781C10.8301 9.38894 10.8407 9.54985 10.8601 9.70981C10.7251 9.78187 10.6173 9.89603 10.5532 10.0349ZM11.1761 12.4449L10.876 12.3063L11.0738 11.8629C11.1605 11.9335 11.2551 11.9938 11.3558 12.0425L11.1761 12.4449ZM6.99955 11.2422V11.2672C7.00036 11.2612 7.00036 11.2551 6.99955 11.249M12.2288 9.18234L12.2993 9.2028L12.3175 9.22554L12.2447 9.20507C12.2408 9.19664 12.2354 9.18896 12.2288 9.18234ZM11.6922 9.18234L11.7332 9.20507L11.7786 9.28692H11.74C11.7248 9.25055 11.7089 9.21644 11.6922 9.18461M10.8624 11.2649C10.8613 11.2755 10.8613 11.2862 10.8624 11.2968C10.8636 11.2862 10.8636 11.2755 10.8624 11.2649ZM10.028 12.645L10.1644 12.7178C10.1644 12.7178 10.1235 12.7723 9.9825 12.7723C9.98147 12.7341 9.9769 12.6961 9.96886 12.6587H10.0189M8.65473 12.3722L8.78205 12.3085C8.75665 12.4187 8.73767 12.5303 8.72521 12.6427C8.68359 12.6462 8.64177 12.6462 8.60016 12.6427C8.60956 12.5503 8.62784 12.4589 8.65473 12.3699M7.91581 12.7178L7.98856 12.6814C7.98723 12.7079 7.98723 12.7345 7.98856 12.761C7.97486 12.7588 7.96174 12.7538 7.95002 12.7464C7.93829 12.739 7.9282 12.7292 7.92036 12.7178M8.77068 12.0516L8.83661 12.0812C8.83554 12.0925 8.83554 12.1039 8.83661 12.1153L8.73203 12.1676C8.74567 12.1289 8.76158 12.0903 8.7775 12.0516M10.1189 10.7648C9.9096 10.7418 9.69932 10.7986 9.53006 10.9239C9.55247 10.8694 9.58715 10.8207 9.63139 10.7817C9.67564 10.7427 9.72827 10.7144 9.78521 10.699C9.84215 10.6836 9.90187 10.6815 9.95974 10.693C10.0176 10.7044 10.0721 10.7289 10.1189 10.7648ZM9.75514 11.6446C9.67538 11.6088 9.59924 11.5654 9.52778 11.515H9.53915H9.59144C9.67427 11.5206 9.75169 11.5581 9.80744 11.6196L9.75514 11.6446ZM8.70929 11.6446H8.68883C8.71156 11.6196 8.7343 11.5946 8.75476 11.5673C8.73885 11.5923 8.72521 11.6174 8.70929 11.6401M8.92073 11.6401C8.92073 11.6151 8.93665 11.5901 8.9412 11.5651C8.9412 11.5901 8.9412 11.6151 8.9412 11.6401M9.57553 11.8947L9.6551 11.8561C9.74858 11.9208 9.8334 11.9972 9.90747 12.0834C9.80146 12.043 9.69946 11.9928 9.60281 11.9334L9.57553 11.8993M9.51869 11.756V11.7629V11.756ZM9.139 11.581C9.14871 11.6256 9.16085 11.6696 9.17538 11.7128H9.15719C9.15719 11.6719 9.14355 11.631 9.139 11.5878M9.84381 11.1103C9.89156 11.2695 9.9825 11.415 10.3167 11.2649C10.3164 11.2963 10.3268 11.3268 10.3463 11.3513L9.83699 11.6037C9.83699 11.4446 9.71422 11.3764 9.60963 11.3036C9.64601 11.2536 9.60963 11.2308 9.83699 11.099M9.83699 11.099C9.9219 11.0763 10.0113 11.0763 10.0962 11.099C10.057 11.1224 10.0122 11.1348 9.96659 11.1348C9.92094 11.1348 9.87616 11.1224 9.83699 11.099ZM10.4304 11.2513L10.4622 11.2763H10.4759L10.3986 11.315C10.4079 11.2953 10.4186 11.2764 10.4304 11.2581M10.3917 12.0221C10.2485 11.9106 10.0964 11.811 9.93703 11.7242L10.5827 11.4014C10.5968 11.5124 10.587 11.6253 10.5541 11.7323C10.5211 11.8393 10.4658 11.9381 10.3917 12.0221ZM8.43873 11.5469H8.42737L8.40463 11.5355L8.4592 11.5196C8.48193 11.5196 8.47966 11.5196 8.56833 11.5059C8.5416 11.5275 8.5135 11.5472 8.48421 11.5651H8.46147M8.21137 11.4491L8.17954 11.4332C8.17954 11.4332 8.17954 11.4332 8.15908 11.4332C8.15908 11.4332 8.15908 11.4332 8.13635 11.4332L8.10679 11.4173H8.08633L8.0022 11.3536H7.99084H7.9681C8.08633 11.3309 8.14089 11.3536 8.23638 11.1263C7.93627 11.2831 7.71118 10.7147 8.30914 10.7284C8.59106 10.8739 8.70702 11.2559 8.27276 11.5037H8.25003H8.22956H8.2091H8.18637M7.8908 12.5995C7.88948 12.5913 7.88948 12.5828 7.8908 12.5745L7.90671 12.5882L7.8908 12.5995ZM6.6767 10.7079C6.67619 10.7162 6.67619 10.7246 6.6767 10.7329C6.6767 10.7329 6.6767 10.7329 6.66306 10.7329V10.7193H6.67443M8.72066 13.0611C8.66957 13.024 8.6333 12.9701 8.61835 12.9088H8.71384C8.70911 12.9587 8.70911 13.0089 8.71384 13.0588M9.32089 12.5109C9.34974 12.4633 9.37556 12.4139 9.39819 12.3631H9.40956C9.39137 12.5222 9.60509 12.67 9.34817 13.0452C9.36147 12.8621 9.35231 12.6781 9.32089 12.4972M11.383 10.7125V10.7261C11.383 10.7261 11.383 10.7761 11.383 10.8057L11.2262 10.8875C11.2238 10.8709 11.2238 10.8541 11.2262 10.8375H11.2375C11.2458 10.8392 11.2543 10.8392 11.2625 10.8375C11.2875 10.8375 11.2762 10.8489 11.358 10.7739C11.3697 10.7632 11.377 10.7486 11.3785 10.7329M11.9378 8.8072C11.9628 8.82766 12.0378 8.91633 12.1288 9.03455L12.0788 9.01637C12.0278 8.95333 11.9808 8.88728 11.9378 8.81856M11.6127 9.04592C11.6233 9.06013 11.6324 9.07537 11.6399 9.09139C11.6325 9.07683 11.6264 9.06161 11.6218 9.04592M5.73998 9.3233C5.71882 9.32109 5.69748 9.32109 5.67632 9.3233C5.8332 9.13459 6.07647 8.83903 6.13104 8.80037C6.11058 8.84357 5.90368 9.1164 5.7468 9.33239M5.38075 10.7511H5.30345C5.30059 10.7882 5.285 10.8232 5.25931 10.8501C5.23362 10.8771 5.19942 10.8943 5.16249 10.8989L5.13748 10.8853L5.11702 10.8671L5.09883 10.8443C5.08387 10.8149 5.07757 10.7818 5.08064 10.7488C5.08285 10.7157 5.09652 10.6844 5.11929 10.6602C5.10221 10.6438 5.08626 10.6264 5.07155 10.6079C5.0581 10.589 5.04595 10.5693 5.03517 10.5488C4.98419 10.4458 4.97286 10.3276 5.00334 10.2168C5.04014 10.1262 5.10296 10.0484 5.18388 9.99337C5.2648 9.93835 5.3602 9.90851 5.45806 9.90761C5.47624 9.87124 5.45806 9.85759 5.63085 9.79621C5.63085 9.82804 5.71952 9.83713 5.64904 10.0077C5.70069 10.0692 5.73513 10.1433 5.74884 10.2224C5.76255 10.3016 5.75505 10.383 5.72709 10.4583C5.69914 10.5336 5.65173 10.6001 5.5897 10.6512C5.52767 10.7022 5.45322 10.7359 5.37393 10.7488M8.84571 4.7602C8.9714 4.76762 9.09743 4.76762 9.22312 4.7602C9.44524 4.95304 9.71286 5.08607 10.0007 5.14671C9.81901 5.15852 9.63665 5.13851 9.46185 5.0876C9.46185 5.20128 9.71422 5.33315 9.87564 5.36725C9.75433 5.38289 9.63104 5.36561 9.51869 5.31723C9.57143 5.40209 9.65168 5.4663 9.74605 5.49912C9.67296 5.57377 9.58369 5.63064 9.48514 5.66533C9.38659 5.70002 9.28139 5.71161 9.17765 5.6992C9.20733 5.73523 9.24555 5.76326 9.28884 5.78074C9.33212 5.79821 9.3791 5.80457 9.42547 5.79923C9.20432 6.10911 9.06724 6.471 9.02759 6.84963C8.98735 6.47329 8.85199 6.11338 8.63426 5.80378C8.68099 5.8093 8.72835 5.80304 8.77203 5.78556C8.81571 5.76809 8.85433 5.73996 8.88436 5.70374C8.78093 5.71685 8.67587 5.70559 8.57757 5.67085C8.47927 5.63611 8.39046 5.57886 8.31823 5.50367C8.41191 5.4696 8.49179 5.40569 8.54559 5.32178C8.43325 5.37016 8.30996 5.38744 8.18864 5.3718C8.35006 5.3377 8.59561 5.20583 8.60243 5.09215C8.42687 5.14319 8.24375 5.16319 8.06132 5.15126C8.35235 5.09138 8.62272 4.95658 8.84571 4.7602ZM11.0738 11.2036C11.072 11.1907 11.072 11.1777 11.0738 11.1649C11.0716 11.1695 11.0705 11.1746 11.0705 11.1797C11.0705 11.1848 11.0716 11.1899 11.0738 11.1945M11.0738 11.2149C11.0708 11.2205 11.0693 11.2268 11.0693 11.2331C11.0693 11.2395 11.0708 11.2457 11.0738 11.2513C11.0716 11.2355 11.0716 11.2194 11.0738 11.2036V11.2149ZM13.884 7.31572C13.7219 7.23892 13.5411 7.2105 13.3633 7.23387C13.4952 7.20111 13.6154 7.13263 13.7109 7.03597C13.8064 6.9393 13.8733 6.81819 13.9044 6.68593C13.7447 6.64599 13.5776 6.64599 13.4179 6.68593C13.5296 6.625 13.6236 6.53626 13.6909 6.42832C13.7582 6.32037 13.7965 6.19688 13.8021 6.06979C13.6161 6.06525 13.4316 6.10418 13.2633 6.18347C13.6316 5.98112 13.7635 5.50139 13.568 5.22856C13.4565 5.2945 12.9359 5.82424 12.8518 5.88336C13.1814 5.44228 13.6384 4.94436 13.1201 4.40325C12.8796 4.89248 12.5942 5.3583 12.2675 5.79469C12.2467 5.76615 12.2184 5.74408 12.1856 5.73103C12.1023 5.95674 11.9603 6.15611 11.7741 6.30852C11.7605 6.27144 11.7422 6.23628 11.7195 6.20393C10.3917 7.01561 11.5285 8.39795 10.4054 7.8682C10.4589 7.85932 10.509 7.83599 10.5502 7.80075C10.5914 7.7655 10.6222 7.71966 10.6393 7.66818C10.6564 7.61671 10.6591 7.56154 10.6471 7.50864C10.6351 7.45575 10.6089 7.40712 10.5714 7.36801C10.4691 7.4294 10.4008 7.62948 10.0325 7.3521C10.0719 7.37205 10.1161 7.38068 10.1601 7.37704C10.2041 7.3734 10.2462 7.35763 10.2818 7.33147C10.3174 7.30532 10.345 7.26982 10.3616 7.2289C10.3782 7.18799 10.3831 7.14328 10.3758 7.09973C9.85291 7.36574 9.78697 6.45403 10.269 6.07661C10.3213 6.1812 10.8897 5.86744 10.9374 6.35399C11.1489 6.23349 11.0716 6.04023 10.801 5.96521C11.0284 6.00386 11.6286 6.51996 11.6718 5.86062C11.5717 6.09935 11.1807 5.91064 10.776 5.86062C10.8662 5.80422 10.9728 5.78003 11.0785 5.792C11.1842 5.80398 11.2827 5.8514 11.358 5.92656C11.4156 5.87561 11.4553 5.80756 11.4713 5.73239C11.4873 5.65722 11.4788 5.57889 11.4469 5.50893C11.4151 5.43896 11.3617 5.38104 11.2946 5.34367C11.2274 5.3063 11.15 5.29146 11.0738 5.30132C11.0755 5.28804 11.0737 5.27455 11.0686 5.26216C11.0635 5.24978 11.0553 5.23893 11.0448 5.23068C11.0342 5.22243 11.0217 5.21706 11.0085 5.2151C10.9953 5.21313 10.9817 5.21464 10.9692 5.21947C10.9699 5.20869 10.9679 5.19792 10.9636 5.18804C10.9592 5.17816 10.9526 5.16945 10.9442 5.16263C11.3694 5.20128 11.7423 4.79203 11.5331 4.21681C11.6436 4.28406 11.7653 4.33103 11.8923 4.3555C12.0469 4.62606 11.6081 4.95346 11.9423 5.34679C11.9467 5.38201 11.9421 5.41776 11.929 5.45074C11.9158 5.48372 11.8946 5.51287 11.8673 5.5355C12.0105 5.50139 12.2356 5.41272 12.0174 5.0103C12.0537 5.25357 12.3857 4.87161 12.4061 5.23766C12.8609 4.87161 12.0924 4.99438 12.272 4.73974C12.4175 4.53512 12.5335 4.33504 12.0128 4.22364C11.8969 3.81439 10.9488 3.76892 11.2534 4.52375C11.3398 4.70336 11.4353 5.01257 10.9056 5.11261V5.06032C10.9852 4.91708 11.183 4.51238 10.7601 4.43735C10.7351 4.42371 10.7601 4.43735 10.6669 4.43735V4.47373H10.6396V4.42371C10.6396 4.40552 10.6987 4.39188 10.6396 4.28048H10.6714C10.6486 4.25833 10.628 4.23396 10.61 4.20772C10.6359 4.22533 10.6602 4.2451 10.6828 4.26683V4.03947C10.6599 4.06155 10.6356 4.08206 10.61 4.10086C10.6273 4.07413 10.648 4.04969 10.6714 4.02811H10.444C10.4668 4.05031 10.4874 4.07468 10.5054 4.10086C10.4793 4.08175 10.4543 4.06126 10.4304 4.03947V4.26683C10.4531 4.24366 10.4782 4.22308 10.5054 4.20545C10.4867 4.23107 10.4661 4.25538 10.444 4.2782H10.4759C10.4759 4.30094 10.4168 4.31231 10.4759 4.42144V4.47146H10.4463V4.43508C10.4054 4.42371 10.4463 4.43508 10.3554 4.43508C10.1598 4.52602 9.95522 4.61924 10.2076 5.05804V5.09215C9.94328 4.99183 9.70312 4.83688 9.50277 4.63743V4.48965C9.66193 4.28048 9.93476 3.61204 9.32316 3.52337C9.30579 3.51125 9.28568 3.50366 9.26464 3.50128C9.2436 3.4989 9.2223 3.5018 9.20266 3.50973V3.56657H9.139V3.49609H9.1049C9.1049 3.47562 9.24358 3.43243 9.12763 3.25509H9.17765C9.14102 3.22064 9.11097 3.17981 9.08898 3.13459C9.134 3.15594 9.17481 3.1852 9.20948 3.22098V2.94133C9.17642 2.97794 9.13618 3.00735 9.09125 3.02773C9.11215 2.98245 9.14147 2.94155 9.17765 2.90723H8.89118C8.92736 2.94155 8.95668 2.98245 8.97757 3.02773C8.93229 3.00683 8.8914 2.97751 8.85707 2.94133V3.2278C8.89261 3.19304 8.93325 3.16391 8.97757 3.14141C8.95724 3.18701 8.92785 3.22801 8.89118 3.26191H8.9412C8.9412 3.29374 8.80933 3.33694 8.96393 3.50291H8.92756V3.57339H8.86162V3.51655C8.84199 3.50862 8.82068 3.50572 8.79964 3.5081C8.7786 3.51048 8.75849 3.51808 8.74112 3.53019C8.3296 3.61431 8.22047 3.98491 8.56151 4.49647V4.64652C8.36476 4.84931 8.12454 5.00479 7.85897 5.10124V5.06714C7.93854 4.9239 8.13635 4.5192 7.71118 4.44417C7.68845 4.43053 7.71118 4.44417 7.62024 4.44417V4.48055H7.59296V4.43053C7.59296 4.41234 7.6498 4.3987 7.59296 4.2873H7.62479C7.60271 4.26446 7.5822 4.24015 7.5634 4.21454C7.59013 4.23281 7.61523 4.25335 7.63843 4.27593V4.04857C7.61507 4.07097 7.58998 4.0915 7.5634 4.10996C7.58073 4.08323 7.60135 4.05878 7.62479 4.0372H7.39743C7.4209 4.05875 7.44153 4.0832 7.45882 4.10996C7.43223 4.0915 7.40715 4.07097 7.38379 4.04857V4.27593L7.45882 4.21681C7.44084 4.24306 7.42027 4.26743 7.39743 4.28957H7.43608C7.43608 4.31231 7.37924 4.32367 7.43608 4.43281V4.48283H7.4088V4.44645C7.3656 4.43508 7.4088 4.44645 7.31558 4.44645C7.12005 4.53739 6.91315 4.63288 7.1678 5.06941V5.1217C6.38113 5.25357 7.35878 3.14141 6.06056 4.23273C5.41713 4.18044 6.00144 4.933 5.70133 4.88752C5.59902 4.87388 5.42168 5.02849 5.66723 5.24675C5.60357 5.08305 5.80364 5.17172 6.05601 5.01939C6.02191 5.18082 5.78091 5.39454 6.20607 5.54459C6.17979 5.5211 6.15933 5.49183 6.14631 5.45908C6.13329 5.42633 6.12806 5.391 6.13104 5.35588C6.37886 5.06032 6.1606 4.8125 6.18106 4.3646C6.30383 4.33539 6.42071 4.28541 6.52664 4.21681C6.59713 4.67153 6.17878 5.04668 7.1155 5.16263C7.10713 5.16945 7.1005 5.17816 7.09616 5.18804C7.09181 5.19792 7.08987 5.20869 7.09049 5.21947C7.07801 5.21464 7.06448 5.21313 7.05124 5.2151C7.038 5.21706 7.02549 5.22243 7.01495 5.23068C7.00441 5.23893 6.99619 5.24978 6.9911 5.26216C6.98601 5.27455 6.98422 5.28804 6.98591 5.30132C6.82221 5.31269 6.37659 5.52868 6.70853 5.91973C6.78382 5.84458 6.88234 5.79715 6.98804 5.78518C7.09374 5.77321 7.20038 5.79739 7.29057 5.8538C7.06321 5.75149 6.71763 6.23804 6.39478 5.8538C6.38113 6.14255 6.68352 6.3449 7.26556 5.95839C6.995 6.03341 6.9177 6.22667 7.12915 6.34717C7.1678 6.07889 7.22236 6.08116 7.79531 6.06979C8.0113 6.2153 8.51149 7.23842 7.69072 7.09291C7.68344 7.13646 7.68837 7.18117 7.70497 7.22208C7.72158 7.263 7.7492 7.2985 7.78478 7.32465C7.82036 7.3508 7.86249 7.36658 7.90649 7.37022C7.95049 7.37386 7.99464 7.36522 8.03403 7.34528C8.01357 7.36346 7.71573 7.6363 7.49519 7.36119C7.45761 7.4003 7.43142 7.44892 7.41945 7.50182C7.40748 7.55472 7.41018 7.60989 7.42726 7.66136C7.44434 7.71284 7.47516 7.75868 7.51638 7.79392C7.5576 7.82917 7.60766 7.8525 7.66117 7.86138C6.8404 8.25244 7.07913 7.74543 7.12005 7.03379C7.01319 6.87919 6.60395 6.51996 6.34248 6.19711C6.31983 6.22946 6.30149 6.26461 6.28792 6.3017C6.10109 6.14991 5.95888 5.95034 5.8764 5.72421C5.84399 5.73786 5.81576 5.75982 5.79455 5.78787C5.46784 5.35148 5.18241 4.88566 4.94195 4.39643C4.48723 4.78521 4.74187 5.30587 5.21933 5.87654C5.13748 5.81742 4.61683 5.28768 4.50315 5.22174C4.30989 5.49685 4.44176 5.9743 4.80781 6.17665C4.64036 6.09714 4.45654 6.05819 4.27124 6.06297C4.2746 6.19095 4.31114 6.31587 4.37731 6.42548C4.44347 6.53508 4.53697 6.62562 4.64866 6.68821C4.48893 6.64826 4.32183 6.64826 4.16211 6.68821C4.19371 6.82072 4.26144 6.94188 4.35777 7.03821C4.4541 7.13454 4.57526 7.20227 4.70777 7.23387C4.5307 7.21069 4.3507 7.23911 4.18939 7.31572C4.22524 7.44155 4.29952 7.55302 4.40184 7.63455C4.50416 7.71608 4.62941 7.76359 4.76006 7.77044C4.58034 7.78252 4.41237 7.86406 4.2917 7.9978C4.35025 8.07759 4.42755 8.14174 4.51677 8.18456C4.60599 8.22739 4.70439 8.24758 4.80326 8.24334C4.73211 8.26728 4.66668 8.3057 4.61112 8.35618C4.55555 8.40666 4.51105 8.4681 4.48041 8.53664C4.6191 8.64804 4.79417 8.71852 5.19659 8.57529C4.74187 8.76627 4.826 8.85949 4.75552 9.05729C4.93286 9.17779 5.28526 9.11868 5.63767 8.78219C5.56491 8.92542 5.00334 9.06638 5.16931 9.49382H5.23524C5.22909 9.50031 5.22444 9.50807 5.2216 9.51656C5.12839 9.49382 4.90103 9.48018 4.76688 9.80075C4.73278 9.77802 4.64866 9.80075 4.52134 9.98946C4.52068 10.0016 4.52068 10.0137 4.52134 10.0258C4.52134 10.0395 4.52134 10.0258 4.52134 10.0622V10.094L4.53725 10.1259L4.55544 10.1509L4.58045 10.1736C4.55846 10.2062 4.5423 10.2424 4.5327 10.2805C4.53309 10.285 4.53309 10.2896 4.5327 10.2941C4.5302 10.3206 4.5302 10.3472 4.5327 10.3737C4.53352 10.379 4.53352 10.3843 4.5327 10.3896C4.53068 10.3994 4.53068 10.4094 4.5327 10.4192C4.5327 10.4192 4.5327 10.4374 4.5327 10.4646C4.53316 10.4699 4.53316 10.4753 4.5327 10.4806C4.5327 10.4919 4.54407 10.5078 4.55999 10.5351C4.5604 10.5397 4.5604 10.5442 4.55999 10.5488V10.5624L4.58045 10.5829C4.59808 10.6012 4.61794 10.6172 4.63956 10.6306H4.6532C4.63907 10.6611 4.63357 10.695 4.63729 10.7284V10.742C4.63774 10.7473 4.63774 10.7526 4.63729 10.7579V10.7716C4.64735 10.7903 4.66126 10.8067 4.67811 10.8196C4.69497 10.8325 4.71438 10.8417 4.73505 10.8466C4.72124 10.875 4.7135 10.906 4.71232 10.9375C4.71232 10.9375 4.71232 10.9376 4.71232 10.9717C4.71417 10.9895 4.71799 11.007 4.72369 11.0239C4.72369 11.0239 4.72369 11.0239 4.72369 11.0421C4.74634 11.0833 4.78246 11.1154 4.826 11.1331H4.83737H4.85783H4.87829H5.06245H5.07382H5.16249H5.18068C5.18068 11.1331 5.18068 11.1331 5.21478 11.1058C5.23154 11.0913 5.24609 11.0745 5.25798 11.0558H5.2989H5.32391H5.33983C5.33983 11.0558 5.33983 11.0558 5.36939 11.0558C5.39447 11.0545 5.41877 11.0467 5.43987 11.033H5.45124H5.4626H5.47397C5.48052 11.0243 5.48659 11.0152 5.49216 11.0058C5.50652 11.0073 5.521 11.0073 5.53536 11.0058H5.55355H5.5831H5.61266C5.63896 11.0035 5.6649 10.9981 5.68996 10.9898H5.70588L5.84457 11.1263H5.92869L6.09011 10.7852C6.12649 10.808 6.09011 10.7852 6.19243 10.833C6.19008 10.8434 6.19008 10.8543 6.19243 10.8648L6.6858 11.0922C6.68473 11.0989 6.68473 11.1058 6.6858 11.1126V11.1263C6.6858 11.1263 6.6858 11.1263 6.6858 11.1399C6.682 11.1465 6.68001 11.1539 6.68001 11.1615C6.68001 11.1691 6.682 11.1765 6.6858 11.1831C6.6846 11.1852 6.68397 11.1875 6.68397 11.1899C6.68397 11.1923 6.6846 11.1947 6.6858 11.1967C6.7108 11.2422 6.6858 11.2877 6.81766 11.2854C6.8404 11.2672 6.84495 11.2854 6.8745 11.1581C6.89042 11.199 6.86314 11.1786 6.85631 11.3127C6.86228 11.3216 6.86999 11.3292 6.87898 11.3351C6.88796 11.3409 6.89804 11.3449 6.90861 11.3468C6.90861 11.3468 6.92225 11.3468 6.96317 11.3468C6.97681 11.3468 7.00182 11.3468 6.99728 11.3104C6.99728 11.3104 6.98591 11.3468 7.03365 11.3854C7.03365 11.3854 7.0473 11.3854 7.09504 11.3854H7.10641C7.12915 11.3854 7.12005 11.3991 7.16098 11.3604C7.2019 11.3218 7.16098 11.3604 7.17462 11.2809L8.0977 11.7106C8.01585 11.6833 7.34514 12.404 7.48383 11.7947C7.38606 11.8083 7.20872 11.9311 7.20872 12.1948C6.98136 12.2289 6.69489 12.9156 6.90179 12.9383C6.92954 12.7917 7.01051 12.6605 7.12915 12.57C7.12915 12.7019 7.09731 12.695 7.25647 12.9292C7.24282 12.9838 6.74036 13.0997 6.73809 13.2612C6.81312 13.3498 7.06549 13.1247 7.27011 13.052V13.0861C7.34059 13.0634 7.31558 13.0861 7.41562 12.9861L7.52248 12.9315C7.54959 13.0015 7.59695 13.0618 7.65851 13.1047C7.72007 13.1476 7.79303 13.1712 7.86806 13.1725C7.77615 13.2796 7.65122 13.3532 7.51293 13.3816C7.37465 13.41 7.23084 13.3916 7.10414 13.3294C7.10414 13.5886 7.98629 13.7841 8.17272 13.1679C8.31823 13.2316 8.28868 13.459 8.78205 13.2771C8.83717 13.3969 8.92162 13.5009 9.02759 13.5795C9.13718 13.5062 9.22512 13.405 9.28224 13.2862C9.35272 13.3225 9.80516 13.484 9.94612 13.0588C10.0712 13.1361 10.4236 13.3044 10.5645 12.886L10.6487 12.9247C10.685 12.9497 10.6009 12.9906 10.8078 13.0702C10.7948 13.0457 10.7886 13.0183 10.7896 12.9906L11.4467 13.2975C11.4763 13.2975 11.4467 13.2975 11.5604 13.2975H11.5899C11.5899 13.2975 11.5899 13.2975 11.6036 13.2975H11.6172C11.6172 13.2975 11.6172 13.2975 11.6399 13.2816L11.6604 13.2589L11.6763 13.2339C11.6753 13.2294 11.6753 13.2247 11.6763 13.2202C11.676 13.2157 11.676 13.2111 11.6763 13.2066C11.6755 13.2029 11.6755 13.199 11.6763 13.1952C11.6763 13.1952 11.6763 13.177 11.6763 13.152C11.6763 13.152 11.6763 13.152 11.6763 13.1247C11.6737 13.1155 11.6691 13.1069 11.6627 13.0997C11.6566 13.0863 11.6472 13.0745 11.6354 13.0656C11.6354 13.0656 11.6354 13.0656 11.6104 13.0497L11.5581 13.0247L11.3967 12.9451L11.4672 12.7951L11.8014 12.9451L12.172 12.1585V12.1221L12.0651 12.0721C12.3379 12.0107 12.5858 11.1808 12.131 11.074C12.0594 11.092 11.9836 11.0839 11.9173 11.0512C11.9173 11.1285 12.0651 11.2604 12.0651 11.2604C12.0947 11.3059 12.1015 11.3741 11.8719 11.2172C12.5903 11.9857 11.308 11.9129 11.0374 11.415C11.0602 11.3945 11.0625 11.3968 11.0716 11.34C11.0716 11.3673 11.0943 11.3718 11.1079 11.3764C11.1352 11.3764 11.1079 11.3764 11.1625 11.3764C11.2171 11.3764 11.1625 11.3764 11.2216 11.3354C11.2353 11.3059 11.2102 11.3104 11.2011 11.1876V11.1558C11.2011 11.2263 11.1693 11.1922 11.2534 11.3059C11.2534 11.3059 11.3876 11.3263 11.3808 11.2036C11.3846 11.197 11.3865 11.1895 11.3865 11.182C11.3865 11.1744 11.3846 11.1669 11.3808 11.1604C11.3808 11.1604 11.3808 11.1604 11.3808 11.1126C11.4163 11.0808 11.441 11.0387 11.4512 10.9921H11.4694C11.4799 10.9944 11.4908 10.9944 11.5013 10.9921C11.5013 10.9921 11.5013 10.9921 11.5149 10.9762L11.5558 10.9557C11.5676 10.9594 11.5803 10.9583 11.5913 10.9528C11.6023 10.9473 11.6108 10.9378 11.6149 10.9262L12.5494 10.4578L12.563 10.4828L12.8427 10.3373L12.8313 10.3191L12.945 10.2623C12.9087 10.2112 12.8796 10.1554 12.8586 10.0963L12.7472 10.1532L12.7358 10.1304L12.4516 10.2168L12.4675 10.2441L11.5581 10.6988C11.556 10.6976 11.5537 10.697 11.5513 10.697C11.5489 10.697 11.5465 10.6976 11.5445 10.6988C11.5445 10.6988 11.5445 10.6988 11.5445 10.6852C11.5445 10.6624 11.5445 10.6693 11.5285 10.6192C11.529 10.6132 11.529 10.6071 11.5285 10.6011C11.5285 10.567 11.5285 10.5829 11.4308 10.5419L11.3876 10.5124C11.3876 10.5124 11.3876 10.5124 11.3739 10.4987C11.3603 10.4851 11.3739 10.4987 11.3353 10.4987H11.3171C11.3035 10.4987 11.3035 10.4987 11.3012 10.5215C11.2989 10.5442 11.2875 10.5215 11.2807 10.5374C11.2421 10.3646 11.2239 10.2259 10.8783 10.1122C10.9624 9.88488 11.4285 9.86442 11.4694 10.3532C11.4808 10.2828 11.5081 9.89852 11.6286 10.4124C11.6417 10.3399 11.6804 10.2745 11.7377 10.2282C11.7377 10.2282 11.8127 10.1282 11.7127 9.93262C11.7382 9.93794 11.7627 9.94714 11.7855 9.95991C11.84 9.85759 11.9605 9.82122 11.9423 9.6939C12.0785 9.76214 12.2269 9.80235 12.3789 9.81212L12.3584 9.79166C12.3594 9.78564 12.3594 9.77949 12.3584 9.77347C12.3702 9.78814 12.384 9.80114 12.3993 9.81212C12.4334 9.81212 12.2561 9.88488 12.4152 9.98719C12.4425 9.97127 12.3198 10.0872 12.4607 10.1054C12.4607 10.1054 12.4334 10.16 12.4607 10.1941L12.6881 10.0759C12.6517 10.0577 12.2697 9.82122 12.7154 9.60523C12.743 9.57472 12.7612 9.53679 12.7677 9.49609C12.8064 9.48644 12.846 9.48035 12.8859 9.4779C12.9745 9.25055 12.7199 8.95498 12.4175 8.76627C12.6449 8.8845 12.9268 9.29147 13.2997 9.04138C13.2292 8.84357 13.3179 8.75036 12.8586 8.55937C13.261 8.70261 13.4361 8.63213 13.5748 8.52072C13.5462 8.45204 13.5038 8.38996 13.4502 8.33834C13.3966 8.28671 13.333 8.24664 13.2633 8.22061C13.3622 8.22504 13.4607 8.20495 13.5499 8.1621C13.6392 8.11926 13.7164 8.055 13.7749 7.97506C13.6542 7.84132 13.4862 7.75978 13.3065 7.7477C13.4371 7.74086 13.5624 7.69335 13.6647 7.61182C13.767 7.53028 13.8413 7.41881 13.8772 7.29298" fill="#808D9C"/>
<path d="M13.1581 9.60742C13.1132 9.62993 13.0736 9.66191 13.0422 9.70116C13.0108 9.74041 12.9883 9.786 12.9762 9.83478L12.9535 9.8507L12.9421 9.88253C12.9342 9.87915 12.9257 9.87741 12.9171 9.87741C12.9085 9.87741 12.9 9.87915 12.8921 9.88253C12.8262 9.91208 12.8625 9.98711 12.8625 9.98711C12.8625 9.98711 12.8921 10.069 12.9148 10.1167C12.9384 10.1617 12.965 10.205 12.9944 10.2463C12.9944 10.2463 13.0467 10.3031 13.0945 10.2781C13.1047 10.2725 13.1132 10.2643 13.1192 10.2543C13.1252 10.2443 13.1284 10.2329 13.1286 10.2213H13.1536H13.199C13.2529 10.2403 13.3107 10.2457 13.3672 10.2369C13.4236 10.2281 13.477 10.2054 13.5226 10.1709C13.5682 10.1364 13.6045 10.0912 13.6283 10.0392C13.652 9.98722 13.6626 9.93017 13.6589 9.87314C13.6552 9.81611 13.6374 9.76088 13.6072 9.7124C13.5769 9.66392 13.5351 9.6237 13.4855 9.59535C13.4359 9.56699 13.38 9.55138 13.3229 9.54992C13.2657 9.54845 13.2091 9.56118 13.1581 9.58696" fill="#808D9C"/>
<path d="M12.4386 10.2164C12.3999 10.155 12.4249 10.13 12.4249 10.13C12.4135 10.1294 12.4024 10.1255 12.3931 10.1187L12.2681 10.1823C12.2453 10.196 12.2021 10.2232 12.1953 10.2528C12.2782 10.2687 12.364 10.2559 12.4386 10.2164Z" fill="#808D9C"/>
<path d="M12.3854 10.1143C12.3604 10.0939 12.3536 10.078 12.3581 10.0552C12.3626 10.0325 12.3581 10.0143 12.3854 10.0029H12.3626C12.3626 10.0029 12.2944 10.0029 12.2831 10.0029C12.207 10.015 12.1356 10.0472 12.0762 10.0961C12.1467 10.1689 12.3035 10.1462 12.3854 10.1234" fill="#808D9C"/>
<path d="M12.3539 9.9891C12.3424 9.98062 12.333 9.96969 12.3263 9.9571C12.3196 9.94451 12.3158 9.93059 12.3152 9.91634C12.314 9.90218 12.3162 9.88793 12.3217 9.87484C12.3273 9.86175 12.336 9.85024 12.3471 9.84131C12.2092 9.82353 12.0691 9.83437 11.9355 9.87314C11.9739 9.91184 12.0202 9.94182 12.0712 9.96104C12.1222 9.98026 12.1767 9.98828 12.2311 9.98455H12.3539" fill="#808D9C"/>
<path d="M13.2112 10.5824C13.1293 10.5824 13.0793 10.6484 12.9997 10.6484C12.9674 10.649 12.9354 10.6414 12.9067 10.6263C12.8781 10.6112 12.8538 10.5891 12.836 10.562C12.7983 10.4882 12.7902 10.4028 12.8133 10.3232L12.5859 10.4437C12.5859 10.4915 12.6541 10.5029 12.6541 10.5029C12.6467 10.5152 12.6428 10.5294 12.6428 10.5438C12.6428 10.5582 12.6467 10.5723 12.6541 10.5847C12.6769 10.6234 12.7314 10.6074 12.7314 10.6074C12.7314 10.6074 12.7314 10.6893 12.7633 10.7211C12.7781 10.7299 12.795 10.7346 12.8122 10.7346C12.8294 10.7346 12.8463 10.7299 12.861 10.7211C12.8603 10.7427 12.8642 10.7642 12.8724 10.7842C12.8807 10.8042 12.8931 10.8222 12.9088 10.8371C12.9235 10.8461 12.9404 10.8509 12.9577 10.8509C12.9749 10.8509 12.9919 10.8461 13.0066 10.8371C13.0066 10.8371 13.0247 10.8962 13.0543 10.9098C13.0719 10.9136 13.0903 10.912 13.1069 10.9051C13.1236 10.8982 13.1377 10.8863 13.1475 10.8712C13.1529 10.8955 13.1632 10.9185 13.1776 10.9388C13.1921 10.9591 13.2104 10.9763 13.2316 10.9894C13.2511 10.9968 13.2721 10.9992 13.2928 10.9965C13.3134 10.9937 13.333 10.9858 13.3499 10.9735C13.4135 10.9257 13.3749 10.9985 13.3681 11.0167C13.3408 11.1076 13.3089 11.194 13.2794 11.2827C13.2642 11.3163 13.2563 11.3527 13.2563 11.3896C13.2563 11.4264 13.2642 11.4628 13.2794 11.4964C13.2794 11.4964 13.3158 11.5373 13.3453 11.5305C13.3703 11.4305 13.4044 11.3327 13.4317 11.2327C13.4716 11.1215 13.4946 11.0051 13.4999 10.8871C13.5003 10.8055 13.4748 10.7259 13.4272 10.6597C13.4048 10.6291 13.3747 10.6049 13.34 10.5897C13.3052 10.5745 13.267 10.5689 13.2294 10.5733" fill="#808D9C"/>
<path d="M12.6189 10.5145C12.6189 10.5145 12.5871 10.5145 12.5576 10.4531C12.4816 10.49 12.4206 10.5518 12.3848 10.6282C12.4192 10.634 12.4546 10.6275 12.4848 10.61C12.5277 10.5912 12.5694 10.5699 12.6099 10.5463C12.6083 10.5358 12.6083 10.5251 12.6099 10.5145" fill="#808D9C"/>
<path d="M12.6968 10.6484C12.6956 10.6409 12.6956 10.6332 12.6968 10.6257C12.6768 10.6321 12.6554 10.6321 12.6354 10.6257C12.6253 10.6202 12.617 10.6119 12.6113 10.6018C12.6057 10.5918 12.603 10.5804 12.6036 10.5688C12.5331 10.6257 12.4262 10.7325 12.4444 10.8326C12.5195 10.8147 12.5881 10.7761 12.6422 10.7212C12.6594 10.7009 12.6754 10.6797 12.69 10.6575" fill="#808D9C"/>
<path d="M12.7358 10.7394C12.7142 10.7192 12.7012 10.6916 12.6994 10.6621C12.6994 10.6621 12.638 10.7576 12.6312 10.7644C12.5959 10.8052 12.5701 10.8532 12.5556 10.9051C12.541 10.957 12.5381 11.0114 12.5471 11.0645C12.6572 10.9805 12.7485 10.8744 12.8153 10.7531C12.802 10.7576 12.7877 10.7588 12.7738 10.7564C12.7599 10.754 12.7468 10.7482 12.7358 10.7394Z" fill="#808D9C"/>
<path d="M12.9367 10.8757C12.9229 10.8759 12.9092 10.8727 12.8969 10.8663C12.8846 10.86 12.8741 10.8507 12.8662 10.8393C12.855 10.828 12.8462 10.8145 12.8403 10.7996C12.8345 10.7848 12.8317 10.7689 12.8321 10.7529C12.8321 10.7529 12.7957 10.812 12.7935 10.812C12.7081 10.9286 12.6633 11.07 12.6661 11.2145C12.7105 11.1866 12.7498 11.1512 12.7821 11.1099C12.7957 11.1099 12.9321 10.8825 12.9321 10.8825" fill="#808D9C"/>
<path d="M12.9767 11.0941L13.07 10.9372C13.0576 10.9385 13.0451 10.9366 13.0335 10.9319C13.022 10.9271 13.0119 10.9196 13.004 10.9099C12.9937 10.8971 12.986 10.8825 12.9813 10.8667C12.9723 10.8685 12.963 10.8685 12.954 10.8667L12.8949 10.9622C12.8184 11.1021 12.7749 11.2576 12.7676 11.4169C12.7955 11.3916 12.8207 11.3634 12.8426 11.3328C12.8813 11.2759 12.9767 11.1054 12.9767 11.1054" fill="#808D9C"/>
<path d="M13.1773 10.9917C13.1511 10.9657 13.1315 10.9337 13.1205 10.8984C13.1119 10.9106 13.1001 10.9201 13.0863 10.9257C13.0704 10.9485 12.9749 11.1281 12.9749 11.1281C12.8999 11.2668 12.7908 11.5669 12.8408 11.6487C12.9269 11.5476 12.9946 11.4322 13.0409 11.3077L13.1773 10.9917Z" fill="#808D9C"/>
<path d="M13.2107 11.3738L13.354 10.9873C13.3329 11.0071 13.3061 11.0195 13.2774 11.0228C13.2487 11.026 13.2198 11.02 13.1948 11.0055C13.1948 11.0055 13.1016 11.2329 13.0493 11.3624C12.9814 11.5118 12.9563 11.6771 12.9765 11.8399C13.0099 11.8163 13.0372 11.7852 13.0561 11.749C13.0717 11.7227 13.0854 11.6953 13.097 11.6671L13.2107 11.3738Z" fill="#808D9C"/>
<path d="M13.2171 11.4238C13.1517 11.5691 13.1044 11.7218 13.0762 11.8785C13.0794 11.9745 13.0994 12.0692 13.1353 12.1582L13.3172 11.5693C13.3172 11.5693 13.2285 11.5693 13.2171 11.4329" fill="#808D9C"/>
<path d="M9.02727 7.5309H7.82227V10.0318C7.82227 10.3411 7.94959 10.4866 8.2156 10.4866H8.61348C8.7091 10.4919 8.80058 10.5274 8.87488 10.5878C8.94919 10.6482 9.00252 10.7305 9.02727 10.8231C9.04648 10.7279 9.09701 10.642 9.17077 10.579C9.24453 10.5159 9.33729 10.4794 9.43424 10.4752H9.83439C10.0981 10.4752 10.2277 10.3297 10.2277 10.0205V7.51953L9.02727 7.5309Z" fill="white"/>
<path d="M9.02727 7.5309H7.82227V10.0318C7.82227 10.3411 7.94959 10.4866 8.2156 10.4866H8.61348C8.7091 10.4919 8.80058 10.5274 8.87488 10.5878C8.94919 10.6482 9.00252 10.7305 9.02727 10.8231C9.04648 10.7279 9.09701 10.642 9.17077 10.579C9.24453 10.5159 9.33729 10.4794 9.43424 10.4752H9.83439C10.0981 10.4752 10.2277 10.3297 10.2277 10.0205V7.51953L9.02727 7.5309Z" stroke="white" stroke-width="0.00682077" stroke-miterlimit="10"/>
<path d="M8.53631 9.92523H8.47037C8.47037 9.8934 8.44536 9.88203 8.44309 9.84793C8.44309 9.72743 8.39535 9.77517 8.5113 9.55009C8.62043 9.47279 8.54313 9.46824 8.80459 9.32273C8.83642 9.34547 8.8296 9.41822 8.80459 9.4455C8.8105 9.45787 8.81507 9.47082 8.81823 9.48415C8.83742 9.49434 8.85816 9.50125 8.87962 9.50462C8.92964 9.54782 8.916 9.52735 9.05696 9.75471C9.05696 9.75471 9.05696 9.7388 9.05696 9.7297L9.08197 9.75244H9.06151C9.06151 9.76835 9.06151 9.79109 9.07515 9.79109C9.08879 9.79109 9.01831 9.79109 9.00467 9.81155C8.98517 9.81299 8.96673 9.82101 8.95238 9.83429C8.93191 9.83429 8.92282 9.83429 8.9069 9.8502C9.01149 9.807 8.59997 9.32046 8.52949 9.89795C8.52949 9.89795 8.52949 9.89795 8.50675 9.89795C8.48402 9.89795 8.53631 9.91159 8.53631 9.92978M9.11835 9.67286L9.01376 9.29772C9.02877 9.26965 9.03731 9.23858 9.03877 9.20678C9.06378 9.20678 9.09106 9.20678 9.11835 9.20678C9.13656 9.23371 9.1468 9.26523 9.1479 9.29772C9.16837 9.29772 9.12289 9.33182 9.1479 9.39321C9.18883 9.39321 9.15927 9.39321 9.23203 9.37502C9.29341 9.37502 9.26613 9.37502 9.34571 9.47506C9.36729 9.54194 9.39954 9.6049 9.4412 9.6615C9.40027 9.6615 9.4412 9.6615 9.40937 9.71833C9.40937 9.71833 9.40937 9.68196 9.44574 9.69333C9.44574 9.69333 9.44574 9.71379 9.44574 9.72288C9.44574 9.73198 9.44574 9.72288 9.41846 9.77063C9.41846 9.77063 9.41846 9.75926 9.41846 9.75244C9.41846 9.74562 9.41846 9.75244 9.45029 9.75244C9.45293 9.76595 9.45293 9.77985 9.45029 9.79336C9.45029 9.79336 9.42983 9.80473 9.42528 9.8161C9.4152 9.81351 9.40467 9.81319 9.39445 9.81516C9.38423 9.81712 9.37457 9.82133 9.36617 9.82747C9.36617 9.82747 9.36617 9.82747 9.39573 9.82747C9.42528 9.82747 9.39573 9.83883 9.39573 9.8502C9.39573 9.8502 9.37299 9.8502 9.3639 9.8502C9.3548 9.8502 9.3116 9.80473 9.27068 9.80928C9.22975 9.81383 9.27068 9.80928 9.22293 9.80928C9.23885 9.80928 9.22293 9.80928 9.25931 9.80928C9.29569 9.80928 9.28205 9.78882 9.30024 9.78654C9.30188 9.79249 9.30188 9.79878 9.30024 9.80473C9.30024 9.82747 9.36617 9.77517 9.28432 9.75017C9.23916 9.76926 9.19821 9.79707 9.16382 9.83201C9.16382 9.81383 9.17973 9.79109 9.16382 9.77517C9.1911 9.77517 9.1911 9.7297 9.22521 9.72516C9.25931 9.72061 9.22521 9.74334 9.22521 9.74789C9.25704 9.74789 9.22521 9.74789 9.24567 9.69105C9.23203 9.69105 9.24567 9.67968 9.2002 9.69105C9.15472 9.70242 9.17746 9.67514 9.14563 9.74789C9.13426 9.74789 9.16837 9.72288 9.12517 9.67741C9.12517 9.67741 9.10698 9.67741 9.09561 9.68878M8.56587 7.79488C8.54313 7.83125 8.55222 7.79488 8.57951 7.91083C8.56359 7.94039 8.53858 7.92902 8.54768 8.02678C8.49311 8.05634 8.193 8.00405 8.24302 8.19958C8.24302 8.19958 8.15207 8.29507 8.24302 8.34736C8.24302 8.37692 8.20664 8.39056 8.26575 8.43376C8.27047 8.44228 8.27739 8.44939 8.28578 8.45434C8.29418 8.45929 8.30375 8.46191 8.3135 8.46191C8.32324 8.46191 8.33281 8.45929 8.34121 8.45434C8.34961 8.44939 8.35652 8.44228 8.36124 8.43376C8.43172 8.40193 8.40671 8.62019 8.50903 8.4906C8.53447 8.49636 8.56088 8.49636 8.58633 8.4906L8.61588 8.51106C8.64317 8.4906 8.61588 8.48832 8.69319 8.51106C8.6993 8.50305 8.70723 8.4966 8.71632 8.49226C8.72541 8.48791 8.7354 8.48578 8.74548 8.48605L8.76821 8.57017H8.75003C8.75003 8.64065 8.79095 8.67476 8.79777 8.74069C8.69634 8.73856 8.59561 8.75793 8.5022 8.79753C8.42035 8.64293 8.08614 8.63838 8.1066 9.02489C8.10208 9.02923 8.09869 9.0346 8.09671 9.04054C8.09473 9.04648 8.09422 9.05281 8.09523 9.05899C8.10974 9.05407 8.12351 9.04718 8.13616 9.03853C8.12673 9.10565 8.12673 9.17376 8.13616 9.24088C8.16594 9.21652 8.18675 9.18291 8.19527 9.14539C8.20732 9.18388 8.20732 9.22513 8.19527 9.26362C8.21118 9.21815 8.29303 9.24088 8.32941 9.10219C8.32941 9.14766 8.34533 9.20223 8.31577 9.22951C8.326 9.22535 8.33528 9.21917 8.34305 9.21132C8.48402 9.31136 8.25211 8.70431 8.48174 8.85892C8.3908 8.99306 8.64089 9.28181 8.41808 9.52735C8.41074 9.63113 8.37364 9.73059 8.31122 9.81383C8.31122 9.81383 8.31122 9.81383 8.32259 9.81383C8.32259 9.81383 8.32259 9.81383 8.33396 9.81383C8.34533 9.81383 8.33396 9.81383 8.32259 9.88431C8.24529 9.94342 8.35669 9.65695 8.14298 9.65695C8.30668 9.69333 8.11569 10.1799 8.58405 10.0707V10.1003C8.56628 10.117 8.54544 10.1302 8.52267 10.1389C8.68182 10.1026 9.02968 10.4413 9.27068 10.1912C9.27068 10.1549 9.37072 10.2276 9.34571 10.0912C9.36162 10.0912 9.34571 10.0662 9.41164 10.0616H9.42756C9.42756 10.0616 9.44574 10.0616 9.47985 10.0616C9.51395 10.0616 9.47985 10.0935 9.58216 10.1117C9.59105 10.1004 9.59867 10.0882 9.6049 10.0753C9.69357 10.0389 9.86863 10.1162 9.88 9.94342C9.87247 9.95681 9.86412 9.96972 9.85499 9.98207C9.85499 9.98207 9.85499 9.98207 9.87545 9.96161C9.87545 9.9798 9.85726 10.0003 9.84817 10.0025C9.83908 10.0048 9.87545 9.94342 9.84817 9.91386C9.84954 9.93045 9.84566 9.94706 9.8371 9.96133C9.82853 9.97561 9.81571 9.98684 9.80043 9.99344C9.80043 9.99344 9.81179 9.94797 9.80043 9.93887C9.80069 9.94542 9.79939 9.95193 9.79662 9.95786C9.79385 9.9638 9.7897 9.96898 9.78451 9.97298C9.78451 9.97298 9.78451 9.94797 9.78451 9.94569C9.78241 9.95651 9.77753 9.9666 9.77035 9.97497C9.76318 9.98334 9.75396 9.98971 9.74359 9.99344C9.74359 9.99344 9.74359 9.99344 9.74359 9.97298C9.74359 9.95251 9.74359 9.98662 9.72312 9.98662C9.70266 9.98662 9.72312 9.96616 9.71175 9.96161C9.70039 9.95706 9.71175 9.97752 9.69811 9.98207C9.68447 9.98662 9.69811 9.96388 9.68675 9.95934C9.67538 9.95479 9.68675 9.95934 9.68675 9.97298C9.68155 9.95195 9.67141 9.93247 9.65719 9.91614C9.6731 9.91614 9.65719 9.8934 9.6731 9.88658C9.68902 9.87976 9.6731 9.88658 9.69357 9.88658C9.71403 9.88658 9.69357 9.87067 9.69357 9.86612C9.69357 9.86157 9.69357 9.86612 9.70721 9.86612C9.72085 9.86612 9.70721 9.85248 9.70721 9.84566C9.70721 9.83883 9.71858 9.84566 9.7254 9.83201C9.73259 9.83443 9.73906 9.83861 9.74422 9.84417C9.74938 9.84973 9.75307 9.85649 9.75495 9.86384C9.76058 9.84377 9.76058 9.82253 9.75495 9.80246C9.75495 9.80246 9.75495 9.80246 9.77087 9.80246C9.78678 9.80246 9.78906 9.83429 9.78678 9.84338C9.78451 9.85248 9.78678 9.81155 9.78678 9.79564C9.78678 9.77972 9.80042 9.8161 9.80952 9.82747C9.80952 9.75244 9.72085 9.7729 9.60944 9.86157C9.60944 9.84111 9.57761 9.83201 9.56624 9.80928C9.57499 9.79452 9.58114 9.77837 9.58443 9.76153C9.58443 9.76153 9.5617 9.76153 9.55715 9.74107C9.5593 9.73364 9.5593 9.72576 9.55715 9.71833C9.55715 9.71833 9.53669 9.71833 9.52759 9.71833C9.50265 9.56424 9.46617 9.41224 9.41846 9.26362C9.41846 9.26362 9.41846 9.29317 9.41846 9.26362L9.47303 9.28635C9.51168 9.29772 9.62991 9.14539 9.78906 9.11356C9.82089 9.14994 9.75268 9.2045 9.71858 9.31364C9.70493 9.31364 9.71858 9.33637 9.70493 9.35001C9.64127 9.35001 9.64809 9.28181 9.61854 9.4455C9.6822 9.4455 9.61854 9.4455 9.74586 9.42277C9.84362 9.35456 9.84817 9.27271 9.89592 9.03853C9.8027 8.92712 9.88 8.9726 9.55715 9.03853C9.58898 8.96123 9.54351 8.98851 9.49804 8.70886C9.52987 8.72478 9.52987 8.73387 9.59125 8.66566C9.57989 8.66566 9.61854 8.72705 9.66401 8.68385C9.66401 8.68385 9.66401 8.68385 9.67765 8.68385C9.69129 8.68385 9.67765 8.68385 9.70948 8.68385C9.7936 8.65202 9.82089 8.63838 9.74131 8.35418C9.74131 8.35418 9.75723 8.35418 9.75495 8.35418H9.7936C9.77996 8.3269 9.7936 8.28825 9.77542 8.26551L9.8027 8.23823C9.78125 8.22844 9.75806 8.22303 9.73449 8.22231C9.73449 8.22231 9.73449 8.21094 9.67538 8.20185C9.67538 8.18593 9.70039 8.17002 9.71175 8.15183C9.68681 8.14926 9.66167 8.14926 9.63673 8.15183C9.63673 8.15183 9.63673 8.15183 9.57761 8.13819C9.5185 8.12455 9.52305 8.08135 9.35025 8.13819C9.3603 8.13769 9.37028 8.13997 9.37911 8.14478C9.38793 8.1496 9.39526 8.15676 9.40027 8.16547C9.33206 8.16547 9.3548 8.13364 9.24567 8.20185C9.23633 8.20492 9.22791 8.21027 9.22116 8.21742C9.21441 8.22456 9.20955 8.23328 9.20702 8.24277H9.2343C9.22066 8.26096 9.14336 8.24277 9.13426 8.28143C9.16609 8.28143 9.15245 8.28143 9.20702 8.28143C9.16609 8.29734 9.20702 8.28143 9.11607 8.361C9.11103 8.32649 9.09763 8.29374 9.07702 8.2656C9.05641 8.23746 9.02923 8.21479 8.99785 8.19958C8.99785 8.19958 8.98421 8.19958 8.99785 8.1541C9.01149 8.1541 9.02058 8.16775 9.04559 8.14046C9.16382 8.22686 9.1911 7.79488 8.92282 7.94493C9.02286 7.83353 9.27523 8.09044 9.04787 8.13819L9.06605 8.12227C9.06605 8.12227 9.06605 8.08362 9.10016 8.0768C9.10139 8.06319 9.10139 8.04949 9.10016 8.03588C9.103 8.02983 9.10447 8.02323 9.10447 8.01655C9.10447 8.00987 9.103 8.00327 9.10016 7.99723C9.10016 8.00859 9.10016 8.02678 9.08652 8.0336C9.07288 8.04042 9.08652 7.99723 9.08652 7.99041C9.09108 8.0021 9.09108 8.01509 9.08652 8.02678C9.08652 8.02678 9.08652 8.01541 9.08652 8.00632C9.08652 7.99723 9.08652 8.01769 9.08652 8.02224C9.08652 8.02678 9.07288 8.00632 9.05923 8.00632C9.00694 8.00632 8.96829 8.07453 8.95692 8.12C8.95692 8.12 8.91145 8.12 8.92964 8.07225C8.91145 8.09272 8.87962 8.09954 8.92964 8.02224C8.90463 8.02224 8.89326 8.05861 8.87962 8.08135C8.87962 8.06316 8.84324 8.04497 8.90918 7.9995C8.88644 7.9995 8.90918 7.9995 8.86371 8.02678C8.8387 8.00405 8.87735 7.96312 8.97056 7.93357C8.97056 7.93357 8.97056 7.93357 8.91827 7.95175C8.88872 7.95175 8.80005 8.05407 8.89099 8.08362C8.89099 8.11318 8.92054 8.08362 8.87962 8.14046C8.808 8.08446 8.72495 8.04488 8.63635 8.02451V8.00177C8.64771 7.97676 8.65681 7.97904 8.61361 7.93129C8.61361 7.93129 8.61361 7.93129 8.58178 7.93129C8.54995 7.93129 8.63862 7.86081 8.5886 7.77441L8.56587 7.79488Z" fill="#808D9C"/>
<path d="M12.1622 11.1715C12.1326 11.1715 12.1258 11.2352 12.1804 11.2101C12.1804 11.192 12.1963 11.192 12.1622 11.1715ZM12.1622 11.2374C12.1622 11.2374 12.0712 11.1806 12.1622 11.1488C12.1644 11.126 12.2531 11.217 12.1622 11.2374ZM11.5892 10.0756C11.6142 10.0756 11.6142 10.0984 11.5892 10.0756C11.5597 10.1688 11.5642 10.0529 11.5892 10.0756ZM11.5892 10.1438C11.546 10.1688 11.5256 9.98241 11.6347 10.0961C11.6347 10.1211 11.637 10.0984 11.5892 10.1438ZM13.3103 11.5489L13.1193 12.1423C13.0841 12.0212 13.0734 11.8942 13.0878 11.7689C13.1023 11.6436 13.1416 11.5224 13.2035 11.4125C13.2148 11.558 13.3035 11.5489 13.3035 11.5489M13.0762 11.658C13.0504 11.7257 13.0082 11.7858 12.9534 11.8331C12.9079 11.6558 13.0307 11.317 13.1807 10.9942C13.2064 11.0082 13.2358 11.0138 13.2648 11.0101C13.2938 11.0064 13.3208 10.9937 13.3422 10.9737C13.2967 11.1101 13.1898 11.4011 13.0875 11.658H13.0762ZM13.0239 11.3079C12.9767 11.4324 12.9082 11.5478 12.8215 11.649C12.8299 11.3865 12.9161 11.1324 13.0693 10.9191C13.0787 10.9201 13.0882 10.9188 13.0969 10.9152C13.1057 10.9116 13.1134 10.906 13.1193 10.8987C13.1323 10.9298 13.1508 10.9583 13.1739 10.9828L13.0239 11.3079ZM12.8192 11.3193C12.7962 11.349 12.7703 11.3765 12.7419 11.4011C12.7538 11.2068 12.8191 11.0196 12.9306 10.86C12.9396 10.8618 12.9489 10.8618 12.9579 10.86C12.9579 10.86 12.9466 10.9169 13.0489 10.9305C12.9852 11.0351 12.9784 11.051 12.8215 11.3261M12.7624 11.0987C12.7301 11.14 12.6908 11.1754 12.6464 11.2033C12.6414 11.0589 12.6855 10.917 12.7715 10.8009L12.8079 10.7395C12.8079 10.7145 12.8079 10.8577 12.9147 10.8646C12.9147 10.8646 12.776 11.0919 12.7624 11.0919M12.792 10.735C12.7245 10.8572 12.6323 10.964 12.5214 11.0487C12.5119 10.9947 12.5147 10.9393 12.5297 10.8865C12.5447 10.8337 12.5714 10.785 12.6078 10.7441L12.676 10.6417C12.676 10.6417 12.6555 10.7372 12.792 10.735ZM12.4373 10.81C12.4214 10.71 12.5282 10.6008 12.601 10.544C12.6192 10.5644 12.576 10.5917 12.6919 10.6099C12.6904 10.6182 12.6904 10.6267 12.6919 10.6349C12.6763 10.6563 12.6596 10.6767 12.6419 10.6963C12.5868 10.7518 12.5176 10.7911 12.4418 10.81M12.6032 10.5303C12.5375 10.58 12.4582 10.6086 12.3759 10.6122C12.4129 10.535 12.4756 10.4731 12.5532 10.4371C12.5805 10.5053 12.6146 10.4985 12.6146 10.4985C12.6086 10.5082 12.6048 10.5191 12.6032 10.5303ZM13.4126 10.6554C13.474 10.7122 13.4718 10.8032 13.4877 10.8828C13.4649 11.0442 13.524 10.835 13.3285 11.5285C13.0443 11.4443 13.5741 11.1579 13.1307 10.8646C13.1307 10.8646 13.0466 10.9737 12.9875 10.8327C13.0057 10.8054 12.8465 10.9055 12.842 10.7145C12.8624 10.6872 12.6965 10.785 12.7101 10.5963C12.7397 10.5963 12.5691 10.6145 12.6396 10.4894C12.6396 10.4894 12.5782 10.4894 12.5691 10.4303L12.8101 10.3098C12.8101 10.3507 12.7715 10.7986 13.2103 10.569C13.2488 10.5654 13.2876 10.5716 13.323 10.5871C13.3584 10.6026 13.3892 10.6269 13.4126 10.6577M11.3869 8.73193L11.978 8.93428C11.978 8.93428 11.9189 9.00249 12.0303 9.09571C11.7893 8.96611 11.7302 9.15937 11.3869 8.73193ZM11.9826 9.26623C11.8194 9.23071 11.6687 9.15221 11.546 9.03887C11.7734 9.00022 12.1508 9.16164 12.4736 9.24122C12.3804 9.27532 12.3736 9.30715 12.3622 9.35944L11.9826 9.26623ZM11.6165 9.26623C11.8704 9.26902 12.1223 9.31278 12.3622 9.39582C12.3676 9.42842 12.38 9.45945 12.3986 9.48677C12.3854 9.48208 12.3709 9.48208 12.3577 9.48677C12.0949 9.47753 11.8393 9.3991 11.6165 9.25941M12.2099 9.62318C12.0532 9.60237 11.9028 9.54809 11.7688 9.46403C11.9599 9.45688 12.1512 9.46984 12.3395 9.50268C12.3395 9.50268 12.3077 9.5436 12.3395 9.61409L12.319 9.63455L12.2099 9.62318ZM12.2781 9.80052C12.1326 9.7984 11.9916 9.74981 11.8757 9.66183C11.9248 9.64182 11.9772 9.63103 12.0303 9.63C12.0485 9.63 12.31 9.64819 12.31 9.64819C12.31 9.64819 12.2531 9.73004 12.3486 9.80507L12.2781 9.80052ZM12.219 9.95967C12.1643 9.96359 12.1093 9.95566 12.0579 9.93644C12.0065 9.91721 11.9599 9.88714 11.9212 9.84827C12.057 9.80951 12.1993 9.79868 12.3395 9.81644C12.3236 9.84599 12.269 9.86873 12.3395 9.96422C12.3395 9.96422 12.2258 9.96422 12.2145 9.96422M12.0576 10.0734C12.0975 10.0385 12.1441 10.0121 12.1945 9.99566C12.2449 9.97925 12.2981 9.97319 12.3509 9.97786C12.3509 9.97786 12.3645 9.97786 12.3713 9.97786C12.3782 9.97786 12.3122 10.0051 12.3713 10.0893C12.2849 10.1143 12.1303 10.1347 12.0576 10.062M12.1804 10.2325C12.2122 10.1961 12.1576 10.2075 12.3804 10.0961C12.3901 10.1025 12.4009 10.1071 12.4123 10.1097C12.4123 10.1097 12.3895 10.1325 12.4282 10.1939C12.3526 10.2351 12.2649 10.2488 12.1804 10.2325ZM11.9826 9.01159C11.9826 9.01159 11.9826 8.95702 11.9826 8.93883C12.1954 9.00647 12.4022 9.09165 12.601 9.19347C12.5896 9.26168 12.8283 9.25713 12.6942 9.60045C12.6942 9.67775 12.2167 9.78461 12.6692 10.0734C12.5873 10.1165 12.4418 10.1802 12.4282 10.1939C12.3941 10.1597 12.4282 10.1029 12.4282 10.1029C12.4282 10.1029 12.2849 10.0847 12.385 9.98468C12.4282 9.99832 12.2258 9.89601 12.3668 9.80962C12.41 9.8278 12.2145 9.7073 12.3554 9.62318C12.3918 9.62318 12.2326 9.52996 12.4145 9.48677C12.3418 9.16619 12.5919 9.32761 11.978 9.01159M11.8598 12.1173L11.7143 12.4197L11.5278 12.331L11.6279 12.1241C11.7034 12.1329 11.7797 12.1329 11.8552 12.1241M11.9985 12.0787L11.9598 12.1582L11.8734 12.1196C11.9162 12.1097 11.9581 12.096 11.9985 12.0787ZM10.7776 12.281L11.0049 11.8263C11.104 11.9166 11.2149 11.9931 11.3346 12.0537L11.1436 12.4583L10.7776 12.281ZM10.698 12.638L10.2433 12.422C10.2887 12.4083 10.2751 12.422 10.4502 12.3242L10.7866 12.4811L10.698 12.638ZM8.76542 12.5902C8.67721 12.6224 8.58281 12.6341 8.48942 12.6242C8.39603 12.6144 8.30613 12.5833 8.22658 12.5334L8.95186 12.1742L9.07463 12.231C9.0189 12.3845 8.90891 12.5123 8.76542 12.5902ZM8.79953 12.0946L8.20157 12.397C8.22185 12.3071 8.26011 12.2224 8.31403 12.1477C8.36795 12.0731 8.43643 12.0102 8.51533 11.9627L8.79953 12.0946ZM9.7226 11.126C9.84379 11.0794 9.97577 11.0683 10.103 11.0941C10.2303 11.1198 10.3476 11.1814 10.4411 11.2715L9.44523 11.7785C9.47024 11.5285 9.53617 11.2079 9.7226 11.126ZM9.49525 11.9172L10.5366 11.4011C10.5775 11.8558 10.1887 12.4288 9.49525 11.9172ZM5.37095 10.7441H5.29592C5.32775 10.8623 4.90259 10.9987 5.01627 10.6281C4.96071 10.5623 4.92498 10.4821 4.91324 10.3967C4.90151 10.3114 4.91425 10.2245 4.94998 10.1461C4.98571 10.0678 5.04296 10.0012 5.11507 9.95406C5.18718 9.90696 5.27119 9.88131 5.35731 9.8801C5.37323 9.7596 5.72336 9.71412 5.64378 10.0211C5.69089 10.0824 5.72156 10.1548 5.73289 10.2314C5.74421 10.3079 5.73582 10.3861 5.7085 10.4585C5.68118 10.5309 5.63584 10.5951 5.57678 10.6451C5.51771 10.695 5.44687 10.7291 5.37095 10.7441ZM13.6218 9.73913C13.5831 9.68222 13.5293 9.63722 13.4664 9.60918C13.4035 9.58114 13.3341 9.57116 13.2659 9.58037C13.1976 9.58957 13.1333 9.6176 13.0802 9.6613C13.027 9.70501 12.987 9.76266 12.9647 9.8278C12.8579 9.91193 12.8329 9.98241 12.8397 10.037L10.7935 11.0806C10.5911 10.9078 10.9231 9.0616 11.4187 10.3485C11.4187 10.3121 11.4528 9.86191 11.5801 10.4098C11.5944 10.3372 11.6338 10.272 11.6915 10.2257C11.6915 9.25486 10.1114 9.48449 10.4479 10.9078C9.82264 10.5144 9.1724 10.9714 9.13602 11.7103C8.96154 11.6468 8.77373 11.6288 8.59036 11.658L6.23719 10.5622L6.11669 10.5099L6.28039 10.1688C6.25765 10.1688 6.21218 10.1416 6.10532 10.0893C6.09604 10.0474 6.07755 10.0081 6.0512 9.97433C6.02485 9.94051 5.99131 9.91298 5.95299 9.89374C5.97573 9.82553 5.98482 9.86418 5.8575 9.66638C5.92343 9.54133 5.74837 9.16392 5.46417 9.48222C5.35504 9.42765 5.46417 9.45721 5.23681 9.5527C5.14587 9.52996 4.92078 9.51632 4.79346 9.83008C4.79346 9.83008 4.44105 9.83008 4.62294 10.1939C4.52745 10.3416 4.47288 10.4439 4.68887 10.7077C4.66614 10.7736 4.65704 10.7395 4.78664 10.935C4.7207 11.0578 4.8935 11.433 5.17997 11.1169C5.28683 11.1715 5.17997 11.1419 5.40733 11.0464C5.44656 11.0644 5.48922 11.0737 5.53238 11.0737C5.57554 11.0737 5.61819 11.0644 5.65742 11.0464L5.83022 11.1283L5.98027 10.8123L8.20612 11.8422C8.0617 11.9864 7.96898 12.1742 7.94238 12.3765C7.68319 11.9763 6.45091 12.2833 6.80559 12.9563C6.85333 12.7289 7.18755 12.1651 7.83325 12.6016C5.53465 13.7384 7.13753 13.1541 7.90601 12.7039C7.8719 12.8926 7.85371 13.6702 7.01021 13.3564C7.17164 13.7816 8.23568 13.7134 8.14701 12.7994C8.79953 13.0427 9.01324 12.8858 9.33382 12.3674L11.421 13.3337C11.4096 13.3337 11.7848 13.3541 11.5551 13.0518C11.5551 13.0518 11.4733 13.0108 11.3278 12.9449L11.4028 12.788L11.7529 12.9494L12.1394 12.131L12.0326 12.0809C12.3168 12.0218 12.5691 11.1715 12.1053 11.0737C12.0339 11.0927 11.9581 11.0854 11.8916 11.0533C11.9303 11.1601 12.2167 11.4625 11.8461 11.2192C12.6169 12.2242 10.9594 11.7035 10.848 11.2533L12.9215 10.2257C12.9602 10.2643 13.0239 10.278 13.1603 10.2393C13.3308 10.2712 13.7241 10.2393 13.615 9.76187" fill="#FABC42"/>
</g>
<defs>
<clipPath id="clip0_125_6518">
<rect width="18" height="18" fill="white"/>
</clipPath>
</defs>
</svg>
