<svg width="32" height="33" viewBox="0 0 32 33" fill="none" xmlns="http://www.w3.org/2000/svg">
<rect x="0.512695" y="0.945312" width="31.2561" height="31.2561" rx="15.628" fill="#27C58B"/>
<path d="M16.4888 23.6655C20.3248 23.6655 23.4346 20.5558 23.4346 16.7197C23.4346 12.8837 20.3248 9.77393 16.4888 9.77393C12.6527 9.77393 9.54297 12.8837 9.54297 16.7197C9.54297 20.5558 12.6527 23.6655 16.4888 23.6655Z" stroke="white" stroke-width="1.04187" stroke-linecap="round" stroke-linejoin="round"/>
<path d="M9.54297 16.7202H23.4346" stroke="white" stroke-width="1.04187" stroke-linecap="round" stroke-linejoin="round"/>
<path d="M16.4893 23.6655C18.0237 23.6655 19.2676 20.5558 19.2676 16.7197C19.2676 12.8837 18.0237 9.77393 16.4893 9.77393C14.9548 9.77393 13.7109 12.8837 13.7109 16.7197C13.7109 20.5558 14.9548 23.6655 16.4893 23.6655Z" stroke="white" stroke-width="1.04187" stroke-linecap="round" stroke-linejoin="round"/>
<path d="M11.5771 11.9072C12.8341 13.1642 14.5705 13.9416 16.4885 13.9416C18.4066 13.9416 20.143 13.1642 21.4 11.9072" stroke="white" stroke-width="1.04187" stroke-linecap="round" stroke-linejoin="round"/>
<path d="M21.4 21.5324C20.143 20.2755 18.4066 19.498 16.4885 19.498C14.5705 19.498 12.8341 20.2755 11.5771 21.5324" stroke="white" stroke-width="1.04187" stroke-linecap="round" stroke-linejoin="round"/>
</svg>
