<svg width="49" height="45" viewBox="0 0 49 45" fill="none" xmlns="http://www.w3.org/2000/svg">
<path d="M48.75 5.625V31.875C48.75 33.3668 48.1574 34.7976 47.1025 35.8525C46.0476 36.9074 44.6168 37.5 43.125 37.5H5.625C4.13316 37.5 2.70242 36.9074 1.64752 35.8525C0.592632 34.7976 0 33.3668 0 31.875V5.625C0.00616961 4.13506 0.600783 2.7079 1.65434 1.65434C2.7079 0.600782 4.13506 0.00616961 5.625 0H43.125C44.6149 0.00616961 46.0421 0.600782 47.0957 1.65434C48.1492 2.7079 48.7438 4.13506 48.75 5.625ZM31.875 41.25H16.875C16.3777 41.25 15.9008 41.4475 15.5492 41.7992C15.1975 42.1508 15 42.6277 15 43.125C15 43.6223 15.1975 44.0992 15.5492 44.4508C15.9008 44.8025 16.3777 45 16.875 45H31.875C32.3723 45 32.8492 44.8025 33.2008 44.4508C33.5525 44.0992 33.75 43.6223 33.75 43.125C33.75 42.6277 33.5525 42.1508 33.2008 41.7992C32.8492 41.4475 32.3723 41.25 31.875 41.25Z" fill="black"/>
</svg>
