<svg width="21" height="21" viewBox="0 0 21 21" fill="none" xmlns="http://www.w3.org/2000/svg">
<path d="M9.71049 15.99C8.17112 15.9172 6.71895 15.2542 5.65562 14.1388C4.59229 13.0233 3.99954 11.5411 4.00049 10C4.00049 6.69 6.69049 4 10.0005 4C13.2205 4 15.8405 6.53 15.9905 9.71L13.8905 9.08C13.727 8.38678 13.3814 7.74979 12.8893 7.23488C12.3973 6.71996 11.7766 6.34581 11.0915 6.15108C10.4064 5.95636 9.68177 5.94814 8.99244 6.12728C8.3031 6.30641 7.67412 6.66639 7.1705 7.17001C6.66688 7.67363 6.30689 8.30262 6.12776 8.99195C5.94863 9.68128 5.95685 10.4059 6.15157 11.091C6.34629 11.7761 6.72045 12.3968 7.23536 12.8889C7.75028 13.3809 8.38727 13.7266 9.08049 13.89L9.71049 15.99ZM20.0005 10C20.0005 10.3 19.9905 10.6 19.9605 10.9L17.9905 10.31C18.0005 10.21 18.0005 10.1 18.0005 10C18.0005 5.58 14.4205 2 10.0005 2C5.58049 2 2.00049 5.58 2.00049 10C2.00049 14.42 5.58049 18 10.0005 18C10.1005 18 10.2105 18 10.3105 17.99L10.9005 19.96C10.6005 19.99 10.3005 20 10.0005 20C4.48049 20 0.000488281 15.52 0.000488281 10C0.000488281 4.48 4.48049 0 10.0005 0C15.5205 0 20.0005 4.48 20.0005 10ZM16.2305 14.26L18.5005 13.5C18.9605 13.35 18.9505 12.69 18.4905 12.55L10.8905 10.27C10.5105 10.16 10.1505 10.51 10.2705 10.89L12.5505 18.49C12.6905 18.96 13.3505 18.97 13.5005 18.5L14.2605 16.23L18.1705 20.14C18.3705 20.34 18.6805 20.34 18.8805 20.14L20.1505 18.87C20.3505 18.67 20.3505 18.36 20.1505 18.16L16.2305 14.26Z" fill="black"/>
<path d="M9.71049 15.99C8.17112 15.9172 6.71895 15.2542 5.65562 14.1388C4.59229 13.0233 3.99954 11.5411 4.00049 10C4.00049 6.69 6.69049 4 10.0005 4C13.2205 4 15.8405 6.53 15.9905 9.71L13.8905 9.08C13.727 8.38678 13.3814 7.74979 12.8893 7.23488C12.3973 6.71996 11.7766 6.34581 11.0915 6.15108C10.4064 5.95636 9.68177 5.94814 8.99244 6.12728C8.3031 6.30641 7.67412 6.66639 7.1705 7.17001C6.66688 7.67363 6.30689 8.30262 6.12776 8.99195C5.94863 9.68128 5.95685 10.4059 6.15157 11.091C6.34629 11.7761 6.72045 12.3968 7.23536 12.8889C7.75028 13.3809 8.38727 13.7266 9.08049 13.89L9.71049 15.99ZM20.0005 10C20.0005 10.3 19.9905 10.6 19.9605 10.9L17.9905 10.31C18.0005 10.21 18.0005 10.1 18.0005 10C18.0005 5.58 14.4205 2 10.0005 2C5.58049 2 2.00049 5.58 2.00049 10C2.00049 14.42 5.58049 18 10.0005 18C10.1005 18 10.2105 18 10.3105 17.99L10.9005 19.96C10.6005 19.99 10.3005 20 10.0005 20C4.48049 20 0.000488281 15.52 0.000488281 10C0.000488281 4.48 4.48049 0 10.0005 0C15.5205 0 20.0005 4.48 20.0005 10ZM16.2305 14.26L18.5005 13.5C18.9605 13.35 18.9505 12.69 18.4905 12.55L10.8905 10.27C10.5105 10.16 10.1505 10.51 10.2705 10.89L12.5505 18.49C12.6905 18.96 13.3505 18.97 13.5005 18.5L14.2605 16.23L18.1705 20.14C18.3705 20.34 18.6805 20.34 18.8805 20.14L20.1505 18.87C20.3505 18.67 20.3505 18.36 20.1505 18.16L16.2305 14.26Z" fill="url(#paint0_linear_42_1649)" fill-opacity="0.8"/>
<defs>
<linearGradient id="paint0_linear_42_1649" x1="-3.51297" y1="-1.17058" x2="23.0228" y2="20.3028" gradientUnits="userSpaceOnUse">
<stop stop-color="#EF2DDC"/>
<stop offset="1" stop-color="#7443FF"/>
</linearGradient>
</defs>
</svg>
