<svg width="72" height="72" viewBox="0 0 72 72" fill="none" xmlns="http://www.w3.org/2000/svg">
<path d="M59.7266 56.7139C59.7266 60.9006 56.3589 64.2768 52.2266 64.2768C48.0942 64.2768 44.7266 60.9006 44.7266 56.7139C44.7266 52.5273 48.0942 49.1511 52.2266 49.1511C56.3589 49.1511 59.7266 52.5273 59.7266 56.7139Z" stroke="#686868" stroke-width="3"/>
<path d="M59.7266 14.5496C59.7266 18.7363 56.3589 22.1125 52.2266 22.1125C48.0942 22.1125 44.7266 18.7363 44.7266 14.5496C44.7266 10.363 48.0942 6.98682 52.2266 6.98682C56.3589 6.98682 59.7266 10.363 59.7266 14.5496Z" stroke="#686868" stroke-width="3"/>
<path d="M25.7266 35.9924C25.7266 40.179 22.3589 43.5551 18.2266 43.5551C14.0942 43.5551 10.7266 40.179 10.7266 35.9924C10.7266 31.8058 14.0942 28.4297 18.2266 28.4297C22.3589 28.4297 25.7266 31.8058 25.7266 35.9924Z" stroke="#686868" stroke-width="3"/>
<rect width="26.5919" height="3.01405" transform="matrix(0.817272 -0.576251 0.570902 0.821018 23.4277 30.7598)" fill="#686868"/>
<rect width="26.1329" height="3.01406" transform="matrix(0.817273 0.576251 -0.570902 0.821018 25.5234 38.8843)" fill="#686868"/>
</svg>
